<svg width="158" height="158" viewBox="0 0 158 158" fill="none" xmlns="http://www.w3.org/2000/svg">
<g clip-path="url(#clip0)">
<rect width="158" height="158" rx="79" fill="#68DBF2"/>
<g clip-path="url(#clip1)">
<circle cx="44.4375" cy="91.3438" r="12.3438" fill="#F5D0C5"/>
<path d="M44.4375 101.219H86.4062V162.618C86.4062 162.618 77.4129 167.875 65.4219 167.875C53.4308 167.875 44.4375 159.29 44.4375 159.29V101.219Z" fill="#F5D0C5"/>
<path d="M86.4064 132.986C86.4064 146.944 77.7654 148.124 70.0709 145.623C62.3763 143.122 46.906 121.348 46.906 107.39C46.906 93.4315 48.8418 93.8125 60.2695 93.8125C92.5783 95.0469 86.4064 119.028 86.4064 132.986Z" fill="#EAC0B3"/>
<path d="M113.281 89.1199C113.281 111.147 103.684 135.781 87.6367 139.484C64.1836 137.016 43.0263 111.147 43.0263 89.1199C37.0312 62.9531 38.2655 32.0938 78.9999 32.0938C119.734 32.0937 113.281 67.0926 113.281 89.1199Z" fill="#F5D0C5"/>
<rect x="88.875" y="101.219" width="7.40625" height="4.9375" rx="2.46875" fill="#F5D0C5"/>
</g>
<g clip-path="url(#clip2)">
<rect x="17.2812" y="148.125" width="98.75" height="56.7812" rx="22.2188" fill="#E05A33"/>
</g>
<path fill-rule="evenodd" clip-rule="evenodd" d="M71.5072 64.684C85.3595 69.283 104.561 75.6579 124.672 55.5468C134.547 45.6718 90.1094 3.70308 54.3125 27.1562C26.3335 31.3012 27.9325 48.0661 29.1665 61.0044C29.4024 63.478 29.625 65.8117 29.625 67.8906C29.625 69.2061 29.797 70.1907 30.1196 70.8981C29.7227 73.9423 29.625 76.9886 29.625 79C29.625 84.4538 34.0462 88.875 39.5 88.875C44.9538 88.875 49.375 84.4538 49.375 79C54.8288 79 59.25 74.5788 59.25 69.125C59.25 68.2708 59.1415 67.442 58.9376 66.6514C59.0414 66.6547 59.1455 66.6563 59.25 66.6563C62.2711 66.6563 64.9754 65.2996 66.7868 63.1623C68.2791 63.6123 69.8551 64.1355 71.5072 64.684Z" fill="#D2499B"/>
<g clip-path="url(#clip3)">
<path d="M71.4175 113.563C71.4175 112.199 72.5228 111.094 73.8862 111.094H96.4577C97.8211 111.094 98.9264 112.199 98.9264 113.562C98.9264 120.38 93.3999 125.906 86.5827 125.906H83.7612C76.944 125.906 71.4175 120.38 71.4175 113.563Z" fill="#66253C"/>
<path fill-rule="evenodd" clip-rule="evenodd" d="M90.7381 125.189C89.4396 125.653 88.0406 125.906 86.5826 125.906H83.7612C77.1092 125.906 71.6861 120.644 71.4271 114.056C73.3133 113.35 76.1129 113.431 78.8764 113.512C79.7543 113.537 80.6286 113.563 81.4687 113.563C86.9226 113.563 91.3437 117.431 91.3437 122.203C91.3437 123.253 91.1298 124.259 90.7381 125.189Z" fill="#B03E67"/>
<path d="M74.0625 111.094H98.75V113.562C98.75 114.926 97.6447 116.031 96.2812 116.031H76.5313C75.1678 116.031 74.0625 114.926 74.0625 113.562V111.094Z" fill="white"/>
</g>
<g clip-path="url(#clip4)">
<rect x="74.0625" y="86.4062" width="7.40625" height="9.875" rx="3.70312" fill="#1B0B47"/>
<rect x="98.75" y="86.4062" width="7.40625" height="9.875" rx="3.70312" fill="#1B0B47"/>
<rect x="59.25" y="93.8125" width="12.3438" height="7.40625" rx="3.70312" fill="#FF859B"/>
<rect x="106.156" y="93.8125" width="9.875" height="7.40625" rx="3.70312" fill="#FF859B"/>
</g>
</g>
<defs>
<clipPath id="clip0">
<rect width="158" height="158" rx="79" fill="white"/>
</clipPath>
<clipPath id="clip1">
<rect width="158" height="158" fill="white"/>
</clipPath>
<clipPath id="clip2">
<rect width="158" height="158" fill="white"/>
</clipPath>
<clipPath id="clip3">
<rect width="158" height="158" fill="white" transform="translate(2.46875)"/>
</clipPath>
<clipPath id="clip4">
<rect y="-2.46875" width="158" height="158" rx="79" fill="white"/>
</clipPath>
</defs>
</svg>
