<svg width="26" height="26" viewBox="0 0 26 26" fill="none" xmlns="http://www.w3.org/2000/svg">
<path d="M26 13C26 16.4478 24.6304 19.7544 22.1924 22.1924C19.7544 24.6304 16.4478 26 13 26C9.55219 26 6.24558 24.6304 3.80761 22.1924C1.36964 19.7544 0 16.4478 0 13C0 9.55219 1.36964 6.24558 3.80761 3.80761C6.24558 1.36964 9.55219 0 13 0C16.4478 0 19.7544 1.36964 22.1924 3.80761C24.6304 6.24558 26 9.55219 26 13ZM19.5487 8.07625C19.4327 7.96058 19.2945 7.86951 19.1424 7.80848C18.9903 7.74744 18.8275 7.71771 18.6637 7.72104C18.4998 7.72438 18.3383 7.76072 18.1889 7.8279C18.0394 7.89507 17.905 7.9917 17.7937 8.112L12.1501 15.3026L8.749 11.8999C8.51797 11.6846 8.21239 11.5674 7.89665 11.573C7.58091 11.5785 7.27966 11.7064 7.05636 11.9297C6.83307 12.153 6.70516 12.4543 6.69959 12.77C6.69402 13.0858 6.81122 13.3913 7.0265 13.6224L11.3263 17.9237C11.4421 18.0394 11.58 18.1305 11.7318 18.1916C11.8836 18.2528 12.0462 18.2828 12.2098 18.2797C12.3735 18.2767 12.5348 18.2407 12.6843 18.174C12.8337 18.1072 12.9682 18.0111 13.0796 17.8913L19.5666 9.7825C19.7878 9.55256 19.9099 9.24507 19.9069 8.92606C19.9039 8.60704 19.7759 8.30194 19.5504 8.07625H19.5487Z" fill="#27AE60"/>
</svg>
