<svg width="155" height="155" viewBox="0 0 155 155" fill="none" xmlns="http://www.w3.org/2000/svg">
<g clip-path="url(#clip0)">
<path d="M151.974 77.5C151.974 118.63 118.63 151.974 77.5 151.974C36.3695 151.974 3.02734 118.63 3.02734 77.5C3.02734 36.3695 36.3695 3.02734 77.5 3.02734C118.63 3.02734 151.974 36.3695 151.974 77.5Z" fill="#489FB5"/>
<path d="M103.435 42.3367L67.3586 78.4129L51.5667 62.6211L34.4409 79.7468L50.2328 95.5387L67.3586 112.663L120.559 59.4624L103.435 42.3367Z" fill="white"/>
<path d="M67.3586 115.691C66.5556 115.691 65.7858 115.371 65.2181 114.804L32.3005 81.8873C31.1179 80.7047 31.1179 78.7878 32.3005 77.6052L49.4251 60.4806C50.6076 59.2981 52.5246 59.2981 53.7071 60.4806L67.3586 74.1321L101.293 40.1962C101.861 39.6286 102.632 39.3093 103.435 39.3093C104.237 39.3093 105.008 39.6286 105.575 40.1962L122.7 57.322C123.882 58.5034 123.882 60.4203 122.7 61.6029L69.499 114.805C68.9314 115.373 68.1615 115.691 67.3586 115.691ZM38.723 79.7468L67.3586 108.382L116.279 59.4624L103.435 46.6175L69.499 80.5533C68.3164 81.7359 66.3995 81.7359 65.2181 80.5533L51.5667 66.9019L38.723 79.7468Z" fill="#333333"/>
<path d="M77.4811 155C75.5038 155 73.5242 154.924 71.5411 154.773C53.124 153.361 35.7782 145.38 22.6992 132.302C8.06149 117.663 0 98.2018 0 77.5C0 56.7994 8.06149 37.3368 22.6992 22.6992C37.3368 8.06149 56.7994 0 77.5 0C98.2018 0 117.663 8.06149 132.302 22.6992C145.38 35.7782 153.361 53.124 154.773 71.5411C156.17 89.7584 151.096 107.917 140.489 122.672C139.513 124.03 137.621 124.339 136.264 123.363C134.906 122.387 134.597 120.495 135.573 119.138C156.076 90.6181 152.9 51.861 128.02 26.98C100.164 -0.876274 54.8375 -0.876274 26.9812 26.98C-0.876274 54.8375 -0.876274 100.163 26.9812 128.02C51.861 152.899 90.6193 156.076 119.139 135.572C120.497 134.596 122.387 134.906 123.364 136.264C124.34 137.621 124.03 139.512 122.672 140.489C109.522 149.942 93.6691 155 77.4811 155Z" fill="#333333"/>
<path d="M130.162 133.189C129.365 133.189 128.584 132.865 128.021 132.302C127.458 131.738 127.134 130.957 127.134 130.161C127.134 129.364 127.458 128.584 128.021 128.021C128.584 127.458 129.365 127.134 130.162 127.134C130.957 127.134 131.738 127.458 132.302 128.021C132.865 128.584 133.189 129.364 133.189 130.161C133.189 130.957 132.865 131.738 132.302 132.302C131.738 132.865 130.957 133.189 130.162 133.189Z" fill="#333333"/>
</g>
<defs>
<clipPath id="clip0">
<rect width="155" height="155" fill="white"/>
</clipPath>
</defs>
</svg>
