<svg width="628" height="471" viewBox="0 0 628 471" fill="none" xmlns="http://www.w3.org/2000/svg">
<path d="M89.6472 400.428C108.958 401.292 128.269 401.724 147.58 401.684C148.326 401.684 148.326 400.507 147.58 400.507C128.269 400.546 108.958 400.114 89.6472 399.251C88.9015 399.212 88.9015 400.389 89.6472 400.428Z" fill="#828282"/>
<path d="M148.758 371.226C151.78 382.57 154.606 393.991 157.196 405.452C157.353 406.198 158.492 405.884 158.335 405.138C155.705 393.677 152.918 382.256 149.896 370.912C149.7 370.206 148.561 370.52 148.758 371.226Z" fill="#828282"/>
<path d="M201.352 372.09C200.253 382.884 199.154 393.717 198.095 404.511C198.016 405.256 199.194 405.256 199.272 404.511C200.371 393.717 201.47 382.884 202.53 372.09C202.569 371.344 201.392 371.344 201.352 372.09Z" fill="#828282"/>
<path d="M157.51 406.512C164.379 407.729 171.326 408.279 178.313 408.082C184.985 407.886 192.286 407.376 198.644 405.256C199.351 405.021 199.037 403.883 198.33 404.118C192.011 406.198 184.907 406.709 178.313 406.905C171.444 407.101 164.575 406.552 157.824 405.374C157.079 405.217 156.765 406.355 157.51 406.512Z" fill="#828282"/>
<path d="M149.228 371.619C157.353 373.896 166.184 373.935 174.584 373.974C183.611 374.053 192.639 373.542 201.588 372.522C202.333 372.443 202.333 371.266 201.588 371.344C192.874 372.365 184.121 372.836 175.369 372.797C166.851 372.757 157.824 372.757 149.542 370.481C148.796 370.285 148.482 371.423 149.228 371.619Z" fill="#828282"/>
<path d="M145.853 367.576C145.931 368.322 146.01 369.107 146.088 369.853C146.128 370.324 146.128 370.913 146.324 371.344C146.795 372.365 148.365 372.012 149.268 372.012C150.013 372.012 150.013 370.834 149.268 370.834C148.836 370.834 148.404 370.834 147.933 370.834C147.344 370.834 147.344 370.716 147.305 370.128C147.227 369.264 147.148 368.44 147.07 367.576C146.952 366.831 145.774 366.791 145.853 367.576Z" fill="#828282"/>
<path d="M146.638 368.204C156.45 369.342 166.302 369.892 176.193 369.97C181.06 370.01 185.927 369.931 190.833 369.774C193.267 369.696 195.7 369.578 198.134 369.46C199.272 369.421 200.842 369.028 201.98 369.264C203.354 369.499 203.276 370.677 203.433 371.894C203.55 371.658 203.707 371.423 203.825 371.187C203.315 371.187 202.805 371.187 202.294 371.187C201.549 371.03 201.235 372.168 201.98 372.325C202.765 372.482 203.354 372.482 204.1 372.325C204.453 372.247 204.571 371.894 204.492 371.619C204.296 370.245 204.453 368.518 202.805 368.165C201.823 367.929 200.607 368.204 199.586 368.243C198.291 368.322 197.035 368.361 195.74 368.44C190.245 368.675 184.71 368.832 179.176 368.832C168.265 368.832 157.392 368.322 146.559 367.027C145.892 366.948 145.892 368.126 146.638 368.204Z" fill="#828282"/>
<path d="M155.155 396.739C158.295 400.86 161.985 404.432 166.145 407.494C166.773 407.925 167.362 406.905 166.734 406.473C162.73 403.529 159.159 400.075 156.136 396.111C155.705 395.522 154.684 396.111 155.155 396.739Z" fill="#828282"/>
<path d="M152.525 384.768C158.648 393.599 166.184 401.331 174.898 407.651C175.526 408.082 176.114 407.062 175.486 406.63C166.969 400.429 159.551 392.814 153.546 384.179C153.114 383.551 152.093 384.14 152.525 384.768Z" fill="#828282"/>
<path d="M150.131 374.249C160.729 386.809 172.504 398.544 186.555 407.258C187.183 407.65 187.811 406.63 187.144 406.237C173.171 397.602 161.475 385.945 150.956 373.424C150.485 372.836 149.66 373.699 150.131 374.249Z" fill="#828282"/>
<path d="M161.396 373.581C171.483 385.317 182.669 396.464 195.151 405.649C195.779 406.08 196.368 405.06 195.74 404.628C183.337 395.522 172.229 384.375 162.22 372.757C161.71 372.168 160.886 372.993 161.396 373.581Z" fill="#828282"/>
<path d="M174.27 374.406C181.1 382.766 188.95 390.223 197.663 396.621C198.291 397.053 198.88 396.032 198.252 395.601C189.617 389.281 181.845 381.863 175.094 373.581C174.623 372.993 173.799 373.817 174.27 374.406Z" fill="#828282"/>
<path d="M184.789 373.974C189.185 378.92 194.209 383.159 199.782 386.73C200.41 387.123 200.999 386.102 200.371 385.71C194.876 382.217 189.931 377.978 185.613 373.15C185.103 372.561 184.279 373.385 184.789 373.974Z" fill="#828282"/>
<path d="M130.467 309.29C133.018 314.667 134.745 320.319 135.726 326.207C135.766 326.481 136.04 326.639 136.276 326.639C136.511 326.639 137.767 326.599 137.846 326.992C137.885 327.149 137.1 328.051 137.022 328.248C136.786 328.876 136.786 329.622 137.022 330.25C137.336 330.995 137.924 331.505 138.631 331.78C138.866 331.898 139.141 331.937 139.416 331.976C139.651 332.016 139.887 332.016 140.122 331.976C140.436 331.937 140.397 331.977 140.044 332.134C139.651 332.722 139.102 332.801 138.945 333.664C138.827 334.488 139.22 335.274 139.534 335.98C140.829 338.728 141.575 341.632 142.634 344.497C146.285 354.231 153.271 362.278 161.16 368.911C161.749 369.382 162.573 368.557 161.985 368.086C153.86 361.257 146.638 352.897 143.223 342.653C142.791 341.318 142.399 339.984 141.928 338.688C141.535 337.55 140.79 336.372 140.436 335.234C140.044 334.606 140.083 333.9 140.593 333.193C140.75 333.076 140.907 332.958 141.064 332.84C141.182 332.644 141.418 332.526 141.535 332.29C141.692 331.859 141.575 331.466 141.261 331.152C140.75 330.642 139.965 330.917 139.298 330.72C136.747 329.975 138.827 328.248 139.023 326.992C139.298 325.343 137.257 325.54 136.158 325.461C136.354 325.618 136.551 325.736 136.708 325.893C135.726 319.927 133.921 314.157 131.33 308.701C131.173 307.995 130.153 308.584 130.467 309.29Z" fill="#828282"/>
<path d="M130.899 309.015C143.655 312.43 154.841 321.104 162.966 331.388C171.601 342.299 176.978 355.409 179.883 368.95C180.04 369.696 181.178 369.382 181.021 368.636C178.077 354.898 172.582 341.632 163.829 330.563C155.587 320.162 144.204 311.37 131.252 307.916C130.467 307.681 130.153 308.819 130.899 309.015Z" fill="#828282"/>
<path d="M135.53 313.882C151.152 329.072 163.202 347.716 170.62 368.244C170.895 368.95 172.033 368.636 171.758 367.93C164.261 347.245 152.133 328.405 136.355 313.058C135.844 312.509 134.981 313.333 135.53 313.882Z" fill="#828282"/>
<path d="M142.477 338.571C145.774 338.924 148.993 339.67 152.054 340.886C155.037 342.064 158.295 343.555 160.179 346.264C160.611 346.892 161.631 346.303 161.2 345.675C159.316 342.967 156.372 341.436 153.389 340.18C149.896 338.688 146.245 337.786 142.438 337.393C141.732 337.315 141.732 338.492 142.477 338.571Z" fill="#828282"/>
<path d="M148.326 317.062C148.286 321.575 149.032 326.011 150.484 330.289C150.72 330.995 151.858 330.681 151.623 329.975C150.21 325.814 149.503 321.497 149.503 317.062C149.503 316.316 148.326 316.316 148.326 317.062Z" fill="#828282"/>
<path d="M169.874 338.414C171.797 331.231 178.195 326.953 183.651 322.557C189.46 317.886 195.073 312.901 200.411 307.72C200.097 307.524 199.743 307.328 199.429 307.131C197.663 311.881 197.31 316.865 197.388 321.889C197.467 326.913 198.605 332.683 196.996 337.55C197.192 337.393 197.388 337.275 197.545 337.118C196.289 337.197 195.033 337.315 193.777 337.393C193.385 337.432 192.992 337.903 193.267 338.296C194.17 339.513 195.23 339.905 195.19 341.711C195.19 342.967 194.876 344.419 194.445 345.596C194.013 346.813 192.875 347.637 192.482 348.776C192.168 349.796 192.953 350.66 192.953 351.68C192.992 353.368 191.776 354.781 190.912 356.115C190.088 357.371 189.342 358.667 188.675 360.001C187.34 362.631 186.281 365.339 185.496 368.165C185.299 368.911 186.438 369.225 186.634 368.479C187.615 364.986 189.028 361.61 190.873 358.47C192.129 356.351 194.484 353.878 194.209 351.209C194.091 350.149 193.542 349.835 194.013 348.619C194.052 348.579 194.759 347.637 194.798 347.559C195.544 346.342 195.897 344.968 196.132 343.595C196.289 342.574 196.603 341.318 196.446 340.298C196.211 338.845 195.112 338.728 194.288 337.629C194.131 337.943 193.934 338.217 193.777 338.531C195.033 338.453 196.289 338.335 197.545 338.257C197.82 338.217 198.016 338.1 198.095 337.825C199.586 333.272 198.684 327.973 198.527 323.263C198.37 317.886 198.566 312.469 200.489 307.367C200.725 306.778 199.9 306.425 199.508 306.778C193.817 312.312 187.851 317.611 181.61 322.557C176.272 326.796 170.502 331.113 168.657 338.021C168.54 338.845 169.678 339.159 169.874 338.414Z" fill="#828282"/>
<path d="M196.053 312.822C192.207 319.534 188.282 326.167 184.592 332.958C181.138 339.238 178.077 345.753 176.625 352.779C176.468 353.525 177.606 353.839 177.763 353.093C179.254 345.91 182.434 339.316 185.966 332.918C189.577 326.364 193.384 319.927 197.074 313.411C197.427 312.783 196.407 312.155 196.053 312.822Z" fill="#828282"/>
<path d="M184.475 323.734C184.985 325.971 185.221 328.209 185.142 330.485C185.103 331.231 186.28 331.231 186.32 330.485C186.398 328.091 186.163 325.775 185.613 323.42C185.417 322.674 184.318 322.988 184.475 323.734Z" fill="#828282"/>
<path d="M190.873 316.237C191.304 317.925 191.383 319.574 191.187 321.261C191.108 322.007 192.286 322.007 192.364 321.261C192.6 319.456 192.482 317.69 192.011 315.923C191.815 315.217 190.676 315.531 190.873 316.237Z" fill="#828282"/>
<path d="M191.147 324.048C193.463 322.674 195.857 321.458 198.33 320.437C199.037 320.162 198.723 319.024 198.016 319.299C195.426 320.359 192.953 321.615 190.519 323.028C189.891 323.42 190.48 324.441 191.147 324.048Z" fill="#828282"/>
<path d="M181.021 343.752C182.512 342.496 184.004 341.279 185.535 340.101C187.144 338.845 188.91 337.158 190.873 336.373C191.579 336.098 191.265 334.96 190.559 335.234C188.792 335.902 187.34 337.197 185.849 338.374C183.925 339.866 182.041 341.357 180.197 342.927C179.608 343.398 180.432 344.223 181.021 343.752Z" fill="#828282"/>
<path d="M135.57 321.732C138.317 322.007 141.065 322.282 143.812 322.517C144.558 322.596 144.558 321.418 143.812 321.34C141.065 321.065 138.317 320.79 135.57 320.555C134.824 320.476 134.824 321.654 135.57 321.732Z" fill="#828282"/>
<path d="M207.593 400.036C256.773 400.036 305.914 400.036 355.095 400.036C368.95 400.036 382.805 400.036 396.66 400.036C397.406 400.036 397.406 398.859 396.66 398.859C347.48 398.859 298.339 398.859 249.159 398.859C235.304 398.859 221.448 398.859 207.593 398.859C206.808 398.859 206.808 400.036 207.593 400.036Z" fill="#828282"/>
<path d="M373.935 303.874C373.935 309.604 373.935 315.335 373.935 321.065C373.935 321.811 375.112 321.811 375.112 321.065C375.112 315.335 375.112 309.604 375.112 303.874C375.112 303.128 373.935 303.128 373.935 303.874Z" fill="#828282"/>
<path d="M346.852 323.695C365.889 323.695 384.925 323.695 403.961 323.695C404.707 323.695 404.707 322.517 403.961 322.517C384.925 322.517 365.889 322.517 346.852 322.517C346.107 322.517 346.067 323.695 346.852 323.695Z" fill="#828282"/>
<path d="M359.647 324.009C359.647 328.954 359.647 333.9 359.647 338.884C359.647 339.63 360.825 339.63 360.825 338.884C360.825 333.939 360.825 328.993 360.825 324.009C360.825 323.224 359.647 323.224 359.647 324.009Z" fill="#828282"/>
<path d="M389.085 323.695C389.085 328.052 389.085 332.448 389.085 336.804C389.085 337.55 390.262 337.55 390.262 336.804C390.262 332.448 390.262 328.052 390.262 323.695C390.262 322.949 389.085 322.949 389.085 323.695Z" fill="#828282"/>
<path d="M370.442 340.023C385.003 340.023 399.565 340.023 414.127 340.023C414.873 340.023 414.873 338.845 414.127 338.845C399.565 338.845 385.003 338.845 370.442 338.845C369.696 338.845 369.696 340.023 370.442 340.023Z" fill="#828282"/>
<path d="M337.511 411.419C369.657 411.419 401.802 411.419 433.948 411.419C434.694 411.419 434.694 410.241 433.948 410.241C401.802 410.241 369.657 410.241 337.511 410.241C336.765 410.241 336.765 411.419 337.511 411.419Z" fill="#828282"/>
<path d="M470.45 401.253C502.007 401.253 533.604 401.253 565.161 401.253C574.031 401.253 582.902 401.253 591.772 401.253C592.518 401.253 592.518 400.075 591.772 400.075C560.215 400.075 528.619 400.075 497.062 400.075C488.191 400.075 479.321 400.075 470.45 400.075C469.705 400.075 469.705 401.253 470.45 401.253Z" fill="#828282"/>
<path d="M79.1672 421.349C111.509 421.349 143.89 421.349 176.232 421.349C176.978 421.349 176.978 420.171 176.232 420.171C143.89 420.171 111.509 420.171 79.1672 420.171C78.4215 420.171 78.4215 421.349 79.1672 421.349Z" fill="#828282"/>
<path d="M144.401 433.124C170.816 433.124 197.231 433.124 223.647 433.124C224.392 433.124 224.392 431.946 223.647 431.946C197.231 431.946 170.816 431.946 144.401 431.946C143.616 431.946 143.616 433.124 144.401 433.124Z" fill="#828282"/>
<path d="M545.968 97.5364C545.968 86.5856 545.968 75.6741 545.968 64.7234C545.968 63.9776 544.79 63.9776 544.79 64.7234C544.79 75.6741 544.79 86.5856 544.79 97.5364C544.79 98.2821 545.968 98.2821 545.968 97.5364Z" fill="#828282"/>
<path d="M545.771 64.4878C559.94 64.4878 574.11 64.4878 588.279 64.4878C589.025 64.4878 589.025 63.3103 588.279 63.3103C574.11 63.3103 559.94 63.3103 545.771 63.3103C545.025 63.3103 545.025 64.4878 545.771 64.4878Z" fill="#828282"/>
<path d="M587.69 63.9775C587.612 75.0853 587.533 86.193 587.416 97.3008C587.416 98.0465 588.593 98.0465 588.593 97.3008C588.672 86.193 588.75 75.0853 588.868 63.9775C588.868 63.2318 587.69 63.2318 587.69 63.9775Z" fill="#828282"/>
<path d="M545.968 98.125C559.941 98.125 573.914 98.125 587.887 98.125C588.632 98.125 588.632 96.9475 587.887 96.9475C573.914 96.9475 559.941 96.9475 545.968 96.9475C545.222 96.9475 545.222 98.125 545.968 98.125Z" fill="#828282"/>
<path d="M547.105 66.9997C547.105 76.2235 547.105 85.408 547.105 94.6317C547.105 95.3775 548.283 95.3775 548.283 94.6317C548.283 85.408 548.283 76.2235 548.283 66.9997C548.283 66.254 547.105 66.254 547.105 66.9997Z" fill="#828282"/>
<path d="M547.969 67.5886C560.372 67.5886 572.736 67.5886 585.139 67.5886C585.885 67.5886 585.885 66.4111 585.139 66.4111C572.736 66.4111 560.372 66.4111 547.969 66.4111C547.184 66.4111 547.184 67.5886 547.969 67.5886Z" fill="#828282"/>
<path d="M584.511 67.2746C584.472 76.3021 584.432 85.3296 584.393 94.3964C584.393 95.1421 585.571 95.1421 585.571 94.3964C585.61 85.3689 585.649 76.3414 585.688 67.2746C585.688 66.5289 584.511 66.5289 584.511 67.2746Z" fill="#828282"/>
<path d="M548.205 95.3775C560.412 95.3775 572.618 95.3775 584.825 95.3775C585.571 95.3775 585.571 94.2 584.825 94.2C572.618 94.2 560.412 94.2 548.205 94.2C547.459 94.2 547.459 95.3775 548.205 95.3775Z" fill="#828282"/>
<path d="M547.969 87.2529C552.483 85.6829 557.232 87.0959 561.628 88.3911C566.103 89.6864 570.499 91.2564 574.777 93.0619C575.483 93.3366 575.797 92.1984 575.091 91.9236C570.342 89.9219 565.475 88.2341 560.529 86.8604C556.329 85.7221 551.894 84.6231 547.655 86.1146C546.949 86.3501 547.263 87.4884 547.969 87.2529Z" fill="#828282"/>
<path d="M562.884 88.5872C570.302 88.1555 577.25 85.1725 584.589 84.3482C585.335 84.2697 585.335 83.0922 584.589 83.1707C577.25 83.995 570.302 86.9387 562.884 87.4097C562.099 87.4882 562.099 88.6657 562.884 88.5872Z" fill="#828282"/>
<path d="M576.936 74.2218C575.287 73.2798 576.779 70.179 578.545 70.9248C579.487 71.3173 579.683 72.4555 579.173 73.2798C578.624 74.1825 577.485 74.3396 576.543 74.0648C575.798 73.8685 575.484 75.0068 576.229 75.2031C577.799 75.6348 579.566 75.1638 580.351 73.6331C581.057 72.2593 580.508 70.4538 579.016 69.8258C575.955 68.5305 573.443 73.633 576.347 75.2423C576.975 75.5956 577.603 74.5751 576.936 74.2218Z" fill="#828282"/>
<path d="M564.925 63.7028C564.965 63.0355 565.004 62.3683 565.2 61.7403C565.357 61.23 565.75 60.0133 566.338 59.7778C567.398 59.3853 567.791 63.114 567.869 63.8205C567.948 64.5663 569.125 64.5663 569.047 63.8205C568.929 62.4468 568.615 58.1293 566.417 58.4433C565.475 58.561 564.808 59.6208 564.454 60.4058C563.983 61.4263 563.826 62.5645 563.787 63.6635C563.748 64.4485 564.925 64.4485 564.925 63.7028Z" fill="#828282"/>
<path d="M571.519 246.804C571.519 251.514 571.519 256.263 571.519 260.973C571.519 261.719 572.697 261.719 572.697 260.973C572.697 256.263 572.697 251.514 572.697 246.804C572.697 246.058 571.519 246.058 571.519 246.804Z" fill="#828282"/>
<path d="M557.272 262.7C567.948 262.7 578.663 262.7 589.339 262.7C590.085 262.7 590.085 261.523 589.339 261.523C578.663 261.523 567.948 261.523 557.272 261.523C556.526 261.523 556.526 262.7 557.272 262.7Z" fill="#828282"/>
<path d="M561.785 263.053C561.785 265.291 561.785 267.489 561.785 269.726C561.785 270.472 562.963 270.472 562.963 269.726C562.963 267.489 562.963 265.291 562.963 263.053C562.963 262.308 561.785 262.308 561.785 263.053Z" fill="#828282"/>
<path d="M578.938 263.407C578.938 266.037 578.938 268.706 578.938 271.335C578.938 272.081 580.115 272.081 580.115 271.335C580.115 268.706 580.115 266.037 580.115 263.407C580.115 262.622 578.938 262.622 578.938 263.407Z" fill="#828282"/>
<path d="M570.616 272.866C578.035 272.866 585.453 272.866 592.871 272.866C593.617 272.866 593.617 271.688 592.871 271.688C585.453 271.688 578.035 271.688 570.616 271.688C569.871 271.688 569.871 272.866 570.616 272.866Z" fill="#828282"/>
<path d="M408.71 266.39C310.311 273.494 211.911 280.559 113.55 287.663C110.881 216.307 108.212 144.95 105.583 73.5938C204.414 72.2593 303.246 70.9248 402.077 69.5903C404.275 135.177 406.473 200.764 408.71 266.39Z" fill="white" stroke="#161616" stroke-width="1.37375" stroke-miterlimit="10"/>
<path d="M189.185 108.33C208.261 108.33 227.376 108.33 246.451 108.33C247.197 108.33 247.197 107.153 246.451 107.153C227.376 107.153 208.261 107.153 189.185 107.153C188.44 107.153 188.44 108.33 189.185 108.33Z" fill="#161616"/>
<path d="M210.616 113.158C230.28 113.158 249.944 113.158 269.608 113.158C270.354 113.158 270.354 111.98 269.608 111.98C249.944 111.98 230.28 111.98 210.616 111.98C209.831 111.98 209.831 113.158 210.616 113.158Z" fill="#161616"/>
<path d="M117.515 228.317C118.221 244.724 118.928 261.17 119.634 277.576C119.673 278.322 120.851 278.322 120.812 277.576C120.105 261.17 119.399 244.724 118.692 228.317C118.653 227.572 117.475 227.572 117.515 228.317Z" fill="#161616"/>
<path d="M203.982 218.74C205.67 218.74 207.358 218.74 209.085 218.74C209.83 218.74 209.83 217.563 209.085 217.563C207.397 217.563 205.709 217.563 203.982 217.563C203.236 217.563 203.236 218.74 203.982 218.74Z" fill="#161616"/>
<path d="M213.52 218.74C217.877 218.74 222.195 218.74 226.551 218.74C227.297 218.74 227.297 217.563 226.551 217.563C222.195 217.563 217.877 217.563 213.52 217.563C212.774 217.563 212.774 218.74 213.52 218.74Z" fill="#161616"/>
<path d="M236.403 218.112C241.584 218.112 246.765 218.112 251.985 218.112C252.731 218.112 252.731 216.935 251.985 216.935C246.804 216.935 241.623 216.935 236.403 216.935C235.657 216.935 235.657 218.112 236.403 218.112Z" fill="#161616"/>
<path d="M211.008 226.983C217.367 226.983 223.725 226.983 230.084 226.983C230.829 226.983 230.829 225.805 230.084 225.805C223.725 225.805 217.367 225.805 211.008 225.805C210.223 225.805 210.223 226.983 211.008 226.983Z" fill="#161616"/>
<path d="M220.193 222.548C227.611 222.548 235.029 222.548 242.447 222.548C243.193 222.548 243.193 221.37 242.447 221.37C235.029 221.37 227.611 221.37 220.193 221.37C219.447 221.37 219.447 222.548 220.193 222.548Z" fill="#161616"/>
<path d="M259.599 264.506C272.081 264.506 284.602 264.506 297.083 264.506C297.829 264.506 297.829 263.328 297.083 263.328C284.602 263.328 272.081 263.328 259.599 263.328C258.854 263.328 258.854 264.506 259.599 264.506Z" fill="#161616"/>
<path d="M290.411 267.685C296.966 267.685 303.56 267.685 310.114 267.685C310.86 267.685 310.86 266.508 310.114 266.508C303.56 266.508 296.966 266.508 290.411 266.508C289.665 266.508 289.665 267.685 290.411 267.685Z" fill="#161616"/>
<path d="M307.563 262.896C314.039 262.896 320.476 262.896 326.952 262.896C327.698 262.896 327.698 261.719 326.952 261.719C320.476 261.719 314.039 261.719 307.563 261.719C306.817 261.719 306.817 262.896 307.563 262.896Z" fill="#161616"/>
<path d="M340.612 156.49C352.583 156.49 364.554 156.49 376.525 156.49C377.271 156.49 377.271 155.312 376.525 155.312C364.554 155.312 352.583 155.312 340.612 155.312C339.866 155.312 339.866 156.49 340.612 156.49Z" fill="#161616"/>
<path d="M329.504 158.374C333.311 158.374 337.118 158.374 340.926 158.374C341.671 158.374 341.671 157.196 340.926 157.196C337.118 157.196 333.311 157.196 329.504 157.196C328.719 157.196 328.719 158.374 329.504 158.374Z" fill="#161616"/>
<path d="M331.702 161.553C344.497 161.553 357.332 161.553 370.128 161.553C370.873 161.553 370.873 160.375 370.128 160.375C357.332 160.375 344.497 160.375 331.702 160.375C330.956 160.375 330.956 161.553 331.702 161.553Z" fill="#161616"/>
<path d="M379.077 158.688C381.51 158.688 383.944 158.688 386.377 158.688C387.123 158.688 387.123 157.51 386.377 157.51C383.944 157.51 381.51 157.51 379.077 157.51C378.292 157.51 378.292 158.688 379.077 158.688Z" fill="#161616"/>
<path d="M369.539 206.651C373.15 206.651 376.722 206.651 380.333 206.651C381.078 206.651 381.078 205.474 380.333 205.474C376.722 205.474 373.15 205.474 369.539 205.474C368.754 205.474 368.754 206.651 369.539 206.651Z" fill="#161616"/>
<path d="M362.552 209.831C366.477 209.831 370.402 209.831 374.288 209.831C375.034 209.831 375.034 208.653 374.288 208.653C370.363 208.653 366.438 208.653 362.552 208.653C361.767 208.653 361.767 209.831 362.552 209.831Z" fill="#161616"/>
<path d="M368.243 213.01C375.976 213.01 383.708 213.01 391.44 213.01C392.186 213.01 392.186 211.832 391.44 211.832C383.708 211.832 375.976 211.832 368.243 211.832C367.498 211.832 367.498 213.01 368.243 213.01Z" fill="#161616"/>
<path d="M382.884 209.202C385.199 209.202 387.554 209.202 389.87 209.202C390.616 209.202 390.616 208.025 389.87 208.025C387.554 208.025 385.199 208.025 382.884 208.025C382.099 208.025 382.099 209.202 382.884 209.202Z" fill="#161616"/>
<path d="M221.213 160.258C226.708 160.258 232.164 160.258 237.659 160.258C238.405 160.258 238.405 159.08 237.659 159.08C232.164 159.08 226.708 159.08 221.213 159.08C220.467 159.08 220.467 160.258 221.213 160.258Z" fill="#161616"/>
<path d="M233.184 163.633C241.27 163.633 249.395 163.633 257.48 163.633C258.226 163.633 258.226 162.456 257.48 162.456C249.395 162.456 241.27 162.456 233.184 162.456C232.439 162.456 232.399 163.633 233.184 163.633Z" fill="#161616"/>
<path d="M254.497 159.12C259.089 159.12 263.721 159.12 268.313 159.12C269.059 159.12 269.059 157.942 268.313 157.942C263.721 157.942 259.089 157.942 254.497 157.942C253.751 157.942 253.751 159.12 254.497 159.12Z" fill="#161616"/>
<path d="M114.021 96.4765C114.885 126.267 115.748 156.097 116.612 185.888C116.847 194.366 117.083 202.805 117.358 211.283C117.397 212.029 118.574 212.029 118.535 211.283C117.672 181.492 116.808 151.662 115.945 121.871C115.709 113.393 115.474 104.955 115.199 96.4765C115.199 95.7308 114.021 95.7308 114.021 96.4765Z" fill="#161616"/>
<path d="M399.33 193.856C399.918 213.559 400.507 233.223 401.096 252.927C401.135 253.673 402.313 253.673 402.273 252.927C401.685 233.223 401.096 213.559 400.507 193.856C400.507 193.11 399.33 193.11 399.33 193.856Z" fill="#161616"/>
<path d="M318.042 184.828C318.278 187.222 318.513 189.656 318.71 192.05C320.986 191.461 323.223 190.833 325.5 190.244C325.186 187.85 324.911 185.417 324.597 183.022C322.399 183.611 320.24 184.239 318.042 184.828Z" fill="#FFA62B"/>
<path d="M316.669 203.158C319.024 202.844 321.34 202.569 323.695 202.255C324.009 205.12 324.283 207.986 324.597 210.851C322.478 210.929 320.358 211.008 318.278 211.086C317.729 208.417 317.218 205.788 316.669 203.158Z" fill="#FFA62B"/>
<path d="M325.265 220.546C326.01 223.018 326.756 225.53 327.541 228.003C329.661 227.022 331.78 226.041 333.86 225.059C333.193 222.861 332.487 220.703 331.819 218.505C329.661 219.211 327.463 219.878 325.265 220.546Z" fill="#FFA62B"/>
<path d="M170.109 243.939C170.62 251.553 171.13 259.168 171.64 266.743C184.985 265.879 198.33 265.055 211.675 264.192C211.911 257.362 212.185 250.493 212.421 243.664C198.33 243.782 184.2 243.86 170.109 243.939Z" fill="#489FB5"/>
<path d="M336.019 89.019C337.558 89.019 338.805 87.9822 338.805 86.7032C338.805 85.4242 337.558 84.3875 336.019 84.3875C334.48 84.3875 333.232 85.4242 333.232 86.7032C333.232 87.9822 334.48 89.019 336.019 89.019Z" fill="#489FB5"/>
<path d="M146.638 106.367C147.916 106.367 148.953 105.682 148.953 104.837C148.953 103.991 147.916 103.306 146.638 103.306C145.359 103.306 144.322 103.991 144.322 104.837C144.322 105.682 145.359 106.367 146.638 106.367Z" fill="#FFA62B"/>
<path d="M183.493 150.759C184.491 150.759 185.299 149.81 185.299 148.64C185.299 147.469 184.491 146.52 183.493 146.52C182.496 146.52 181.688 147.469 181.688 148.64C181.688 149.81 182.496 150.759 183.493 150.759Z" fill="#FFA62B"/>
<path opacity="0.21" d="M166.93 97.8893C167.636 97.7715 169.01 104.326 172.386 116.219C176.821 131.88 181.217 144.518 184.396 153.153C179.568 156.136 168.775 161.828 154.056 162.024C143.655 162.142 135.451 159.473 130.584 157.432C140.122 158.491 147.815 158.217 153.192 157.706C161.71 156.921 160.218 156.019 166.655 155.705C169.324 155.587 172.817 155.587 176.389 153.428C177.684 152.643 178.626 151.78 179.254 151.152C176.742 145.971 173.524 138.356 170.933 128.818C166.812 113.315 165.909 98.0855 166.93 97.8893Z" fill="#6D6C6C"/>
<path opacity="0.25" d="M203.707 140.476C204.335 145.46 205.474 151.034 207.358 157C212.735 173.956 221.802 186.045 228.631 193.502C224.549 196.525 219.486 199.665 213.402 202.294C194.955 210.262 177.724 209.085 168.5 207.672C168.147 205.591 167.794 203.511 167.44 201.431C171.365 201.549 175.526 201.47 179.883 201.235C195.426 200.253 208.771 196.76 219.407 192.874C216.032 187.144 213.598 182.198 211.911 178.47C207.829 169.56 204.806 162.848 203.747 153.781C203.079 148.247 203.354 143.576 203.707 140.476Z" fill="#6D6C6C"/>
<path opacity="0.14" d="M328.483 166.459C328.876 175.408 329.818 182.826 330.642 188.164C332.565 200.41 333.978 208.888 339.002 218.426C342.142 224.353 345.675 228.709 348.226 231.535C343.791 235.343 337.825 239.66 330.171 243.114C310.938 251.867 292.883 250.101 284.445 248.688C284.013 246.764 283.581 244.841 283.149 242.879C284.209 242.957 285.858 243.036 287.859 243.075C294.532 243.232 308.426 243.467 324.362 238.129C328.836 236.638 335.116 234.126 342.181 229.965C339.395 226.237 336.647 221.801 334.253 216.66C324.794 196.367 326.678 176.664 328.483 166.459Z" fill="#6D6C6C"/>
<path opacity="0.18" d="M358.548 78.4214C359.333 82.0716 360.471 87.6451 361.61 94.5924C363.729 108.016 363.572 112.883 366.045 120.811C367.34 124.933 369.656 130.781 374.013 137.453C370.362 140.436 365.809 143.537 360.197 146.128C341.828 154.645 324.244 152.251 316.158 150.563C316.237 148.993 316.315 147.423 316.394 145.892C317.414 146.167 318.945 146.52 320.829 146.834C323.302 147.227 332.447 148.561 349.638 144.244C354.388 143.066 360.785 141.182 368.125 138.16C366.712 135.648 364.632 131.723 362.748 126.699C357.253 112.137 357.292 99.4986 357.371 92.9831C357.41 89.4114 357.645 84.4266 358.548 78.4214Z" fill="#6D6C6C"/>
<path d="M123.912 95.6521C120.026 116.219 123.951 137.022 127.876 157.275C128.033 158.02 129.171 157.706 129.014 156.961C125.129 136.943 121.243 116.337 125.05 95.9661C125.168 95.2596 124.03 94.9064 123.912 95.6521Z" fill="#161616"/>
<path d="M125.011 95.495C130.624 99.263 137.414 99.9303 144.047 99.4593C151.623 98.9098 159.119 97.3005 166.616 96.0445C167.362 95.9268 167.048 94.7885 166.302 94.9063C159.119 96.0838 151.937 97.6145 144.675 98.2033C138.042 98.7528 131.252 98.2425 125.6 94.4353C124.972 94.0428 124.383 95.0633 125.011 95.495Z" fill="#161616"/>
<path d="M165.831 96.8689C166.93 115.63 169.756 134.784 179.255 151.269C179.647 151.937 180.668 151.348 180.275 150.681C170.894 134.353 168.108 115.395 167.009 96.8689C166.969 96.1231 165.792 96.1231 165.831 96.8689Z" fill="#161616"/>
<path d="M128.858 157.589C137.767 160.179 147.344 158.609 156.411 157.863C164.457 157.196 173.092 156.882 180 152.172C180.628 151.74 180.04 150.72 179.412 151.152C172.464 155.901 163.751 156.058 155.665 156.725C146.952 157.432 137.767 158.884 129.172 156.411C128.426 156.254 128.112 157.392 128.858 157.589Z" fill="#161616"/>
<path d="M143.93 105.072C143.145 104.719 144.008 103.973 144.479 103.855C145.068 103.698 146.206 103.62 146.481 104.287C146.677 104.797 146.363 105.464 145.892 105.661C145.146 106.014 144.322 105.582 143.812 105.072C143.262 104.522 142.438 105.347 142.988 105.896C143.969 106.877 145.578 107.388 146.795 106.485C147.776 105.778 148.129 104.208 147.305 103.266C146.363 102.207 144.361 102.324 143.302 103.109C142.36 103.816 142.163 105.504 143.38 106.053C144.047 106.406 144.636 105.386 143.93 105.072Z" fill="#161616"/>
<path d="M159.669 157.746C156.843 172.072 159.865 186.555 162.927 200.607C163.084 201.352 164.222 201.038 164.065 200.293C161.043 186.477 158.06 172.19 160.807 158.06C160.964 157.314 159.826 157 159.669 157.746Z" fill="#161616"/>
<path d="M175.879 142.713C184.946 140.986 194.13 140.358 203.315 140.711C203.119 140.515 202.922 140.319 202.726 140.122C200.881 159.041 208.967 177.057 218.779 192.717C219.172 193.345 220.192 192.757 219.8 192.129C210.105 176.625 202.059 158.845 203.904 140.122C203.943 139.808 203.59 139.534 203.315 139.534C194.013 139.18 184.71 139.848 175.565 141.575C174.819 141.732 175.133 142.87 175.879 142.713Z" fill="#161616"/>
<path d="M163.554 201.431C182.63 203.668 201.98 200.803 219.643 193.267C220.349 192.953 219.721 191.972 219.054 192.246C201.627 199.704 182.394 202.451 163.554 200.253C162.809 200.175 162.809 201.352 163.554 201.431Z" fill="#161616"/>
<path d="M183.258 147.541C183.258 147.501 183.376 147.305 183.376 147.227C183.415 147.07 183.533 146.913 183.65 146.795C183.886 146.599 184.161 146.442 184.475 146.402C185.063 146.324 185.613 146.638 185.77 147.227C185.888 147.698 185.691 148.326 185.142 148.404C184.632 148.483 184.161 148.129 184.082 147.619C183.964 146.873 182.826 147.187 182.944 147.933C183.14 149.307 184.906 149.974 186.045 149.307C187.301 148.561 187.222 146.638 186.162 145.735C184.985 144.754 183.022 145.264 182.355 146.599C182.041 147.266 182.041 148.169 182.787 148.561C183.376 148.875 184.239 148.6 184.396 147.855C184.514 147.109 183.376 146.795 183.258 147.541Z" fill="#161616"/>
<path d="M127.798 117.004C138.238 118.456 148.6 116.298 158.609 113.432C159.355 113.236 159.041 112.098 158.295 112.294C148.482 115.081 138.317 117.279 128.112 115.866C127.366 115.748 127.052 116.886 127.798 117.004Z" fill="#161616"/>
<path d="M129.76 124.697C135.177 125.286 140.593 124.736 145.814 123.088C146.52 122.852 146.245 121.714 145.5 121.95C140.397 123.559 135.098 124.069 129.76 123.52C129.015 123.441 129.015 124.619 129.76 124.697Z" fill="#161616"/>
<path d="M129.76 134.196C140.122 135.412 150.563 134.667 160.611 132.037C161.357 131.841 161.043 130.702 160.297 130.899C150.327 133.528 140.005 134.235 129.76 133.018C129.015 132.9 129.015 134.078 129.76 134.196Z" fill="#161616"/>
<path d="M168.539 194.444C178.941 194.915 189.342 193.659 199.311 190.676C200.018 190.48 199.743 189.342 198.997 189.538C189.106 192.482 178.862 193.738 168.539 193.267C167.754 193.228 167.754 194.405 168.539 194.444Z" fill="#161616"/>
<path d="M170.541 185.456C175.172 185.299 179.804 184.946 184.435 184.436C185.181 184.357 185.181 183.18 184.435 183.258C179.804 183.768 175.212 184.122 170.541 184.279C169.795 184.318 169.795 185.495 170.541 185.456Z" fill="#161616"/>
<path d="M174.309 169.285C177.37 169.678 180.55 168.893 183.572 168.461C186.908 167.951 190.205 167.48 193.541 166.969C194.287 166.852 193.973 165.713 193.227 165.831C190.166 166.302 187.065 166.773 184.004 167.205C180.824 167.676 177.527 168.539 174.309 168.108C173.563 167.99 173.563 169.167 174.309 169.285Z" fill="#161616"/>
<path d="M313.019 81.2865C308.74 102.285 308.309 123.873 311.723 145.029C311.841 145.774 312.979 145.46 312.862 144.715C309.486 123.794 309.957 102.364 314.157 81.6005C314.314 80.8548 313.176 80.5408 313.019 81.2865Z" fill="#161616"/>
<path d="M314.353 81.5613C328.601 78.3036 343.319 77.6363 357.842 79.5988C358.588 79.7166 358.902 78.5783 358.156 78.4606C343.437 76.4588 328.522 77.1261 314.039 80.4231C313.332 80.6193 313.646 81.7576 314.353 81.5613Z" fill="#161616"/>
<path d="M357.489 78.539C357.057 98.7528 357.332 120.105 367.576 138.199C367.969 138.866 368.95 138.278 368.597 137.61C358.47 119.712 358.235 98.5565 358.666 78.539C358.706 77.7933 357.528 77.7933 357.489 78.539Z" fill="#161616"/>
<path d="M312.626 145.657C317.022 146.991 321.732 147.07 326.285 147.109C331.191 147.148 336.098 146.834 341.004 146.167C350.385 144.911 359.53 142.36 368.283 138.67C368.989 138.395 368.361 137.375 367.694 137.65C358.941 141.339 349.717 143.851 340.297 145.068C335.901 145.617 331.466 145.931 327.031 145.892C322.36 145.892 317.454 145.853 312.979 144.479C312.194 144.322 311.92 145.46 312.626 145.657Z" fill="#161616"/>
<path d="M336.647 82.8174C335.313 83.2884 334.724 84.8192 335.195 86.1144C335.744 87.5667 337.432 87.9199 338.688 87.0564C339.905 86.1929 340.297 84.4659 339.12 83.3669C338.099 82.4249 336.333 82.3857 335.391 83.4062C334.881 83.9557 335.705 84.78 336.215 84.2305C337.393 82.9745 339.709 84.7407 338.099 85.9967C337.471 86.4677 336.569 86.4677 336.294 85.6434C336.098 85.0154 336.294 84.1519 336.961 83.9164C337.668 83.6809 337.354 82.5427 336.647 82.8174Z" fill="#161616"/>
<path d="M313.607 99.5379C324.323 99.8127 334.999 99.6164 345.675 98.9099C346.42 98.8707 346.42 97.6932 345.675 97.7324C334.999 98.4389 324.283 98.6744 313.607 98.3604C312.822 98.3604 312.822 99.5379 313.607 99.5379Z" fill="#161616"/>
<path d="M314.667 105.504C318.67 105.661 322.674 105.818 326.638 105.975C327.384 106.014 327.384 104.837 326.638 104.797C322.635 104.64 318.631 104.483 314.667 104.326C313.882 104.287 313.882 105.465 314.667 105.504Z" fill="#161616"/>
<path d="M313.568 113.825C323.655 114.374 333.86 114.845 343.791 112.647C344.536 112.49 344.222 111.352 343.477 111.509C333.625 113.668 323.538 113.197 313.568 112.647C312.822 112.608 312.822 113.786 313.568 113.825Z" fill="#161616"/>
<path d="M167.244 241.427C166.341 249.277 166.027 257.166 166.302 265.055C166.341 265.801 167.518 265.801 167.479 265.055C167.204 257.166 167.518 249.277 168.421 241.427C168.5 240.681 167.322 240.681 167.244 241.427Z" fill="#161616"/>
<path d="M167.636 241.898C181.609 241.898 195.622 241.701 209.595 241.27C210.34 241.23 210.34 240.053 209.595 240.092C195.622 240.524 181.609 240.72 167.636 240.72C166.891 240.72 166.891 241.898 167.636 241.898Z" fill="#161616"/>
<path d="M209.477 240.72C209.595 247.55 209.712 254.34 209.83 261.169C209.83 261.915 211.008 261.915 211.008 261.169C210.89 254.34 210.772 247.55 210.655 240.72C210.655 239.974 209.438 239.974 209.477 240.72Z" fill="#161616"/>
<path d="M166.184 264.192C166.263 266.743 170.698 265.605 172.15 265.526C176.311 265.251 180.471 264.977 184.592 264.663C193.031 264.074 201.47 263.524 209.909 262.936C210.654 262.896 210.654 261.719 209.909 261.758C202.726 262.229 195.582 262.739 188.4 263.21C184.985 263.446 181.57 263.681 178.155 263.917C177.135 263.995 167.362 264.937 167.322 264.192C167.362 263.446 166.184 263.446 166.184 264.192Z" fill="#161616"/>
<path d="M170.816 247.196C180.236 246.765 189.656 247.118 198.997 248.295C199.743 248.374 199.743 247.196 198.997 247.118C189.656 245.94 180.236 245.587 170.816 246.019C170.031 246.058 170.031 247.236 170.816 247.196Z" fill="#161616"/>
<path d="M171.169 253.162C176.429 252.77 181.727 252.338 186.987 251.946C187.733 251.906 187.733 250.729 186.987 250.768C181.727 251.161 176.429 251.592 171.169 251.985C170.423 252.024 170.423 253.202 171.169 253.162Z" fill="#161616"/>
<path d="M172.935 259.168C180.511 258.186 188.753 256.185 196.368 257.558C197.113 257.676 197.427 256.577 196.682 256.42C188.91 255.007 180.668 256.97 172.935 257.99C172.229 258.108 172.19 259.285 172.935 259.168Z" fill="#161616"/>
<path d="M275.024 174.623C268.784 196.839 269.569 220.624 277.222 242.408C277.458 243.114 278.596 242.8 278.361 242.094C270.785 220.506 270 196.956 276.163 174.937C276.359 174.191 275.221 173.877 275.024 174.623Z" fill="#161616"/>
<path d="M275.809 175.016C293.276 174.937 310.663 172.661 327.58 168.225C328.326 168.029 328.012 166.891 327.266 167.087C310.467 171.483 293.197 173.76 275.809 173.838C275.024 173.838 275.024 175.016 275.809 175.016Z" fill="#161616"/>
<path d="M327.266 167.519C326.56 178.43 327.031 189.42 328.993 200.214C329.975 205.67 331.152 211.126 333.311 216.228C335.47 221.291 338.453 225.884 341.946 230.083C342.417 230.672 343.28 229.848 342.77 229.259C339.198 224.981 336.176 220.232 334.057 215.051C332.055 210.105 330.956 204.806 330.053 199.586C328.169 189.028 327.737 178.234 328.405 167.519C328.483 166.773 327.306 166.773 327.266 167.519Z" fill="#161616"/>
<path d="M277.38 243.036C299.595 244.606 322.792 242.094 342.26 230.633C342.927 230.24 342.338 229.22 341.671 229.612C322.321 240.995 299.36 243.389 277.38 241.858C276.634 241.78 276.634 242.957 277.38 243.036Z" fill="#161616"/>
<path d="M301.008 178.548C300.341 177.41 301.675 175.997 302.813 176.9C304.03 177.881 302.735 179.451 301.44 178.941C300.733 178.666 300.419 179.804 301.126 180.079C302.185 180.511 303.481 180.04 304.109 179.098C304.815 178.038 304.501 176.703 303.52 175.958C301.4 174.27 298.731 176.9 299.987 179.137C300.38 179.804 301.4 179.215 301.008 178.548Z" fill="#161616"/>
<path d="M276.202 192.089C287.938 191.893 299.673 191.069 311.37 189.656C312.116 189.577 312.116 188.4 311.37 188.478C299.713 189.931 287.977 190.716 276.202 190.912C275.456 190.951 275.456 192.129 276.202 192.089Z" fill="#161616"/>
<path d="M315.57 184.2C315.923 186.006 316.276 187.85 316.629 189.656C316.786 190.402 317.925 190.088 317.768 189.342C317.414 187.536 317.061 185.692 316.708 183.886C316.59 183.14 315.452 183.454 315.57 184.2Z" fill="#161616"/>
<path d="M316.355 184.043C318.513 183.729 320.672 183.415 322.87 183.062C323.616 182.944 323.302 181.806 322.556 181.924C320.397 182.238 318.239 182.552 316.041 182.905C315.295 183.023 315.609 184.161 316.355 184.043Z" fill="#161616"/>
<path d="M322.517 182.709C322.831 184.396 323.106 186.084 323.42 187.733C323.538 188.478 324.676 188.164 324.558 187.419C324.244 185.731 323.97 184.043 323.656 182.395C323.538 181.688 322.4 182.002 322.517 182.709Z" fill="#161616"/>
<path d="M317.611 190.558C319.927 190.087 322.125 189.459 324.323 188.596C325.029 188.321 324.715 187.183 324.009 187.458C321.811 188.282 319.574 188.949 317.297 189.42C316.551 189.577 316.865 190.715 317.611 190.558Z" fill="#161616"/>
<path d="M317.807 185.378C318.239 186.359 318.827 187.144 319.691 187.811C320.005 188.047 320.594 188.047 320.672 187.536C320.986 185.417 321.732 183.533 322.988 181.767C323.42 181.139 322.399 180.55 321.967 181.178C320.672 182.983 319.848 185.024 319.534 187.222C319.848 187.144 320.201 187.065 320.515 186.948C319.769 186.359 319.22 185.652 318.827 184.75C318.513 184.082 317.493 184.671 317.807 185.378Z" fill="#161616"/>
<path d="M318.239 202.216C317.611 205.042 317.885 207.789 319.024 210.419C319.338 211.125 320.319 210.497 320.044 209.83C319.024 207.514 318.827 205.002 319.377 202.53C319.534 201.784 318.396 201.47 318.239 202.216Z" fill="#161616"/>
<path d="M319.024 202.608C321.379 202.216 323.734 201.863 326.089 201.47C325.853 201.235 325.618 200.999 325.382 200.764C324.99 203.276 325.264 205.67 326.246 208.025C326.52 208.731 327.659 208.417 327.384 207.711C326.481 205.591 326.167 203.354 326.52 201.078C326.599 200.607 326.285 200.293 325.814 200.371C323.459 200.724 321.104 201.117 318.749 201.509C317.964 201.588 318.278 202.726 319.024 202.608Z" fill="#161616"/>
<path d="M319.534 210.458C322.124 210.38 324.597 209.87 327.031 209.006C327.737 208.731 327.423 207.593 326.717 207.868C324.401 208.731 322.007 209.202 319.534 209.281C318.788 209.281 318.788 210.458 319.534 210.458Z" fill="#161616"/>
<path d="M319.887 205.003C320.241 206.023 320.829 206.73 321.771 207.279C322.203 207.515 322.596 207.201 322.674 206.769C322.91 204.689 323.459 202.687 324.323 200.764C324.637 200.096 323.616 199.468 323.302 200.175C322.36 202.294 321.771 204.492 321.497 206.769C321.811 206.612 322.085 206.416 322.399 206.259C321.732 205.866 321.34 205.395 321.065 204.649C320.79 203.982 319.652 204.296 319.887 205.003Z" fill="#161616"/>
<path d="M320.672 220.428C320.947 223.057 321.653 225.53 322.831 227.885C323.145 228.552 324.165 227.964 323.851 227.296C322.792 225.138 322.124 222.822 321.889 220.428C321.771 219.682 320.594 219.682 320.672 220.428Z" fill="#161616"/>
<path d="M321.222 220.31C324.244 220.585 327.07 220.035 329.778 218.701C329.504 218.583 329.19 218.465 328.915 218.348C329.425 220.742 330.485 222.822 332.133 224.667C332.644 225.216 333.468 224.392 332.958 223.843C331.466 222.155 330.524 220.271 330.053 218.073C329.975 217.68 329.504 217.563 329.19 217.72C326.678 218.936 324.009 219.407 321.222 219.172C320.476 219.093 320.476 220.271 321.222 220.31Z" fill="#161616"/>
<path d="M323.891 228.317C326.952 227.179 329.975 225.962 332.918 224.628C333.625 224.314 332.997 223.293 332.33 223.607C329.464 224.902 326.521 226.08 323.577 227.179C322.87 227.454 323.184 228.592 323.891 228.317Z" fill="#161616"/>
<path d="M323.263 222.39C324.205 223.215 326.364 226.041 327.463 223.96C327.973 223.018 327.855 221.723 328.169 220.663C328.64 219.172 329.425 217.798 330.446 216.621C330.917 216.032 330.092 215.208 329.621 215.796C328.522 217.092 327.659 218.505 327.149 220.153C326.913 220.899 326.717 221.684 326.599 222.469C326.442 223.45 326.167 223.215 325.422 222.744C324.951 222.43 324.519 221.959 324.087 221.566C323.538 221.056 322.713 221.88 323.263 222.39Z" fill="#161616"/>
<path d="M277.261 211.282C288.251 211.165 299.202 210.262 310.035 208.535C310.781 208.417 310.467 207.279 309.721 207.397C298.967 209.084 288.134 209.987 277.261 210.066C276.516 210.105 276.516 211.282 277.261 211.282Z" fill="#161616"/>
<path d="M276.006 195.347C283.11 195.543 290.175 195.308 297.24 194.719C297.986 194.641 297.986 193.463 297.24 193.542C290.175 194.13 283.071 194.327 276.006 194.17C275.26 194.13 275.26 195.308 276.006 195.347Z" fill="#161616"/>
<path d="M277.694 213.598C285.151 213.951 292.609 213.677 299.988 212.735C300.733 212.656 300.733 211.479 299.988 211.557C292.569 212.46 285.112 212.774 277.694 212.421C276.948 212.381 276.948 213.559 277.694 213.598Z" fill="#161616"/>
<path d="M302.5 212.185C304.619 212.225 306.699 211.95 308.74 211.283C309.447 211.047 309.133 209.909 308.426 210.144C306.503 210.772 304.541 211.047 302.5 211.008C301.754 211.008 301.754 212.185 302.5 212.185Z" fill="#161616"/>
<path d="M281.697 228.356C290.646 227.807 299.556 226.983 308.426 225.766C309.172 225.648 309.172 224.471 308.426 224.588C299.556 225.766 290.646 226.629 281.697 227.179C280.912 227.218 280.912 228.396 281.697 228.356Z" fill="#161616"/>
<path d="M282.718 231.104C285.661 231.104 288.605 231.104 291.549 231.104C292.295 231.104 292.295 229.926 291.549 229.926C288.605 229.926 285.661 229.926 282.718 229.926C281.972 229.926 281.972 231.104 282.718 231.104Z" fill="#161616"/>
<path d="M285.269 233.734C289.861 233.459 294.453 233.027 299.045 232.478C302.735 232.007 306.699 231.81 309.878 229.652C310.506 229.22 309.918 228.199 309.29 228.631C305.953 230.908 301.479 231.025 297.593 231.457C293.511 231.928 289.39 232.281 285.308 232.556C284.523 232.595 284.484 233.773 285.269 233.734Z" fill="#161616"/>
<path d="M330.092 202.02C337.236 201.666 344.34 200.724 351.366 199.233C351.13 199.115 350.895 198.958 350.659 198.84C353.956 208.653 358.823 217.798 365.064 226.08C365.496 226.669 366.555 226.08 366.084 225.491C359.922 217.327 355.094 208.26 351.797 198.566C351.68 198.252 351.405 198.095 351.091 198.173C344.183 199.665 337.196 200.567 330.131 200.921C329.307 200.881 329.307 202.059 330.092 202.02Z" fill="#161616"/>
<path d="M331.309 235.147C332.369 236.638 333.232 238.208 333.978 239.896C334.056 240.131 334.41 240.249 334.645 240.171C340.415 238.247 346.106 236.128 351.68 233.734C354.506 232.517 357.292 231.261 360.079 229.926C361.414 229.298 362.748 228.631 364.043 227.964C364.828 227.571 365.731 227.336 366.006 226.472C366.084 226.237 365.967 225.923 365.731 225.805C365.378 225.609 365.182 225.609 364.828 225.805C364.593 225.923 364.475 226.237 364.554 226.472C364.554 226.512 364.593 226.551 364.593 226.59C364.789 227.336 365.927 227.022 365.731 226.276C365.731 226.237 365.692 226.198 365.692 226.158C365.613 226.394 365.496 226.59 365.417 226.826C365.339 226.826 365.221 226.826 365.142 226.826C365.064 226.59 364.946 226.394 364.868 226.158C364.632 226.865 362.159 227.611 361.492 227.964C360.393 228.513 359.294 229.024 358.156 229.573C355.526 230.829 352.857 232.007 350.149 233.145C344.968 235.343 339.669 237.305 334.331 239.072C334.567 239.15 334.763 239.268 334.998 239.346C334.292 237.659 333.389 236.089 332.329 234.597C331.898 233.93 330.877 234.519 331.309 235.147Z" fill="#161616"/>
<path d="M338.139 205.081C338.06 204.571 339.002 204.1 339.355 204.453C339.826 204.924 339.041 205.788 338.492 205.591C337.785 205.317 337.471 206.455 338.178 206.73C339.866 207.358 341.514 204.924 340.219 203.629C339.63 203.04 338.727 203.079 338.021 203.433C337.275 203.825 336.883 204.571 337.04 205.395C337.118 206.141 338.256 205.788 338.139 205.081Z" fill="#161616"/>
<path d="M164.222 173.681C168.578 173.76 172.974 173.563 177.292 172.975C181.806 172.347 186.28 171.051 190.872 171.248C191.618 171.287 191.618 170.109 190.872 170.07C186.673 169.913 182.591 170.973 178.469 171.601C173.759 172.347 168.971 172.621 164.182 172.504C163.476 172.504 163.476 173.681 164.222 173.681Z" fill="#161616"/>
<path d="M164.85 160.689C171.522 161.2 178.195 160.611 184.671 158.923C185.417 158.727 185.103 157.589 184.357 157.785C177.959 159.433 171.444 160.022 164.85 159.512C164.104 159.473 164.104 160.65 164.85 160.689Z" fill="#161616"/>
<path d="M315.884 127.641C315.217 131.958 314.667 136.629 317.375 140.397C317.807 141.025 318.828 140.436 318.396 139.808C315.884 136.315 316.433 131.958 317.022 127.955C317.14 127.209 316.002 126.895 315.884 127.641Z" fill="#161616"/>
<path d="M316.237 127.602C325.579 127.955 334.92 127.052 344.026 124.893C343.791 124.776 343.555 124.619 343.32 124.501C344.144 128.544 345.714 132.312 347.912 135.766C348.304 136.394 349.325 135.805 348.932 135.177C346.774 131.801 345.282 128.112 344.458 124.187C344.379 123.873 344.026 123.716 343.751 123.794C334.763 125.914 325.539 126.817 316.276 126.463C315.491 126.385 315.491 127.562 316.237 127.602Z" fill="#161616"/>
<path d="M318.356 140.358C328.483 140.044 338.492 138.552 348.226 135.883C348.971 135.687 348.657 134.549 347.912 134.745C338.256 137.414 328.365 138.906 318.356 139.18C317.571 139.22 317.571 140.397 318.356 140.358Z" fill="#161616"/>
<path d="M456.753 414.519C456.753 418.954 456.753 423.35 456.753 427.786C425.353 440.228 418.955 444.663 419.426 446.272C419.544 446.665 420.368 447.842 436.853 445.919C453.181 443.996 466.408 441.209 475.593 438.933C473.983 429.866 472.335 420.799 470.726 411.732C466.055 412.674 461.384 413.616 456.753 414.519Z" fill="#161616"/>
<path d="M470.843 226.786C469.941 228.474 469.627 229.848 469.548 230.162C463.935 254.026 456.596 268.117 451.807 295.788C442.662 349.089 450.551 409.652 451.297 415.343C453.809 416.442 458.637 418.091 464.799 417.855C470.215 417.62 474.415 416.011 476.809 414.872C475.907 397.485 476.809 376.015 482.815 352.347C490.154 323.341 499.457 313.725 507.817 279.813C514.018 254.693 521.201 225.452 508.798 216.778C499.3 210.027 477.045 214.972 470.843 226.786Z" fill="#FFA62B"/>
<path opacity="0.2" d="M492.548 239.307C486.268 267.959 480.42 298.496 475.475 330.799C470.804 361.178 467.311 390.262 464.72 417.894C468.684 417.07 472.609 416.246 476.574 415.422C476.063 403.215 476.613 392.814 477.398 384.846C478.34 374.955 480.734 351.915 490.35 328.915C491.606 325.971 493.216 322.399 495.845 315.687C500.281 304.58 503.499 295.081 504.951 290.607C511.781 269.255 515.196 244.488 516.255 236.324C508.327 237.266 500.438 238.286 492.548 239.307Z" fill="#6D6C6C"/>
<path opacity="0.19" d="M505.501 289.194C490.115 309.251 482.932 327.423 479.321 339.63C476.024 350.738 474.572 360.55 472.688 373.267C470.019 391.322 468.999 406.551 468.567 417.384C471.157 416.756 473.709 416.089 476.299 415.461C475.867 400.271 476.927 387.28 478.222 377.153C479.792 365.143 481.598 351.209 487.878 334.449C490.154 328.365 491.253 326.638 496.434 313.49C500.438 303.206 503.499 294.767 505.501 289.194Z" fill="#6D6C6C"/>
<path d="M541.532 410.005C543.73 415.461 545.967 420.917 548.165 426.412C529.718 438.148 521.004 444.977 521.986 446.979C523.202 449.452 539.138 444.545 569.792 432.339C566.534 421.741 563.277 411.183 560.019 400.585C553.857 403.725 547.694 406.865 541.532 410.005Z" fill="#161616"/>
<path d="M526.381 227.257C535.998 236.049 535.684 248.374 536.9 268.784C536.9 268.784 539.883 318.985 549.892 359.334C552.404 369.421 556.957 385.082 565.396 403.843C563.983 405.649 560.136 410.045 553.385 412.36C546.477 414.715 540.59 413.459 538.392 412.871C526.381 392.382 517.864 374.916 512.369 362.827C486.896 307.013 484.855 277.615 484.855 262.268C484.855 246.49 485.13 227.571 496.865 221.252C505.697 216.503 518.649 220.192 526.381 227.257Z" fill="#FFA62B"/>
<path opacity="0.15" d="M499.142 233.263C503.499 250.022 508.209 267.057 513.233 284.327C526.342 329.15 540.59 371.501 555.544 411.222C556.997 410.476 558.763 409.456 560.568 408.082C562.413 406.669 563.865 405.256 564.964 404C562.923 399.251 560.097 392.382 557.114 383.943C552.601 371.03 545.261 347.284 541.454 315.648C537.803 285.269 535.959 270.079 536.116 260.502C536.233 252.613 536.94 236.56 526.735 227.925C524.615 226.158 522.535 225.099 521.083 224.471C513.743 227.414 506.443 230.358 499.142 233.263Z" fill="#6D6C6C"/>
<path opacity="0.22" d="M536.587 270.707C534.781 288.959 534.192 313.411 538.588 341.671C543.024 370.088 551.07 393.285 558.331 410.163C560.568 408.318 562.806 406.473 565.043 404.589C562.374 398.27 558.881 389.478 555.387 378.723C548.676 358.039 545.771 341.907 543.259 327.424C540.708 312.587 538.039 293.394 536.587 270.707Z" fill="#6D6C6C"/>
<path d="M352.818 83.8772C351.248 84.6622 349.09 86.0359 347.402 88.3909C346.499 89.6077 345.4 91.2169 345.243 93.4934C345.204 94.3962 345.086 96.3587 346.342 97.6539C346.695 98.0464 347.637 98.7922 352.269 98.6352C356.39 98.4782 358.47 98.3997 359.53 97.3007C361.571 95.1812 360.825 91.1777 359.53 88.7834C357.489 84.9762 353.486 84.0342 352.818 83.8772Z" fill="white" stroke="#161616" stroke-width="0.785" stroke-miterlimit="10"/>
<path d="M376.526 93.7288C382.06 100.048 390.93 103.816 407.219 110.528C427.747 119.006 438.03 123.245 450.198 124.736C463.347 126.346 470.372 124.658 472.806 128.936C475.985 134.47 468.527 144.832 460.834 153.507C455.104 152.251 449.177 150.681 443.054 148.64C409.496 137.532 385.239 117.985 369.304 101.736C367.302 102.168 363.887 102.599 360.001 101.422C356.665 100.441 351.955 97.9286 352.23 95.9268C352.583 93.4933 361.1 93.0616 361.611 93.0223C359.02 91.9626 355.291 90.1571 351.249 87.2133C350.071 86.3498 343.32 81.3651 344.144 79.7951C344.851 78.4213 350.974 80.3053 356.744 82.0716C362.003 83.6808 365.653 84.8191 369.657 87.5666C373.503 90.1571 375.741 92.8261 376.526 93.7288Z" fill="white" stroke="#161616" stroke-width="0.785" stroke-miterlimit="10"/>
<path d="M349.365 84.309C350.307 85.3688 350.503 86.7818 351.327 87.8808C352.034 88.862 353.054 89.5685 354.114 90.1573C357.293 91.9235 360.669 93.3758 363.926 94.985C364.476 95.2598 365.182 94.514 364.633 94.043C362.945 92.5908 361.14 91.2955 359.256 90.118C358.628 89.7255 358 90.746 358.667 91.1385C360.472 92.2768 362.199 93.4935 363.809 94.8673C364.044 94.5533 364.28 94.2393 364.515 93.9253C361.414 92.4338 358.314 90.9815 355.252 89.3723C353.8 88.6265 352.505 87.763 351.759 86.2715C351.249 85.251 350.974 84.2698 350.189 83.4063C349.679 82.9353 348.854 83.7595 349.365 84.309Z" fill="white"/>
<path d="M352.426 88.4301C354.231 89.2151 355.958 90.2356 357.528 91.4524C358.117 91.9234 358.941 91.0991 358.353 90.6281C356.704 89.3329 354.938 88.2731 353.015 87.4096C352.308 87.0956 351.719 88.1161 352.426 88.4301Z" fill="white"/>
<path d="M347.794 83.6023C349.286 85.9966 351.248 87.9591 353.564 89.5291C354.192 89.9608 354.781 88.9403 354.153 88.5086C351.994 87.0563 350.189 85.2116 348.815 82.9743C348.422 82.3856 347.402 82.9743 347.794 83.6023Z" fill="white"/>
<path d="M349.561 86.8209C350.346 87.8807 351.209 88.8619 352.19 89.7254C352.897 90.3534 355.998 92.5907 354.388 93.7289C354.074 93.9252 354.388 94.4354 354.702 94.2392C355.801 93.4934 355.37 92.1589 354.702 91.2562C354.192 90.5889 353.486 90.0787 352.818 89.4899C351.798 88.5872 350.895 87.6059 350.071 86.5462C349.835 86.1929 349.325 86.5069 349.561 86.8209Z" fill="#161616"/>
<path d="M348.736 90.9029C349.914 92.5122 352.151 94.7887 354.349 94.1214C354.702 94.0037 354.545 93.4542 354.192 93.5719C352.308 94.1607 350.228 92.0019 349.247 90.6282C349.011 90.3142 348.501 90.5889 348.736 90.9029Z" fill="#161616"/>
<path d="M347.009 93.6504C348.305 95.4166 350.189 96.4371 352.387 96.5549C352.779 96.5941 352.779 96.0054 352.387 95.9661C350.424 95.8484 348.697 94.9064 347.52 93.3364C347.284 93.0224 346.774 93.3364 347.009 93.6504Z" fill="#161616"/>
<path d="M345.754 97.1828C347.598 99.1061 350.66 99.1453 352.505 97.1828C352.779 96.9081 352.348 96.4763 352.073 96.7511C350.464 98.4781 347.795 98.4388 346.185 96.7511C345.911 96.4763 345.479 96.9081 345.754 97.1828Z" fill="#161616"/>
<path d="M346.146 83.524C350.503 86.3893 353.643 91.217 359.098 92.159C359.452 92.2375 359.648 91.6488 359.255 91.6095C353.878 90.7068 350.738 85.879 346.46 83.053C346.107 82.7783 345.832 83.2885 346.146 83.524Z" fill="#161616"/>
<path opacity="0.2" d="M345.675 96.3587C344.262 94.4355 345.439 90.3142 348.854 86.4285C352.701 88.6657 356.508 90.9422 360.354 93.1795C359.648 93.1795 353.446 93.258 353.015 95.1812C352.936 95.4952 353.015 95.9662 353.603 96.6335C355.566 97.5755 358.863 98.8315 363.102 98.9492C365.3 98.9885 367.223 98.7137 368.715 98.3605C376.722 106.446 390.812 118.653 411.536 127.523C429.748 135.295 446.076 137.532 456.87 138.16C456.517 142.791 456.164 147.384 455.81 152.015C438.03 147.305 413.931 138.356 389.988 120.38C381.824 114.257 374.838 107.937 368.872 101.854C363.377 102.756 359.962 101.814 357.803 100.715C355.958 99.7735 354.781 98.596 352.347 98.3997C350.738 98.282 349.364 98.6745 347.598 97.811C347.402 97.7325 346.264 97.1437 345.675 96.3587Z" fill="#6D6C6C"/>
<path opacity="0.14" d="M396.229 124.069C401.724 127.013 408.082 129.996 415.343 132.547C431.161 138.16 445.487 139.926 456.438 140.319C456.281 144.322 456.163 148.365 456.006 152.368C444.624 149.699 430.337 145.029 415.186 136.551C407.925 132.508 401.645 128.23 396.229 124.069Z" fill="#6D6C6C"/>
<path d="M458.283 135.256C456.046 140.319 455.928 144.519 455.732 152.055C455.575 157.746 455.967 163.869 459.029 179.961C462.758 199.429 464.524 202.569 465.113 212.892C465.584 220.978 464.956 227.611 464.367 232.007C469.312 234.715 477.594 238.405 488.427 239.229C507.581 240.681 521.75 232.242 526.617 229.024C527.206 216.699 527.795 204.336 528.423 192.011C526.264 181.492 523.713 173.25 521.868 167.833C516.059 150.759 510.643 142.674 514.097 134.117C516.02 129.368 519.827 126.464 522.457 124.854C520.612 123.441 501.262 109.115 480.145 116.533C477.947 117.279 464.053 122.185 458.283 135.256Z" fill="white" stroke="#161616" stroke-width="0.785" stroke-miterlimit="10"/>
<path opacity="0.19" d="M480.067 116.494C485.954 125.914 489.251 134.235 491.135 140.044C491.135 140.044 500.359 168.069 493.608 205.67C492.156 213.677 489.565 225.06 484.463 238.091C486.425 238.522 488.78 238.876 491.449 238.993C491.449 238.993 495.571 239.19 500.202 238.601C505.854 237.855 515.549 234.833 526.971 229.024C527.167 215.875 527.363 202.766 527.559 189.617C524.655 178.509 521.711 169.599 519.513 163.359C514.214 148.483 510.486 141.496 513.547 134.117C515.549 129.29 519.631 126.307 522.81 124.58C518.65 121.832 510.957 117.554 500.438 115.905C491.763 114.571 484.62 115.513 480.067 116.494Z" fill="#6D6C6C"/>
<path opacity="0.11" d="M485.444 115.591C491.764 123.363 499.143 134.706 503.696 149.66C516.609 192.364 495.375 229.809 490.468 238.012C494.59 237.973 499.417 237.62 504.677 236.599C514.058 234.794 521.554 231.575 526.932 228.71C527.128 216.464 527.324 204.218 527.52 192.011C524.184 180.668 521.044 169.913 516.766 155.312C513.861 145.304 511.585 137.1 515.863 130.546C517.943 127.366 520.848 125.6 523.046 124.58C510.525 121.557 497.965 118.574 485.444 115.591Z" fill="#6D6C6C"/>
<path d="M482.54 195.779C482.422 187.38 482.343 179.019 482.226 170.62C502.361 169.599 522.496 168.579 542.671 167.558C543.377 175.33 544.084 183.101 544.829 190.873C524.066 192.521 503.303 194.131 482.54 195.779Z" fill="white" stroke="#161616" stroke-width="0.785" stroke-miterlimit="10"/>
<path d="M476.417 193.032C476.417 189.97 476.417 186.909 476.417 183.847C502.282 181.924 528.148 179.961 554.014 178.038C554.21 181.806 554.406 185.613 554.642 189.381C528.58 190.559 502.479 191.815 476.417 193.032Z" fill="white" stroke="#161616" stroke-width="0.785" stroke-miterlimit="10"/>
<path d="M478.575 179.216C478.889 183.729 479.203 188.204 479.478 192.718C503.42 190.794 527.324 188.832 551.266 186.909C551.462 182.827 551.659 178.745 551.894 174.623C527.441 176.154 502.989 177.685 478.575 179.216Z" fill="white" stroke="#161616" stroke-width="0.785" stroke-miterlimit="10"/>
<path d="M472.727 189.342C473.434 207.24 474.14 225.138 474.886 243.036C501.576 240.053 528.266 237.109 554.956 234.126C555.78 216.542 556.604 198.958 557.429 181.374C529.169 184.043 500.948 186.673 472.727 189.342Z" fill="white" stroke="#161616" stroke-width="0.785" stroke-miterlimit="10"/>
<path d="M477.28 196.329C489.408 194.719 501.536 193.581 513.743 192.875C514.293 192.835 514.293 191.972 513.743 191.972C501.536 192.678 489.369 193.817 477.28 195.426C476.73 195.504 476.73 196.407 477.28 196.329Z" fill="#161616"/>
<path d="M490.821 198.723C500.124 197.545 509.426 196.329 518.767 195.151C519.317 195.073 519.317 194.209 518.767 194.248C509.465 195.426 500.163 196.643 490.821 197.82C490.272 197.938 490.272 198.801 490.821 198.723Z" fill="#161616"/>
<path d="M535.527 223.843C535.37 226.316 535.37 228.828 535.605 231.3C535.645 231.85 536.547 231.85 536.508 231.3C536.273 228.828 536.233 226.316 536.43 223.843C536.469 223.293 535.566 223.293 535.527 223.843Z" fill="#161616"/>
<path d="M535.92 223.921C540.787 224.039 545.614 223.764 550.442 223.136C550.285 222.979 550.128 222.822 550.01 222.705C549.932 224.981 550.01 227.218 550.167 229.456C550.207 230.005 551.109 230.005 551.07 229.456C550.874 227.218 550.835 224.942 550.913 222.705C550.913 222.469 550.717 222.234 550.481 222.273C545.654 222.901 540.826 223.136 535.959 223.058C535.331 223.019 535.331 223.882 535.92 223.921Z" fill="#161616"/>
<path d="M536.273 232.007C541.101 232.085 545.85 231.575 550.56 230.515C551.109 230.398 550.874 229.534 550.324 229.652C545.693 230.672 541.022 231.183 536.273 231.104C535.723 231.104 535.723 231.968 536.273 232.007Z" fill="#161616"/>
<path d="M538.118 226.669C541.101 226.865 544.044 226.708 547.027 226.237C547.577 226.159 547.341 225.295 546.792 225.374C543.927 225.845 541.022 225.962 538.118 225.766C537.568 225.727 537.568 226.63 538.118 226.669Z" fill="#161616"/>
<path d="M540.002 229.142C543.102 229.063 546.085 228.474 549.029 227.415C549.539 227.218 549.343 226.355 548.794 226.551C545.968 227.611 543.024 228.16 540.002 228.278C539.452 228.239 539.413 229.142 540.002 229.142Z" fill="#161616"/>
<path opacity="0.2" d="M485.405 240.995C486.111 224.432 486.818 207.868 487.485 191.265C510.407 189.421 533.368 187.615 556.29 185.77C555.78 201.47 555.231 217.17 554.72 232.87C531.602 235.579 508.523 238.287 485.405 240.995Z" fill="#6D6C6C"/>
<path opacity="0.2" d="M547.655 175.055C547.773 179.608 547.538 185.025 546.36 191.03C543.456 205.788 536.469 216.425 531.72 222.43C534.938 226.708 538.157 230.986 541.415 235.265C531.563 236.403 521.711 237.541 511.859 238.679C513.429 220.703 514.999 202.726 516.569 184.789C516.059 182.434 515.51 180.079 514.999 177.724C525.872 176.782 536.783 175.919 547.655 175.055Z" fill="#6D6C6C"/>
<path d="M520.337 123.795C528.54 122.696 538.314 141.536 542.199 155.077C546.674 170.659 544.711 184.122 543.102 191.226C539.962 205.16 533.447 214.972 529.365 220.271C529.993 222.351 531.445 228.003 529.051 234.205C525.518 243.272 515.941 247.628 515.195 246.804C514.96 246.529 515.431 245.391 519.16 241.113C518.375 241.937 512.723 247.55 506.364 246.215C505.265 245.98 503.891 245.705 503.106 244.606C501.262 241.937 504.323 235.893 510.839 229.181C503.734 230.947 501.85 230.476 501.497 229.691C500.594 227.807 507.856 222.469 510.485 220.507C514.371 217.641 517.864 215.679 520.259 214.462C526.97 200.528 526.617 189.656 526.028 184.554C525.165 177.018 522.339 168.814 521.789 167.244C520.219 162.731 519.474 161.71 516.334 153.585C511.27 140.554 511.27 138.317 511.467 136.59C512.173 131.409 515.666 124.423 520.337 123.795Z" fill="white" stroke="#161616" stroke-width="0.785" stroke-miterlimit="10"/>
<path d="M503.264 243.507C507.62 241.034 511.428 237.855 514.607 234.008C515.078 233.42 514.254 232.595 513.783 233.184C510.682 236.952 506.953 240.092 502.675 242.526C502.008 242.84 502.596 243.86 503.264 243.507Z" fill="#161616"/>
<path d="M507.11 246.137C511.428 243.899 515.117 240.799 518.1 236.952C518.571 236.363 517.551 235.775 517.08 236.363C514.254 240.053 510.643 242.997 506.522 245.116C505.854 245.469 506.443 246.49 507.11 246.137Z" fill="#161616"/>
<path opacity="0.17" d="M517.04 125.679C509.23 132.469 541.101 162.26 535.645 196.093C531.916 219.29 516.452 234.44 516.452 234.44C512.134 238.758 504.009 244.057 504.991 245.901C505.697 247.236 510.603 246.019 512.37 245.47C515.706 244.449 518.022 242.722 519.317 241.584C517.354 243.782 515.117 246.49 515.588 247.04C516.255 247.746 521.829 244.842 525.322 240.76C531.367 233.695 530.503 223.882 529.914 219.879C531.327 218.034 533.172 215.443 535.056 212.146C536.783 209.203 541.768 200.018 543.927 187.536C547.734 165.439 539.923 148.012 536.783 141.182C533.957 135.099 529.169 125.011 521.907 124.58C520.965 124.462 518.571 124.344 517.04 125.679Z" fill="#6D6C6C"/>
<path opacity="0.22" d="M543.495 186.909C541.375 193.071 538.863 199.547 535.88 206.337C533.761 211.165 531.602 215.679 529.404 219.957C528.305 223.49 526.225 228.788 522.103 234.244C517.786 239.975 513.037 243.468 509.857 245.47C510.76 245.509 511.859 245.43 513.076 245.116C516.137 244.41 518.178 242.722 519.199 241.702C518.021 243.193 516.805 244.645 515.627 246.137C516.569 245.98 518.061 245.705 519.709 244.959C528.344 241.074 530.15 230.515 530.267 229.809C530.581 227.886 530.778 224.589 529.6 220.507C532.426 217.17 535.998 212.186 538.863 205.474C542.042 198.095 543.102 191.462 543.495 186.909Z" fill="#6D6C6C"/>
<path d="M449.255 97.968C442.936 105.19 447.293 115.277 447.882 116.651C450.08 121.753 455.771 129.015 462.993 128.426C468.252 127.955 471.589 123.52 472.413 122.342C478.222 113.982 476.299 98.0072 466.486 93.886C461.07 91.6095 453.612 92.944 449.255 97.968Z" fill="#489FB5"/>
<path d="M465.191 104.405C465.466 107.506 468.724 108.173 470.922 113.276C472.492 116.965 472.492 120.576 472.217 123.166C474.768 123.402 479.478 123.52 484.816 121.479C489.016 119.869 491.96 117.554 493.726 115.944C492.902 114.1 491.685 111.392 490.233 108.173C483.953 94.4748 482.932 93.2972 481.401 92.7085C475.278 90.3927 464.681 98.6352 465.191 104.405Z" fill="white" stroke="#161616" stroke-width="0.785" stroke-miterlimit="10"/>
<path d="M442.583 63.8598C441.248 65.7438 440.424 68.0596 440.306 77.9898C440.228 86.4678 440.699 94.2001 441.484 101.069C443.25 100.048 445.016 99.0278 446.783 98.0073C447.568 99.9306 448.902 102.56 451.179 105.112C455.692 110.175 461.187 111.902 463.621 112.53C466.172 111.902 472.531 109.939 477.358 103.934C480.538 99.9306 481.558 95.9663 481.794 95.0636C483.246 89.1368 481.833 84.2306 481.087 82.1896C482.029 81.7578 483.481 80.9336 484.58 79.4421C486.896 76.3021 487.524 70.6893 484.659 68.8053C482.539 67.3923 478.771 68.2166 475.945 71.1211C475.317 69.6688 474.336 67.6671 472.766 65.5868C472.374 65.0766 469.43 61.2301 465.819 59.2283C458.872 55.2248 447.371 57.1088 442.583 63.8598Z" fill="white" stroke="#161616" stroke-width="0.785" stroke-miterlimit="10"/>
<path d="M439.718 76.1843C438.148 75.9096 435.243 75.0853 433.869 72.6911C431.514 68.6483 434.968 62.4861 435.832 60.9553C436.538 59.6601 438.422 56.5593 446.429 50.9466C452.513 46.6683 455.575 44.5488 458.872 43.5283C470.568 40.0351 481.283 46.0796 483.285 47.2178C487.485 49.6121 490.154 52.2026 492.273 54.2436C495.531 57.3836 499.181 60.9946 503.263 65.1551C513.743 78.7356 517.433 91.1386 518.924 98.5568C520.612 106.956 522.339 115.513 517.315 120.537C512.291 125.561 503.106 124.54 497.494 122.146C489.683 118.81 486.347 111.745 483.756 106.289C479.36 96.9476 479.085 87.9986 479.517 82.1896C483.442 81.0513 485.444 77.3618 484.541 74.5751C483.835 72.3771 481.205 70.1791 478.497 70.9641C476.416 71.5528 474.925 73.7116 475.043 76.2236C473.159 76.1843 468.135 75.7526 463.346 72.1416C459.853 69.5118 458.087 66.3718 457.262 64.6448C455.104 64.9196 450.786 65.7046 446.429 68.8446C442.779 71.3566 440.738 74.3788 439.718 76.1843Z" fill="#489FB5"/>
<path opacity="0.24" d="M465.701 83.6811C470.411 89.3724 471.903 95.3776 471.903 95.3776C473.434 102.129 471.236 107.859 470.254 110.175C472.727 108.291 475.239 106.407 477.712 104.523C479.439 110.253 481.127 115.945 482.854 121.675C484.149 121.557 486.818 121.086 489.487 119.202C491.528 117.75 492.745 116.062 493.412 115.003C490.233 112.059 484.149 105.543 481.362 95.2991C480.028 90.3536 479.831 85.9576 479.988 82.6606C483.56 81.2084 485.405 77.7151 484.659 74.8106C484.11 72.6911 481.951 70.1399 479.164 70.5324C476.848 70.8856 474.925 73.1621 474.964 75.9489C473.198 75.9489 469.038 75.7526 464.681 73.1229C460.167 70.4146 458.008 66.6466 457.184 65.0374C457.38 72.5734 459.696 76.9301 461.776 79.5206C463.15 81.2869 463.778 81.3654 465.701 83.6811Z" fill="#6D6C6C"/>
<path d="M447.45 82.0326C447.018 83.6026 447.057 85.2118 447.646 86.7426C447.842 87.2921 448.588 87.3313 448.784 86.7426C449.255 85.3296 449.255 83.8381 448.824 82.4251C448.588 81.7186 447.45 81.9934 447.685 82.7391C448.078 83.9951 448.039 85.2119 447.646 86.4679C448.039 86.4679 448.392 86.4679 448.784 86.4679C448.274 85.1334 448.196 83.7596 448.588 82.3858C448.784 81.6008 447.685 81.2868 447.45 82.0326Z" fill="#161616"/>
<path d="M446.037 79.599C447.057 78.971 448.313 79.0887 449.177 79.913C449.726 80.4232 450.551 79.599 450.001 79.0887C448.784 77.9112 446.9 77.6757 445.448 78.5785C444.82 78.971 445.409 79.9915 446.037 79.599Z" fill="#161616"/>
<path d="M450.276 89.5686C451.022 89.5686 451.022 88.3911 450.276 88.3911C449.491 88.3911 449.491 89.5686 450.276 89.5686Z" fill="#161616"/>
<path d="M452.866 86.1537C452.866 86.1929 452.866 86.2322 452.866 86.2714C452.866 86.5854 453.141 86.8602 453.455 86.8602C453.769 86.8602 454.044 86.5854 454.044 86.2714C454.044 86.2322 454.044 86.1929 454.044 86.1537C454.044 85.8397 453.769 85.5649 453.455 85.5649C453.141 85.5649 452.866 85.8004 452.866 86.1537Z" fill="#161616"/>
<path d="M452.984 89.0974C453.73 89.0974 453.73 87.9199 452.984 87.9199C452.238 87.9199 452.238 89.0974 452.984 89.0974Z" fill="#161616"/>
<path d="M436.813 83.838C436.342 85.408 436.382 87.0173 436.931 88.548C437.127 89.0975 437.873 89.0975 438.069 88.548C438.54 87.135 438.58 85.6435 438.187 84.2305C437.991 83.4848 436.853 83.7988 437.049 84.5445C437.402 85.8005 437.363 87.0173 436.931 88.234C437.324 88.234 437.677 88.234 438.069 88.234C437.598 86.8995 437.52 85.5258 437.952 84.152C438.148 83.4063 437.01 83.0923 436.813 83.838Z" fill="#161616"/>
<path d="M436.146 80.8942C436.97 80.4624 438.108 80.6587 438.658 81.4437C439.09 82.0324 440.11 81.4437 439.678 80.8549C438.697 79.5597 437.009 79.1279 435.557 79.8737C434.89 80.2269 435.479 81.2474 436.146 80.8942Z" fill="#161616"/>
<path d="M449.373 102.246C452.395 101.697 455.025 100.088 456.987 97.6933C457.341 97.2615 456.713 96.6335 456.359 97.0653C454.515 99.3418 452.042 100.833 449.137 101.383C448.588 101.501 448.823 102.364 449.373 102.246Z" fill="#161616"/>
<path d="M455.496 97.1437C456.203 97.3792 456.792 97.7325 457.302 98.2427C457.694 98.6352 458.322 98.0072 457.93 97.6147C457.302 96.9867 456.556 96.555 455.732 96.2802C455.182 96.1232 454.947 96.9867 455.496 97.1437Z" fill="#161616"/>
<path opacity="0.45" d="M479.949 45.8049C484.933 52.7129 491.331 62.4862 497.415 74.9677C503.852 88.1557 508.562 98.0859 504.912 102.011C500.084 107.231 483.403 98.9494 480.734 97.5757C481.283 101.147 482.657 106.839 486.7 112.53C488.741 115.395 492.312 120.458 498.906 122.813C502.871 124.226 506.403 124.148 507.777 124.03C509.622 123.912 511.741 123.755 514.057 122.499C514.057 122.499 517.079 120.89 519.12 117.593C522.221 112.569 520.572 105.779 518.374 97.2617C515.745 87.0567 512.212 80.2664 508.758 73.5547C507.895 71.9062 506.874 69.9829 505.226 67.7457C503.577 65.4692 502.36 64.2524 497.258 59.3462C489.683 52.0064 488.505 50.9467 486.229 49.4159C483.717 47.6889 481.479 46.5507 479.949 45.8049Z" fill="#397D8F"/>
<path opacity="0.43" d="M470.49 112.569C470.804 113.472 471.51 116.023 470.49 118.849C468.959 123.049 464.72 124.462 464.053 124.658C459.225 126.228 453.141 123.755 449.059 118.378C449.609 119.791 450.825 122.303 453.337 124.501C454.593 125.6 458.008 128.544 462.836 128.191C463.66 128.112 468.959 127.72 471.392 123.127C473.159 119.87 472.766 115.788 470.49 112.569Z" fill="#397D8F"/>
</svg>
