<svg width="36" height="37" viewBox="0 0 36 37" fill="none" xmlns="http://www.w3.org/2000/svg">
<path d="M6.435 0.133779C6.66417 0.243967 6.85755 0.416638 6.9929 0.631909C7.12824 0.847181 7.20003 1.0963 7.2 1.35058C7.2 2.84458 7.7616 3.70498 8.4654 4.75258L8.5176 4.82818C9.1152 5.71738 9.9 6.88198 9.9 8.55058C9.9 10.2534 9.0414 11.7546 7.7328 12.6456C8.0766 12.9336 8.3808 13.2882 8.6436 13.713C9.5004 15.099 9.9 17.2176 9.9 20.2596C9.9 23.3412 9.486 27.042 8.811 29.9976C8.4762 31.4664 8.0604 32.8218 7.5654 33.8388C7.3188 34.3446 7.0182 34.8378 6.6474 35.2248C6.2766 35.6046 5.706 36.0096 4.95 36.0096C4.194 36.0096 3.6234 35.6046 3.2544 35.2248C2.87858 34.813 2.5689 34.3455 2.3364 33.8388C1.8396 32.82 1.4238 31.4664 1.089 29.9958C0.386905 26.7967 0.021913 23.5329 1.73431e-06 20.2578C1.73431e-06 17.2158 0.399602 15.099 1.2564 13.713C1.50084 13.3107 1.80836 12.9503 2.1672 12.6456C1.49899 12.1919 0.952088 11.5815 0.574295 10.8676C0.196502 10.1538 -0.00067465 9.35824 1.73431e-06 8.55058C1.73431e-06 7.88818 1.55568e-06 6.74878 0.689402 5.27818C1.3644 3.83818 2.6478 2.18398 5.0058 0.295779C5.20454 0.136811 5.44416 0.0372539 5.69703 0.00859067C5.9499 -0.0200725 6.20573 0.0233251 6.435 0.133779ZM2.7 8.54878V8.55058C2.7 9.14732 2.93705 9.71961 3.35901 10.1416C3.78097 10.5635 4.35326 10.8006 4.95 10.8006C5.54674 10.8006 6.11903 10.5635 6.54099 10.1416C6.96295 9.71961 7.2 9.14732 7.2 8.55058C7.2 7.76038 6.867 7.21318 6.2244 6.25738L6.2028 6.22498C5.7906 5.61298 5.3028 4.88758 4.9572 3.95698C3.9798 4.95058 3.4398 5.77498 3.1356 6.42298C2.7 7.35178 2.7 8.01238 2.7 8.54698V8.54878ZM3.5532 15.1314C3.1068 15.855 2.7 17.3382 2.7 20.2596C2.7 23.1414 3.0924 26.6406 3.7206 29.3964C4.0374 30.7824 4.3974 31.9074 4.7628 32.6562C4.8294 32.7948 4.8924 32.91 4.95 33.0072C5.0076 32.91 5.0706 32.7948 5.1372 32.6562C5.5026 31.9074 5.8626 30.7806 6.1794 29.3964C6.8094 26.6424 7.2 23.1432 7.2 20.2596C7.2 17.3382 6.7932 15.855 6.3468 15.1314C6.21217 14.8878 6.00868 14.6893 5.7618 14.5608C5.50618 14.4495 5.22857 14.3977 4.95 14.4096C4.59 14.4096 4.3326 14.4654 4.1382 14.5608C3.89132 14.6893 3.68783 14.8878 3.5532 15.1314Z" fill="#FBF9F8"/>
<path d="M14.3999 23.2512C13.4463 23.0912 12.5187 22.803 11.6423 22.3944C11.695 21.3735 11.71 20.351 11.6873 19.329C12.4991 19.8744 13.4153 20.2758 14.3999 20.499V15.3006C14.3999 14.5845 14.6844 13.8977 15.1907 13.3914C15.6971 12.885 16.3838 12.6006 17.0999 12.6006H24.2999C24.2998 11.0898 23.8772 9.60918 23.0799 8.32598C22.2825 7.04277 21.1422 6.00813 19.7878 5.33895C18.4333 4.66977 16.9187 4.39273 15.415 4.53911C13.9114 4.6855 12.4786 5.24949 11.2787 6.16735C10.9187 5.17195 10.4057 4.41055 10.0493 3.88135L9.97729 3.77335C11.5945 2.63332 13.4938 1.95947 15.468 1.82537C17.4421 1.69127 19.4151 2.10208 21.1716 3.01295C22.9282 3.92381 24.4007 5.29972 25.4285 6.99049C26.4563 8.68126 26.9999 10.6219 26.9999 12.6006H33.2999C34.016 12.6006 34.7027 12.885 35.2091 13.3914C35.7154 13.8977 35.9999 14.5845 35.9999 15.3006V31.5006C35.9999 32.2166 35.7154 32.9034 35.2091 33.4097C34.7027 33.9161 34.016 34.2006 33.2999 34.2006H17.0999C16.3838 34.2006 15.6971 33.9161 15.1907 33.4097C14.6844 32.9034 14.3999 32.2166 14.3999 31.5006V23.2512ZM17.0999 23.3646V31.5006H33.2999V15.3006H26.6579C26.0971 17.4696 24.8761 19.4107 23.1637 20.8554C21.4514 22.3001 19.3324 23.1769 17.0999 23.3646ZM23.8391 15.3006H17.0999V20.652C18.6122 20.4824 20.0463 19.8906 21.2381 18.9442C22.4299 17.9979 23.3313 16.7352 23.8391 15.3006Z" fill="#FBF9F8"/>
</svg>
