<svg width="206" height="206" viewBox="0 0 206 206" fill="none" xmlns="http://www.w3.org/2000/svg">
<path d="M205.521 102.908C205.521 46.3724 159.689 0.54126 103.154 0.54126C46.6183 0.54126 0.787231 46.3724 0.787231 102.908C0.787231 159.443 46.6183 205.275 103.154 205.275C159.689 205.275 205.521 159.443 205.521 102.908Z" fill="#489FB5"/>
<path d="M58.3686 134.897C67.2023 134.897 74.3634 127.736 74.3634 118.903C74.3634 110.069 67.2023 102.908 58.3686 102.908C49.5349 102.908 42.3738 110.069 42.3738 118.903C42.3738 127.736 49.5349 134.897 58.3686 134.897Z" fill="#F0BD70"/>
<path d="M58.3685 131.698H112.751V211.257C112.751 211.257 101.097 218.07 85.5597 218.07C70.0223 218.07 58.3685 206.948 58.3685 206.948V131.698Z" fill="#F0BD70"/>
<path d="M112.751 172.863C112.751 190.95 109.929 189.235 91.5831 189.235C73.2371 189.235 64.7726 174.574 64.7726 156.487C64.7726 138.4 64.0753 122.102 78.88 122.102C120.748 123.701 112.751 154.776 112.751 172.863Z" fill="#E9B05B"/>
<path d="M147.574 116.023C147.574 144.565 159.366 179.66 107.952 179.66C56.5385 179.66 56.5385 144.565 56.5385 116.023C48.7714 82.1145 50.3709 42.1276 103.154 42.1276C155.937 42.1276 147.574 87.4792 147.574 116.023V116.023Z" fill="#FFCB7E"/>
<path d="M122.348 131.698H119.149C117.382 131.698 115.95 133.131 115.95 134.897C115.95 136.664 117.382 138.096 119.149 138.096H122.348C124.114 138.096 125.547 136.664 125.547 134.897C125.547 133.131 124.114 131.698 122.348 131.698Z" fill="#F0BD70"/>
<path d="M122.348 192.479H51.9706C36.0699 192.479 23.1799 205.369 23.1799 221.269V237.264C23.1799 253.165 36.0699 266.055 51.9706 266.055H122.348C138.248 266.055 151.138 253.165 151.138 237.264V221.269C151.138 205.369 138.248 192.479 122.348 192.479Z" fill="#E05A33"/>
<path fill-rule="evenodd" clip-rule="evenodd" d="M147.837 104.453C150.492 102.954 152.525 100.557 153.569 97.6922C154.613 94.8277 154.6 91.6845 153.531 88.829C156.452 87.4212 158.729 84.9574 159.902 81.9355C161.076 78.9136 161.059 75.5589 159.855 72.549C158.65 69.5392 156.348 67.0987 153.414 65.7206C150.48 64.3425 147.132 64.1295 144.046 65.1247C148.579 76.8777 148.247 91.4138 147.837 104.453Z" fill="#47280B"/>
<path fill-rule="evenodd" clip-rule="evenodd" d="M116.9 73.3496C113.985 75.9123 110.234 77.3228 106.353 77.3163C102.813 77.322 99.372 76.148 96.5737 73.9798C94.4973 76.0555 92.0319 77.7012 89.3185 78.8227C86.6052 79.9442 83.6972 80.5193 80.7613 80.5153C78.5445 80.5168 76.3398 80.189 74.2194 79.5428C73.3856 80.4554 72.4245 81.243 71.3659 81.8812C72.6252 83.3797 73.524 85.1471 73.9931 87.0474C74.4621 88.9478 74.489 90.9304 74.0715 92.8427C73.6541 94.7551 72.8035 96.5462 71.5852 98.0782C70.3669 99.6102 68.8133 100.842 67.0441 101.68C67.5721 102.403 67.8872 103.259 67.9537 104.153C68.0202 105.046 67.8355 105.939 67.4204 106.733C67.0053 107.526 66.3765 108.188 65.605 108.643C64.8336 109.097 63.9503 109.327 63.055 109.306C61.4868 112.035 58.9681 114.089 55.9802 115.078C52.9924 116.067 49.745 115.919 46.8589 114.665C43.9728 113.41 41.6503 111.135 40.3354 108.276C39.0206 105.417 38.8055 102.173 39.7314 99.1652C38.5394 97.9784 37.5938 96.5676 36.9493 95.0138C36.3048 93.4601 35.9739 91.7943 35.9758 90.1122C35.9758 86.5741 37.4122 83.372 39.7314 81.0591C39.1136 79.0383 39.0058 76.8959 39.4178 74.8233C39.8297 72.7507 40.7486 70.8123 42.0922 69.1814C40.4281 66.249 39.4473 62.9788 39.223 59.6146C38.9987 56.2503 39.5367 52.8789 40.7969 49.7515C42.0571 46.6242 44.0069 43.8216 46.501 41.5528C48.9951 39.2839 51.9692 37.6073 55.2016 36.648C55.0353 34.349 55.4931 32.0478 56.5267 29.9875C57.5602 27.9272 59.1311 26.1844 61.0733 24.9431C63.0155 23.7018 65.2569 23.0082 67.5607 22.9356C69.8646 22.8629 72.1452 23.4139 74.1618 24.5303C76.1271 21.1258 78.9543 18.2988 82.3591 16.3339C85.7638 14.369 89.626 13.3354 93.5571 13.3372C97.9493 13.3372 102.047 14.6008 105.505 16.7888C107.881 14.23 110.862 12.3103 114.174 11.2067C117.487 10.103 121.023 9.85093 124.459 10.4736C127.894 11.0963 131.118 12.5738 133.832 14.7699C136.546 16.9659 138.664 19.8099 139.99 23.0396C141.682 23.259 143.314 23.8146 144.788 24.6739C146.262 25.5331 147.55 26.6786 148.575 28.0428C149.6 29.4071 150.342 30.9627 150.757 32.6179C151.172 34.2732 151.252 35.9947 150.991 37.6812C156.925 42.0766 160.735 48.884 160.735 56.5231C160.735 69.7732 149.277 80.5153 135.144 80.5153C128 80.5153 121.542 77.7706 116.9 73.3496V73.3496Z" fill="#47280B"/>
<path d="M93.3301 147.693C93.3301 146.845 93.6671 146.031 94.267 145.431C94.867 144.831 95.6806 144.494 96.529 144.494H125.777C126.626 144.494 127.439 144.831 128.039 145.431C128.639 146.031 128.976 146.845 128.976 147.693C128.976 151.935 127.291 156.004 124.291 159.003C121.292 162.003 117.223 163.688 112.981 163.688H109.325C105.083 163.688 101.014 162.003 98.0148 159.003C95.0152 156.004 93.3301 151.935 93.3301 147.693V147.693Z" fill="#66253C"/>
<path fill-rule="evenodd" clip-rule="evenodd" d="M118.365 162.761C116.637 163.377 114.816 163.691 112.981 163.688H109.325C105.193 163.688 101.222 162.09 98.243 159.227C95.2639 156.365 93.5078 152.461 93.3425 148.333C95.7865 147.418 99.4142 147.524 102.994 147.629C104.133 147.661 105.265 147.693 106.353 147.693C113.422 147.693 119.149 152.706 119.149 158.89C119.149 160.249 118.87 161.555 118.365 162.761V162.761Z" fill="#B03E67"/>
<path d="M96.756 144.494H128.746V147.693C128.746 148.542 128.409 149.355 127.809 149.955C127.209 150.555 126.395 150.892 125.547 150.892H99.9549C99.1065 150.892 98.2929 150.555 97.6929 149.955C97.093 149.355 96.756 148.542 96.756 147.693V144.494Z" fill="white"/>
<path d="M106.353 120.502C106.353 117.852 104.205 115.704 101.554 115.704C98.9043 115.704 96.756 117.852 96.756 120.502V123.701C96.756 126.351 98.9043 128.5 101.554 128.5C104.205 128.5 106.353 126.351 106.353 123.701V120.502Z" fill="#1B0B47"/>
<path d="M138.342 120.502C138.342 117.852 136.194 115.704 133.544 115.704C130.894 115.704 128.746 117.852 128.746 120.502V123.701C128.746 126.351 130.894 128.5 133.544 128.5C136.194 128.5 138.342 126.351 138.342 123.701V120.502Z" fill="#1B0B47"/>
<path d="M88.7586 125.301H82.3607C79.7106 125.301 77.5623 127.449 77.5623 130.099C77.5623 132.749 79.7106 134.897 82.3607 134.897H88.7586C91.4087 134.897 93.557 132.749 93.557 130.099C93.557 127.449 91.4087 125.301 88.7586 125.301Z" fill="#FF859B"/>
<path d="M146.34 125.301H143.141C140.491 125.301 138.343 127.449 138.343 130.099C138.343 132.749 140.491 134.897 143.141 134.897H146.34C148.99 134.897 151.138 132.749 151.138 130.099C151.138 127.449 148.99 125.301 146.34 125.301Z" fill="#FF859B"/>
</svg>
