<svg width="130" height="132" viewBox="0 0 130 132" fill="none" xmlns="http://www.w3.org/2000/svg">
<g clip-path="url(#clip0)">
<path fill-rule="evenodd" clip-rule="evenodd" d="M98.0145 127.407L125.359 99.6119C127.678 97.255 127.678 93.3948 125.359 91.0379L120.851 86.4625C118.532 84.1053 114.741 84.1053 112.423 86.4625L112.301 86.579L85.193 114.133L85.078 114.257C82.7593 116.614 82.7593 120.467 85.078 122.824L89.5865 127.407C90.0461 127.874 90.5699 128.253 91.1298 128.538H96.471C97.0311 128.253 97.5479 127.874 98.0145 127.407V127.407Z" fill="#DAD0D3"/>
<path fill-rule="evenodd" clip-rule="evenodd" d="M85.1932 114.133L112.301 86.579L100.441 74.524C82.6807 64.2862 68.3015 87.7539 72.2569 100.984L85.1932 114.133Z" fill="#FFDCD5"/>
<path fill-rule="evenodd" clip-rule="evenodd" d="M33.1246 128.538H38.4658C39.0259 128.253 39.5427 127.874 40.0093 127.407L44.5178 122.824C46.8366 120.467 46.8366 116.614 44.5178 114.257L44.3957 114.133L17.288 86.5792L17.173 86.4627C14.8543 84.1055 11.0567 84.1055 8.73793 86.4627L4.23679 91.0381C1.91782 93.395 1.91782 97.2553 4.23679 99.6122L31.574 127.407C32.0406 127.874 32.5645 128.253 33.1246 128.538V128.538Z" fill="#FFA62B"/>
<path fill-rule="evenodd" clip-rule="evenodd" d="M76.6503 98.6998L93.3912 81.6901L100.441 74.5242L102.66 72.2697C105.107 69.7738 105.107 65.7021 102.66 63.2137C100.212 60.7181 96.1984 60.7181 93.7505 63.2137L95.9831 60.937C98.4381 58.4489 98.4381 54.3697 95.9831 51.8813C93.5349 49.3857 89.5219 49.3857 87.074 51.8813L89.3066 49.6046C91.7618 47.1164 91.7618 43.0373 89.3066 40.5489C86.8587 38.0605 82.8457 38.0605 80.3975 40.5489L82.6374 38.2797C85.0854 35.784 85.0854 31.7122 82.6374 29.2165C81.1514 27.7132 79.0984 27.1151 77.1671 27.4361C75.9035 27.6405 74.6903 28.2314 73.721 29.2165L64.7978 38.2941L65.0848 38.5859L65.1349 38.6373C67.5831 41.1254 67.5831 45.2045 65.1349 47.6929C62.687 50.1885 58.6741 50.1885 56.2259 47.6929C58.6741 50.1885 58.6741 54.2602 56.2259 56.7558C53.7709 59.2442 49.765 59.2442 47.3097 56.7558C49.765 59.2442 49.765 63.3233 47.3097 65.8117C44.8618 68.2999 40.8559 68.2999 38.4007 65.8117C40.8559 68.2999 40.8559 72.3792 38.4007 74.8674C35.9527 77.363 31.9398 77.363 29.4916 74.8674L29.1542 74.5242L17.2875 86.5793L44.3949 114.133L55.7233 102.618C58.9322 99.2399 66.4485 102.195 72.2563 100.984C73.908 100.641 75.4153 99.9549 76.6503 98.6998V98.6998Z" fill="#FFD0C7"/>
<path fill-rule="evenodd" clip-rule="evenodd" d="M56.2262 47.6928C58.6743 50.1885 62.6873 50.1885 65.1352 47.6928C67.5834 45.2044 67.5834 41.1253 65.1352 38.6372L65.0851 38.5859C61.3019 38.3087 54.0655 31.6319 53.6349 26.9469C51.1793 24.4513 47.1737 24.4513 44.7187 26.9469C42.2705 29.4353 42.2705 33.5144 44.7187 36.0026L46.9584 38.2793L56.2262 47.6928Z" fill="#FFDCD5"/>
<path fill-rule="evenodd" clip-rule="evenodd" d="M47.3101 56.7557C49.7654 59.2441 53.7713 59.2441 56.2263 56.7557C58.6745 54.2601 58.6745 50.1884 56.2263 47.6928L46.9585 38.2796C44.5033 35.7839 40.4974 35.7839 38.0495 38.2796C35.5942 40.7677 35.5942 44.8396 38.0495 47.3352L40.282 49.6047L47.3101 56.7557Z" fill="#FFDCD5"/>
<path fill-rule="evenodd" clip-rule="evenodd" d="M38.401 65.8118C40.8562 68.2999 44.8621 68.2999 47.31 65.8118C49.7653 63.3234 49.7653 59.2442 47.31 56.7558L40.2819 49.6046C37.834 47.1165 33.821 47.1165 31.3729 49.6046C28.9179 52.1003 28.9179 56.1722 31.3729 58.6678L35.8454 63.2138L38.401 65.8118Z" fill="#FFDCD5"/>
<path fill-rule="evenodd" clip-rule="evenodd" d="M29.4919 74.8674C31.9401 77.363 35.9531 77.363 38.401 74.8674C40.8563 72.3793 40.8563 68.2999 38.401 65.8117L35.8454 63.2138C33.3902 60.7181 29.3843 60.7181 26.9293 63.2138C24.4811 65.7022 24.4811 69.7738 26.9293 72.2697L29.1548 74.5243L29.4919 74.8674Z" fill="#FFDCD5"/>
<path fill-rule="evenodd" clip-rule="evenodd" d="M64.7978 38.294L73.721 29.2165C74.6903 28.2314 75.9035 27.6405 77.1671 27.436L59.9303 24.1159C56.5276 23.459 53.3042 23.4373 53.6346 26.9472C54.0652 31.6319 61.3016 38.3087 65.0848 38.5861L64.7978 38.294Z" fill="#FFDCD5"/>
<path d="M64.7979 16.7733C66.2069 16.7733 67.3491 15.6108 67.3491 14.1769V2.59643C67.3491 1.16248 66.2069 0 64.7979 0C63.3888 0 62.2466 1.16248 62.2466 2.59643V14.1769C62.2468 15.6108 63.3891 16.7733 64.7979 16.7733Z" fill="#333333"/>
<path d="M127.16 89.1991L122.654 84.6253C121.05 82.9956 118.913 82.098 116.636 82.098C115.181 82.098 113.783 82.4666 112.544 83.1573L104.051 74.5242L104.465 74.1037C107.911 70.5902 107.909 64.881 104.465 61.3794C103.234 60.1243 101.698 59.2875 100.024 58.9353C100.254 58.1255 100.376 57.2773 100.376 56.4093C100.376 53.9974 99.4549 51.7359 97.7885 50.047C96.5574 48.7919 95.0217 47.9551 93.3474 47.6029C93.578 46.7931 93.6993 45.9452 93.6993 45.0768C93.6993 42.6648 92.7787 40.4035 91.1095 38.712C89.849 37.4307 88.2993 36.6196 86.6722 36.2744C87.5426 33.2201 86.7989 29.7837 84.4379 27.3767C82.4728 25.3851 79.8057 24.5292 77.2357 24.8066L60.4058 21.5646C57.8391 21.0691 54.6337 20.7414 52.6106 22.6196C52.483 22.7382 52.3528 22.8746 52.2243 23.0264C49.0871 21.8626 45.4283 22.5556 42.9158 25.1095C41.2491 26.8036 40.331 29.0641 40.331 31.4747C40.331 32.343 40.4519 33.1909 40.6822 34.001C39.0097 34.3529 37.4758 35.1887 36.2489 36.4396C34.579 38.1322 33.6581 40.3901 33.6563 42.7978C33.6556 43.6682 33.7769 44.5189 34.0085 45.3311C32.3352 45.6822 30.8003 46.5165 29.5696 47.7674C27.8997 49.4651 26.9801 51.7269 26.9801 54.1361C26.9801 55.9818 27.5215 57.7396 28.5246 59.2246C27.258 59.6616 26.0978 60.3888 25.1262 61.3765C21.6784 64.881 21.6772 70.5905 25.1285 74.1091L25.5407 74.5268L17.0466 83.1555C13.8898 81.6429 10.0005 82.2096 7.39551 84.8573L2.88575 89.434C1.28167 91.0644 0.398569 93.2393 0.398315 95.5578C0.398315 97.8766 1.28167 100.052 2.88575 101.682L8.51396 107.403C9.5108 108.417 11.1263 108.416 12.1219 107.401C13.1177 106.387 13.1167 104.743 12.1198 103.729L6.49163 98.0086C5.85274 97.3592 5.50086 96.4888 5.50086 95.5581C5.50086 94.6276 5.85274 93.7575 6.49011 93.1096L11.0001 88.5327C12.1269 87.387 13.8516 87.2166 15.1613 88.0135C15.2535 88.1545 15.3602 88.2888 15.4823 88.4131C15.7006 88.6361 15.9502 88.807 16.2154 88.932L42.0785 115.214C42.2014 115.487 42.3701 115.743 42.5902 115.968C42.8045 116.186 43.049 116.355 43.3084 116.479C43.8553 117.108 44.1576 117.912 44.1576 118.77C44.1576 119.7 43.8057 120.571 43.1668 121.22L38.6613 125.8C37.3301 127.149 35.1647 127.148 33.8375 125.804L28.209 120.076C27.2127 119.062 25.5974 119.062 24.6011 120.075C23.6048 121.089 23.6045 122.733 24.6008 123.747L30.2331 129.479C31.8911 131.159 34.0682 131.999 36.2461 131.999C38.4247 131.999 40.6044 131.158 42.2642 129.477L46.7724 124.894C48.3765 123.263 49.2599 121.088 49.2599 118.769C49.2599 117.115 48.8077 115.534 47.9666 114.171L57.5262 104.454C57.5364 104.444 57.5468 104.433 57.5569 104.423C58.6515 103.271 61.6998 103.487 64.6478 103.695C66.7423 103.843 69.0775 104.008 71.359 103.741L81.8276 114.382C81.1494 115.64 80.7874 117.061 80.7874 118.54C80.7874 120.856 81.6707 123.03 83.2748 124.661L87.7833 129.243C89.3864 130.873 91.5232 131.771 93.8001 131.771C96.0768 131.771 98.2136 130.873 99.8169 129.243L127.161 101.449C128.766 99.8182 129.649 97.6433 129.649 95.3245C129.649 93.006 128.766 90.8311 127.16 89.1991V89.1991ZM59.4558 26.6667L70.523 28.7986L63.8987 35.5375C62.874 35.0363 61.4695 34.1015 59.9288 32.6016C57.8198 30.5483 56.311 28.1778 56.174 26.6992C56.1737 26.6984 56.1737 26.6977 56.1737 26.6969C56.1737 26.6966 56.1737 26.6964 56.1737 26.6961C56.1638 26.5899 56.1613 26.5051 56.1626 26.4404C56.4957 26.3579 57.3823 26.2663 59.4558 26.6667ZM46.5214 28.7836C47.8139 27.4695 49.8217 27.318 51.2822 28.3245C52.1098 31.856 55.07 35.0567 56.4017 36.3535C57.3887 37.3146 60.5555 40.1962 63.752 40.9882C64.1845 41.6191 64.4198 42.3711 64.4198 43.1647C64.4198 44.1869 64.0335 45.1426 63.3295 45.8583C62.6275 46.574 61.6869 46.9679 60.6807 46.9679C59.6742 46.9679 58.7336 46.574 58.0283 45.8549L58.0281 45.8547L58.0268 45.8534L46.5211 34.1652C45.8197 33.4523 45.4333 32.4966 45.4333 31.4747C45.4336 30.4524 45.8199 29.4967 46.5214 28.7836V28.7836ZM39.8548 40.1137C40.5568 39.3983 41.4963 39.0041 42.501 39.0041C43.507 39.0041 44.4497 39.399 45.1562 40.1173L54.4209 49.5272C55.8799 51.0143 55.8798 53.4341 54.426 54.916C53.7202 55.6314 52.7763 56.0254 51.7683 56.0254C50.7603 56.0254 49.8164 55.6314 49.1137 54.9191L49.1134 54.9188L42.0848 47.7674C42.0739 47.7563 42.062 47.746 42.0509 47.7346L39.852 45.4979C39.1465 44.7806 38.7581 43.8231 38.7589 42.8017C38.7599 41.7836 39.147 40.8309 39.8548 40.1137V40.1137ZM33.1755 51.4415C33.878 50.7276 34.8196 50.3344 35.8274 50.3344C36.8267 50.3344 37.7603 50.7219 38.4597 51.4234L45.5098 58.595C46.2128 59.3076 46.6002 60.2623 46.6002 61.2832C46.6002 62.3039 46.2128 63.2586 45.507 63.974C44.8048 64.6876 43.8642 65.0808 42.8582 65.0808C41.8508 65.0808 40.9071 64.6866 40.2039 63.974L37.648 61.376C37.6475 61.3752 37.6468 61.3747 37.6463 61.3742L33.1758 56.83C32.471 56.1135 32.0829 55.1565 32.0829 54.1356C32.0829 53.1149 32.471 52.1577 33.1755 51.4415V51.4415ZM28.7321 65.0506C29.4376 64.3334 30.3805 63.9384 31.387 63.9384C32.393 63.9384 33.3356 64.3331 34.0411 65.0498L36.6005 67.6514C37.3035 68.364 37.6908 69.3187 37.6908 70.3396C37.6908 71.3606 37.3035 72.315 36.5952 73.0333C35.8932 73.7487 34.9526 74.1429 33.9464 74.1429C32.9399 74.1429 31.9993 73.7489 31.2923 73.0281L30.9718 72.7033C30.9675 72.6989 30.9642 72.6942 30.9602 72.6901C30.9553 72.6855 30.9503 72.6814 30.9455 72.6767L28.7347 70.4355C27.2757 68.9474 27.2745 66.532 28.7321 65.0506V65.0506ZM80.7238 94.5591C79.728 93.5443 78.1125 93.5435 77.1159 94.5567L74.8461 96.8636C72.6892 99.0587 68.7811 98.7823 65.0015 98.5154C60.8973 98.2252 56.6533 97.9256 53.9069 100.795L44.5097 110.347L21.0102 86.4666L29.3264 78.0183C30.701 78.8758 32.2871 79.3355 33.9466 79.3355C36.3173 79.3355 38.5408 78.4001 40.2013 76.7071C41.8731 75.0127 42.7939 72.7515 42.7939 70.3394C42.7939 70.3169 42.7924 70.2948 42.7924 70.2723C42.8144 70.2726 42.8365 70.2739 42.8585 70.2739C45.2261 70.2739 47.4476 69.3414 49.1104 67.6512C50.7821 65.9568 51.703 63.6953 51.703 61.2835C51.703 61.261 51.7014 61.2389 51.7014 61.2164C51.7237 61.2164 51.746 61.218 51.7686 61.218C54.1354 61.218 56.3581 60.2865 58.0321 58.5898C59.77 56.8184 60.6295 54.4862 60.613 52.159C60.6358 52.159 60.6586 52.1605 60.6814 52.1605C63.0523 52.1605 65.2753 51.2252 66.9384 49.5295C68.6051 47.8354 69.5231 45.5749 69.5231 43.1644C69.5231 41.4788 69.0727 39.8672 68.2329 38.4709L75.5219 31.056C76.0651 30.5055 76.7349 30.1601 77.4369 30.0175C77.5129 30.0093 77.5878 29.9969 77.6621 29.9819C78.7884 29.8239 79.9712 30.1774 80.8325 31.0506C82.2914 32.5379 82.2914 34.9577 80.8378 36.4396L78.6179 38.6895C78.6105 38.697 78.6027 38.7037 78.5953 38.7115L76.0387 41.3092C75.0416 42.3224 75.0406 43.9665 76.0365 44.9809C77.0325 45.9957 78.6478 45.9965 79.6444 44.9833L81.8731 42.7181C81.8737 42.7176 81.8742 42.7171 81.8747 42.7166L82.2116 42.375C83.6746 40.8998 86.0447 40.9029 87.5062 42.3881C88.2094 43.1007 88.5968 44.0554 88.5968 45.0763C88.5968 46.097 88.2094 47.0517 87.5006 47.77L85.268 50.0467C85.2678 50.047 85.2675 50.0472 85.2672 50.0477L82.7107 52.639C81.7123 53.6509 81.709 55.295 82.7033 56.3108C83.6976 57.3268 85.3128 57.3299 86.3112 56.3182L88.8795 53.7151C89.5814 52.9994 90.522 52.6055 91.5283 52.6055C92.5347 52.6055 93.4756 52.9994 94.1826 53.7203C94.8859 54.4331 95.273 55.3878 95.273 56.4085C95.273 57.4292 94.8859 58.3838 94.1786 59.1006L89.7276 63.6321C88.7315 64.6464 88.7318 66.2902 89.7281 67.3039C90.2264 67.8108 90.879 68.0639 91.5318 68.0639C92.1849 68.0639 92.838 67.8102 93.336 67.3031L95.5174 65.0823C95.5299 65.0702 95.5433 65.0596 95.5557 65.047C96.2577 64.3313 97.1983 63.9374 98.2045 63.9374C99.2107 63.9374 100.152 64.3313 100.856 65.0496C102.313 66.5312 102.312 68.9469 100.856 70.4314L98.6385 72.686C98.6377 72.6868 98.6367 72.6875 98.6359 72.6883C98.6352 72.6891 98.6344 72.6901 98.6336 72.6909L95.1134 76.2691C94.1165 77.2825 94.1155 78.9263 95.1111 79.9411C95.6094 80.4487 96.263 80.7027 96.9163 80.7027C97.5689 80.7027 98.2212 80.4495 98.7193 79.9434L100.441 78.1931L108.694 86.5821L85.1963 110.466L76.7772 101.909C77.3641 101.524 77.9258 101.073 78.453 100.536L80.7215 98.2303C81.7186 97.2176 81.7196 95.5735 80.7238 94.5591V94.5591ZM123.556 97.7745L96.2116 125.569C95.5719 126.219 94.7157 126.578 93.8006 126.578C92.8856 126.578 92.0294 126.219 91.3894 125.569L86.881 120.986C86.2421 120.337 85.8902 119.468 85.8902 118.54C85.8902 117.612 86.2421 116.743 86.881 116.094L114.226 88.2989C114.865 87.6484 115.722 87.2903 116.637 87.2903C117.552 87.2903 118.408 87.6484 119.049 88.3004L123.556 92.8742C124.195 93.5237 124.547 94.3935 124.547 95.3242C124.547 96.2552 124.195 97.1253 123.556 97.7745V97.7745Z" fill="#333333"/>
<path d="M30.9203 14.5844C31.4184 15.0902 32.0704 15.3429 32.7225 15.3429C33.3761 15.3429 34.0299 15.0887 34.5282 14.5805C35.5236 13.5655 35.522 11.9217 34.5247 10.9088L25.228 1.46639C24.2309 0.453189 22.6154 0.454736 21.6201 1.47C20.6248 2.48501 20.6263 4.12882 21.6237 5.14177L30.9203 14.5844Z" fill="#333333"/>
<path d="M96.8732 15.3433C97.5256 15.3433 98.1781 15.0901 98.6762 14.584L107.966 5.14138C108.963 4.12818 108.964 2.48411 107.968 1.46962C106.972 0.454868 105.357 0.454095 104.36 1.46756L95.0703 10.9102C94.0734 11.9234 94.0724 13.5675 95.0683 14.582C95.5666 15.0893 96.2199 15.3433 96.8732 15.3433V15.3433Z" fill="#333333"/>
<path d="M16.086 111.686C15.0983 112.708 15.112 114.352 16.1169 115.357L16.1243 115.364C16.62 115.861 17.2637 116.108 17.9072 116.108C18.5676 116.108 19.2281 115.847 19.7284 115.329C20.7161 114.307 20.6986 112.659 19.6939 111.654C18.6892 110.649 17.074 110.663 16.086 111.686V111.686Z" fill="#333333"/>
<path d="M86.9639 90.8187C87.352 90.8187 87.7457 90.7288 88.1153 90.5393C89.3733 89.8934 89.8787 88.3321 89.2443 87.0518C88.6098 85.7715 87.0753 85.2569 85.8176 85.9028L85.8034 85.91C84.5453 86.5558 84.0471 88.1135 84.6814 89.3938C85.1293 90.2982 86.0301 90.8187 86.9639 90.8187V90.8187Z" fill="#333333"/>
</g>
<defs>
<clipPath id="clip0">
<rect width="129.704" height="132" fill="white" transform="translate(0.171875)"/>
</clipPath>
</defs>
</svg>
