<svg width="209" height="209" viewBox="0 0 209 209" fill="none" xmlns="http://www.w3.org/2000/svg">
<path d="M208.281 104.402C208.281 47.0354 161.776 0.530273 104.409 0.530273C47.0424 0.530273 0.537292 47.0354 0.537292 104.402C0.537292 161.769 47.0424 208.274 104.409 208.274C161.776 208.274 208.281 161.769 208.281 104.402Z" fill="#68DBF2"/>
<path d="M58.9653 136.862C67.9289 136.862 75.1953 129.596 75.1953 120.632C75.1953 111.669 67.9289 104.402 58.9653 104.402C50.0017 104.402 42.7353 111.669 42.7353 120.632C42.7353 129.596 50.0017 136.862 58.9653 136.862Z" fill="#EAC0B3"/>
<path d="M58.9653 133.616H114.147V214.345C114.147 214.345 102.322 221.259 86.5563 221.259C70.7905 221.259 58.9653 209.972 58.9653 209.972V133.616Z" fill="#EAC0B3"/>
<path d="M113.534 172.932C113.534 190.412 110.71 188.756 92.3277 188.756C73.9456 188.756 65.4638 174.588 65.4638 157.108C65.4638 139.631 64.7659 123.878 79.6001 123.878C121.548 125.424 113.534 155.452 113.534 172.932Z" fill="#C99688"/>
<path d="M149.483 117.711C149.483 146.672 144.984 182.284 109.278 182.284C73.5723 182.284 57.1086 146.672 57.1086 117.711C49.2273 83.3034 50.8503 42.7284 104.409 42.7284C157.968 42.7284 149.483 88.747 149.483 117.711V117.711Z" fill="#F5D0C5"/>
<path d="M123.885 133.616H120.639C118.847 133.616 117.393 135.07 117.393 136.862C117.393 138.655 118.847 140.108 120.639 140.108H123.885C125.678 140.108 127.131 138.655 127.131 136.862C127.131 135.07 125.678 133.616 123.885 133.616Z" fill="#EAC0B3"/>
<path d="M123.885 195.291H52.4733C36.3388 195.291 23.2593 208.37 23.2593 224.505V240.735C23.2593 256.869 36.3388 269.949 52.4733 269.949H123.885C140.02 269.949 153.099 256.869 153.099 240.735V224.505C153.099 208.37 140.02 195.291 123.885 195.291Z" fill="#E05A33"/>
<path fill-rule="evenodd" clip-rule="evenodd" d="M94.5577 85.5789C112.768 91.6262 138.018 100.007 164.46 73.5654C177.444 60.5814 119.016 5.39939 71.9493 36.2364C35.1624 41.6864 37.2626 63.73 38.8856 80.7391C39.1972 83.9948 39.4893 87.0623 39.4893 89.7954C39.4893 91.5256 39.7165 92.8207 40.1385 93.7491C39.7015 97.2833 39.4846 100.841 39.4893 104.402C39.4893 107.846 40.8573 111.149 43.2922 113.584C45.7272 116.018 49.0297 117.386 52.4733 117.386C55.9169 117.386 59.2194 116.018 61.6544 113.584C64.0894 111.149 65.4573 107.846 65.4573 104.402C67.4396 104.403 69.3957 103.949 71.1755 103.076C72.9554 102.204 74.5117 100.935 75.7253 99.3675C76.9389 97.8001 77.7776 95.9757 78.1769 94.034C78.5762 92.0924 78.5257 90.085 78.0291 88.1659L78.4413 88.1724C82.4144 88.1724 85.9688 86.3871 88.3514 83.5793C90.312 84.1701 92.3862 84.8583 94.5577 85.5789Z" fill="#1B0B47"/>
<path d="M98.7905 132.117C106.444 132.117 112.648 125.913 112.648 118.26C112.648 110.607 106.444 104.402 98.7905 104.402C91.1374 104.402 84.9333 110.607 84.9333 118.26C84.9333 125.913 91.1374 132.117 98.7905 132.117Z" stroke="black" stroke-width="8.656"/>
<path d="M144.235 132.117C151.888 132.117 158.092 125.913 158.092 118.26C158.092 110.607 151.888 104.402 144.235 104.402C136.581 104.402 130.377 110.607 130.377 118.26C130.377 125.913 136.581 132.117 144.235 132.117Z" stroke="black" stroke-width="8.656"/>
<path d="M110.853 114.478L133.575 114.14" stroke="black" stroke-width="8.656"/>
<path d="M91.4254 149.846C91.4254 147.264 92.4513 144.787 94.2775 142.961C96.1038 141.134 98.5807 140.108 101.163 140.108H130.377C132.96 140.108 135.437 141.134 137.263 142.961C139.089 144.787 140.115 147.264 140.115 149.846H91.4254Z" fill="#1B0B47"/>
</svg>
