<svg width="133" height="133" viewBox="0 0 133 133" fill="none" xmlns="http://www.w3.org/2000/svg">
<path d="M118.115 120.916H14.8844V64.7052C14.8844 61.6419 17.3677 59.1589 20.4307 59.1589H112.569C115.632 59.1589 118.115 61.6422 118.115 64.7052V120.916H118.115Z" fill="#6967BF"/>
<path d="M112.569 59.1589H102.179C105.242 59.1589 107.725 61.6422 107.725 64.7052V120.915H118.116V64.7052C118.116 61.6422 115.632 59.1589 112.569 59.1589Z" fill="#5B59B2"/>
<path d="M24.0972 68.4155H108.903V120.916H24.0972V68.4155Z" fill="#FFFFD3"/>
<path d="M46.7657 130.204V104.564C46.7657 98.13 46.7735 92.9138 46.7735 92.9138H86.7087V104.564V130.204H46.7657Z" fill="#D4D9FF"/>
<path d="M66.5484 99.8004C70.3535 99.8004 73.4381 96.7171 73.4381 92.9138V84.2302C71.226 83.7094 68.9197 83.4327 66.5484 83.4327C64.1771 83.4327 61.871 83.7096 59.6586 84.2302V92.9138C59.6589 96.7171 62.7435 99.8004 66.5484 99.8004Z" fill="#FF8CCC"/>
<path d="M66.5484 88.0427C83.084 88.0427 96.4888 74.6436 96.4888 58.115C96.4888 41.5865 83.084 28.1874 66.5484 28.1874C50.0127 28.1874 36.608 41.5865 36.608 58.115C36.608 74.6436 50.0127 88.0427 66.5484 88.0427Z" fill="#D4D9FF"/>
<path d="M66.5484 28.1874C64.7766 28.1874 63.0406 28.3414 61.3533 28.6365C75.4125 31.0951 86.0986 43.3576 86.0986 58.115C86.0986 72.8725 75.4125 85.135 61.3533 87.5936C63.0406 87.8887 64.7766 88.0427 66.5484 88.0427C83.0838 88.0427 96.4888 74.6438 96.4888 58.115C96.4888 41.5863 83.0841 28.1874 66.5484 28.1874V28.1874Z" fill="#C7CDFF"/>
<path d="M36.5607 68.432H36.5586C33.9392 68.432 31.816 66.3087 31.816 63.6894V52.5409C31.816 49.9216 33.9392 47.7983 36.5586 47.7983H36.5607C39.18 47.7983 41.3033 49.9216 41.3033 52.5409V63.6894C41.3033 66.3085 39.1798 68.432 36.5607 68.432V68.432Z" fill="#FF8CCC"/>
<path d="M96.4412 68.432H96.4391C93.8198 68.432 91.6965 66.3087 91.6965 63.6894V52.5409C91.6965 49.9216 93.8198 47.7983 96.4391 47.7983H96.4412C99.0606 47.7983 101.184 49.9216 101.184 52.5409V63.6894C101.184 66.3085 99.0606 68.432 96.4412 68.432V68.432Z" fill="#FF8CCC"/>
<path d="M66.5484 44.5553C70.3535 44.5553 73.4381 41.472 73.4381 37.6687V28.9851C71.226 28.4643 68.9197 28.1876 66.5484 28.1876C64.1771 28.1876 61.871 28.4645 59.6586 28.9851V37.6687C59.6589 41.472 62.7435 44.5553 66.5484 44.5553Z" fill="#FFD54D"/>
<path d="M86.1942 98.5549H94.8256V130.204H86.1942V98.5549Z" fill="#FF8CCC"/>
<path d="M90.659 108.301C96.0418 108.301 100.405 103.938 100.405 98.555C100.405 93.1723 96.0418 88.8087 90.659 88.8087C85.2763 88.8087 80.9128 93.1723 80.9128 98.555C80.9128 103.938 85.2763 108.301 90.659 108.301Z" fill="#FFD54D"/>
<path d="M90.6591 88.8087C88.7494 88.8087 86.968 89.3581 85.464 90.3075C88.1987 92.0338 90.0152 95.0823 90.0152 98.5552C90.0152 102.028 88.1987 105.077 85.464 106.803C86.968 107.752 88.7494 108.302 90.6591 108.302C96.042 108.302 100.405 103.938 100.405 98.5555C100.406 93.1721 96.042 88.8087 90.6591 88.8087V88.8087Z" fill="#FFC919"/>
<path d="M38.6614 98.2815H47.2928V130.204H38.6614V98.2815Z" fill="#FF8CCC"/>
<path d="M42.8278 108.301C48.2105 108.301 52.5741 103.938 52.5741 98.555C52.5741 93.1723 48.2105 88.8087 42.8278 88.8087C37.4451 88.8087 33.0815 93.1723 33.0815 98.555C33.0815 103.938 37.4451 108.301 42.8278 108.301Z" fill="#FFD54D"/>
<path d="M42.8279 88.8087C40.9181 88.8087 39.1365 89.3581 37.6328 90.3075C40.3675 92.0338 42.1839 95.0823 42.1839 98.5552C42.1839 102.028 40.3675 105.077 37.6328 106.803C39.1365 107.752 40.9181 108.302 42.8279 108.302C48.2108 108.302 52.5741 103.938 52.5741 98.5555C52.5741 93.1721 48.2105 88.8087 42.8279 88.8087V88.8087Z" fill="#FFC919"/>
<path d="M66.5598 16.7535C69.4667 16.7535 71.8232 14.398 71.8232 11.4924C71.8232 8.58679 69.4667 6.23132 66.5598 6.23132C63.6529 6.23132 61.2964 8.58679 61.2964 11.4924C61.2964 14.398 63.6529 16.7535 66.5598 16.7535Z" fill="#FF8CCC"/>
<path d="M125.503 131.052H7.49722C4.43393 131.052 1.95093 128.569 1.95093 125.506V120.916H131.049V125.506C131.049 128.569 128.566 131.052 125.503 131.052Z" fill="#7776D0"/>
<path d="M120.659 120.916V125.506C120.659 128.569 118.176 131.052 115.113 131.052H125.503C128.566 131.052 131.049 128.569 131.049 125.506V120.916H120.659Z" fill="#6967BF"/>
<path d="M55.6998 54.7301V66.9921C55.6998 68.0683 56.572 68.9403 57.6479 68.9403C58.7238 68.9403 59.5961 68.0683 59.5961 66.9921V54.7301C59.5961 53.654 58.7238 52.782 57.6479 52.782C56.572 52.782 55.6998 53.654 55.6998 54.7301Z" fill="#333333"/>
<path d="M73.5013 54.7301V66.9921C73.5013 68.0683 74.3733 68.9403 75.4494 68.9403C76.5256 68.9403 77.3976 68.0683 77.3976 66.9921V54.7301C77.3976 53.654 76.5256 52.782 75.4494 52.782C74.3733 52.782 73.5013 53.654 73.5013 54.7301Z" fill="#333333"/>
<path d="M50.8626 20.0939C52.4983 20.0939 53.3968 17.9246 52.2401 16.768C50.8294 15.3572 50.0524 13.4836 50.0524 11.4921C50.0524 9.50053 50.8294 7.62692 52.2401 6.21619C54.0212 4.43479 51.2663 1.68009 49.4851 3.46097C47.3385 5.60785 46.1564 8.45995 46.1564 11.4921C46.1564 14.5245 47.3385 17.3766 49.4851 19.5232C49.8657 19.9037 50.3639 20.0939 50.8626 20.0939Z" fill="#333333"/>
<path d="M40.835 22.9796C42.4709 22.9796 43.3689 20.8103 42.2125 19.6536C37.7125 15.1537 37.7125 7.83142 42.2125 3.33143C43.9936 1.55003 41.2387 -1.20468 39.4575 0.576204C33.4382 6.59551 33.4382 16.3898 39.4575 22.4091C39.8378 22.7891 40.3363 22.9796 40.835 22.9796Z" fill="#333333"/>
<path d="M80.7599 19.5234C81.6784 20.284 82.5969 20.284 83.5151 19.5234C87.9432 15.0951 87.9432 7.88978 83.5151 3.46148C81.734 1.68034 78.9785 4.43504 80.7599 6.21618C83.6689 9.12544 83.6689 13.8592 80.7599 16.7679C79.9991 17.529 79.9991 18.7623 80.7599 19.5234Z" fill="#333333"/>
<path d="M90.7875 22.4088C91.706 23.1694 92.6244 23.1694 93.5427 22.4088C99.562 16.3895 99.562 6.59517 93.5427 0.575871C91.761 -1.20449 89.0063 1.54969 90.7875 3.33109C95.2877 7.83109 95.2877 15.1533 90.7875 19.6533C90.0266 20.4147 90.0266 21.648 90.7875 22.4088V22.4088Z" fill="#333333"/>
<path d="M131.049 118.968H120.064V64.7055C120.064 60.573 116.702 57.2107 112.569 57.2107H103.132V52.5409C103.132 48.7318 99.7862 45.615 95.9966 45.8647C94.9324 43.3105 93.5388 40.9065 91.8408 38.6993C90.3054 36.7028 87.2169 39.0786 88.7526 41.075C90.2173 42.979 91.4239 45.0498 92.3512 47.2476C90.7688 48.4723 89.7482 50.3896 89.7482 52.5409V63.6893C89.7482 65.8406 90.7688 67.7578 92.351 68.9826C88.0076 79.273 77.8086 86.0945 66.5479 86.0945C55.2777 86.0945 45.0504 79.2439 40.721 68.9252C42.2616 67.6984 43.251 65.8071 43.251 63.689V52.5409C43.251 50.4234 42.2621 48.5323 40.7215 47.3055C42.9627 41.9704 46.8557 37.3985 51.8024 34.3279C53.6638 33.1723 55.6486 32.2478 57.7103 31.5641V37.6686C57.7103 42.5403 61.6749 46.5036 66.5482 46.5036C71.4215 46.5036 75.3861 42.5403 75.3861 37.6686V31.5638C77.1956 32.1657 78.9453 32.9504 80.5789 33.8985C82.7567 35.1638 84.7134 31.7929 82.5346 30.5287C78.2676 28.052 73.4325 26.5973 68.5075 26.2989V18.4345C71.5407 17.5828 73.771 14.793 73.771 11.4923C73.771 7.51703 70.536 4.28308 66.5594 4.28308C62.5828 4.28308 59.3478 7.51703 59.3478 11.4923C59.3478 14.793 61.578 17.5825 64.6112 18.4345V26.2997C52.5968 27.0337 41.7356 34.7539 37.098 45.8717C33.2751 45.5654 29.8674 48.6936 29.8674 52.5409V57.211H20.4308C16.2983 57.211 12.9363 60.573 12.9363 64.7057V118.968H1.95103C0.875126 118.968 0.00286865 119.84 0.00286865 120.916V125.506C0.00286865 129.638 3.36488 133 7.49758 133H33.5094C36.0283 133 36.0283 129.104 33.5094 129.104H7.49732C5.51331 129.104 3.89893 127.49 3.89893 125.506V122.864H129.101V125.506C129.101 127.49 127.487 129.104 125.502 129.104H43.8739C41.3551 129.104 41.3551 133 43.8739 133H125.503C129.635 133 132.997 129.638 132.997 125.506V120.916C132.997 119.84 132.125 118.968 131.049 118.968V118.968ZM71.4903 30.5708V37.6686C71.4903 40.3916 69.2736 42.6073 66.5487 42.6073C63.8239 42.6073 61.6074 40.3919 61.6074 37.6686V30.5757C64.8536 29.9954 68.2421 29.989 71.4903 30.5708V30.5708ZM63.2446 11.4926C63.2446 9.66598 64.7317 8.17967 66.5599 8.17967C68.3878 8.17967 69.8751 9.66598 69.8751 11.4926C69.8751 12.6051 69.3234 13.5914 68.4792 14.1925C67.5067 14.8442 65.5585 14.8442 64.6406 14.1925C63.7964 13.5914 63.2446 12.6051 63.2446 11.4926V11.4926ZM99.2358 52.5409V63.6893C99.2358 67.3295 93.6451 67.3295 93.6451 63.6893V52.5409C93.6451 49.0451 99.2358 48.8848 99.2358 52.5409ZM90.6592 110.25C91.4174 110.25 92.159 110.177 92.8772 110.039V118.968H88.1422V109.977C88.9534 110.155 89.7955 110.25 90.6592 110.25ZM90.6592 106.353C86.4202 106.353 82.8611 102.808 82.8611 98.5552C82.8611 94.2552 86.3595 90.7571 90.6592 90.7571C94.9589 90.7571 98.4573 94.2554 98.4573 98.5552C98.4573 102.855 94.9592 106.353 90.6592 106.353ZM84.2461 108.33V118.968H49.241V108.33C52.4199 106.238 54.5223 102.637 54.5223 98.5552C54.5223 97.2652 54.3122 96.0233 53.9246 94.862H57.9272C58.8171 98.7993 62.3446 101.749 66.5485 101.749C70.7523 101.749 74.2798 98.7996 75.1697 94.862H79.5622C79.1746 96.0233 78.9645 97.2652 78.9645 98.5552C78.9648 102.637 81.0672 106.238 84.2461 108.33V108.33ZM50.626 98.5552C50.626 102.855 47.1276 106.353 42.8279 106.353C38.5282 106.353 35.0298 102.855 35.0298 98.5552C35.0298 94.2554 38.5282 90.7571 42.8279 90.7571C47.1276 90.7571 50.626 94.2552 50.626 98.5552ZM42.8279 110.25C43.6916 110.25 44.534 110.155 45.3447 109.977V118.968H40.6096V110.039C41.3281 110.177 42.0697 110.25 42.8279 110.25V110.25ZM71.4903 89.6035V92.9138C71.4903 95.6368 69.2736 97.8525 66.5487 97.8525C63.8239 97.8525 61.6074 95.6371 61.6074 92.9138V89.6027C63.2262 89.8588 64.8775 89.991 66.5487 89.991C68.2202 89.991 69.8715 89.8591 71.4903 89.6035ZM33.7643 52.5409C33.7643 49.0451 39.3552 48.8848 39.3552 52.5409V63.6893C39.3552 67.3298 33.7643 67.3295 33.7643 63.6893V52.5409ZM16.8327 64.7055C16.8327 62.7212 18.4468 61.1071 20.4308 61.1071H29.8679V63.689C29.8679 64.6797 30.0846 65.6208 30.4726 66.4674H24.097C23.0211 66.4674 22.1488 67.3394 22.1488 68.4155V118.967H16.8327V64.7055ZM26.0451 70.364C29.7077 70.364 33.4437 70.5925 37.1 70.364C40.8551 79.3725 48.5519 86.0711 57.7108 88.7317V90.9654H51.7183C49.5717 88.4546 46.3826 86.8602 42.8279 86.8602C36.3795 86.8602 31.1335 92.1062 31.1335 98.5546C31.1335 102.763 33.3684 106.46 36.7135 108.52V118.967H26.0454V70.364H26.0451ZM96.7736 118.968V108.52C100.119 106.46 102.354 102.764 102.354 98.5552C102.354 92.1068 97.1076 86.8607 90.6592 86.8607C87.1044 86.8607 83.9154 88.4549 81.7688 90.9659H75.3864V88.7341C84.549 86.0755 92.2398 79.3788 95.9961 70.3658C99.6153 70.604 103.329 70.3642 106.955 70.3642V118.968H96.7736ZM110.851 118.968V68.4158C110.851 67.3396 109.979 66.4676 108.903 66.4676H102.528C102.916 65.6208 103.132 64.68 103.132 63.6893V61.1073H112.569C114.554 61.1073 116.168 62.7215 116.168 64.7057V118.968H110.851Z" fill="#333333"/>
</svg>
