<svg width="615" height="462" viewBox="0 0 615 462" fill="none" xmlns="http://www.w3.org/2000/svg">
<path d="M191.008 376.738C226.197 376.738 261.387 376.738 296.577 376.738C331.651 376.738 366.726 376.738 401.762 376.738C421.585 376.738 441.446 376.738 461.269 376.738C461.999 376.738 461.999 375.585 461.269 375.585C426.079 375.585 390.89 375.585 355.7 375.585C320.626 375.585 285.551 375.585 250.515 375.585C230.692 375.585 210.831 375.585 191.008 375.585C190.278 375.585 190.278 376.738 191.008 376.738Z" fill="#A7A7A7"/>
<path d="M468.376 352.842C468.069 363.906 469.183 374.97 471.719 385.765C471.872 386.495 472.986 386.188 472.833 385.458C470.336 374.778 469.221 363.83 469.567 352.842C469.529 352.112 468.376 352.112 468.376 352.842Z" fill="#A7A7A7"/>
<path d="M514.13 353.726C515.206 363.945 514.553 374.279 512.21 384.267C512.056 384.997 513.132 385.305 513.324 384.575C515.705 374.471 516.397 364.06 515.283 353.726C515.206 352.996 514.054 352.996 514.13 353.726Z" fill="#A7A7A7"/>
<path d="M472.179 386.841C485.471 390.222 499.532 389.761 512.555 385.458C513.247 385.228 512.939 384.114 512.248 384.344C499.378 388.57 485.587 389.069 472.487 385.727C471.757 385.574 471.449 386.688 472.179 386.841Z" fill="#A7A7A7"/>
<path d="M468.914 353.38C483.858 356.569 499.34 356.492 514.246 353.188C514.976 353.034 514.668 351.92 513.938 352.074C499.225 355.339 483.935 355.378 469.221 352.266C468.491 352.112 468.184 353.227 468.914 353.38Z" fill="#A7A7A7"/>
<path d="M478.019 353.803C476.021 349.308 477.827 343.814 479.325 339.396C480.862 334.825 483.051 330.484 485.741 326.488C485.433 326.527 485.126 326.565 484.819 326.604C485.702 327.603 486.663 328.294 487.853 328.87C488.314 329.062 488.814 328.755 488.699 328.217C488.238 326.143 487.431 324.107 488.353 322.032C489.006 320.572 489.928 319.112 490.696 317.729C490.427 317.806 490.158 317.883 489.89 317.922C490.696 318.421 491.503 318.882 492.31 319.381C492.848 319.727 493.309 319.074 493.117 318.575C492.31 316.807 491.772 315.04 492.886 313.273C493.539 312.197 494.384 311.237 495.114 310.238C496.728 308.087 498.418 305.936 500.108 303.823C503.335 299.789 506.678 295.87 510.135 292.029C509.828 291.99 509.52 291.952 509.213 291.913C514.13 298.367 517.242 306.089 518.087 314.157C518.51 318.037 518.395 322.032 517.703 325.874C517.357 327.833 516.858 329.754 516.243 331.636C516.128 332.02 515.974 332.405 515.859 332.75C515.437 333.826 514.745 334.287 513.631 334.518C512.863 334.671 512.44 334.556 511.787 335.055C511.48 335.286 511.403 335.67 511.672 335.977C512.517 336.861 512.863 337.015 512.555 338.206C512.363 338.974 511.902 339.781 511.557 340.549C510.865 342.086 510.097 343.584 509.29 345.044C507.638 348.04 505.756 350.883 503.643 353.572C503.182 354.148 503.988 354.955 504.449 354.379C508.522 349.154 511.749 343.43 514.169 337.284C514.246 337.091 514.169 336.861 514.015 336.707C513.516 336.208 513.016 335.67 512.479 335.171C512.44 335.478 512.402 335.785 512.363 336.093C513.247 335.478 514.246 335.901 515.168 335.516C515.898 335.247 516.282 334.71 516.589 334.018C517.434 332.213 517.972 330.138 518.433 328.217C519.394 323.991 519.701 319.65 519.394 315.348C518.74 306.665 515.552 298.252 510.25 291.337C510.058 291.068 509.636 290.915 509.328 291.222C505.064 295.947 500.954 300.826 497.035 305.82C495.268 308.048 493.385 310.277 491.849 312.697C490.466 314.887 491.119 316.961 492.079 319.189C492.348 318.92 492.617 318.651 492.886 318.383C492.079 317.883 491.273 317.422 490.466 316.923C490.197 316.769 489.813 316.846 489.659 317.115C488.699 318.882 487.2 320.841 486.663 322.8C486.202 324.529 487.162 326.796 487.546 328.486C487.815 328.256 488.122 328.064 488.391 327.833C487.277 327.334 486.394 326.681 485.587 325.759C485.318 325.451 484.857 325.566 484.665 325.874C481.668 330.33 479.325 335.209 477.711 340.357C476.328 344.813 474.984 349.884 476.943 354.341C477.327 355.032 478.326 354.456 478.019 353.803Z" fill="#A7A7A7"/>
<path d="M509.29 300.749C507.753 318.152 495.844 332.097 490.888 348.463C490.658 349.193 491.772 349.462 492.002 348.77C496.958 332.289 508.906 318.306 510.442 300.749C510.519 299.981 509.328 300.019 509.29 300.749Z" fill="#A7A7A7"/>
<path d="M494.768 310.008C495.998 316.347 497.419 322.609 499.033 328.832C499.225 329.562 500.339 329.255 500.147 328.525C498.533 322.301 497.112 316.001 495.883 309.701C495.767 308.971 494.653 309.278 494.768 310.008Z" fill="#A7A7A7"/>
<path d="M507.753 314.08C511.095 311.66 513.977 308.779 516.474 305.436C516.935 304.86 515.936 304.284 515.475 304.86C513.132 308.01 510.366 310.776 507.177 313.081C506.601 313.542 507.177 314.541 507.753 314.08Z" fill="#A7A7A7"/>
<path d="M504.18 297.638C505.218 300.941 505.832 304.975 508.368 307.472C508.906 308.01 509.712 307.165 509.175 306.666C506.831 304.322 506.217 300.365 505.256 297.33C505.064 296.639 503.95 296.946 504.18 297.638Z" fill="#A7A7A7"/>
<path d="M475.714 353.495C473.37 351.651 471.949 349.078 470.758 346.388C469.413 343.238 468.261 340.011 467.224 336.746C465.264 330.484 463.843 324.03 462.998 317.538C461.269 303.938 462.652 290.185 461 276.547C460.654 276.662 460.27 276.739 459.924 276.854C464.227 286.535 474.292 292.336 482.667 298.099C482.59 297.83 482.514 297.561 482.475 297.292C481.323 298.944 480.17 300.596 479.018 302.248C478.749 302.632 479.094 303.131 479.517 303.131C481.015 303.131 482.321 302.939 483.743 302.44C483.512 302.363 483.32 302.248 483.09 302.171C484.511 304.361 485.933 306.55 487.354 308.74C487.392 308.51 487.431 308.279 487.431 308.049C486.739 308.702 486.163 309.432 485.587 310.238C485.395 310.507 485.587 311.045 485.933 311.084C489.083 311.545 490.197 314.541 491.004 317.23C491.234 317.922 492.348 317.653 492.118 316.923C491.157 313.888 489.774 310.469 486.24 309.969C486.355 310.238 486.47 310.546 486.586 310.815C487.085 310.046 487.585 309.508 488.238 308.894C488.43 308.74 488.468 308.394 488.314 308.202C486.893 306.013 485.472 303.823 484.05 301.633C483.935 301.441 483.666 301.287 483.397 301.364C482.091 301.787 480.823 302.017 479.479 301.979C479.632 302.286 479.824 302.555 479.978 302.862C481.131 301.21 482.283 299.559 483.436 297.907C483.628 297.638 483.474 297.292 483.243 297.1C475.022 291.453 465.149 285.805 460.923 276.278C460.693 275.779 459.771 276.009 459.848 276.585C461.538 290.723 460.04 305.014 462.037 319.113C462.998 325.912 464.573 332.597 466.763 339.089C468.53 344.352 470.374 350.768 474.869 354.341C475.483 354.763 476.29 353.956 475.714 353.495Z" fill="#A7A7A7"/>
<path d="M460.155 277.699C463.267 286.305 465.879 295.371 470.066 303.554C472.141 307.587 474.408 311.544 476.367 315.655C478.48 320.111 480.362 324.644 482.283 329.139C482.552 329.831 483.551 329.216 483.282 328.563C481.476 324.26 479.632 319.958 477.673 315.732C475.752 311.583 473.524 307.626 471.373 303.592C467.07 295.371 464.419 286.151 461.231 277.43C461 276.7 459.886 277.008 460.155 277.699Z" fill="#A7A7A7"/>
<path d="M461.615 306.896C465.764 307.395 470.297 307.626 473.447 310.738C473.985 311.275 474.792 310.43 474.254 309.931C470.873 306.627 466.071 306.32 461.615 305.782C460.885 305.667 460.885 306.819 461.615 306.896Z" fill="#A7A7A7"/>
<path d="M472.717 291.337C472.026 293.834 471.565 296.408 471.373 299.021C471.219 301.249 470.95 303.861 471.718 306.012C471.949 306.704 473.063 306.397 472.832 305.705C472.103 303.669 472.371 301.133 472.525 298.982C472.717 296.485 473.178 294.026 473.831 291.606C474.023 290.915 472.909 290.607 472.717 291.337Z" fill="#A7A7A7"/>
<path d="M464.227 327.833C467.224 327.91 470.105 327.948 473.025 328.755C475.906 329.562 478.749 330.407 481.63 331.252C482.36 331.444 482.667 330.33 481.937 330.138C478.864 329.255 475.829 328.294 472.717 327.487C469.913 326.758 467.108 326.796 464.227 326.719C463.497 326.642 463.497 327.795 464.227 327.833Z" fill="#A7A7A7"/>
<path d="M506.255 352.42C508.829 352.074 511.364 352.074 513.938 352.42C513.823 352.151 513.708 351.843 513.593 351.574C513.362 351.92 511.057 351.959 510.596 351.997C509.559 352.151 508.483 352.304 507.446 352.535C507.292 352.573 506.255 352.689 506.217 352.804C506.293 352.612 507.83 352.65 508.061 352.65C509.175 352.65 510.289 352.765 511.403 352.842C511.403 352.458 511.403 352.074 511.403 351.69C510.442 351.651 509.597 351.767 508.637 352.035C508.022 352.189 508.137 353.15 508.79 353.15C510.289 353.15 511.633 352.842 513.093 352.458C513.823 352.266 513.516 351.152 512.786 351.344C511.48 351.69 510.173 351.997 508.79 351.997C508.829 352.381 508.906 352.765 508.944 353.111C509.751 352.881 510.558 352.804 511.403 352.804C512.133 352.804 512.133 351.69 511.403 351.651C509.712 351.574 507.254 350.96 505.717 351.92C505.102 352.304 504.219 353.303 505.026 353.918C505.371 354.187 505.756 354.033 506.178 353.995C507.331 353.764 508.445 353.495 509.597 353.303C510.942 353.073 513.631 353.418 514.553 352.151C514.745 351.882 514.553 351.344 514.207 351.306C511.518 350.921 508.906 350.921 506.217 351.267C505.525 351.344 505.525 352.496 506.255 352.42Z" fill="#A7A7A7"/>
<path d="M469.413 353.15C469.951 352.996 470.489 352.881 471.027 352.842C471.296 352.842 471.526 352.804 471.795 352.842C471.91 352.842 472.448 352.804 472.487 352.842C472.448 352.65 472.372 352.458 472.333 352.266C472.333 352.304 472.295 352.343 472.295 352.343C472.525 352.228 472.756 352.074 472.986 351.959C472.948 351.959 472.909 351.959 472.909 351.959C473.025 352.074 473.178 352.228 473.294 352.343C473.294 352.304 473.294 352.266 473.255 352.266C473.063 351.536 471.987 351.843 472.141 352.573C472.141 352.612 472.141 352.65 472.179 352.65C472.218 352.842 472.41 352.996 472.564 353.034C472.602 353.034 472.64 353.034 472.64 353.034C472.948 353.111 473.217 352.958 473.332 352.65C473.332 352.612 473.37 352.573 473.37 352.573C473.447 352.381 473.37 352.151 473.217 351.997C472.794 351.575 471.872 351.651 471.334 351.651C470.566 351.651 469.759 351.805 469.029 351.997C468.415 352.228 468.722 353.342 469.413 353.15Z" fill="#A7A7A7"/>
<path d="M470.297 360.871C484.319 363.292 498.879 364.444 512.709 360.295C513.401 360.065 513.132 358.989 512.402 359.181C498.802 363.253 484.434 362.139 470.604 359.757C469.874 359.642 469.567 360.756 470.297 360.871Z" fill="#A7A7A7"/>
<path d="M518.587 376.661C543.212 376.661 567.875 376.661 592.5 376.661C593.23 376.661 593.23 375.508 592.5 375.508C567.875 375.508 543.212 375.508 518.587 375.508C517.818 375.508 517.818 376.661 518.587 376.661Z" fill="#A7A7A7"/>
<path d="M499.955 401.362C523.158 401.362 546.4 401.362 569.604 401.362C570.334 401.362 570.334 400.21 569.604 400.21C546.4 400.21 523.158 400.21 499.955 400.21C499.225 400.21 499.225 401.362 499.955 401.362Z" fill="#A7A7A7"/>
<path d="M510.519 401.247C507.753 403.552 504.987 405.819 502.26 408.124C501.684 408.585 502.49 409.392 503.067 408.931C505.833 406.626 508.599 404.359 511.326 402.054C511.902 401.593 511.057 400.748 510.519 401.247Z" fill="#A7A7A7"/>
<path d="M502.605 409.353C503.335 409.353 503.335 408.201 502.605 408.201C501.876 408.201 501.876 409.353 502.605 409.353Z" fill="#A7A7A7"/>
<path d="M514.322 408.201C490.927 408.201 467.531 408.201 444.135 408.201C443.405 408.201 443.405 409.353 444.135 409.353C467.531 409.353 490.927 409.353 514.322 409.353C515.052 409.353 515.052 408.201 514.322 408.201Z" fill="#A7A7A7"/>
<path d="M444.02 420.11C448.169 416.653 452.433 413.349 456.813 410.16C457.389 409.738 456.851 408.739 456.236 409.161C451.78 412.388 447.439 415.769 443.213 419.265C442.637 419.764 443.444 420.571 444.02 420.11Z" fill="#A7A7A7"/>
<path d="M94.2746 399.134C121.397 399.134 148.519 399.134 175.641 399.134C183.324 399.134 191.008 399.134 198.691 399.134C199.421 399.134 199.421 397.982 198.691 397.982C171.569 397.982 144.447 397.982 117.325 397.982C109.641 397.982 101.958 397.982 94.2746 397.982C93.5447 397.982 93.5447 399.134 94.2746 399.134Z" fill="#A7A7A7"/>
<path d="M108.45 409.161C112.1 406.049 115.788 402.938 119.438 399.826C120.014 399.326 119.169 398.52 118.631 399.019C114.981 402.131 111.293 405.243 107.644 408.354C107.067 408.815 107.913 409.661 108.45 409.161Z" fill="#A7A7A7"/>
<path d="M95.2351 410.275C120.436 410.275 145.638 410.275 170.839 410.275C171.569 410.275 171.569 409.123 170.839 409.123C145.638 409.123 120.436 409.123 95.2351 409.123C94.5051 409.123 94.5051 410.275 95.2351 410.275Z" fill="#A7A7A7"/>
<path d="M162.042 410.045C159.16 413.272 156.202 416.422 153.206 419.572C152.706 420.11 153.513 420.917 154.012 420.379C157.009 417.229 159.929 414.078 162.848 410.851C163.386 410.314 162.541 409.507 162.042 410.045Z" fill="#A7A7A7"/>
<path d="M142.372 421.416C164.539 421.416 186.667 421.416 208.833 421.416C209.563 421.416 209.563 420.264 208.833 420.264C186.667 420.264 164.539 420.264 142.372 420.264C141.642 420.264 141.642 421.416 142.372 421.416Z" fill="#A7A7A7"/>
<path d="M126.66 379.811C136.034 379.811 145.407 379.811 154.819 379.811C155.549 379.811 155.549 378.658 154.819 378.658C145.446 378.658 136.072 378.658 126.66 378.658C125.93 378.658 125.93 379.811 126.66 379.811Z" fill="#A7A7A7"/>
<path d="M161.926 383.576C164.808 383.576 167.727 383.576 170.609 383.576C171.338 383.576 171.338 382.423 170.609 382.423C167.727 382.423 164.808 382.423 161.926 382.423C161.158 382.423 161.158 383.576 161.926 383.576Z" fill="#A7A7A7"/>
<path d="M141.066 178.162C141.066 184.424 141.066 190.724 141.066 196.986C141.066 197.716 142.219 197.716 142.219 196.986C142.219 190.724 142.219 184.424 142.219 178.162C142.219 177.432 141.066 177.432 141.066 178.162Z" fill="#A7A7A7"/>
<path d="M121.743 197.908C137.186 197.908 152.63 197.908 168.073 197.908C168.803 197.908 168.803 196.755 168.073 196.755C152.63 196.755 137.186 196.755 121.743 196.755C121.013 196.755 121.013 197.908 121.743 197.908Z" fill="#A7A7A7"/>
<path d="M154.089 198.446C154.089 203.286 154.089 208.088 154.089 212.929C154.089 213.659 155.242 213.659 155.242 212.929C155.242 208.088 155.242 203.286 155.242 198.446C155.242 197.677 154.089 197.677 154.089 198.446Z" fill="#A7A7A7"/>
<path d="M141.297 214.927C153.59 214.927 165.922 214.927 178.215 214.927C178.945 214.927 178.945 213.774 178.215 213.774C165.922 213.774 153.59 213.774 141.297 213.774C140.528 213.774 140.528 214.927 141.297 214.927Z" fill="#A7A7A7"/>
<path d="M451.319 164.678C451.319 166.214 451.319 167.713 451.319 169.249C451.319 169.979 452.472 169.979 452.472 169.249C452.472 167.713 452.472 166.214 452.472 164.678C452.472 163.948 451.319 163.948 451.319 164.678Z" fill="#A7A7A7"/>
<path d="M452.241 165.6C478.672 165.6 505.102 165.6 531.533 165.6C532.263 165.6 532.263 164.447 531.533 164.447C505.102 164.447 478.672 164.447 452.241 164.447C451.511 164.447 451.511 165.6 452.241 165.6Z" fill="#A7A7A7"/>
<path d="M452.933 169.825C479.133 169.825 505.333 169.825 531.495 169.825C532.225 169.825 532.225 168.673 531.495 168.673C505.294 168.673 479.094 168.673 452.933 168.673C452.203 168.673 452.203 169.825 452.933 169.825Z" fill="#A7A7A7"/>
<path d="M531.341 164.678C531.187 166.253 531.264 167.828 531.533 169.403C531.648 170.133 532.763 169.826 532.647 169.096C532.378 167.636 532.34 166.138 532.494 164.678C532.57 163.948 531.418 163.948 531.341 164.678Z" fill="#A7A7A7"/>
<path d="M457.658 164.716C457.658 153.997 457.658 143.279 457.658 132.561C457.658 131.831 456.505 131.831 456.505 132.561C456.505 143.279 456.505 153.997 456.505 164.716C456.505 165.484 457.658 165.484 457.658 164.716Z" fill="#A7A7A7"/>
<path d="M457.658 132.753C460.923 131.447 464.381 131.639 467.416 133.445C468.069 133.829 468.645 132.83 467.992 132.446C464.727 130.525 460.847 130.218 457.351 131.639C456.659 131.908 456.966 133.022 457.658 132.753Z" fill="#A7A7A7"/>
<path d="M467.224 133.176C467.224 143.472 467.224 153.806 467.224 164.101C467.224 164.831 468.376 164.831 468.376 164.101C468.376 153.806 468.376 143.472 468.376 133.176C468.376 132.446 467.224 132.446 467.224 133.176Z" fill="#A7A7A7"/>
<path d="M468.53 141.781C470.873 140.821 473.332 140.974 475.522 142.319C476.175 142.703 476.751 141.704 476.098 141.32C473.678 139.86 470.835 139.591 468.223 140.667C467.531 140.936 467.838 142.05 468.53 141.781Z" fill="#A7A7A7"/>
<path d="M475.291 142.281C475.291 149.503 475.291 156.687 475.291 163.909C475.291 164.639 476.444 164.639 476.444 163.909C476.444 156.687 476.444 149.503 476.444 142.281C476.444 141.551 475.291 141.551 475.291 142.281Z" fill="#A7A7A7"/>
<path d="M457.812 141.589C461.077 140.859 464.304 141.09 467.454 142.204C468.146 142.434 468.453 141.32 467.762 141.09C464.419 139.899 460.962 139.745 457.504 140.475C456.813 140.629 457.12 141.743 457.812 141.589Z" fill="#A7A7A7"/>
<path d="M467.723 154.92C470.182 154.267 472.64 154.19 475.137 154.728C475.867 154.881 476.175 153.767 475.445 153.614C472.756 153.037 470.105 153.076 467.416 153.806C466.724 153.998 466.993 155.112 467.723 154.92Z" fill="#A7A7A7"/>
<path d="M489.813 164.332C489.813 162.18 489.813 160.029 489.813 157.878C489.813 157.148 488.66 157.148 488.66 157.878C488.66 160.029 488.66 162.18 488.66 164.332C488.66 165.062 489.813 165.062 489.813 164.332Z" fill="#A7A7A7"/>
<path d="M489.236 158.223C501.722 158.223 514.169 158.223 526.654 158.223C527.384 158.223 527.384 157.071 526.654 157.071C514.169 157.071 501.722 157.071 489.236 157.071C488.468 157.071 488.468 158.223 489.236 158.223Z" fill="#A7A7A7"/>
<path d="M527.038 158.838C527.768 158.838 527.768 157.686 527.038 157.686C526.27 157.686 526.27 158.838 527.038 158.838Z" fill="#A7A7A7"/>
<path d="M526.462 158.262C526.462 160.221 526.462 162.181 526.462 164.14C526.462 164.87 527.615 164.87 527.615 164.14C527.615 162.181 527.615 160.221 527.615 158.262C527.615 157.532 526.462 157.532 526.462 158.262Z" fill="#A7A7A7"/>
<path d="M497.073 157.455C497.073 155.419 497.073 153.421 497.073 151.385C497.073 150.655 495.921 150.655 495.921 151.385C495.921 153.421 495.921 155.419 495.921 157.455C495.921 158.185 497.073 158.185 497.073 157.455Z" fill="#A7A7A7"/>
<path d="M496.497 151.769C508.752 151.769 521.007 151.769 533.3 151.769C534.03 151.769 534.03 150.617 533.3 150.617C521.045 150.617 508.79 150.617 496.497 150.617C495.767 150.617 495.767 151.769 496.497 151.769Z" fill="#A7A7A7"/>
<path d="M532.916 151.193C532.916 152.884 532.916 154.574 532.916 156.264C532.916 156.994 534.069 156.994 534.069 156.264C534.069 154.574 534.069 152.884 534.069 151.193C534.069 150.425 532.916 150.425 532.916 151.193Z" fill="#A7A7A7"/>
<path d="M526.232 158.416C528.46 158.416 530.688 158.416 532.916 158.416C533.646 158.416 533.646 157.263 532.916 157.263C530.688 157.263 528.46 157.263 526.232 157.263C525.463 157.263 525.463 158.416 526.232 158.416Z" fill="#A7A7A7"/>
<path d="M532.839 156.303C532.763 156.725 532.763 157.109 532.878 157.493C532.955 157.801 533.3 157.993 533.569 157.878C533.877 157.801 534.069 157.455 533.953 157.186C533.915 156.994 533.877 156.764 533.915 156.61C533.953 156.303 533.838 155.957 533.531 155.918C533.262 155.842 532.878 155.995 532.839 156.303Z" fill="#A7A7A7"/>
<path d="M505.256 151.462C505.756 153.422 505.871 155.419 505.602 157.455C505.525 158.185 506.678 158.185 506.754 157.455C507.023 155.342 506.87 153.229 506.37 151.155C506.178 150.463 505.064 150.771 505.256 151.462Z" fill="#A7A7A7"/>
<path d="M513.938 158.147C514.207 160.068 514.054 161.95 513.593 163.794C513.401 164.524 514.515 164.831 514.707 164.101C515.245 162.027 515.36 159.952 515.052 157.839C514.976 157.109 513.862 157.417 513.938 158.147Z" fill="#A7A7A7"/>
<path d="M506.409 204.9C506.409 207.935 506.409 210.931 506.409 213.966C506.409 214.696 507.561 214.696 507.561 213.966C507.561 210.931 507.561 207.935 507.561 204.9C507.561 204.131 506.409 204.131 506.409 204.9Z" fill="#A7A7A7"/>
<path d="M497.496 214.12C505.179 214.12 512.863 214.12 520.546 214.12C521.276 214.12 521.276 212.967 520.546 212.967C512.863 212.967 505.179 212.967 497.496 212.967C496.766 212.967 496.766 214.12 497.496 214.12Z" fill="#A7A7A7"/>
<path d="M484.396 84.8862C484.396 91.8012 484.396 98.7546 484.396 105.67C484.396 106.4 485.548 106.4 485.548 105.67C485.548 98.7546 485.548 91.8012 485.548 84.8862C485.548 84.1563 484.396 84.1563 484.396 84.8862Z" fill="#A7A7A7"/>
<path d="M485.856 84.8478C494.615 84.8478 503.335 84.8478 512.094 84.8478C512.824 84.8478 512.824 83.6953 512.094 83.6953C503.335 83.6953 494.615 83.6953 485.856 83.6953C485.126 83.6953 485.126 84.8478 485.856 84.8478Z" fill="#A7A7A7"/>
<path d="M512.133 84.6942C512.133 91.3787 512.133 98.0632 512.133 104.709C512.133 105.439 513.285 105.439 513.285 104.709C513.285 98.0248 513.285 91.3402 513.285 84.6942C513.285 83.9642 512.133 83.9642 512.133 84.6942Z" fill="#A7A7A7"/>
<path d="M484.819 106.322C494.115 106.322 503.412 106.322 512.709 106.322C513.439 106.322 513.439 105.17 512.709 105.17C503.412 105.17 494.115 105.17 484.819 105.17C484.089 105.17 484.089 106.322 484.819 106.322Z" fill="#A7A7A7"/>
<path d="M486.97 87.268C486.97 92.5311 486.97 97.7558 486.97 103.019C486.97 103.749 488.122 103.749 488.122 103.019C488.122 97.7558 488.122 92.5311 488.122 87.268C488.122 86.5381 486.97 86.5381 486.97 87.268Z" fill="#A7A7A7"/>
<path d="M487.815 87.729C494.999 87.729 502.221 87.729 509.405 87.729C510.135 87.729 510.135 86.5765 509.405 86.5765C502.221 86.5765 494.999 86.5765 487.815 86.5765C487.085 86.5765 487.085 87.729 487.815 87.729Z" fill="#A7A7A7"/>
<path d="M508.983 87.268C508.983 92.1469 508.983 96.9874 508.983 101.866C508.983 102.596 510.135 102.596 510.135 101.866C510.135 96.9874 510.135 92.1469 510.135 87.268C510.135 86.5381 508.983 86.5381 508.983 87.268Z" fill="#A7A7A7"/>
<path d="M487.815 103.595C494.961 103.595 502.106 103.595 509.29 103.595C510.02 103.595 510.02 102.443 509.29 102.443C502.144 102.443 494.999 102.443 487.815 102.443C487.085 102.443 487.085 103.595 487.815 103.595Z" fill="#A7A7A7"/>
<path d="M501.414 96.6802C498.38 94.3752 502.913 89.5731 505.026 92.4544C506.985 95.0667 503.796 98.2169 501.069 96.757C500.416 96.4113 499.839 97.4101 500.492 97.7559C502.26 98.7163 504.603 98.4474 505.871 96.7954C507.177 95.1435 507.023 92.5312 505.371 91.1482C503.643 89.7268 501.184 90.6872 499.993 92.3007C498.725 94.0679 499.109 96.3729 500.838 97.679C501.453 98.1016 501.991 97.1028 501.414 96.6802Z" fill="#A7A7A7"/>
<path d="M497.765 102.366C497.611 99.3307 501.338 98.1782 503.681 98.1782C506.562 98.1782 507.484 100.752 508.675 102.942C509.021 103.595 510.02 103.019 509.674 102.366C508.867 100.906 508.099 98.985 506.754 97.9093C505.525 96.9489 503.988 96.9873 502.529 97.141C499.839 97.4483 496.42 99.1002 496.612 102.366C496.651 103.096 497.803 103.096 497.765 102.366Z" fill="#A7A7A7"/>
<path d="M488.314 99.5997C489.16 98.0247 492.271 98.6393 493.424 99.254C494.615 99.9071 495.306 100.983 495.614 102.289C495.767 103.019 496.881 102.711 496.728 101.982C496.267 99.9839 494.884 98.4088 492.886 97.7557C491.196 97.2179 488.314 97.1795 487.354 98.9851C486.97 99.6766 487.969 100.253 488.314 99.5997Z" fill="#A7A7A7"/>
<path d="M490.543 96.7569C489.275 96.7185 489.582 94.836 490.12 94.183C490.811 93.3378 492.194 93.2225 493.001 94.0293C493.654 94.644 493.846 95.7965 493.309 96.5264C492.924 97.0642 492.348 97.1795 491.733 97.1795C491.503 97.1795 490.543 97.2179 490.389 97.0258C489.966 96.4111 488.967 96.9874 489.39 97.602C489.851 98.2935 490.811 98.332 491.58 98.332C492.502 98.3704 493.385 98.1399 494.038 97.4484C495.268 96.1038 494.845 93.8372 493.385 92.8384C491.81 91.8011 489.621 92.3774 488.814 94.0677C488.122 95.566 488.622 97.8325 490.543 97.871C491.311 97.9478 491.311 96.7953 490.543 96.7569Z" fill="#A7A7A7"/>
<path d="M255.432 186.997C257.238 188.457 259.466 187.842 261.156 186.421C263.538 184.462 264.729 181.119 265.19 178.161C266.381 170.632 263.346 163.486 262.155 156.187C260.004 142.626 265.92 128.104 276.907 119.96C282.247 115.965 291.045 111.7 288.97 103.518C288.778 102.788 287.664 103.095 287.856 103.825C289.815 111.624 280.749 115.58 275.793 119.345C271.337 122.764 267.726 127.182 265.152 132.138C262.616 136.94 261.08 142.28 260.657 147.697C260.158 154.266 261.886 160.374 263.308 166.713C264.153 170.555 264.691 174.588 263.961 178.507C263.615 180.313 263 182.08 262.04 183.655C260.964 185.345 258.39 187.957 256.239 186.229C255.701 185.729 254.856 186.536 255.432 186.997Z" fill="#A7A7A7"/>
<path d="M288.547 103.057C284.206 103.249 280.403 99.8682 280.634 95.4118C280.864 90.7634 286.358 86.4607 291.006 87.6901C295.155 88.8042 298.344 93.3758 297.306 97.64C296.269 101.904 291.467 102.826 287.779 103.441C287.049 103.556 287.357 104.67 288.086 104.555C292.85 103.787 298.382 102.096 298.689 96.3338C298.92 91.647 294.733 86.576 289.93 86.3839C284.859 86.1534 279.75 90.3024 279.481 95.4502C279.251 100.521 283.592 104.44 288.547 104.248C289.277 104.171 289.277 103.018 288.547 103.057Z" fill="#A7A7A7"/>
<path d="M282.862 100.06C284.706 95.4118 294.54 94.6434 295.693 100.175C295.847 100.905 296.961 100.598 296.807 99.8681C295.386 93.1068 283.976 94.1056 281.748 99.7528C281.479 100.444 282.593 100.713 282.862 100.06Z" fill="#A7A7A7"/>
<path d="M288.624 94.8739C287.817 94.2976 287.51 93.1836 288.048 92.3384C288.663 91.3011 289.969 91.1859 290.968 91.7237C291.736 92.1463 291.89 93.1067 291.429 93.8366C290.852 94.7202 289.623 94.8355 288.663 94.605C287.933 94.4513 287.625 95.5654 288.355 95.7191C289.892 96.0648 291.736 95.719 292.504 94.2208C293.196 92.8762 292.696 91.2627 291.313 90.6096C289.777 89.9181 287.933 90.2255 287.049 91.7237C286.166 93.1451 286.742 94.9123 288.048 95.8343C288.663 96.3337 289.239 95.3349 288.624 94.8739Z" fill="#A7A7A7"/>
<path d="M304.913 83.0416C308.947 72.3618 320.549 66.9066 331.344 66.1767C338.489 65.6773 345.635 66.7914 352.626 68.136C359.234 69.4421 366.111 71.5166 372.872 71.2861C378.442 71.094 384.167 68.789 386.779 63.6028C387.125 62.9497 386.126 62.3735 385.78 63.0265C382.745 69.0195 375.753 70.5562 369.568 70.0568C362.346 69.4805 355.239 67.3292 348.132 66.1383C336.607 64.2175 324.313 63.9485 314.056 70.441C309.408 73.399 305.72 77.548 303.76 82.7343C303.53 83.4258 304.644 83.7331 304.913 83.0416Z" fill="#A7A7A7"/>
<path d="M391.427 62.9496C401.569 62.9496 411.75 62.9496 421.892 62.9496C422.622 62.9496 422.622 61.7971 421.892 61.7971C411.75 61.7971 401.569 61.7971 391.427 61.7971C390.659 61.7971 390.659 62.9496 391.427 62.9496Z" fill="#A7A7A7"/>
<path d="M391.005 61.7202C389.199 59.953 391.158 56.9565 392.58 55.612C394.309 53.9216 396.69 53.2685 398.995 54.1905C399.188 54.2674 399.572 54.1521 399.649 53.9216C401.032 50.6946 404.297 48.3512 407.87 48.5049C411.596 48.6585 414.746 51.463 415.668 54.9973C415.745 55.343 416.206 55.5351 416.513 55.343C418.204 54.3058 419.933 55.5351 420.624 57.1102C421.239 58.57 421.085 60.222 420.931 61.797C420.855 62.527 422.007 62.527 422.084 61.797C422.314 59.492 422.468 56.7645 420.624 54.9973C419.318 53.768 417.512 53.3838 415.976 54.3442C416.245 54.4595 416.552 54.5747 416.821 54.69C415.784 50.8483 412.48 47.775 408.446 47.3908C404.297 46.9682 400.302 49.5421 398.688 53.3454C398.919 53.2685 399.111 53.1533 399.341 53.0765C396.268 51.8471 393.041 53.1533 391.043 55.6888C389.545 57.5712 388.239 60.6061 390.275 62.5654C390.736 63.0648 391.543 62.258 391.005 61.7202Z" fill="#A7A7A7"/>
<path d="M412.864 67.3677C417.589 66.8299 420.355 71.7857 421.085 75.781C421.853 79.8916 421.123 84.0022 420.701 88.1127C420.048 94.2978 420.47 101.751 426.348 105.362C426.963 105.746 427.577 104.747 426.924 104.363C418.895 99.4457 422.237 88.4969 422.545 80.9672C422.775 75.2432 420.509 65.3701 412.864 66.2152C412.134 66.2921 412.134 67.4446 412.864 67.3677Z" fill="#A7A7A7"/>
<path d="M432.725 98.8695C429.268 107.59 425.849 116.311 422.391 124.993C422.122 125.684 423.236 125.992 423.505 125.3C426.963 116.58 430.382 107.859 433.839 99.1768C434.108 98.4853 432.994 98.2164 432.725 98.8695Z" fill="#A7A7A7"/>
<path d="M433.263 99.5992C439.256 99.2919 445.211 99.4455 451.165 100.137C450.973 99.9065 450.781 99.6376 450.627 99.4071C447.785 108.512 445.48 117.732 443.636 127.067C443.482 127.797 444.596 128.104 444.75 127.374C446.594 118.039 448.937 108.819 451.741 99.7145C451.857 99.3303 451.549 99.023 451.204 98.9845C445.249 98.293 439.294 98.1394 433.301 98.4467C432.533 98.4851 432.533 99.6376 433.263 99.5992Z" fill="#A7A7A7"/>
<path d="M422.66 126.107C426.194 126.26 429.69 126.452 433.225 126.683C436.644 126.875 440.293 126.798 443.52 128.104C444.212 128.373 444.519 127.259 443.828 126.99C440.754 125.722 437.258 125.799 433.993 125.607C430.228 125.377 426.463 125.185 422.66 124.993C421.93 124.916 421.93 126.068 422.66 126.107Z" fill="#A7A7A7"/>
<path d="M433.801 103.441C437.489 103.518 441.177 103.787 444.826 104.286C445.556 104.401 445.864 103.287 445.134 103.172C441.369 102.634 437.604 102.327 433.801 102.25C433.033 102.25 433.033 103.403 433.801 103.441Z" fill="#A7A7A7"/>
<path d="M432.687 106.053C434.761 105.976 436.836 106.015 438.91 106.207C439.64 106.284 439.64 105.131 438.91 105.054C436.836 104.862 434.761 104.786 432.687 104.901C431.957 104.939 431.957 106.092 432.687 106.053Z" fill="#A7A7A7"/>
<path d="M430.151 111.239C434.569 110.97 438.757 110.586 443.098 111.662C443.828 111.854 444.135 110.74 443.405 110.548C438.949 109.472 434.684 109.818 430.151 110.087C429.383 110.125 429.383 111.278 430.151 111.239Z" fill="#A7A7A7"/>
<path d="M430.343 114.62C432.879 114.428 435.414 114.428 437.95 114.659C438.68 114.735 438.68 113.583 437.95 113.506C435.414 113.276 432.879 113.276 430.343 113.468C429.613 113.544 429.575 114.697 430.343 114.62Z" fill="#A7A7A7"/>
<path d="M428.346 119.076C431.803 118.846 435.184 118.961 438.603 119.422C439.333 119.537 439.333 118.385 438.603 118.27C435.184 117.809 431.765 117.693 428.346 117.924C427.616 117.962 427.616 119.115 428.346 119.076Z" fill="#A7A7A7"/>
<path d="M237.184 67.5215C238.721 69.596 240.949 70.4412 243.216 71.4784C245.905 72.7077 248.364 74.3597 250.361 76.5494C254.894 81.4283 256.393 87.9976 256.508 94.49C256.777 106.668 252.666 119.422 258.198 130.947C258.506 131.6 259.504 131.024 259.197 130.371C253.396 118.231 258.544 104.632 257.545 91.8777C257.123 86.3457 255.548 80.9289 251.975 76.6262C250.284 74.5901 248.21 72.823 245.905 71.5168C243.331 70.057 239.989 69.4039 238.183 66.9452C237.761 66.369 236.762 66.9452 237.184 67.5215Z" fill="#A7A7A7"/>
<path d="M224.046 51.271C223.047 50.0033 223.124 49.1197 224.276 48.6203C224.776 48.3513 225.275 48.1593 225.851 48.044C226.581 47.8903 227.388 47.8519 228.156 47.8903C230.461 48.0056 232.805 48.6203 232.69 51.4247C232.574 54.7285 231.96 57.9939 231.153 61.1825C230.308 64.4479 229.271 67.6365 228.156 70.8251C227.926 71.5166 227.734 72.3233 227.388 72.9764C226.697 74.1673 225.621 74.1289 224.468 74.1289C223.047 74.1289 221.241 74.321 219.858 73.9368C218.322 73.5143 217.976 71.9776 219.474 70.9788C220.166 70.5178 221.126 70.4409 221.933 70.4409C222.97 70.4409 223.892 70.6714 224.776 69.9799C226.466 68.6738 226.735 65.1394 227.119 63.257C227.695 60.5294 228.656 57.1872 228.464 54.4212C228.31 52.3083 226.236 52.2314 224.737 51.3478C224.084 50.9637 223.508 51.9625 224.161 52.3467C225.352 53.0382 227.081 53.115 227.311 54.6901C227.58 56.5341 226.812 59.0312 226.466 60.8752C226.12 62.6423 225.736 64.4095 225.275 66.1383C224.929 67.4444 224.776 69.0195 223.047 69.3653C222.356 69.5189 221.51 69.2884 220.78 69.4037C218.936 69.6726 217.131 70.9788 217.4 73.0533C217.746 75.6656 220.857 75.2046 222.778 75.2814C225.16 75.3583 227.542 75.704 228.617 73.1685C229.962 70.0183 230.922 66.5608 231.844 63.2954C232.805 59.9148 233.535 56.4188 233.804 52.9229C234.034 50.1953 234.149 48.0056 231.115 47.2757C228.464 46.6226 224.814 46.3153 222.74 48.4666C221.357 49.888 221.702 52.6924 224.084 52.5003C224.776 52.3467 224.776 51.1942 224.046 51.271Z" fill="#A7A7A7"/>
<path d="M219.397 55.3817C219.359 55.3432 219.321 55.3048 219.282 55.2664C219.129 55.1127 218.898 55.0743 218.706 55.1127C217.592 55.4969 217.169 57.3025 216.862 58.3013C216.324 60.1453 216.209 62.0277 216.478 63.9486C216.555 64.6785 217.707 64.6785 217.63 63.9486C217.477 62.604 217.438 61.2978 217.669 59.9532C217.784 59.2617 218.975 56.5726 218.552 56.1884C219.09 56.7262 219.897 55.9195 219.397 55.3817Z" fill="#A7A7A7"/>
<path d="M215.517 51.1558C211.983 55.6505 209.716 61.0673 211.215 66.8298C211.407 67.5597 212.521 67.2523 212.329 66.5224C210.946 61.2209 213.097 56.1115 216.324 51.9625C216.785 51.3863 215.978 50.5795 215.517 51.1558Z" fill="#A7A7A7"/>
<path d="M210.677 45.9696C204.799 53.6914 202.033 63.4492 203.032 73.1302C203.109 73.8601 204.261 73.8601 204.184 73.1302C203.224 63.6413 205.875 54.1524 211.676 46.5459C212.098 45.9696 211.099 45.3934 210.677 45.9696Z" fill="#A7A7A7"/>
<path d="M202.494 85.2315C199.536 86.6529 196.77 88.6121 194.58 91.0708C192.352 93.6063 191.661 96.3339 191.315 99.6377C190.547 107.206 187.742 115.504 180.136 118.692C179.444 118.961 179.751 120.075 180.443 119.806C186.513 117.271 190.047 111.508 191.545 105.285C192.429 101.559 192.006 97.1406 193.966 93.7984C195.963 90.3793 199.574 87.8822 203.07 86.1919C203.762 85.923 203.186 84.9241 202.494 85.2315Z" fill="#A7A7A7"/>
<path d="M163.885 139.092C161.35 139.168 158.469 138.093 157.547 135.48C156.471 132.407 158.776 129.411 161.235 127.835C165.998 124.762 172.414 123.571 177.946 123.494C180.75 123.456 183.939 123.494 186.398 124.993C189.548 126.913 190.086 130.525 187.627 133.252C183.9 137.401 177.485 137.824 172.337 138.208C171.607 138.246 171.607 139.399 172.337 139.36C177.485 138.976 183.247 138.515 187.396 135.058C191.2 131.908 191.469 126.683 187.012 123.955C182.402 121.151 175.372 122.073 170.378 123.149C165.576 124.186 159.006 126.068 156.855 131.024C154.627 136.095 158.891 140.321 163.962 140.167C164.654 140.206 164.654 139.053 163.885 139.092Z" fill="#A7A7A7"/>
<path d="M163.693 139.553C162.733 141.089 161.811 142.626 160.85 144.124C160.543 144.624 161.158 145.161 161.657 144.931C164.001 143.663 166.536 142.856 168.918 141.742C170.224 141.166 171.492 140.475 172.721 139.706C173.144 139.437 173.643 139.284 173.758 138.746C173.835 138.477 173.682 138.093 173.374 138.054C173.336 138.054 173.297 138.054 173.259 138.016C172.99 137.978 172.606 138.093 172.568 138.4C172.568 138.439 172.568 138.438 172.568 138.477C172.414 139.207 173.528 139.514 173.682 138.784C173.682 138.746 173.682 138.746 173.682 138.707C173.451 138.823 173.221 138.976 172.99 139.092C173.028 139.092 173.067 139.092 173.105 139.13C172.99 138.899 172.836 138.669 172.721 138.438C172.606 138.823 170.455 139.706 169.994 139.975C168.841 140.59 167.65 141.089 166.421 141.589C164.615 142.319 162.848 143.01 161.158 143.932C161.427 144.201 161.696 144.47 161.965 144.739C162.925 143.202 163.847 141.665 164.807 140.167C165.076 139.514 164.077 138.938 163.693 139.553Z" fill="#A7A7A7"/>
<path d="M164.961 132.907C164.923 132.83 164.923 132.676 165.038 132.676C165.345 132.676 165 133.06 164.961 133.099C164.769 133.214 164.116 133.368 164.154 132.983C164.193 132.522 165.076 132.023 165.23 132.714C165.268 132.907 165.115 133.137 164.923 133.175C164.807 133.214 164.731 133.214 164.654 133.137C164.615 133.099 164.539 133.06 164.615 133.06C165.345 133.099 165.345 131.946 164.615 131.908C163.847 131.831 163.271 132.638 163.463 133.368C163.655 134.097 164.5 134.482 165.192 134.29C165.883 134.097 166.421 133.483 166.421 132.753C166.421 132.023 165.845 131.408 165.192 131.255C163.77 130.909 162.272 132.983 163.501 134.021C164.5 134.866 166.498 134.097 166.383 132.676C166.306 131.908 165.461 131.293 164.692 131.562C163.924 131.831 163.617 132.791 164.001 133.483C164.308 134.136 165.307 133.56 164.961 132.907Z" fill="#A7A7A7"/>
<path d="M173.451 131.869C173.413 131.639 173.297 131.331 173.528 131.139C173.643 131.024 173.835 131.024 173.989 131.024C174.373 131.101 174.296 131.523 174.027 131.715C173.874 131.831 173.72 131.831 173.605 131.677C173.489 131.523 173.528 131.485 173.643 131.408C173.72 131.37 173.489 131.408 173.681 131.37C174.142 131.293 173.374 131.831 173.489 131.447C173.259 132.176 174.373 132.445 174.603 131.754C174.796 131.062 174.142 130.371 173.451 130.486C172.644 130.64 172.452 131.6 172.952 132.176C173.413 132.714 174.258 132.599 174.603 131.984C174.949 131.37 174.719 130.563 174.027 130.332C173.336 130.102 172.567 130.525 172.414 131.216C172.222 131.984 172.759 132.753 173.528 132.945C174.911 133.252 176.063 131.37 175.064 130.332C174.565 129.833 173.758 129.795 173.144 130.064C172.298 130.486 172.26 131.37 172.414 132.176C172.452 132.906 173.566 132.599 173.451 131.869Z" fill="#A7A7A7"/>
<path d="M181.98 129.295C182.133 129.295 182.287 129.334 182.479 129.334V129.295C182.518 129.257 182.518 129.18 182.556 129.142C182.594 129.065 182.71 128.988 182.786 128.95C182.979 128.873 183.171 128.873 183.286 129.065C183.44 129.372 183.171 129.949 182.786 129.718C182.556 129.564 182.518 129.18 182.863 129.257C182.94 129.257 182.979 129.295 183.017 129.334C183.017 129.334 183.017 129.411 183.017 129.334C183.017 129.257 183.017 129.372 182.979 129.372C182.863 129.449 182.825 129.526 182.71 129.449C182.441 129.257 182.057 129.411 181.903 129.641C181.749 129.949 181.864 130.256 182.095 130.448C183.209 131.255 184.707 129.641 183.824 128.566C183.017 127.605 181.288 128.22 181.365 129.488C181.403 130.141 181.903 130.717 182.518 130.871C183.132 131.024 183.785 130.717 184.131 130.179C184.899 128.988 183.824 127.336 182.402 127.797C181.749 128.028 181.173 128.681 181.25 129.411C181.327 130.217 182.479 130.64 182.902 129.833C183.286 129.219 182.325 128.642 181.98 129.295Z" fill="#A7A7A7"/>
<path d="M205.183 95.7959C209.909 93.1836 214.019 89.7261 217.438 85.5387C217.899 84.9624 217.093 84.1557 216.632 84.7319C213.289 88.8425 209.256 92.2232 204.607 94.7971C203.954 95.1429 204.53 96.1417 205.183 95.7959Z" fill="#A7A7A7"/>
<path d="M262.655 96.7948C261.81 101.635 261.464 106.514 261.694 111.432C261.733 112.161 262.885 112.161 262.847 111.432C262.616 106.629 262.924 101.827 263.769 97.1021C263.884 96.3722 262.77 96.0649 262.655 96.7948Z" fill="#A7A7A7"/>
<path d="M256.777 209.087C256.777 203.209 259.543 197.639 264.268 194.104C264.844 193.682 264.268 192.683 263.692 193.105C258.621 196.87 255.663 202.748 255.663 209.087C255.624 209.817 256.777 209.817 256.777 209.087Z" fill="#A7A7A7"/>
<path d="M321.125 364.213C321.739 369.745 322.7 375.815 324.236 382.385C326.311 391.259 328.962 399.019 331.612 405.55C330.883 406.203 328.693 407.932 325.466 408.162C323.43 408.316 321.816 407.816 320.894 407.471C319.511 402.669 318.167 397.674 316.937 392.488C314.402 381.808 312.558 371.628 311.213 362.139C314.555 362.83 317.859 363.522 321.125 364.213Z" fill="#191919"/>
<path d="M407.37 360.602C406.871 366.096 406.025 372.204 404.604 378.773C402.606 388.07 399.956 396.138 397.266 402.937C397.651 403.283 399.84 405.358 403.221 405.204C406.141 405.089 408.023 403.36 408.484 402.937C409.368 398.289 410.213 393.602 411.058 388.915C412.902 378.658 414.554 368.554 416.129 358.566C413.209 359.219 410.29 359.911 407.37 360.602Z" fill="#191919"/>
<path d="M338.681 345.274C339.565 351.152 340.602 357.222 341.793 363.445C343.522 372.473 345.481 381.078 347.555 389.223C346.672 389.76 344.905 390.644 342.484 390.798C340.448 390.913 338.835 390.452 337.913 390.106C336.76 384.651 335.646 379.119 334.532 373.587C332.496 363.33 330.614 353.226 328.808 343.238C332.112 343.891 335.377 344.582 338.681 345.274Z" fill="#191919"/>
<path d="M392.887 344.121C391.85 349.922 390.928 355.992 390.121 362.292C389.007 370.975 388.239 379.273 387.778 387.186C388.431 387.609 389.967 388.493 392.157 388.608C394.5 388.685 396.229 387.763 396.882 387.379C396.498 382.845 396.345 377.813 396.575 372.434C397.036 360.487 399.226 350.191 401.646 342.085C398.726 342.738 395.807 343.43 392.887 344.121Z" fill="#191919"/>
<path d="M461.154 215.579C467.877 227.565 462.69 240.819 450.09 273.742C444.02 289.57 432.917 318.651 417.243 360.103C401.838 365.712 376.33 372.627 344.79 370.437C326.465 369.169 311.098 365.212 299.458 361.14C297.729 358.028 291.736 346.388 296.231 335.094C298.728 328.832 303.761 324.337 314.44 319.036C324.967 313.811 343.522 306.473 370.49 305.129C359.926 252.536 378.02 209.433 406.179 199.483C424.658 192.991 451.895 199.099 461.154 215.579Z" fill="white" stroke="#191919" stroke-width="0.768333" stroke-miterlimit="10"/>
<path d="M458.695 219.921C447.554 234.02 445.018 252.959 440.754 269.901C436.183 288.033 430.92 306.128 423.044 323.146C418.703 332.481 413.594 341.471 407.485 349.769C407.063 350.384 408.062 350.96 408.484 350.345C419.202 335.747 426.771 319.189 432.61 302.132C438.526 284.768 442.445 266.866 447.055 249.156C449.667 239.091 453.009 229.025 459.54 220.766C459.963 220.151 459.156 219.344 458.695 219.921Z" fill="#191919"/>
<path d="M299.688 352.804C325.312 362.216 353.241 364.982 380.21 360.794C387.931 359.603 395.576 357.836 403.067 355.531C403.759 355.301 403.49 354.187 402.76 354.417C376.637 362.485 348.593 363.714 321.855 358.028C314.44 356.453 307.103 354.302 299.996 351.69C299.304 351.421 298.997 352.535 299.688 352.804Z" fill="#191919"/>
<path d="M389.89 322.608C396.344 324.721 401.838 328.985 405.526 334.748C405.91 335.363 406.909 334.786 406.525 334.172C402.683 328.179 396.959 323.722 390.198 321.494C389.468 321.264 389.161 322.378 389.89 322.608Z" fill="#191919"/>
<path d="M274.334 372.358C277.407 376.968 280.48 381.616 283.515 386.226C263.846 403.898 261.31 408.931 262.77 410.16C265.69 412.58 286.627 401.824 288.778 400.709C296.577 396.714 302.455 392.834 306.373 390.068C304.99 386.303 303.146 382.077 300.611 377.621C297.268 371.743 293.58 366.788 290.084 362.754C284.821 365.904 279.558 369.131 274.334 372.358Z" fill="#191919"/>
<path d="M389.276 281.81C390.659 284.806 392.119 289.071 392.35 294.218C392.695 301.979 390.16 308.164 388.239 311.736C387.202 313.081 385.358 315.309 382.63 317.729C382.63 317.729 376.445 323.185 366.61 327.372C356.584 331.675 327.425 336.861 287.818 337.86C288.97 342.777 291.045 348.808 294.733 355.301C296.769 358.874 298.997 362.024 301.187 364.751C299.727 366.672 295.578 371.551 287.318 374.624C279.366 377.583 272.067 377.237 269.186 377.006C265.037 373.203 260.772 368.67 256.815 363.253C245.175 347.233 242.448 331.751 241.948 321.802C244.829 319.727 249.055 316.884 254.587 313.849C266.112 307.511 276.677 304.053 285.359 301.479C300.303 297.1 314.594 294.065 347.479 288.494C357.775 286.766 372.027 284.384 389.276 281.81Z" fill="white" stroke="#191919" stroke-width="0.768333" stroke-miterlimit="10"/>
<path opacity="0.19" d="M352.78 288.418C351.666 295.755 348.516 305.283 338.758 311.199C329.269 316.961 321.317 314.618 302.301 319.228C288.625 322.532 270.53 326.911 265.498 336.631C260.235 346.849 270.185 361.256 287.587 373.088C289.047 372.896 290.891 372.512 292.85 371.743C297.883 369.746 300.342 366.48 301.264 365.059C299.036 362.37 296.731 359.258 294.618 355.685C290.622 349.001 288.471 342.777 287.242 337.745C307.602 336.899 324.698 335.132 337.683 333.442C353.318 331.406 364.152 329.37 374.486 323.53C383.13 318.652 386.587 313.849 387.816 312.005C391.543 306.358 391.85 301.21 392.004 298.329C392.388 291.299 390.083 285.575 388.162 281.964C376.368 284.115 364.574 286.266 352.78 288.418Z" fill="#6C6D6D"/>
<path opacity="0.19" d="M388.546 282.77C387.778 289.916 385.05 301.21 374.178 310.123C367.494 315.617 360.31 318.075 332.112 325.682C319.665 329.024 304.606 332.981 287.472 337.284C309.254 337.053 326.964 335.248 339.68 333.519C352.857 331.713 359.311 330.138 365.996 327.257C372.334 324.529 385.127 318.997 390.352 307.357C395.384 296.063 390.313 285.921 388.546 282.77Z" fill="#6C6D6D"/>
<path opacity="0.22" d="M287.587 337.86C287.434 342.931 287.664 348.732 288.625 355.109C289.547 361.409 291.045 367.056 292.658 371.974C293.964 371.205 295.463 370.168 296.923 368.9C298.69 367.364 299.996 365.904 300.956 364.636C298.728 361.716 296.462 358.336 294.349 354.533C290.93 348.386 288.893 342.7 287.587 337.86Z" fill="#6C6D6D"/>
<path d="M285.82 394.409C288.778 400.21 291.698 406.011 294.656 411.85C275.755 434.055 273.296 440.356 274.718 441.892C277.522 444.966 297.652 431.404 299.727 430.021C307.218 424.989 312.904 420.11 316.669 416.652C315.324 411.927 313.557 406.626 311.098 400.978C307.91 393.602 304.337 387.379 300.995 382.27C295.924 386.342 290.853 390.375 285.82 394.409Z" fill="#191919"/>
<path d="M396.306 280.619C397.651 284.422 399.034 289.724 399.264 296.216C399.61 305.974 397.152 313.734 395.308 318.229C394.309 319.919 392.542 322.724 389.929 325.797C389.929 325.797 384.013 332.673 374.563 337.937C364.92 343.315 336.876 349.884 298.843 351.113C299.957 357.299 301.917 364.867 305.489 373.011C307.449 377.506 309.6 381.463 311.713 384.882C310.33 387.302 306.335 393.41 298.382 397.29C290.737 401.017 283.746 400.594 280.941 400.248C276.946 395.485 272.835 389.761 269.07 382.961C257.853 362.831 255.24 343.353 254.779 330.868C257.545 328.294 261.618 324.683 266.919 320.88C278.021 312.927 288.125 308.548 296.5 305.321C310.829 299.827 324.621 296.024 356.238 288.994C365.996 286.804 379.749 283.846 396.306 280.619Z" fill="white" stroke="#191919" stroke-width="0.768333" stroke-miterlimit="10"/>
<path opacity="0.19" d="M361.232 288.917C360.156 298.137 357.121 310.085 347.748 317.537C338.643 324.798 330.96 321.84 312.712 327.641C299.573 331.79 282.17 337.322 277.33 349.538C272.259 362.37 281.825 380.502 298.536 395.331C299.957 395.101 301.724 394.601 303.607 393.641C308.447 391.144 310.791 387.033 311.674 385.228C309.523 381.847 307.295 377.928 305.259 373.434C301.417 365.02 299.343 357.222 298.19 350.883C317.783 349.807 334.187 347.618 346.71 345.505C361.77 342.969 372.142 340.395 382.092 333.058C390.39 326.911 393.732 320.88 394.885 318.575C398.458 311.468 398.765 305.014 398.919 301.402C399.264 292.567 397.075 285.383 395.231 280.849C383.898 283.5 372.565 286.189 361.232 288.917Z" fill="#6C6D6D"/>
<path opacity="0.19" d="M395.576 281.81C394.846 290.761 392.234 304.975 381.785 316.193C375.331 323.108 368.454 326.181 341.37 335.747C329.384 339.973 314.94 344.929 298.459 350.345C319.396 350.038 336.453 347.81 348.67 345.62C361.347 343.353 367.571 341.394 373.948 337.783C380.056 334.326 392.311 327.411 397.382 312.735C402.184 298.521 397.305 285.805 395.576 281.81Z" fill="#6C6D6D"/>
<path opacity="0.22" d="M298.574 351.075C298.421 357.452 298.651 364.751 299.573 372.742C300.495 380.694 301.878 387.763 303.453 393.91C304.721 392.911 306.142 391.643 307.564 390.03C309.254 388.109 310.522 386.265 311.444 384.69C309.293 381.002 307.103 376.776 305.105 371.974C301.801 364.29 299.804 357.106 298.574 351.075Z" fill="#6C6D6D"/>
<path d="M283.63 220.919C282.9 220.574 281.441 219.92 281.479 219.191C281.556 218 285.513 217.193 288.471 217.231C290.468 217.231 294.156 217.654 298.459 220.65C294.425 221.918 288.471 223.071 283.63 220.919Z" fill="white" stroke="#191919" stroke-width="0.768333" stroke-miterlimit="10"/>
<path d="M376.022 171.093C368.723 170.132 362.154 181.081 361.539 182.08C359.311 185.883 359.042 188.419 357.505 195.372C353.779 212.314 351.781 220.919 346.249 226.105C341.255 230.754 335.416 231.868 333.879 232.098C327.31 233.136 321.355 230.677 309.754 225.721C299.957 221.534 298.766 219.997 293.426 219.383C290.699 219.075 282.747 218.192 277.484 223.301C274.103 226.566 272.605 231.791 273.834 232.867C275.409 234.25 281.863 229.371 281.94 229.486C281.978 229.563 280.019 230.485 278.406 232.483C277.599 233.443 276.216 235.518 276.715 236.055C277.599 237.131 283.016 230.6 288.97 231.753C293.042 232.521 293.811 236.209 298.536 236.901C301.302 237.323 303.722 236.478 305.259 235.748C307.948 238.668 312.327 242.817 318.666 246.197C322.431 248.195 335.723 255.072 351.973 251.076C369.223 246.85 377.905 233.366 380.632 229.14C382.169 226.72 393.463 208.664 388.008 188.419C387.048 185.153 383.552 172.092 376.022 171.093Z" fill="white" stroke="#191919" stroke-width="0.768333" stroke-miterlimit="10"/>
<path opacity="0.25" d="M375.254 171.208C372.757 172.514 377.597 181.58 376.983 194.565C376.407 207.051 371.067 216.271 368.685 220.497C365.458 226.144 361.194 233.52 352.703 238.322C341.294 244.776 327.156 243.815 317.091 239.436C314.095 238.13 311.06 233.904 304.452 231.33C301.571 230.216 299.304 229.755 296.654 229.217C290.161 227.949 284.399 226.797 279.059 229.486C276.523 230.792 274.41 232.79 274.564 233.059C274.718 233.328 277.676 231.829 280.288 230.408C277.138 234.595 276.638 235.786 276.869 236.017C277.138 236.247 278.098 235.364 280.557 233.981C283.208 232.521 285.129 231.484 287.472 231.676C288.663 231.791 289.585 232.175 290.123 232.406C292.236 233.328 292.735 234.403 294.848 235.479C296.154 236.132 297.23 236.401 297.806 236.516C299.035 236.785 301.571 237.131 304.913 235.94C307.833 239.013 321.24 252.613 340.871 252.344C350.975 252.19 358.389 248.425 361.309 246.927C377.329 238.591 383.706 223.8 385.319 219.728C390.313 207.128 392.081 188.457 382.937 176.74C380.748 173.897 376.983 170.324 375.254 171.208Z" fill="#6C6D6D"/>
<path d="M274.526 232.867C276.024 230.639 277.983 228.871 280.327 227.604C280.826 227.335 280.365 226.605 279.904 226.874C277.445 228.218 275.371 230.101 273.796 232.444C273.45 232.905 274.218 233.328 274.526 232.867Z" fill="#191919"/>
<path d="M274.987 227.911C276.485 225.568 278.905 224.338 281.325 223.147C281.825 222.917 281.402 222.149 280.903 222.417C278.329 223.647 275.793 224.991 274.218 227.488C273.949 227.949 274.679 228.372 274.987 227.911Z" fill="#191919"/>
<path opacity="0.29" d="M386.28 185.038C385.703 188.918 384.666 194.527 382.822 201.135C379.211 214.196 375.946 225.952 367.417 235.287C356.852 246.812 342.523 249.962 334.302 250.923C340.41 252.344 345.212 252.075 348.247 251.653C371.297 248.426 383.744 223.647 387.125 212.813C387.701 210.893 388.93 206.936 389.084 201.519C389.353 194.297 387.586 188.496 386.28 185.038Z" fill="#6C6D6D"/>
<path opacity="0.26" d="M289.739 231.292C291.928 232.367 294.925 233.558 298.613 234.25C301.532 234.788 304.145 234.903 306.219 234.826C300.956 237.631 298.229 237.285 296.692 236.363C295.732 235.787 294.656 234.634 291.698 232.598C290.891 232.022 290.2 231.561 289.739 231.292Z" fill="#6C6D6D"/>
<path d="M212.06 294.449C212.06 312.889 212.06 331.367 212.06 349.807C212.06 352.036 215.517 352.036 215.517 349.807C215.517 331.367 215.517 312.889 215.517 294.449C215.517 292.259 212.06 292.221 212.06 294.449Z" fill="#161616"/>
<path d="M274.909 293.719C274.909 296.677 274.909 299.635 274.909 302.593C274.909 304.822 278.367 304.822 278.367 302.593C278.367 299.635 278.367 296.677 278.367 293.719C278.367 291.491 274.909 291.491 274.909 293.719Z" fill="#161616"/>
<path d="M164.346 292.183C182.978 274.626 201.61 257.031 220.281 239.475C250.438 240.013 280.557 240.551 310.714 241.088C305.796 258.145 300.879 275.164 295.962 292.221C252.09 292.183 208.218 292.183 164.346 292.183Z" fill="white" stroke="#191919" stroke-width="0.768333" stroke-miterlimit="10"/>
<path d="M165.46 294.18C199.152 294.18 232.805 294.18 266.496 294.18C275.947 294.18 285.359 294.18 294.809 294.18C297.038 294.18 297.038 290.723 294.809 290.723C261.118 290.723 227.465 290.723 193.774 290.723C184.323 290.723 174.911 290.723 165.46 290.723C163.232 290.723 163.232 294.18 165.46 294.18Z" fill="#161616"/>
<path d="M175.333 293.604C175.333 331.828 175.333 370.053 175.333 408.239C175.333 418.957 175.333 429.637 175.333 440.356C175.333 442.584 178.791 442.584 178.791 440.356C178.791 402.131 178.791 363.906 178.791 325.72C178.791 315.002 178.791 304.322 178.791 293.604C178.791 291.376 175.333 291.376 175.333 293.604Z" fill="#161616"/>
<path d="M280.71 293.604C280.71 331.828 280.71 370.053 280.71 408.239C280.71 418.957 280.71 429.637 280.71 440.356C280.71 442.584 284.168 442.584 284.168 440.356C284.168 402.131 284.168 363.906 284.168 325.72C284.168 315.002 284.168 304.322 284.168 293.604C284.168 291.376 280.71 291.376 280.71 293.604Z" fill="#161616"/>
<path d="M177.062 364.944C204.184 364.944 231.307 364.944 258.429 364.944C266.112 364.944 273.795 364.944 281.479 364.944C283.707 364.944 283.707 361.486 281.479 361.486C254.357 361.486 227.234 361.486 200.112 361.486C192.429 361.486 184.746 361.486 177.062 361.486C174.834 361.486 174.834 364.944 177.062 364.944Z" fill="#161616"/>
<path d="M310.253 241.088C305.873 258.184 300.841 275.126 295.078 291.798C294.579 293.22 296.807 293.796 297.306 292.413C303.069 275.702 308.101 258.798 312.481 241.703C312.827 240.282 310.637 239.667 310.253 241.088Z" fill="#161616"/>
<path d="M126.314 444.12C146.713 444.12 167.074 444.12 187.473 444.12C189.701 444.12 189.701 440.663 187.473 440.663C167.074 440.663 146.713 440.663 126.314 440.663C124.085 440.663 124.085 444.12 126.314 444.12Z" fill="#161616"/>
<path d="M196.04 443.352C200.727 443.352 205.452 443.352 210.139 443.352C212.367 443.352 212.367 439.895 210.139 439.895C205.452 439.895 200.727 439.895 196.04 439.895C193.812 439.895 193.812 443.352 196.04 443.352Z" fill="#161616"/>
<path d="M257.199 443.851C275.562 443.851 293.926 443.851 312.327 443.851C314.555 443.851 314.555 440.394 312.327 440.394C293.964 440.394 275.601 440.394 257.199 440.394C254.971 440.394 254.971 443.851 257.199 443.851Z" fill="#161616"/>
<path d="M324.889 442.622C328.155 442.622 331.42 442.622 334.724 442.622C336.952 442.622 336.952 439.165 334.724 439.165C331.459 439.165 328.193 439.165 324.889 439.165C322.661 439.165 322.661 442.622 324.889 442.622Z" fill="#161616"/>
<path d="M107.797 431.942C115.749 431.942 123.701 431.942 131.615 431.942C133.843 431.942 133.843 428.485 131.615 428.485C123.663 428.485 115.711 428.485 107.797 428.485C105.569 428.485 105.569 431.942 107.797 431.942Z" fill="#161616"/>
<path d="M275.832 284.921C252.129 284.306 228.387 283.73 204.684 283.116C218.744 269.67 232.767 256.185 246.827 242.74C263.039 243.585 279.289 244.43 295.501 245.275C288.932 258.529 282.401 271.706 275.832 284.921Z" fill="white" stroke="#191919" stroke-width="0.768333" stroke-miterlimit="10"/>
<path d="M246.02 242.471C232.229 255.802 218.437 269.171 204.646 282.501C204.031 261.141 203.378 239.743 202.763 218.384C216.747 209.548 230.731 200.712 244.714 191.876C245.098 208.741 245.559 225.606 246.02 242.471Z" fill="white" stroke="#191919" stroke-width="0.768333" stroke-miterlimit="10"/>
<path d="M204.031 220.42C205.145 239.436 205.875 258.491 206.259 277.545C206.259 277.929 206.835 277.929 206.835 277.545C206.451 258.491 205.721 239.436 204.607 220.42C204.569 220.074 203.992 220.074 204.031 220.42Z" fill="#191919"/>
<path d="M204.338 220.496C217.208 212.122 230.077 203.747 242.947 195.372C243.254 195.18 242.985 194.68 242.64 194.872C229.77 203.247 216.9 211.622 204.031 219.997C203.723 220.227 203.992 220.727 204.338 220.496Z" fill="#191919"/>
<path d="M242.793 195.334C242.755 210.662 243.216 226.029 244.215 241.318C244.253 241.703 244.829 241.703 244.791 241.318C243.83 225.99 243.331 210.662 243.369 195.334C243.369 194.988 242.793 194.988 242.793 195.334Z" fill="#191919"/>
<path d="M206.643 278.352C219.244 266.174 231.883 253.996 244.484 241.856C244.753 241.587 244.33 241.203 244.061 241.433C231.46 253.612 218.821 265.79 206.221 277.929C205.99 278.198 206.374 278.621 206.643 278.352Z" fill="#191919"/>
<path d="M264.998 271.821C267.341 268.095 269.685 264.33 271.951 260.527C272.143 260.219 271.644 259.912 271.452 260.219C269.185 264.022 266.842 267.787 264.499 271.514C264.268 271.821 264.767 272.128 264.998 271.821Z" fill="#191919"/>
<path d="M271.798 260.411C274.833 260.527 277.868 260.527 280.903 260.373C281.287 260.373 281.287 259.797 280.903 259.797C277.868 259.912 274.833 259.912 271.798 259.835C271.414 259.835 271.414 260.411 271.798 260.411Z" fill="#191919"/>
<path d="M280.518 260.219C278.79 263.984 277.022 267.749 275.255 271.514C275.102 271.86 275.601 272.129 275.755 271.821C277.522 268.056 279.289 264.292 281.018 260.527C281.171 260.143 280.672 259.874 280.518 260.219Z" fill="#191919"/>
<path d="M264.806 272.128C268.187 272.628 271.759 272.397 275.178 272.244C275.563 272.244 275.563 271.667 275.178 271.667C271.836 271.821 268.302 272.052 264.96 271.591C264.575 271.514 264.422 272.09 264.806 272.128Z" fill="#191919"/>
<path d="M277.407 260.258C275.87 264.099 274.103 267.826 272.105 271.437C271.913 271.744 272.412 272.052 272.605 271.744C274.602 268.056 276.408 264.291 277.983 260.411C278.098 260.066 277.56 259.912 277.407 260.258Z" fill="#191919"/>
<path d="M221.741 277.66C230.193 267.211 238.952 256.992 247.979 247.004C248.21 246.735 247.826 246.312 247.557 246.581C238.529 256.531 229.77 266.75 221.318 277.238C221.088 277.545 221.51 277.929 221.741 277.66Z" fill="#191919"/>
<path d="M231.96 278.313C239.528 267.749 247.518 257.53 255.893 247.619C256.124 247.35 255.74 246.927 255.471 247.196C247.057 257.146 239.067 267.403 231.46 278.006C231.23 278.313 231.729 278.621 231.96 278.313Z" fill="#191919"/>
<path d="M242.947 279.888C249.516 268.901 256.7 258.298 264.46 248.118C264.691 247.811 264.191 247.542 263.961 247.811C256.201 257.991 249.017 268.594 242.447 279.581C242.255 279.888 242.755 280.196 242.947 279.888Z" fill="#191919"/>
<path d="M252.167 280.849C258.621 268.825 266.266 257.492 275.025 247.042C275.255 246.773 274.871 246.351 274.602 246.62C265.805 257.107 258.122 268.479 251.629 280.542C251.475 280.887 251.975 281.195 252.167 280.849Z" fill="#191919"/>
<path d="M226.658 271.437C236.493 270.4 246.328 271.629 256.124 272.935C256.508 272.974 256.47 272.397 256.124 272.359C246.366 271.053 236.531 269.785 226.658 270.861C226.312 270.899 226.312 271.475 226.658 271.437Z" fill="#191919"/>
<path d="M231.614 265.828C240.911 265.482 250.208 266.174 259.351 267.941C259.697 268.018 259.85 267.442 259.504 267.403C250.323 265.636 240.949 264.945 231.614 265.29C231.268 265.252 231.268 265.828 231.614 265.828Z" fill="#191919"/>
<path d="M236.07 260.411C245.021 259.835 253.972 260.642 262.693 262.793C263.039 262.87 263.192 262.332 262.847 262.255C254.088 260.066 245.098 259.259 236.07 259.835C235.686 259.874 235.686 260.45 236.07 260.411Z" fill="#191919"/>
<path d="M240.68 254.995C249.286 255.033 257.814 255.917 266.227 257.645C266.573 257.722 266.727 257.146 266.381 257.108C257.929 255.379 249.324 254.495 240.68 254.457C240.334 254.419 240.334 254.995 240.68 254.995Z" fill="#191919"/>
<path d="M245.252 249.962C253.435 250.116 261.579 251.076 269.531 252.882C269.877 252.959 270.031 252.421 269.685 252.344C261.656 250.538 253.473 249.539 245.252 249.424C244.868 249.386 244.868 249.962 245.252 249.962Z" fill="#191919"/>
<path d="M271.606 255.801C267.841 261.333 264.114 266.865 260.35 272.397C260.158 272.705 260.657 273.012 260.849 272.705C264.614 267.173 268.34 261.641 272.105 256.109C272.336 255.763 271.836 255.494 271.606 255.801Z" fill="#191919"/>
<path d="M207.988 247.427C212.79 245.39 217.976 246.543 223.047 246.466C227.311 246.428 231.383 245.237 235.033 243.085C235.34 242.893 235.071 242.394 234.726 242.586C230.231 245.237 225.467 246.082 220.319 245.851C216.017 245.659 211.752 245.237 207.68 246.966C207.373 247.081 207.642 247.58 207.988 247.427Z" fill="#191919"/>
<path d="M220.934 245.045C229.155 240.396 232.959 230.6 241.526 226.49C241.871 226.336 241.564 225.837 241.218 225.99C232.613 230.139 228.848 239.897 220.627 244.545C220.32 244.738 220.588 245.237 220.934 245.045Z" fill="#191919"/>
<path d="M231.383 217.654C229.962 216.54 230.192 214.734 230.999 213.313C231.383 212.621 231.96 211.891 232.613 211.469C233.804 210.7 234.918 211.315 235.84 212.122C236.109 212.352 236.531 211.968 236.262 211.699C234.341 210.086 232.536 210.239 230.961 212.314C229.693 214.004 229.04 216.54 230.961 218.076C231.268 218.307 231.691 217.884 231.383 217.654Z" fill="#191919"/>
<path d="M349.707 189.571C339.181 201.25 336.338 214.081 334.801 221.342C331.997 234.788 334.955 240.166 335.147 265.713C335.224 276.585 334.763 285.382 334.417 290.914C336.799 292.758 351.551 303.745 371.259 300.134C385.857 297.484 394.654 288.34 397.42 285.229C398.073 281.579 398.995 276.201 400.071 269.67C405.757 234.442 408.561 216.578 405.027 203.785C402.914 196.025 397.689 183.732 382.86 171.016C376.637 172.322 361.693 176.317 349.707 189.571Z" fill="#FFA62B"/>
<path opacity="0.19" d="M360.425 182.503C364.075 193.413 366.034 202.748 367.186 209.586C370.221 227.681 374.793 254.803 361.923 281.08C357.813 289.455 353.011 295.601 349.63 299.405C354.086 300.442 362.922 301.863 373.448 299.136C385.972 295.909 393.809 288.648 397.036 285.344C399.533 271.053 401.531 258.798 403.067 249.232C405.718 232.406 406.333 227.296 406.064 220.113C405.757 210.893 405.334 201.212 399.802 190.762C394.501 180.774 387.048 174.781 382.476 171.708C378.75 172.361 373.487 173.744 367.916 176.971C364.843 178.815 362.346 180.774 360.425 182.503Z" fill="#6C6D6D"/>
<path opacity="0.18" d="M404.066 200.827C403.375 200.866 404.835 211.507 402.568 226.182C398.381 253.343 384.935 272.167 379.748 278.852C375.407 284.422 368.608 292.105 358.658 299.673C362.23 300.211 366.994 300.442 372.449 299.404C385.396 296.984 393.617 289.032 396.767 285.613C397.574 280.926 398.88 273.588 400.532 264.522C404.412 243.316 405.18 240.781 405.795 234.173C407.485 216.156 404.873 200.827 404.066 200.827Z" fill="#6C6D6D"/>
<path d="M282.017 229.371C281.287 228.871 279.827 227.949 279.981 227.181C280.288 225.951 284.706 225.759 287.894 226.297C290.046 226.643 293.964 227.757 298.075 231.637C293.465 232.29 286.819 232.482 282.017 229.371Z" fill="white" stroke="#191919" stroke-width="0.768333" stroke-miterlimit="10"/>
<path d="M390.467 192.568C382.745 190.301 373.717 200.712 372.91 201.711C369.837 205.36 369.107 207.973 366.226 215.042C359.234 232.329 355.585 241.05 348.67 245.583C342.484 249.655 335.992 249.809 334.263 249.809C327.003 249.77 321.01 246.159 309.331 238.937C299.496 232.828 298.497 230.984 292.812 229.448C289.93 228.679 281.479 226.374 274.91 230.869C270.722 233.712 268.148 239.013 269.301 240.358C270.761 242.087 278.598 238.015 278.636 238.168C278.674 238.245 276.369 238.898 274.295 240.742C273.258 241.626 271.414 243.547 271.836 244.238C272.605 245.544 279.596 239.551 285.82 241.78C290.046 243.278 290.276 247.312 295.232 248.887C298.152 249.809 300.918 249.309 302.685 248.81C305.067 252.382 309.1 257.492 315.324 262.14C319.05 264.906 332.189 274.434 350.437 273.012C369.799 271.514 381.554 258.721 385.204 254.764C387.317 252.498 402.645 235.325 400.302 212.967C399.956 209.317 398.458 194.95 390.467 192.568Z" fill="white" stroke="#191919" stroke-width="0.768333" stroke-miterlimit="10"/>
<path opacity="0.25" d="M389.622 192.568C386.702 193.528 390.352 203.939 387.394 217.577C384.589 230.677 377.213 239.513 373.871 243.547C369.376 248.963 363.498 256.032 353.472 259.643C340.026 264.484 324.928 261.064 314.824 254.726C311.828 252.805 309.292 247.849 302.57 243.969C299.65 242.279 297.306 241.434 294.502 240.396C287.741 237.938 281.671 235.709 275.486 237.669C272.528 238.591 269.877 240.358 270.031 240.665C270.184 241.011 273.603 239.897 276.677 238.86C272.566 242.74 271.798 243.931 271.99 244.238C272.22 244.545 273.45 243.739 276.331 242.74C279.481 241.626 281.671 240.896 284.206 241.51C285.474 241.818 286.396 242.394 286.972 242.74C289.085 244.046 289.431 245.314 291.506 246.812C292.773 247.734 293.926 248.195 294.54 248.425C295.808 248.925 298.497 249.732 302.301 249.04C304.913 252.805 317.014 269.478 338.259 272.551C349.207 274.126 357.851 271.437 361.27 270.323C380.018 264.253 389.506 249.732 391.965 245.698C399.572 233.251 404.758 213.812 396.921 199.828C395.077 196.332 391.619 191.915 389.622 192.568Z" fill="#6C6D6D"/>
<path d="M269.992 240.473C272.028 238.36 274.41 236.823 277.176 235.901C277.714 235.709 277.484 234.903 276.946 235.056C274.064 236.055 271.491 237.669 269.378 239.858C268.993 240.281 269.608 240.896 269.992 240.473Z" fill="#191919"/>
<path d="M271.375 235.325C273.411 233.059 276.254 232.175 279.097 231.368C279.635 231.215 279.404 230.369 278.866 230.523C275.908 231.407 272.912 232.367 270.799 234.711C270.376 235.133 270.991 235.709 271.375 235.325Z" fill="#191919"/>
<path opacity="0.29" d="M399.111 209.087C397.805 213.082 395.692 218.844 392.58 225.529C386.395 238.706 380.824 250.577 369.952 258.99C356.545 269.362 340.487 270.246 331.459 269.823C337.798 272.397 343.061 272.935 346.403 273.012C371.835 273.55 389.66 249.463 395.192 238.629C396.153 236.708 398.15 232.713 399.303 227.027C400.801 219.382 399.917 212.967 399.111 209.087Z" fill="#6C6D6D"/>
<path opacity="0.26" d="M286.742 241.395C288.893 242.893 291.928 244.66 295.808 246.043C298.882 247.119 301.686 247.657 303.914 247.926C297.729 249.962 294.848 249.155 293.35 247.926C292.428 247.158 291.467 245.736 288.586 243.085C287.856 242.355 287.203 241.779 286.742 241.395Z" fill="#6C6D6D"/>
<path d="M330.921 115.081C330.498 117.54 330.076 119.998 329.73 122.572C328.232 133.022 327.617 142.895 327.579 152.076C329.692 151.846 331.766 151.615 333.879 151.423C333.649 153.459 332.996 160.912 337.759 168.288C342.254 175.242 348.708 177.777 350.706 178.469C350.475 182.233 350.283 185.96 350.053 189.725C354.202 186.037 359.849 181.696 367.033 177.816C372.526 174.857 377.713 172.821 382.13 171.438C377.175 165.292 375.292 159.491 374.486 156.149C373.103 150.386 373.371 145.43 373.64 141.051C373.909 136.556 374.562 132.83 375.139 130.217C376.944 121.996 372.219 108.973 362.807 104.286C353.51 99.6376 339.642 103.556 330.921 115.081Z" fill="white" stroke="#161616" stroke-width="0.768333" stroke-miterlimit="10"/>
<path d="M332.996 151.692C334.071 151.539 335.185 151.423 336.261 151.308C336.645 151.27 336.645 150.694 336.261 150.732C335.109 150.847 333.994 151.001 332.842 151.155C332.496 151.155 332.65 151.731 332.996 151.692Z" fill="#161616"/>
<path d="M367.648 121.036C362.999 122.227 362.154 126.26 356.276 134.674C350.322 143.202 346.557 148.542 339.834 151.654C335.493 153.652 333.341 153.114 331.421 155.688C328.117 160.144 330.345 167.482 332.304 171.246C334.571 175.587 338.028 178.2 340.871 180.351C343.599 182.387 346.096 183.732 347.863 184.539C345.981 181.657 345.865 180.774 346.096 180.505C346.71 179.89 349.323 183.194 352.396 182.771C353.28 182.656 354.855 182.157 358.351 176.663C360.733 172.937 362.346 170.363 363.422 166.675C365.765 158.761 362.461 156.61 363.422 146.199C363.575 144.624 364.651 132.292 369.031 131.485C370.606 131.178 372.219 132.484 372.987 133.483C374.601 135.596 374.409 138.976 372.411 141.896C373.064 141.435 379.326 137.209 379.249 130.333C379.249 129.257 379.211 125.3 376.214 122.726C372.795 119.806 368.032 120.959 367.648 121.036Z" fill="#161616" stroke="#161616" stroke-width="0.768333" stroke-miterlimit="10"/>
<path d="M336.684 138.515C337.575 138.515 338.297 137.225 338.297 135.634C338.297 134.043 337.575 132.753 336.684 132.753C335.792 132.753 335.07 134.043 335.07 135.634C335.07 137.225 335.792 138.515 336.684 138.515Z" fill="#161616"/>
<path d="M324.39 139.86C325.281 139.86 326.004 138.57 326.004 136.979C326.004 135.387 325.281 134.097 324.39 134.097C323.499 134.097 322.777 135.387 322.777 136.979C322.777 138.57 323.499 139.86 324.39 139.86Z" fill="#161616"/>
<path d="M321.97 132.253C323.007 131.063 324.621 130.947 325.773 132.1C326.311 132.638 327.118 131.792 326.58 131.293C325.005 129.756 322.585 129.795 321.125 131.447C320.702 132.023 321.509 132.83 321.97 132.253Z" fill="#161616"/>
<path d="M334.571 130.256C335.915 129.141 337.682 129.295 338.835 130.563C339.334 131.101 340.141 130.294 339.642 129.756C338.028 128.027 335.531 127.951 333.725 129.449C333.188 129.91 333.994 130.717 334.571 130.256Z" fill="#161616"/>
<path d="M329.615 119.653C330.038 116.887 331.113 112.354 334.071 107.667C335.109 106.015 337.337 102.519 340.871 100.137C347.632 95.6423 358.043 95.988 365.611 101.52C373.026 106.937 376.714 116.618 375.1 126.222C359.926 124.071 344.79 121.881 329.615 119.653Z" fill="#44C3E3"/>
<path d="M304.798 119.999C328.117 122.995 351.474 125.992 374.793 128.95C376.983 129.219 376.983 125.761 374.793 125.492C351.474 122.496 328.117 119.499 304.798 116.541C302.608 116.234 302.608 119.691 304.798 119.999Z" fill="#161616"/>
<path d="M349.361 97.3328C355.354 98.639 359.887 103.479 360.656 109.28C361.347 114.351 359.119 119.499 354.893 122.649C361.539 123.533 368.224 124.455 374.87 125.339C375.216 123.571 375.523 120.882 375.1 117.732C374.102 110.356 369.837 105.631 368.454 104.209C366.956 102.673 361.655 97.5249 353.779 97.0639C351.974 96.9871 350.437 97.1407 349.361 97.3328Z" fill="#397D8F"/>
</svg>
