<svg width="135" height="135" viewBox="0 0 135 135" fill="none" xmlns="http://www.w3.org/2000/svg">
<path d="M54.2154 25.0889C49.2264 31.2169 42.5757 35.6123 34.9823 37.7998C32.4998 38.5148 31.0671 41.1068 31.7821 43.5891C32.4565 45.9303 34.8001 47.3374 37.1469 46.8905C37.2885 46.8636 37.4306 46.8299 37.5716 46.7893C41.4354 45.6761 45.1023 44.1026 48.5119 42.11L54.2154 25.0889Z" fill="#00CCF2"/>
<path d="M67.5273 53.8545L72.62 39.307C74.1563 39.5459 75.6997 39.6682 77.2374 39.6682C84.1703 39.6682 90.9805 37.2679 96.4544 32.7213L97.0824 32.1995C99.0329 30.5788 99.4345 27.6818 97.8845 25.6744C96.2572 23.567 93.2215 23.2448 91.1906 24.9322L90.4766 25.5254C89.2583 26.5376 87.9437 27.3952 86.5614 28.0926C81.17 30.8124 74.691 29.4043 70.5831 24.9783C68.573 22.8127 65.6994 21.4375 62.4615 21.4375C57.4134 21.4375 53.0027 24.8476 51.7319 29.733L45.457 53.8545H67.5273Z" fill="#00CCF2"/>
<path d="M45.4565 53.8546L27.0209 102.196C25.8234 105.336 27.8643 108.772 31.1945 109.223L31.3176 109.24C33.5969 109.548 35.7926 108.393 36.8153 106.365C42.029 96.0273 57.4202 65.5963 57.4202 65.5963H63.6709L60.4833 85.637C60.0114 88.6034 62.3036 91.2889 65.3071 91.2889C67.5004 91.2889 69.4248 89.827 70.0127 87.7141L76.0034 66.188C77.7285 59.9898 73.0677 53.8546 66.6338 53.8546H63.7803H45.4565Z" fill="#FFBE52"/>
<path d="M132.352 58.644L109.63 63.2171L114.568 68.1555L98.7743 83.9493L87.5701 72.7449L35.5139 124.802L43.076 132.363L87.5701 87.8696L98.7743 99.074L122.131 75.7179L127.779 81.3666L132.352 58.644Z" fill="#FF6371"/>
<path d="M132.352 58.644L109.63 63.2171L114.568 68.1555L98.7743 83.9493L87.5701 72.7449L35.5139 124.802L43.076 132.363L87.5701 87.8696L98.7743 99.074L122.131 75.7179L127.779 81.3666L132.352 58.644Z" fill="#FF6371"/>
<path d="M69.3025 21.4375C74.4942 21.4375 78.703 17.2287 78.703 12.037C78.703 6.84522 74.4942 2.63647 69.3025 2.63647C64.1107 2.63647 59.902 6.84522 59.902 12.037C59.902 17.2287 64.1107 21.4375 69.3025 21.4375Z" fill="#FED2A4"/>
<path d="M23.1371 73.64L3.65163 54.1546C2.31307 52.816 2.31307 50.6459 3.65163 49.3074L17.7958 35.1632C19.1343 33.8247 21.3044 33.8247 22.643 35.1632L42.1284 54.6487C43.467 55.9872 43.467 58.1573 42.1284 59.4959L27.9843 73.64C26.6458 74.9783 24.4756 74.9783 23.1371 73.64Z" fill="#FF9357"/>
<path d="M20.0044 57.4508L19.1981 56.6446C17.7818 55.2282 17.7818 52.9321 19.1981 51.516L22.5686 48.1455L28.5034 54.0803L25.1329 57.4508C23.7166 58.8669 21.4204 58.8669 20.0044 57.4508Z" fill="white"/>
<path d="M134.217 56.7795C133.593 56.1557 132.697 55.8855 131.833 56.0592L109.11 60.6323C108.158 60.8242 107.387 61.5245 107.106 62.4544C106.825 63.3845 107.079 64.394 107.766 65.0814L110.84 68.1556L98.7747 80.2208L89.4346 70.8807C88.94 70.3863 88.2695 70.1084 87.5703 70.1084C86.8711 70.1084 86.2006 70.3863 85.706 70.8807L74.2451 82.3419L78.5442 66.8945C79.5893 63.1393 78.8363 59.2056 76.4785 56.1017C75.0342 54.2007 73.1275 52.7992 70.9719 51.9961L74.4086 42.1788C75.3569 42.2621 76.3029 42.3045 77.2381 42.3045C84.8513 42.3045 92.2741 39.6211 98.1396 34.749L98.7679 34.2273C101.86 31.658 102.389 27.193 99.9714 24.063C98.7457 22.4755 96.9745 21.48 94.9839 21.2601C92.9926 21.0399 91.0468 21.6242 89.506 22.9042L88.7923 23.4972C87.7406 24.3707 86.5906 25.125 85.3741 25.7385C81.3086 27.7892 76.2317 26.8759 72.8583 23.5373C77.7654 22.0173 81.34 17.4366 81.34 12.0365C81.3402 5.39959 75.9404 0 69.3032 0C62.6658 0 57.2662 5.39959 57.2662 12.0368C57.2662 14.678 58.1233 17.1215 59.571 19.1084C56.8327 19.698 54.3684 21.1098 52.4827 23.1059C52.3728 23.2024 52.2673 23.3068 52.1719 23.4244C47.524 29.1335 41.3276 33.2286 34.2531 35.2663C32.3376 35.8184 30.8216 37.0903 29.9118 38.7028L24.508 33.299C22.1435 30.9348 18.2969 30.9351 15.9322 33.299L8.86024 40.3712L1.78831 47.4431C0.64274 48.5884 0.012085 50.111 0.012085 51.7311C0.012085 53.351 0.643004 54.8736 1.78804 56.0191L21.2732 75.5043C22.4188 76.6496 23.9414 77.2803 25.5613 77.2803C27.1814 77.2803 28.704 76.6494 29.8493 75.5043L37.1717 68.1819L33.6997 77.2864C33.1808 78.6468 33.8631 80.1704 35.2236 80.6893C35.5328 80.8072 35.8503 80.8631 36.1627 80.8631C37.2247 80.8631 38.2258 80.2166 38.6268 79.1654L47.274 56.4911H63.7813H66.6348C68.8703 56.4911 70.9276 57.5119 72.2798 59.2919C73.6321 61.0718 74.064 63.3276 73.4644 65.4808L67.4735 87.0069C67.204 87.9756 66.3134 88.6521 65.3078 88.6521C64.4056 88.6521 63.8493 88.158 63.598 87.8635C63.3468 87.569 62.946 86.9418 63.0876 86.0512L66.2754 66.0105C66.3967 65.2483 66.1779 64.4716 65.6769 63.8847C65.176 63.2978 64.443 62.9598 63.6716 62.9598H57.4209C56.4267 62.9598 55.5169 63.519 55.0681 64.4062C54.9141 64.7104 39.6168 94.9568 34.4619 105.177C33.9459 106.201 32.8241 106.785 31.6738 106.627L31.5488 106.61C30.7639 106.504 30.0821 106.053 29.6774 105.372C29.2727 104.691 29.2028 103.876 29.4852 103.136L31.1098 98.8763C31.6287 97.5158 30.9463 95.9924 29.5859 95.4733C28.2257 94.9545 26.7021 95.637 26.183 96.9972L24.5583 101.257C23.6991 103.51 23.9126 105.991 25.1442 108.065C26.3757 110.138 28.4525 111.513 30.8401 111.836L30.9651 111.852C31.3265 111.902 31.6867 111.925 32.0445 111.925C35.0295 111.925 37.8058 110.257 39.1702 107.552C43.6728 98.6245 55.9184 74.4091 59.0421 68.2328H60.5827L57.8802 85.2228C57.5341 87.3998 58.1563 89.6102 59.5876 91.2868C60.5083 92.3654 61.7005 93.1461 63.0204 93.5671L33.6504 122.937C33.156 123.432 32.8781 124.102 32.8781 124.801C32.8781 125.501 33.156 126.171 33.6504 126.666L41.2127 134.228C41.7276 134.742 42.4023 135 43.077 135C43.7517 135 44.4263 134.742 44.9412 134.228L59.4793 119.69C60.5088 118.66 60.5088 116.991 59.4793 115.961C58.4494 114.932 56.7805 114.932 55.7504 115.961L43.077 128.635L39.2435 124.801L87.5708 76.4733L96.911 85.8134C97.4056 86.3077 98.0761 86.5856 98.7753 86.5856C99.4745 86.5856 100.145 86.3077 100.64 85.8134L116.433 70.0196C117.463 68.99 117.463 67.3206 116.433 66.2908L114.973 64.8307L128.986 62.0106L126.166 76.0235L123.996 73.8533C122.966 72.8241 121.297 72.8241 120.267 73.8533L98.775 95.3452L89.4349 86.0051C88.405 84.9758 86.7361 84.9758 85.706 86.0051L70.6644 101.047C69.6349 102.076 69.6349 103.746 70.6644 104.775C71.6943 105.805 73.3632 105.805 74.3933 104.775L87.5703 91.5984L96.9104 100.939C97.9403 101.968 99.6092 101.968 100.639 100.939L122.131 79.4467L125.916 83.2312C126.603 83.9183 127.613 84.1722 128.542 83.8906C129.472 83.6098 130.173 82.8397 130.365 81.8868L134.938 59.164C135.112 58.2989 134.841 57.4038 134.217 56.7795ZM69.3032 5.27304C73.0328 5.27304 76.0669 8.3074 76.0669 12.0368C76.0669 15.7664 73.0326 18.8007 69.3032 18.8007C65.5736 18.8007 62.5392 15.7664 62.5392 12.0368C62.5392 8.3074 65.5736 5.27304 69.3032 5.27304ZM43.2143 52.0053L40.0057 48.7967C41.5296 48.2994 43.0263 47.7307 44.4917 47.0945L43.2143 52.0053ZM34.3163 42.8598C34.0047 41.7783 34.6314 40.6451 35.7129 40.3334C40.0471 39.0848 44.0897 37.157 47.7317 34.6394L46.2429 40.3632C43.2789 42.001 40.1233 43.3109 36.8419 44.2561C36.781 44.2735 36.7172 44.2888 36.6541 44.3009C36.1677 44.3934 35.681 44.2967 35.2723 44.0636L34.5001 43.2914C34.4239 43.1566 34.3606 43.0132 34.3163 42.8598ZM19.6605 37.0275C19.8147 36.8733 20.0175 36.7963 20.2199 36.7963C20.4224 36.7963 20.6252 36.8733 20.7791 37.0275L30.3898 46.6382C30.8356 47.2469 31.3671 47.7777 31.9659 48.2143L40.2646 56.513C40.5731 56.8212 40.5731 57.3232 40.2646 57.6314L35.0569 62.839L29.2653 57.0474L30.3684 55.9443C31.398 54.9147 31.398 53.2453 30.3684 52.2154L24.4336 46.2806C23.4038 45.2513 21.7349 45.2513 20.7048 46.2806L19.6017 47.3838L14.4528 42.2349L19.6605 37.0275ZM23.2693 55.5862C23.017 55.8385 22.7225 55.8765 22.5693 55.8765C22.4164 55.8765 22.1219 55.8385 21.8696 55.5865V55.5862L21.0631 54.78C20.811 54.5277 20.7731 54.2332 20.7731 54.0803C20.7731 53.9271 20.811 53.6326 21.0634 53.3803L22.5693 51.8743L24.7753 54.0803L23.2693 55.5862ZM26.1205 71.7758C25.9288 71.9672 25.7108 72.0073 25.5613 72.0073C25.412 72.0073 25.1935 71.9672 25.0021 71.7755L5.51687 52.2903C5.3252 52.0986 5.28512 51.8803 5.28512 51.7311C5.28512 51.5816 5.3252 51.3633 5.51687 51.1719L10.7243 45.9643L16.1196 51.3594C15.7149 52.1973 15.5 53.1221 15.5 54.0803C15.5 55.7534 16.1518 57.3261 17.3345 58.5088L18.1408 59.3148V59.3151C19.3235 60.4978 20.8965 61.1495 22.5693 61.1495C23.5275 61.1495 24.4523 60.9349 25.2902 60.53L31.3284 66.5681L26.1205 71.7758ZM63.781 51.2181H48.8678L54.284 30.3967C55.2527 26.6739 58.6155 24.074 62.4622 24.074C64.8385 24.074 67.0366 25.0322 68.6515 26.772C73.6049 32.1094 81.4589 33.6203 87.7493 30.4468C89.3202 29.6545 90.8051 28.6814 92.1623 27.5535L92.876 26.9605C93.3063 26.603 93.8492 26.439 94.4055 26.5017C94.9605 26.5629 95.4551 26.8413 95.7984 27.2861C96.4609 28.1438 96.2814 29.4383 95.3987 30.1715L94.7706 30.6933C89.8498 34.7809 83.6235 37.032 77.2383 37.032C75.8518 37.032 74.4347 36.921 73.026 36.7019C71.7686 36.5047 70.5524 37.2355 70.1321 38.4359L65.6574 51.2181H63.781Z" fill="#333333"/>
<path d="M65.1209 107.781C64.4275 107.781 63.7473 108.063 63.2569 108.553C62.7665 109.044 62.4844 109.724 62.4844 110.417C62.4844 111.113 62.7662 111.791 63.2569 112.281C63.7473 112.774 64.4275 113.054 65.1209 113.054C65.8143 113.054 66.4945 112.774 66.9846 112.281C67.475 111.791 67.7574 111.113 67.7574 110.417C67.7574 109.724 67.4753 109.044 66.9846 108.553C66.4945 108.063 65.8143 107.781 65.1209 107.781Z" fill="#333333"/>
<path d="M32.3991 90.7331C33.0925 90.7331 33.7727 90.451 34.2631 89.9604C34.7532 89.4702 35.0356 88.79 35.0356 88.0966C35.0356 87.4032 34.7535 86.723 34.2631 86.2326C33.7701 85.7422 33.0925 85.4601 32.3991 85.4601C31.7057 85.4601 31.0255 85.7419 30.5324 86.2326C30.0423 86.723 29.7626 87.4032 29.7626 88.0966C29.7626 88.79 30.0423 89.4702 30.5324 89.9604C31.0255 90.4507 31.7031 90.7331 32.3991 90.7331Z" fill="#333333"/>
</svg>
