<svg width="211" height="212" viewBox="0 0 211 212" fill="none" xmlns="http://www.w3.org/2000/svg">
<path d="M210.93 105.908C210.93 47.7095 163.75 0.530396 105.552 0.530396C47.3538 0.530396 0.174683 47.7095 0.174683 105.908C0.174683 164.106 47.3538 211.285 105.552 211.285C163.75 211.285 210.93 164.106 210.93 105.908Z" fill="#E4ECF7"/>
<path d="M59.4496 138.838C68.5431 138.838 75.9148 131.467 75.9148 122.373C75.9148 113.28 68.5431 105.908 59.4496 105.908C50.3561 105.908 42.9844 113.28 42.9844 122.373C42.9844 131.467 50.3561 138.838 59.4496 138.838Z" fill="#836055"/>
<path d="M59.4496 135.545H115.431V217.443C115.431 217.443 103.435 224.457 87.4405 224.457C71.4462 224.457 59.4496 213.008 59.4496 213.008V135.545Z" fill="#836055"/>
<path d="M115.431 177.921C115.431 196.539 103.906 198.114 93.6412 194.774C83.3801 191.442 62.7426 162.397 62.7426 143.778C62.7426 125.159 65.3243 125.667 80.5678 125.667C123.664 127.313 115.431 159.302 115.431 177.921Z" fill="#553329"/>
<path d="M151.279 119.409C151.279 148.79 138.476 181.648 117.071 186.587C85.7874 183.294 57.566 148.79 57.566 119.409C49.5704 84.503 51.217 43.34 105.552 43.34C159.887 43.34 151.279 90.0255 151.279 119.409V119.409Z" fill="#836055"/>
<path d="M125.31 135.545H122.017C120.199 135.545 118.724 137.02 118.724 138.838C118.724 140.657 120.199 142.131 122.017 142.131H125.31C127.129 142.131 128.604 140.657 128.604 138.838C128.604 137.02 127.129 135.545 125.31 135.545Z" fill="#68463C"/>
<path d="M125.31 198.113H52.8635C36.4952 198.113 23.2261 211.382 23.2261 227.751V244.216C23.2261 260.584 36.4952 273.853 52.8635 273.853H125.31C141.679 273.853 154.948 260.584 154.948 244.216V227.751C154.948 211.382 141.679 198.113 125.31 198.113Z" fill="#E05A33"/>
<path d="M0.171409 33.4541C26.5059 7.12294 42.9843 43.3366 42.9843 43.3366L36.3916 69.6809C36.3916 69.6809 29.8055 77.9135 36.3916 102.611C42.9777 127.309 28.159 140.481 28.159 140.481C28.159 140.481 16.6333 148.717 6.75421 142.131C-3.12493 135.545 -4.43227 129.216 -3.12493 117.433C-1.47841 102.615 3.46116 107.548 3.46116 92.7289C3.46116 77.9102 -26.1664 59.7853 0.168116 33.4541H0.171409Z" fill="#1B0B47"/>
<path d="M43.083 43.9359L61.2211 51.7799L49.4583 78.9805L31.3235 71.1431C31.3235 71.1431 28.1622 64.7447 33.1018 54.8688C38.0314 44.9897 43.0863 43.9359 43.0863 43.9359H43.083Z" fill="#FF6C98"/>
<path fill-rule="evenodd" clip-rule="evenodd" d="M59.4496 135.545L55.0929 106.491C51.2455 107.543 47.9106 109.955 45.708 113.281C43.5054 116.606 42.5848 120.618 43.1172 124.571C43.6496 128.524 45.5988 132.149 48.6027 134.773C51.6066 137.397 55.461 138.842 59.4496 138.838V166.171C54.2296 161.54 49.7016 156.183 46.0041 150.265C40.4059 141.361 36.4938 131.152 34.5377 120.321C32.5828 109.461 32.6274 98.3344 34.6695 87.4898C36.7112 76.6787 40.7056 66.5131 46.3795 57.6712C52.0502 48.8327 59.2718 41.5254 67.5538 36.2467C75.8325 30.9646 84.9806 27.8329 94.3823 27.0624C96.4282 26.8949 98.4817 26.84 100.534 26.8977C109.293 26.666 118.012 28.1482 126.203 31.261C133.793 34.1589 140.692 38.4036 146.501 43.7548C152.239 49.0059 156.853 55.3655 160.065 62.4494C162.508 67.8656 164.039 73.6481 164.597 79.5634H164.827V93.6774C164.827 93.6774 163.744 94.1779 161.541 94.8827V122.834C161.541 122.834 161.541 127.457 156.601 130.922C154.889 132.124 152.59 133.046 150.311 133.741C150.957 128.99 151.284 124.201 151.289 119.406C151.289 116.001 151.405 112.362 151.523 108.592C151.642 104.91 151.764 101.1 151.787 97.2602C145.688 98.3766 137.406 99.3217 126.832 99.3217C100.988 99.3217 85.794 93.6774 85.794 93.6774V90.3876C83.5547 93.8914 81.131 98.1263 79.2079 102.615C76.7381 108.378 76.7381 114.285 76.7381 119.248C76.7381 124.214 76.7381 128.238 74.2683 130.23C69.3288 134.215 59.4496 135.545 59.4496 135.545Z" fill="#1B0B47"/>
<path d="M108.845 124.02C108.845 121.292 106.634 119.08 103.906 119.08C101.178 119.08 98.9661 121.292 98.9661 124.02V127.313C98.9661 130.041 101.178 132.252 103.906 132.252C106.634 132.252 108.845 130.041 108.845 127.313V124.02Z" fill="#1B0B47"/>
<path d="M141.776 124.02C141.776 121.292 139.564 119.08 136.836 119.08C134.108 119.08 131.896 121.292 131.896 124.02V127.313C131.896 130.041 134.108 132.252 136.836 132.252C139.564 132.252 141.776 130.041 141.776 127.313V124.02Z" fill="#1B0B47"/>
<path d="M90.7334 128.959H84.1473C81.4193 128.959 79.2078 131.171 79.2078 133.899C79.2078 136.627 81.4193 138.838 84.1473 138.838H90.7334C93.4615 138.838 95.673 136.627 95.673 133.899C95.673 131.171 93.4615 128.959 90.7334 128.959Z" fill="#FF859B"/>
<path d="M150.008 128.959H146.715C143.987 128.959 141.776 131.171 141.776 133.899C141.776 136.627 143.987 138.838 146.715 138.838H150.008C152.736 138.838 154.948 136.627 154.948 133.899C154.948 131.171 152.736 128.959 150.008 128.959Z" fill="#FF859B"/>
</svg>
