<svg width="660" height="610" viewBox="0 0 660 610" fill="none" xmlns="http://www.w3.org/2000/svg">
<path d="M396.666 69.6592C383.316 77.4409 379.501 90.8576 377.921 96.3852C377.54 97.7269 373.071 114.203 380.809 131.376C383.098 136.474 385.55 141.734 391.108 144.256C394.323 145.759 397.211 145.651 408.546 144.685C413.832 144.256 419.553 143.719 425.656 143.075C429.961 137.655 437.372 126.814 439.552 111.573C439.933 108.729 444.402 74.8112 425.656 65.7952C413.396 59.8382 398.628 68.4786 396.666 69.6592Z" fill="#FFA62B"/>
<path d="M150.143 149.676C156.945 149.676 162.459 143.669 162.459 136.259C162.459 128.85 156.945 122.843 150.143 122.843C143.342 122.843 137.828 128.85 137.828 136.259C137.828 143.669 143.342 149.676 150.143 149.676Z" fill="#FFA62B"/>
<path d="M429.416 364.665C434.472 364.665 438.571 360.773 438.571 355.971C438.571 351.17 434.472 347.277 429.416 347.277C424.36 347.277 420.262 351.17 420.262 355.971C420.262 360.773 424.36 364.665 429.416 364.665Z" fill="#FFA62B"/>
<path d="M150.252 312.179C154.014 312.179 157.064 309.176 157.064 305.471C157.064 301.766 154.014 298.763 150.252 298.763C146.49 298.763 143.441 301.766 143.441 305.471C143.441 309.176 146.49 312.179 150.252 312.179Z" fill="#FFA62B"/>
<path d="M137.556 145.222C143.544 145.222 148.399 140.2 148.399 134.006C148.399 127.811 143.544 122.789 137.556 122.789C131.567 122.789 126.712 127.811 126.712 134.006C126.712 140.2 131.567 145.222 137.556 145.222Z" fill="#489FB5"/>
<path d="M426.91 350.927C430.611 350.927 433.612 347.851 433.612 344.057C433.612 340.263 430.611 337.188 426.91 337.188C423.208 337.188 420.207 340.263 420.207 344.057C420.207 347.851 423.208 350.927 426.91 350.927Z" fill="#489FB5"/>
<path d="M516.495 161.483C520.558 161.483 523.852 158.023 523.852 153.755C523.852 149.487 520.558 146.027 516.495 146.027C512.432 146.027 509.139 149.487 509.139 153.755C509.139 158.023 512.432 161.483 516.495 161.483Z" fill="#489FB5"/>
<path d="M356.724 209.247C355.525 207.368 353.563 209.139 352.746 210.427C351.056 213.111 349.967 216.438 351.22 219.497C352.146 221.805 354.435 223.737 357.105 223.361C359.557 223.039 361.41 221.053 361.355 218.638C361.355 217.994 360.429 217.511 359.939 218.048C357.051 221.644 353.509 226.742 356.397 231.357C358.413 234.524 363.372 234.953 365.333 231.518C364.843 231.465 364.353 231.411 363.862 231.304C364.135 232.806 364.407 234.309 364.625 235.812C364.788 236.831 366.369 236.402 366.205 235.382C365.933 233.88 365.66 232.377 365.442 230.874C365.333 230.177 364.244 230.123 363.971 230.66C363.099 232.162 361.138 232.699 359.557 231.948C357.813 231.089 357.051 229.157 357.051 227.279C357.051 224.166 359.285 221.429 361.138 219.121C360.647 218.907 360.211 218.746 359.721 218.531C359.775 220.57 357.759 222.073 355.743 221.644C354.217 221.322 353.236 220.034 352.691 218.638C352.146 217.189 352.201 215.74 352.637 214.291C352.691 214.184 354.925 209.408 355.252 209.944C355.852 210.91 357.269 210.105 356.724 209.247Z" fill="#FFA62B"/>
<path d="M134.231 214.076C135.43 210.856 139.408 212.252 140.661 214.506C141.097 215.257 141.315 216.116 141.424 216.974C141.642 218.584 141.479 219.228 140.062 220.194C138.536 221.697 138.155 221.107 138.972 218.423C139.354 218.262 139.79 218.101 140.171 217.94C141.206 217.672 142.405 217.726 143.441 218.048C146.056 218.906 147.364 221.643 146.983 224.166C146.874 224.81 147.527 225.454 148.181 225.078C151.723 223.092 156.41 225.293 157.227 229.21C157.445 230.23 159.025 229.801 158.807 228.781C157.772 223.844 151.832 221.268 147.364 223.736C147.745 224.058 148.181 224.327 148.563 224.649C149.271 219.926 145.62 215.525 140.552 216.277C138.809 216.545 136.193 217.618 135.975 219.658C135.812 221.321 137.392 222.556 138.972 222.717C143.659 223.146 143.55 216.438 142.024 213.754C139.953 210.105 134.231 209.193 132.597 213.701C132.27 214.613 133.85 215.042 134.231 214.076Z" fill="#FFA62B"/>
<path d="M421.133 416.077C425.329 418.814 428.871 422.303 431.705 426.381C432.304 427.24 433.721 426.435 433.122 425.576C430.125 421.283 426.419 417.634 422.005 414.736C421.079 414.092 420.262 415.487 421.133 416.077Z" fill="#489FB5"/>
<path d="M431.759 419.029C432.631 420.049 433.449 421.122 434.321 422.142C434.974 422.947 436.119 421.82 435.465 421.015C434.593 419.995 433.776 418.922 432.904 417.902C432.25 417.097 431.106 418.278 431.759 419.029Z" fill="#489FB5"/>
<path d="M426.746 404.003C430.506 407.437 433.612 411.355 436.01 415.809C436.5 416.722 437.917 415.917 437.427 415.004C434.975 410.443 431.76 406.364 427.891 402.876C427.128 402.124 425.983 403.305 426.746 404.003Z" fill="#489FB5"/>
<path d="M49.9863 464.431C51.1851 476.077 53.2558 487.562 56.1439 498.939C56.4164 499.959 57.9967 499.529 57.7242 498.51C54.8906 487.293 52.8199 475.916 51.6211 464.431C51.5121 463.412 49.8773 463.412 49.9863 464.431Z" fill="#A7A7A7"/>
<path d="M56.471 499.476C67.206 502.213 78.3769 502.213 89.1119 499.476C90.1472 499.207 89.7113 497.651 88.6759 497.919C78.2134 500.602 67.3694 500.602 56.9069 497.919C55.9261 497.651 55.4901 499.207 56.471 499.476Z" fill="#A7A7A7"/>
<path d="M90.3651 497.866C91.0735 486.435 91.9999 475.004 93.0897 463.573C93.1987 462.553 91.5639 462.553 91.455 463.573C90.3651 475.004 89.4387 486.435 88.7303 497.866C88.6758 498.886 90.3106 498.886 90.3651 497.866Z" fill="#A7A7A7"/>
<path d="M50.9128 465.29C64.4814 468.027 78.4314 467.92 92 464.914C93.0354 464.7 92.5994 463.143 91.5641 463.358C78.3224 466.256 64.6449 466.417 51.3488 463.734C50.3134 463.519 49.8775 465.075 50.9128 465.29Z" fill="#A7A7A7"/>
<path d="M50.7492 469.154C51.1851 471.354 54.0187 471.247 55.7624 471.408C60.1763 471.784 64.6447 471.891 69.0586 471.784C73.309 471.676 77.5594 471.354 81.8098 470.871C85.1883 470.442 88.4578 470.013 91.4549 468.349C92.3813 467.866 91.5639 466.471 90.6375 466.954C85.2428 469.905 77.7774 469.798 71.7287 470.066C68.7316 470.174 65.6801 470.227 62.683 470.174C61.1027 470.12 52.6564 470.496 52.3294 468.725C52.1115 467.705 50.5857 468.134 50.7492 469.154Z" fill="#A7A7A7"/>
<path d="M53.8555 487.776C56.4711 492.338 59.7951 496.363 63.7731 499.851C64.536 500.549 65.7348 499.422 64.9174 498.724C60.994 495.343 57.7789 491.425 55.2723 486.971C54.7818 486.059 53.365 486.864 53.8555 487.776Z" fill="#A7A7A7"/>
<path d="M51.7301 475.379C57.2883 484.61 64.0454 493.089 71.7833 500.71C72.5462 501.461 73.6905 500.281 72.9276 499.583C65.2987 492.07 58.6506 483.698 53.1469 474.574C52.602 473.716 51.1852 474.521 51.7301 475.379Z" fill="#A7A7A7"/>
<path d="M60.8302 471.515C66.6064 481.658 73.3089 491.265 80.8834 500.227C81.5373 501.032 82.6816 499.905 82.0277 499.1C74.5623 490.245 67.9142 480.746 62.247 470.71C61.7566 469.798 60.3398 470.603 60.8302 471.515Z" fill="#A7A7A7"/>
<path d="M71.2383 471.891C76.851 480.156 82.5182 488.367 88.2399 496.578C88.8393 497.436 90.2561 496.631 89.6567 495.773C83.935 487.562 78.2678 479.351 72.6551 471.086C72.0557 470.227 70.6389 471.032 71.2383 471.891Z" fill="#A7A7A7"/>
<path d="M79.9573 471.408C82.7909 475.916 85.8424 480.317 89.003 484.61C89.6024 485.415 91.0192 484.61 90.4198 483.805C87.2592 479.512 84.2077 475.111 81.3741 470.603C80.8291 469.745 79.4124 470.55 79.9573 471.408Z" fill="#A7A7A7"/>
<path d="M32.8211 417.205C33.4751 420.908 34.129 424.664 34.8374 428.367C35.0553 429.387 35.2188 430.46 36.0907 431.104C36.6901 431.587 38.6518 431.534 39.0333 432.07C39.0878 431.748 39.1422 431.426 39.1422 431.104C38.3249 431.909 37.5075 432.714 36.6356 433.466C36.4176 433.68 36.3631 434.002 36.4176 434.271C36.9081 435.72 37.235 437.866 38.2159 439.101C38.7063 439.745 39.5782 439.637 39.9596 440.013C40.2866 440.335 40.1776 440.12 40.0141 441.086C39.9051 441.891 39.9051 442.75 40.0141 443.609C40.1776 444.897 40.559 446.131 41.0495 447.312C43.8831 454.074 49.3868 459.548 54.6726 464.592C55.4354 465.29 56.5798 464.163 55.8169 463.465C52.4384 460.245 49.0598 456.918 46.2807 453.161C43.5561 449.458 40.3411 444.467 42.0303 439.745C42.1393 439.476 42.0303 439.101 41.8124 438.94C40.777 438.135 39.7417 438.457 39.0333 437.169C37.671 434.754 38.4339 433.949 40.1776 432.285C40.4501 432.07 40.5046 431.587 40.2866 431.319C39.8506 430.675 39.5237 430.46 38.8153 430.246C38.3794 430.085 37.7254 430.246 37.2895 430.031C36.3631 429.548 36.3631 428.367 36.1997 427.509C35.5458 423.967 34.8918 420.371 34.2924 416.829C34.1834 415.756 32.6032 416.185 32.8211 417.205Z" fill="#A7A7A7"/>
<path d="M34.0202 416.99C55.2722 423.967 69.8216 443.501 70.2575 465.612C70.2575 466.632 71.8923 466.632 71.8923 465.612C71.4564 442.804 56.4165 422.678 34.4561 415.433C33.4753 415.111 33.0393 416.668 34.0202 416.99Z" fill="#A7A7A7"/>
<path d="M66.6612 443.608C71.9469 429.172 79.7393 415.219 92.2181 405.72C93.0355 405.076 92.2181 403.681 91.4007 404.325C78.5405 414.146 70.5301 428.313 65.0809 443.179C64.7539 444.145 66.3342 444.574 66.6612 443.608Z" fill="#A7A7A7"/>
<path d="M90.8011 405.398C91.1826 410.336 91.6185 415.273 92 420.264C92.1089 421.284 93.7437 421.284 93.6347 420.264C93.2533 415.327 92.8174 410.389 92.4359 405.398C92.3814 404.379 90.7466 404.379 90.8011 405.398Z" fill="#A7A7A7"/>
<path d="M92.7084 419.727C92 419.888 91.2916 420.049 90.6377 420.264C89.6023 420.532 90.0383 422.088 91.0736 421.82C91.782 421.659 92.4904 421.498 93.1443 421.283C94.1797 421.015 93.7437 419.512 92.7084 419.727Z" fill="#A7A7A7"/>
<path d="M89.8204 421.712C90.0383 422.732 90.9102 423.376 91.8911 423.483C92.327 423.537 92.7085 423.108 92.7085 422.678C92.7085 422.195 92.327 421.927 91.8911 421.873C92.0546 421.873 91.8911 421.873 91.8366 421.873C91.7821 421.873 91.6731 421.82 91.7821 421.873C91.7276 421.82 91.6731 421.82 91.6186 421.766C91.5097 421.712 91.7276 421.873 91.5641 421.712C91.5096 421.659 91.5096 421.659 91.4552 421.605C91.5641 421.712 91.4552 421.605 91.4552 421.551C91.4007 421.498 91.4007 421.39 91.4007 421.498C91.4007 421.444 91.3462 421.337 91.3462 421.283C91.2372 420.854 90.7467 420.585 90.3653 420.746C89.9294 420.854 89.7114 421.283 89.8204 421.712Z" fill="#A7A7A7"/>
<path d="M91.0736 422.894C91.1281 425.953 91.0191 428.958 90.6922 431.963C90.5832 432.929 90.7467 435.183 90.0927 435.935C90.0383 435.988 89.0574 436.149 88.8394 436.31C88.022 436.954 89.1664 438.081 89.9838 437.437C90.2562 437.223 90.9101 437.437 91.3461 436.954C92 436.31 91.891 434.808 92 434.056C92.4904 430.353 92.7084 426.597 92.6539 422.84C92.7084 421.874 91.0736 421.874 91.0736 422.894Z" fill="#A7A7A7"/>
<path d="M88.1855 437.705C89.9293 439.745 89.4389 443.126 89.2754 445.594C89.0574 448.439 88.567 451.068 87.1502 453.537C85.134 457.186 82.3004 460.245 80.8291 464.217C80.4476 465.183 82.0279 465.612 82.4094 464.646C84.3711 459.44 88.8939 455.576 90.2563 450.102C91.2371 446.185 92.1635 439.906 89.3299 436.578C88.676 435.827 87.5316 436.954 88.1855 437.705Z" fill="#A7A7A7"/>
<path d="M75.3254 464.968C76.8512 449.726 80.9381 434.861 87.4772 421.015C87.9131 420.102 86.4963 419.244 86.0604 420.21C79.4123 434.378 75.2164 449.458 73.6906 465.021C73.5817 466.041 75.2164 465.987 75.3254 464.968Z" fill="#A7A7A7"/>
<path d="M43.1749 425.952C52.711 437.759 59.686 451.337 63.773 465.827C64.0454 466.846 65.6257 466.417 65.3532 465.397C61.1573 450.585 54.0188 436.847 44.3192 424.825C43.6653 424.02 42.521 425.147 43.1749 425.952Z" fill="#A7A7A7"/>
<path d="M44.2101 445.755C48.7874 445.487 53.0378 446.56 56.9068 448.922C57.7787 449.458 58.6505 448.063 57.7242 447.526C53.6372 445.058 49.0054 443.877 44.2101 444.145C43.1202 444.199 43.1202 445.809 44.2101 445.755Z" fill="#A7A7A7"/>
<path d="M54.1822 438.564C53.8552 435.612 54.2367 432.768 55.381 429.977C55.7625 429.011 54.1822 428.582 53.8008 429.548C52.6019 432.446 52.2205 435.451 52.5474 438.564C52.6564 439.583 54.2912 439.583 54.1822 438.564Z" fill="#A7A7A7"/>
<path d="M71.8379 429.655C73.6361 434.002 76.2518 438.617 76.9057 443.233C77.0691 444.252 78.6494 443.823 78.4859 442.803C77.7775 438.134 75.1619 433.519 73.4182 429.226C73.0367 428.26 71.4564 428.689 71.8379 429.655Z" fill="#A7A7A7"/>
<path d="M81.8644 434.754C83.4447 432.983 84.9705 430.89 86.9867 429.548C88.676 428.421 90.5287 427.67 91.8365 426.113C92.4904 425.308 91.3461 424.181 90.6922 424.986C89.2754 426.65 87.2047 427.348 85.5154 428.636C83.6627 430.031 82.2459 431.909 80.7201 433.627C80.0117 434.432 81.156 435.559 81.8644 434.754Z" fill="#A7A7A7"/>
<path d="M82.4095 464.431C85.0251 463.734 87.6952 463.465 90.4198 463.626C91.4552 463.68 91.4552 462.07 90.4198 462.016C87.5317 461.855 84.7526 462.124 81.9735 462.875C80.9926 463.143 81.3741 464.7 82.4095 464.431Z" fill="#A7A7A7"/>
<path d="M82.1913 465.075C85.2429 465.344 88.1855 464.968 91.1281 464.056C92.1089 463.734 91.673 462.177 90.6921 462.499C87.913 463.358 85.0794 463.68 82.1913 463.465C81.156 463.412 81.156 465.022 82.1913 465.075Z" fill="#A7A7A7"/>
<path d="M51.6211 464.807C52.3295 464.807 52.9834 464.807 53.6918 464.807C54.7272 464.807 54.7272 463.197 53.6918 463.197C52.9834 463.197 52.3295 463.197 51.6211 463.197C50.5858 463.197 50.5858 464.807 51.6211 464.807Z" fill="#A7A7A7"/>
<path d="M91.564 477.794C108.838 477.794 126.167 477.794 143.441 477.794C144.476 477.794 144.476 476.184 143.441 476.184C126.167 476.184 108.838 476.184 91.564 476.184C90.5286 476.184 90.5286 477.794 91.564 477.794Z" fill="#A7A7A7"/>
<path d="M383.97 467.168C394.269 467.168 404.513 467.168 414.812 467.168C415.848 467.168 415.848 465.558 414.812 465.558C404.513 465.558 394.269 465.558 383.97 465.558C382.934 465.558 382.934 467.168 383.97 467.168Z" fill="#A7A7A7"/>
<path d="M477.478 468.134C521.89 468.134 566.301 468.134 610.712 468.134C623.354 468.134 635.997 468.134 648.639 468.134C649.674 468.134 649.674 466.524 648.639 466.524C604.228 466.524 559.816 466.524 515.405 466.524C502.763 466.524 490.121 466.524 477.478 466.524C476.443 466.524 476.443 468.134 477.478 468.134Z" fill="#A7A7A7"/>
<path d="M411.706 291.947C407.565 300.372 403.097 308.637 398.356 316.741C398.138 317.17 398.301 317.868 398.846 317.921C422.223 321.41 443.148 332.841 463.311 344.379C464.237 344.916 465.054 343.52 464.128 342.984C443.802 331.392 422.768 319.907 399.228 316.365C399.391 316.741 399.555 317.17 399.718 317.546C404.513 309.442 408.927 301.177 413.069 292.752C413.559 291.839 412.197 290.981 411.706 291.947Z" fill="#A7A7A7"/>
<path d="M415.303 321.195C416.938 316.58 418.572 311.911 420.207 307.295C420.916 305.363 421.406 303.217 422.332 301.338C422.55 300.211 423.259 299.353 424.349 298.709C425.003 298.87 425.656 299.031 426.31 299.192C427.291 299.46 428.272 299.675 429.198 299.943C431.433 300.48 435.029 300.48 434.648 303.431C434.375 305.524 433.122 307.778 432.413 309.818C430.779 314.379 429.198 318.941 427.564 323.503C427.237 324.469 428.817 324.898 429.144 323.932C431.269 317.921 433.394 311.857 435.52 305.846C436.01 304.451 437.372 302.09 436.282 300.587C435.084 298.977 431.487 298.87 429.634 298.387C427.836 297.957 424.676 296.347 422.823 297.206C421.243 297.904 420.916 300.587 420.425 301.929C418.191 308.208 415.957 314.54 413.723 320.819C413.396 321.732 414.976 322.161 415.303 321.195Z" fill="#A7A7A7"/>
<path d="M436.337 326.937C439.824 319.692 443.366 312.394 446.854 305.149C448.598 301.499 450.341 297.904 452.14 294.254C452.957 292.591 453.611 290.605 454.646 289.049C455.518 287.707 455.736 287.385 457.262 287.975C458.079 288.297 459.06 289.102 459.769 289.585C460.695 290.229 462.166 290.927 462.82 291.786C463.638 292.805 463.311 293.879 462.82 295.167C462.166 296.884 461.185 298.548 460.368 300.211C458.57 303.861 456.771 307.51 454.864 311.159C451.268 318.082 447.508 324.952 443.639 331.767C443.094 332.68 444.511 333.485 445.056 332.572C449.797 324.308 454.319 315.936 458.57 307.456C460.695 303.27 463.038 298.977 464.836 294.63C466.09 291.464 463.365 290.176 460.967 288.512C459.06 287.224 456.063 284.272 453.992 286.687C452.685 288.19 451.976 290.712 451.104 292.537C450.015 294.737 448.979 296.938 447.889 299.192C443.53 308.208 439.171 317.224 434.866 326.24C434.484 327.045 435.901 327.903 436.337 326.937Z" fill="#A7A7A7"/>
<path d="M454.428 338.1C459.115 330.855 464.4 323.985 470.231 317.653C469.904 317.706 469.577 317.76 469.25 317.76C471.321 319.155 473.337 320.497 475.408 321.892C475.299 321.517 475.19 321.141 475.135 320.765C470.504 327.903 465.872 334.987 461.24 342.125C460.695 342.983 462.057 343.788 462.657 342.93C467.288 335.792 471.92 328.708 476.552 321.57C476.825 321.195 476.607 320.712 476.28 320.443C474.209 319.048 472.193 317.706 470.122 316.311C469.85 316.096 469.359 316.204 469.141 316.418C463.202 322.912 457.807 329.835 453.066 337.187C452.467 338.207 453.883 339.012 454.428 338.1Z" fill="#A7A7A7"/>
<path d="M519.438 287.063C513.988 285.024 510.555 279.657 511.536 273.915C512.517 268.065 518.348 262.86 524.342 266.348C528.483 268.763 530.609 274.237 529.028 278.691C527.394 283.468 522.053 286.312 517.094 285.561C516.059 285.4 515.623 286.956 516.658 287.117C522.489 287.976 528.647 284.809 530.608 279.121C532.57 273.432 529.41 266.563 523.742 264.255C517.094 261.572 511.046 267.207 509.901 273.486C508.703 280.14 512.681 286.258 518.947 288.62C519.983 288.995 520.418 287.439 519.438 287.063Z" fill="#A7A7A7"/>
<path d="M530.608 286.043C519.764 285.721 523.851 268.602 533.442 269.246C543.033 269.943 539.109 289.21 528.592 285.668C527.611 285.346 527.175 286.902 528.156 287.224C540.308 291.303 545.757 269.514 534.15 267.689C528.483 266.777 523.361 272.036 522.489 277.242C521.617 282.394 525.159 287.439 530.608 287.6C531.644 287.707 531.644 286.097 530.608 286.043Z" fill="#A7A7A7"/>
<path d="M522.489 237.475C521.563 236.509 521.127 234.953 521.835 233.772C522.544 232.645 524.287 232.108 525.377 232.967C526.358 233.718 526.576 235.328 525.65 236.133C524.56 237.099 522.816 236.616 521.781 235.811C520.963 235.167 519.819 236.294 520.636 236.938C522.326 238.226 524.941 238.87 526.74 237.314C528.374 235.865 528.211 233.182 526.576 231.786C524.887 230.337 522.217 230.767 520.8 232.377C519.22 234.201 519.656 236.938 521.29 238.602C522.053 239.353 523.198 238.226 522.489 237.475Z" fill="#A7A7A7"/>
<path d="M364.352 277.886C362.827 268.762 368.221 257.761 378.684 257.868C384.024 257.922 389.201 260.068 394.596 259.317C398.41 258.78 401.68 256.634 403.968 253.682C406.257 250.73 407.565 247.027 407.783 243.324C408.055 237.85 405.93 232.269 407.456 226.849C408.219 224.112 409.854 221.589 412.633 220.57C415.303 219.657 418.191 220.194 420.97 220.087C425.002 219.926 428.163 218.208 430.179 214.72C433.013 209.836 432.359 203.987 434.321 198.835C436.664 192.609 443.257 187.296 450.232 190.355C451.159 190.785 452.031 189.389 451.05 188.96C441.568 184.774 433.667 193.2 431.814 201.679C430.615 207.207 430.833 215.793 424.131 217.994C419.444 219.55 414.158 217.135 409.854 220.301C406.312 222.877 405.276 227.6 405.331 231.732C405.494 237.797 407.401 243.7 404.677 249.496C402.17 254.97 397.211 258.244 391.054 257.868C385.604 257.546 380.21 255.346 374.706 256.741C365.388 259.049 361.41 269.889 362.881 278.369C362.99 279.281 364.57 278.852 364.352 277.886Z" fill="#A7A7A7"/>
<path d="M433.231 239.622C431.215 235.114 433.994 230.82 438.408 229.371C441.623 228.298 445.165 228.244 447.944 226.098C450.123 224.434 450.832 222.341 450.559 219.658C450.287 217.135 450.287 215.15 452.303 213.432C453.992 211.983 456.226 211.447 458.406 211.339C464.4 211.125 472.629 214.13 476.988 208.388C479.004 205.704 478.405 202.377 479.331 199.372C480.585 195.186 484.672 192.61 489.031 192.824C490.066 192.878 490.066 191.268 489.031 191.214C485.707 191.053 482.492 192.288 480.203 194.649C477.369 197.601 477.751 200.928 476.879 204.631C474.536 214.774 460.204 207.636 453.447 210.803C450.941 211.983 448.925 214.076 448.707 216.867C448.434 220.141 449.96 222.824 446.581 225.078C444.783 226.259 442.712 226.634 440.642 227.117C437.209 227.922 433.83 228.942 432.086 232.216C430.67 234.792 430.67 237.743 431.868 240.373C432.25 241.393 433.612 240.534 433.231 239.622Z" fill="#A7A7A7"/>
<path d="M530.336 168.137C530.118 167.654 529.9 167.118 529.737 166.581C530.445 165.776 531.099 164.971 531.807 164.166C532.025 164.112 533.006 164.756 533.333 164.756C534.151 164.864 534.859 164.649 535.513 164.166C537.529 162.61 536.821 160.141 537.42 158.048C538.401 154.452 542.706 156.921 544.668 154.238C546.629 151.608 545.921 146.027 551.152 147.529C552.187 147.798 552.623 146.241 551.588 145.973C548.591 145.114 545.866 146.51 544.777 149.354C544.45 150.159 544.341 151.071 544.014 151.876C543.305 153.755 542.542 154.023 540.472 154.13C538.946 154.238 537.747 154.13 536.712 155.418C535.84 156.545 535.84 157.994 535.676 159.336C535.513 161.322 535.676 162.985 532.679 162.771C532.08 162.717 531.589 162.18 530.936 162.18C527.339 162.127 527.938 166.474 528.81 168.567C529.137 169.533 530.772 169.103 530.336 168.137Z" fill="#A7A7A7"/>
<path d="M540.581 172.592C539.709 171.465 538.237 168.191 540.799 167.333C541.725 167.011 542.924 167.386 543.905 167.386C544.776 167.386 545.539 167.386 546.248 166.796C548.427 165.079 546.847 162.02 547.992 159.873C549.844 156.385 553.55 159.122 556.165 157.297C558.018 156.009 558.509 153.54 558.836 151.501C558.999 150.481 557.419 150.052 557.255 151.072C556.874 153.487 556.438 156.17 553.386 156.438C551.806 156.599 550.607 156.063 549.136 156.76C546.738 157.887 545.975 159.98 545.921 162.395C545.866 164.435 546.357 165.454 542.869 165.615C542.433 165.615 541.997 165.508 541.561 165.508C540.308 165.615 539.218 166.259 538.51 167.279C536.984 169.426 537.856 171.894 539.382 173.773C540.09 174.578 541.234 173.397 540.581 172.592Z" fill="#A7A7A7"/>
<path d="M77.2871 201.679C81.8099 196.312 88.24 191.912 95.651 192.663C103.716 193.468 107.694 199.801 108.457 207.207C109.764 219.496 106.713 234.201 115.159 244.666C118.483 248.798 123.442 250.999 128.782 249.711C135.212 248.208 140.226 243.217 145.947 240.265C152.704 236.777 162.023 234.899 168.126 240.748C172.594 245.042 173.575 251.589 175.046 257.278C176.409 262.43 178.752 268.118 183.438 271.177C186.272 273.002 189.378 273.163 192.647 272.948C196.298 272.68 203.764 272.465 203.001 278.1C202.892 279.12 204.527 279.12 204.636 278.1C204.908 275.9 203.873 274.129 202.074 272.841C199.241 270.802 195.971 271.124 192.647 271.338C188.887 271.607 185.672 271.285 182.784 268.655C180.169 266.294 178.588 262.966 177.444 259.693C175.537 254.058 174.992 247.886 171.722 242.734C168.507 237.636 162.949 235.167 156.955 235.382C149.38 235.65 143.005 239.943 136.956 243.915C134.068 245.793 130.962 247.779 127.42 248.369C123.17 249.067 119.41 247.242 116.685 244.129C111.563 238.226 110.745 229.8 110.473 222.394C110.2 215.471 111.127 207.958 108.784 201.25C106.658 195.132 101.264 191.321 94.7791 190.999C87.2592 190.624 80.6656 195.078 76.0337 200.552C75.4343 201.357 76.5787 202.484 77.2871 201.679Z" fill="#A7A7A7"/>
<path d="M49.7686 284.487C58.2694 298.44 65.8438 312.876 72.5464 327.742C72.9823 328.708 74.3991 327.849 73.9632 326.937C67.2606 312.071 59.6317 297.635 51.1854 283.682C50.6404 282.769 49.2236 283.574 49.7686 284.487Z" fill="#A7A7A7"/>
<path d="M50.8036 283.843C64.0453 275.739 77.6683 268.172 91.6729 261.303C92.5992 260.82 91.7818 259.425 90.8555 259.908C76.9054 266.777 63.2824 274.344 49.9862 282.448C49.0599 283.038 49.8773 284.433 50.8036 283.843Z" fill="#A7A7A7"/>
<path d="M90.6921 260.605C97.6126 274.934 104.915 289.048 112.653 302.948C113.143 303.86 114.56 303.055 114.069 302.143C106.331 288.243 98.9749 274.129 92.1089 259.8C91.6185 258.834 90.2562 259.639 90.6921 260.605Z" fill="#A7A7A7"/>
<path d="M74.399 328.064C87.4227 320.336 100.283 312.393 113.034 304.236C113.906 303.699 113.089 302.304 112.217 302.841C99.4655 310.998 86.6053 318.941 73.5816 326.669C72.7097 327.205 73.5271 328.601 74.399 328.064Z" fill="#A7A7A7"/>
<path d="M73.3635 279.12C73.0366 289.424 73.636 299.675 75.1618 309.871C75.3252 310.891 76.9055 310.462 76.742 309.442C75.2163 299.406 74.6713 289.263 74.9983 279.12C75.0528 278.101 73.418 278.101 73.3635 279.12Z" fill="#A7A7A7"/>
<path d="M73.418 278.584C80.9925 284.433 88.5669 290.176 96.2503 295.864C97.0677 296.508 97.8851 295.113 97.0677 294.469C89.4933 288.888 81.9733 283.199 74.5624 277.457C73.745 276.813 72.6007 277.94 73.418 278.584Z" fill="#A7A7A7"/>
<path d="M76.8509 310.193C83.1175 304.666 91.2913 301.714 97.231 295.757C97.9939 295.006 96.7951 293.879 96.0867 294.63C90.147 300.533 82.0277 303.539 75.7066 309.066C74.8892 309.71 76.088 310.837 76.8509 310.193Z" fill="#A7A7A7"/>
<path d="M51.948 292.913C53.6918 292.054 55.4355 291.249 57.1793 290.39C58.1057 289.961 57.2883 288.566 56.3619 288.995C54.6182 289.854 52.8744 290.659 51.1306 291.517C50.2043 292 51.0217 293.342 51.948 292.913Z" fill="#A7A7A7"/>
<path d="M57.5607 302.036C59.032 301.07 60.6122 300.265 62.247 299.567C63.2279 299.192 62.7919 297.635 61.8111 298.011C60.0128 298.762 58.3235 299.621 56.6888 300.641C55.8714 301.231 56.6888 302.626 57.5607 302.036Z" fill="#A7A7A7"/>
<path d="M63.7185 312.555C65.2443 311.804 66.7701 311.052 68.2959 310.355C69.2223 309.872 68.4049 308.53 67.4785 308.959C65.9527 309.711 64.4269 310.462 62.9012 311.16C61.9748 311.589 62.7922 312.984 63.7185 312.555Z" fill="#A7A7A7"/>
<path d="M66.879 323.073C68.5683 321.624 70.312 320.39 72.2738 319.317C73.2001 318.78 72.3827 317.438 71.4564 317.921C69.4402 319.048 67.5329 320.39 65.7347 321.946C64.9173 322.644 66.0616 323.771 66.879 323.073Z" fill="#A7A7A7"/>
<path d="M93.7981 271.178C95.0514 270.319 96.3592 269.729 97.8305 269.353C98.8659 269.085 98.4299 267.582 97.3946 267.797C95.8143 268.172 94.2885 268.816 92.9262 269.782C92.1088 270.373 92.9262 271.768 93.7981 271.178Z" fill="#A7A7A7"/>
<path d="M98.648 280.355C100.392 279.281 102.135 278.208 103.825 277.081C104.697 276.544 103.879 275.149 103.007 275.686C101.264 276.759 99.5199 277.832 97.8306 278.959C96.9042 279.55 97.7216 280.945 98.648 280.355Z" fill="#A7A7A7"/>
<path d="M104.206 291.357C106.059 290.552 107.966 289.747 109.819 288.942C110.8 288.512 109.928 287.117 109.002 287.546C107.149 288.351 105.242 289.156 103.389 289.961C102.408 290.391 103.28 291.786 104.206 291.357Z" fill="#A7A7A7"/>
<path d="M108.184 298.547C109.655 297.152 111.29 295.971 113.088 294.952C114.015 294.469 113.197 293.073 112.271 293.556C110.364 294.63 108.62 295.864 107.04 297.367C106.277 298.118 107.421 299.245 108.184 298.547Z" fill="#A7A7A7"/>
<path d="M79.0307 320.98C80.393 322.966 81.5373 325.059 82.4092 327.259C82.7907 328.225 84.3709 327.796 83.9895 326.83C83.0631 324.469 81.9188 322.215 80.4475 320.122C79.8481 319.317 78.4313 320.122 79.0307 320.98Z" fill="#A7A7A7"/>
<path d="M87.3682 316.526C88.4035 318.351 89.3844 320.122 90.4197 321.947C90.9102 322.859 92.327 322.054 91.8366 321.142C90.8012 319.317 89.8203 317.546 88.785 315.721C88.2945 314.809 86.8777 315.614 87.3682 316.526Z" fill="#A7A7A7"/>
<path d="M97.0133 309.71C98.1032 311.642 99.193 313.574 100.283 315.506C100.773 316.419 102.19 315.614 101.7 314.701C100.61 312.769 99.52 310.837 98.4301 308.905C97.9397 307.993 96.5229 308.798 97.0133 309.71Z" fill="#A7A7A7"/>
<path d="M105.677 304.612C106.549 306.651 107.421 308.69 108.348 310.676C108.783 311.642 110.146 310.783 109.764 309.871C108.892 307.832 108.021 305.792 107.094 303.807C106.658 302.894 105.241 303.699 105.677 304.612Z" fill="#A7A7A7"/>
<path d="M56.2529 275.578C57.2883 277.242 58.2691 278.906 59.3045 280.516C59.8494 281.428 61.2662 280.569 60.7213 279.711C59.6859 278.047 58.7051 276.383 57.6697 274.773C57.1248 273.915 55.708 274.72 56.2529 275.578Z" fill="#A7A7A7"/>
<path d="M65.6256 270.212C66.6064 272.358 67.5873 274.505 68.5682 276.652C69.0041 277.618 70.4209 276.759 69.985 275.847C69.0041 273.7 68.0232 271.553 67.0424 269.407C66.5519 268.441 65.1896 269.246 65.6256 270.212Z" fill="#A7A7A7"/>
<path d="M74.0719 265.06C75.5432 266.992 76.6876 269.085 77.4505 271.339C77.7774 272.305 79.3577 271.875 79.0308 270.909C78.2134 268.494 77.069 266.24 75.4888 264.255C74.8893 263.45 73.4725 264.201 74.0719 265.06Z" fill="#A7A7A7"/>
<path d="M83.1722 260.927C84.3165 262.645 85.4063 264.308 86.5507 266.026C87.0956 266.884 88.5124 266.079 87.9675 265.221C86.8231 263.503 85.7333 261.84 84.589 260.122C83.9896 259.264 82.5728 260.069 83.1722 260.927Z" fill="#A7A7A7"/>
<path d="M167.908 154.506C162.622 152.896 162.35 147.369 164.856 143.236C167.308 139.211 172.049 138.138 175.755 141.465C178.806 144.256 179.079 149.032 176.245 152.091C173.412 155.204 168.78 155.15 165.51 152.789C164.693 152.145 163.875 153.54 164.693 154.184C168.834 157.19 174.883 156.707 177.989 152.467C181.204 148.174 180.06 142.163 175.537 139.265C164.638 132.342 155.266 152.306 167.472 156.063C168.507 156.385 168.943 154.828 167.908 154.506Z" fill="#A7A7A7"/>
<path d="M176.681 155.902C172.594 157.136 171.613 152.306 173.412 149.73C174.883 147.637 177.771 146.403 180.387 147.1C182.893 147.744 184.691 150.267 184.038 152.789C183.22 155.955 179.842 157.082 176.845 156.599C175.809 156.438 175.373 157.995 176.409 158.156C180.441 158.853 184.8 157.136 185.672 152.843C186.435 149.14 183.493 145.759 179.842 145.329C175.809 144.846 171.395 147.744 170.85 151.823C170.36 155.365 173.629 158.531 177.226 157.404C178.152 157.136 177.716 155.58 176.681 155.902Z" fill="#A7A7A7"/>
<path d="M141.915 190.839C140.607 193.468 142.46 196.098 145.184 196.796C147.255 197.332 149.435 196.849 151.56 196.957C153.849 197.064 156.137 197.601 158.208 198.513C162.785 200.552 165.728 204.255 165.891 209.246C166.055 213.432 164.802 217.779 166.654 221.751C170.578 230.123 181.367 223.736 186.925 229.157C191.557 233.718 189.65 242.037 195.862 245.525C196.789 246.062 197.606 244.666 196.68 244.13C191.121 241.017 192.429 232.913 188.506 228.405C186.435 226.044 183.438 225.4 180.386 225.185C176.681 224.971 171.886 225.722 169.161 222.609C166 218.96 167.69 213.486 167.526 209.193C167.417 205.812 166.273 202.753 163.875 200.338C161.75 198.245 158.971 196.796 156.083 196.044C154.612 195.669 153.086 195.4 151.56 195.347C149.598 195.239 141.097 196.205 143.386 191.644C143.822 190.731 142.405 189.926 141.915 190.839Z" fill="#A7A7A7"/>
<path d="M14.5118 480.531C24.375 480.531 34.1836 480.531 44.0467 480.531C45.082 480.531 45.082 478.921 44.0467 478.921C34.1836 478.921 24.375 478.921 14.5118 478.921C13.422 478.921 13.422 480.531 14.5118 480.531Z" fill="#A7A7A7"/>
<path d="M30.4235 516.917C49.3868 516.917 68.2956 516.917 87.2589 516.917C88.2943 516.917 88.2943 515.307 87.2589 515.307C68.2956 515.307 49.3868 515.307 30.4235 515.307C29.3336 515.307 29.3336 516.917 30.4235 516.917Z" fill="#A7A7A7"/>
<path d="M84.9705 506.828C102.571 506.828 120.227 506.828 137.828 506.828C138.863 506.828 138.863 505.218 137.828 505.218C120.227 505.218 102.571 505.218 84.9705 505.218C83.8806 505.218 83.8806 506.828 84.9705 506.828Z" fill="#A7A7A7"/>
<path d="M378.084 504.038C386.967 501.891 395.903 501.676 404.949 503.072C408.764 503.662 412.633 504.252 416.502 503.93C420.262 503.608 423.913 502.481 427.563 501.515C431.705 500.388 435.846 499.53 440.206 499.852C444.674 500.174 448.979 501.408 453.338 502.374C457.098 503.233 460.913 503.823 464.782 503.769C468.869 503.662 472.901 502.964 476.879 502.374C487.777 500.657 498.022 501.73 508.812 503.501C509.847 503.662 510.283 502.106 509.247 501.945C500.529 500.549 491.755 499.1 482.873 499.959C473.609 500.871 465 503.125 455.627 501.247C447.78 499.691 440.315 497.276 432.25 498.778C427.945 499.583 423.858 501.086 419.553 501.891C414.758 502.803 410.126 502.267 405.331 501.515C396.012 500.12 386.803 500.227 377.594 502.481C376.668 502.75 377.104 504.306 378.084 504.038Z" fill="#A7A7A7"/>
<path d="M461.785 487.722C478.895 486.81 496.006 485.898 513.117 485.039C521.563 484.61 529.737 484.771 538.129 485.898C541.888 486.381 545.485 486.488 549.245 486.059C553.441 485.576 557.8 484.932 561.724 486.917C562.65 487.4 563.467 486.005 562.541 485.522C555.893 482.195 548.21 485.307 541.071 484.663C536.821 484.288 532.679 483.483 528.429 483.268C524.015 483.053 519.601 483.161 515.187 483.375C497.368 484.18 479.549 485.254 461.73 486.166C460.749 486.166 460.749 487.776 461.785 487.722Z" fill="#A7A7A7"/>
<path d="M126.712 533.822C134.776 534.573 142.896 535.325 150.961 534.412C154.721 533.983 158.317 533.178 161.968 532.105C166.709 530.709 170.959 530.334 175.864 531.192C179.624 531.836 183.329 532.749 187.089 533.071C191.067 533.393 195.045 533.178 199.023 532.802C207.36 531.997 215.697 530.602 223.98 532.427C225.016 532.641 225.452 531.085 224.416 530.87C216.46 529.153 208.504 530.28 200.494 531.085C196.516 531.461 192.538 531.836 188.56 531.622C184.037 531.407 179.678 530.226 175.264 529.529C171.559 528.938 168.017 528.938 164.366 529.797C160.442 530.763 156.737 532.051 152.704 532.641C144.095 533.876 135.321 533.017 126.712 532.266C125.622 532.105 125.676 533.715 126.712 533.822Z" fill="#A7A7A7"/>
<path d="M212.918 100.786C210.793 99.337 207.905 97.0293 208.777 94.1313C209.703 91.126 211.992 92.575 214.117 91.8773C216.951 90.965 216.787 87.584 215.97 85.3836C215.153 83.237 213.409 78.0313 217.932 79.8023C218.967 80.2316 219.73 80.9293 220.929 80.5536C222.019 80.2316 222.563 79.2656 222.836 78.246C223.054 77.3336 222.89 76.3676 222.836 75.4016C222.727 74.7576 222.672 74.06 222.672 73.416C222.454 71.8596 223.435 71.2156 225.506 71.484C225.561 72.5036 227.195 72.5036 227.141 71.484C227.032 69.9813 225.888 68.908 224.253 68.9616C222.346 69.0153 221.31 70.84 221.092 72.5573C220.929 73.738 221.91 76.475 221.365 77.441C220.711 77.8703 220.057 78.3533 219.348 78.7826C219.076 78.6216 218.804 78.4606 218.531 78.2996C218.041 78.1386 217.659 77.8166 217.169 77.7093C215.479 77.3336 214.117 78.3533 213.518 79.856C212.482 82.432 214.335 84.5786 214.88 86.9936C215.588 90.321 213.027 89.9453 210.793 90.321C209.812 90.482 208.995 90.965 208.341 91.6626C204.908 95.5803 208.886 99.9273 212.155 102.181C212.973 102.772 213.79 101.376 212.918 100.786Z" fill="#A7A7A7"/>
<path d="M223.653 99.2833C221.855 97.244 220.493 94.4533 223.98 93.38C224.852 93.1117 225.833 93.219 226.65 92.6823C228.449 91.448 227.686 89.7843 227.359 88.067C227.195 87.101 226.814 85.813 227.413 84.847C227.849 84.1493 229.43 83.881 230.247 83.72C231.391 83.4517 232.59 83.2907 233.571 82.6467C235.042 81.627 235.587 79.8023 234.606 78.246C234.061 77.3873 232.645 78.1923 233.19 79.051C234.824 81.627 227.195 82.3247 225.888 84.203C224.362 86.4033 227.577 90.2673 224.907 91.6627C223.871 92.1993 222.564 91.8237 221.583 92.5213C220.874 93.0043 220.384 93.7557 220.166 94.5607C219.566 96.8683 221.147 98.854 222.564 100.464C223.217 101.215 224.362 100.088 223.653 99.2833Z" fill="#A7A7A7"/>
<path d="M159.298 86.5643C157.881 85.5983 157.718 83.881 158.154 82.3783C158.426 81.3587 159.734 78.568 160.987 78.4607C163.058 78.246 164.093 80.822 164.638 82.3247C165.129 83.7737 165.292 85.2227 165.347 86.7253C165.347 87.745 166.981 87.745 166.981 86.7253C166.927 83.72 164.911 74.4893 159.897 77.1727C157.99 78.1923 156.573 81.144 156.355 83.1833C156.137 85.1153 156.9 86.8327 158.481 87.9597C159.298 88.55 160.115 87.1547 159.298 86.5643Z" fill="#A7A7A7"/>
<path d="M158.644 87.4229C156.682 87.9059 154.721 88.3889 152.704 88.8719C151.56 89.1402 149.598 89.2475 148.672 90.1062C147.092 91.5552 147.528 96.0095 147.528 97.8879C147.528 98.4245 148.073 98.8002 148.563 98.6392C148.835 98.5855 149.108 98.4782 149.435 98.4245C150.852 97.6732 151.56 98.1562 151.615 99.7662C152.704 100.84 152.704 101.484 151.615 101.591C150.961 101.859 150.307 101.967 149.598 101.967C149.162 102.02 148.781 102.289 148.781 102.772C148.89 106.206 149.162 109.587 149.544 113.022C149.653 114.042 151.288 114.042 151.179 113.022C150.797 109.587 150.525 106.206 150.416 102.772C150.143 103.04 149.871 103.308 149.598 103.577C151.887 103.308 155.538 102.396 155.048 99.3369C154.503 96.0632 150.47 96.4389 148.182 97.0829C148.509 97.3512 148.89 97.6195 149.217 97.8342C149.217 96.5999 149.217 95.4192 149.326 94.1849C149.489 92.2529 149.38 91.5552 151.179 90.8575C153.631 89.8915 156.519 89.5695 159.08 88.9255C160.115 88.7645 159.679 87.2082 158.644 87.4229Z" fill="#A7A7A7"/>
<path d="M166.491 87.906C168.78 87.7987 171.123 87.7987 173.411 88.067C175.591 88.3353 175.482 88.6573 175.809 90.5356C176.027 91.7163 176.081 92.9506 176.19 94.1313C176.626 98.7466 176.953 103.362 177.226 107.977C177.28 108.997 178.915 108.997 178.861 107.977C178.534 101.698 178.316 95.2583 177.28 89.033C177.008 87.4766 176.735 86.9937 175.101 86.7253C172.267 86.1887 169.324 86.1886 166.491 86.3496C165.456 86.3496 165.456 87.9597 166.491 87.906Z" fill="#A7A7A7"/>
<path d="M150.743 114.149C153.958 113.612 157.173 113.076 160.333 112.539C163.984 111.949 167.472 112.217 171.123 111.949C172.812 111.788 180.823 110.983 177.88 107.709C177.172 106.958 176.027 108.085 176.736 108.836C177.172 109.319 169.761 110.392 169.597 110.392C167.308 110.446 165.02 110.339 162.731 110.607C158.59 111.09 154.448 111.949 150.307 112.646C149.271 112.754 149.707 114.31 150.743 114.149Z" fill="#A7A7A7"/>
<path d="M440.206 423.215C440.042 428.85 439.879 434.485 439.716 440.174C446.963 440.657 454.156 441.086 461.403 441.569C461.403 435.773 461.403 429.977 461.403 424.181C454.319 423.859 447.29 423.537 440.206 423.215Z" fill="white" stroke="#161616" stroke-width="1.07333" stroke-miterlimit="10"/>
<path d="M449.633 485.844C450.614 492.07 451.05 497.222 451.268 500.925C451.976 513.215 451.431 516.059 450.341 518.313C447.671 523.84 442.822 526.148 443.257 526.899C443.584 527.382 445.982 526.846 456.663 521.318C456.009 509.082 455.409 496.9 454.755 484.664C453.066 485.093 451.377 485.469 449.633 485.844Z" fill="white" stroke="#161616" stroke-width="1.07333" stroke-miterlimit="10"/>
<path d="M435.52 446.4C444.783 446.453 454.047 446.561 463.311 446.614C462.275 458.85 461.294 471.033 460.259 483.269C452.194 482.625 444.075 482.034 436.01 481.39C435.792 469.745 435.629 458.099 435.52 446.4Z" fill="white" stroke="#161616" stroke-width="1.07333" stroke-miterlimit="10"/>
<path d="M439.279 485.415C442.222 492.446 443.203 498.51 443.53 502.589C444.02 508.599 444.347 513.215 441.405 516.274C440.315 517.454 438.517 518.581 435.029 520.889C431.923 522.928 430.452 523.68 430.561 523.894C430.724 524.216 433.721 523.572 446.799 519.011C447.671 514.664 448.38 509.082 448.216 502.535C447.998 495.558 446.854 489.601 445.601 485.147C443.53 485.254 441.405 485.308 439.279 485.415Z" fill="white" stroke="#161616" stroke-width="1.07333" stroke-miterlimit="10"/>
<path d="M444.02 527.383C445.655 526.041 447.181 524.592 448.652 523.036C450.341 521.211 452.848 518.42 455.464 520.835C455.518 520.406 455.573 519.977 455.627 519.547C451.758 521.426 447.944 523.304 444.075 525.129C443.312 525.504 443.693 526.631 444.511 526.631C448.162 526.685 450.45 520.406 454.21 521.587C455.191 521.909 455.627 520.352 454.646 520.03C453.012 519.547 451.758 519.977 450.396 520.943C448.816 522.07 446.581 525.021 444.565 525.021C444.729 525.504 444.838 526.041 445.001 526.524C448.87 524.646 452.685 522.767 456.554 520.943C457.044 520.728 457.098 520.03 456.717 519.655C455.246 518.313 452.63 517.83 450.777 518.689C449.415 519.279 448.543 520.835 447.562 521.855C446.091 523.411 444.565 524.807 442.93 526.202C442.059 526.9 443.203 528.08 444.02 527.383Z" fill="#161616"/>
<path d="M450.723 519.01C452.358 519.064 453.938 519.386 455.464 520.03C456.39 520.459 457.262 519.064 456.281 518.635C454.483 517.83 452.685 517.4 450.723 517.347C449.687 517.4 449.687 519.01 450.723 519.01Z" fill="#161616"/>
<path d="M441.786 517.132C443.039 517.454 444.129 518.098 445.001 519.064C445.71 519.815 446.854 518.688 446.146 517.937C445.056 516.81 443.693 516.005 442.168 515.629C441.241 515.307 440.805 516.864 441.786 517.132Z" fill="#161616"/>
<path d="M432.958 523.626C434.648 522.392 436.391 521.265 438.19 520.191C439.007 519.708 439.879 519.064 440.751 518.796C442.113 518.313 442.93 518.635 444.184 519.172C444.184 518.689 444.184 518.259 444.184 517.776C442.44 518.528 440.478 518.474 438.68 519.225C436.936 519.923 435.302 521.64 433.503 521.962C433.721 522.445 433.939 522.928 434.157 523.411C437.372 521.855 440.969 521.587 444.184 520.03C445.11 519.547 444.293 518.206 443.366 518.635C440.151 520.191 436.555 520.46 433.34 522.016C432.468 522.445 433.122 523.626 433.994 523.465C435.955 523.143 437.536 521.372 439.388 520.674C441.241 519.977 443.257 519.923 445.056 519.172C445.601 518.957 445.601 517.991 445.056 517.776C442.985 516.864 442.059 516.327 439.988 517.401C437.263 518.796 434.702 520.46 432.25 522.231C431.269 522.821 432.086 524.217 432.958 523.626Z" fill="#161616"/>
<path d="M442.277 493.626C443.639 493.143 445.001 493.197 446.254 493.841C447.181 494.324 447.998 492.929 447.072 492.446C445.437 491.587 443.584 491.426 441.841 492.07C440.86 492.446 441.296 494.002 442.277 493.626Z" fill="#161616"/>
<path d="M443.639 498.993C444.783 498.885 445.873 499.154 446.745 499.905C447.562 500.549 448.707 499.422 447.889 498.778C446.691 497.812 445.219 497.275 443.639 497.383C442.604 497.436 442.604 499.046 443.639 498.993Z" fill="#161616"/>
<path d="M444.238 505.701C445.274 505.594 446.254 505.97 446.854 506.828C447.399 507.687 448.816 506.882 448.271 506.023C447.453 504.682 445.873 503.877 444.293 504.091C443.857 504.145 443.475 504.413 443.475 504.896C443.421 505.272 443.802 505.755 444.238 505.701Z" fill="#161616"/>
<path d="M451.268 493.25C452.249 492.714 453.502 492.767 454.428 493.519C455.246 494.163 456.39 493.036 455.573 492.392C454.101 491.211 452.14 490.943 450.45 491.855C449.524 492.392 450.341 493.787 451.268 493.25Z" fill="#161616"/>
<path d="M452.194 503.394C453.066 503.018 454.047 503.179 454.755 503.823C455.518 504.521 456.717 503.394 455.9 502.696C454.646 501.569 452.903 501.301 451.322 502.052C450.396 502.428 451.268 503.823 452.194 503.394Z" fill="#161616"/>
<path d="M452.412 511.98C453.284 511.443 454.374 511.443 455.191 512.087C456.009 512.731 457.153 511.604 456.336 510.96C454.973 509.833 453.066 509.672 451.595 510.638C450.723 511.175 451.54 512.57 452.412 511.98Z" fill="#161616"/>
<path d="M464.618 446.561C463.529 458.904 462.439 471.247 461.349 483.591" stroke="#161616" stroke-width="3.22" stroke-miterlimit="10"/>
<path d="M435.847 481.873C444.947 482.517 454.047 483.107 463.147 483.751" stroke="#161616" stroke-width="3.22" stroke-miterlimit="10"/>
<path d="M463.202 423.698C462.984 429.816 462.711 435.881 462.493 441.999" stroke="#161616" stroke-width="3.22" stroke-miterlimit="10"/>
<path d="M464.346 453.805C469.414 452.893 474.808 456.811 475.19 461.963C475.735 468.403 468.269 469.53 463.365 468.832C462.33 468.671 461.894 470.227 462.929 470.388C468.923 471.247 477.37 469.583 476.825 461.963C476.389 455.684 470.013 451.122 463.91 452.249C462.875 452.41 463.311 453.966 464.346 453.805Z" fill="#161616"/>
<path d="M463.147 471.677C465.272 472.106 466.962 473.609 467.561 475.648C467.833 476.668 469.414 476.238 469.141 475.219C468.433 472.643 466.308 470.603 463.638 470.12C462.548 469.959 462.112 471.462 463.147 471.677Z" fill="#161616"/>
<path d="M462.33 471.14C463.637 473.018 464.237 475.111 464.019 477.419C463.964 478.438 465.599 478.438 465.654 477.419C465.817 474.896 465.163 472.428 463.692 470.335C463.147 469.476 461.73 470.281 462.33 471.14Z" fill="#161616"/>
<path d="M435.465 453.054C431.869 450.8 425.275 457.294 424.458 460.46C422.823 466.9 431.215 466.149 434.702 468.296C435.574 468.832 436.391 467.437 435.52 466.9C433.013 465.344 429.307 465.934 427.128 464.002C424.458 461.641 426.91 458.797 428.762 457.133C429.743 456.274 433.067 453.43 434.648 454.396C435.52 455.04 436.391 453.645 435.465 453.054Z" fill="#161616"/>
<path d="M434.593 467.544C433.176 468.081 431.869 468.886 430.779 470.013C429.961 470.871 428.926 472.213 429.743 473.394C430.343 474.252 431.76 473.447 431.16 472.589C430.779 472.052 432.196 470.871 432.577 470.549C433.285 469.905 434.103 469.422 435.029 469.1C436.01 468.725 435.629 467.168 434.593 467.544Z" fill="#161616"/>
<path d="M433.939 468.671C432.904 470.281 432.577 472.106 432.958 473.931C433.176 474.95 434.757 474.521 434.539 473.501C434.212 472.052 434.539 470.711 435.356 469.476C435.956 468.618 434.539 467.813 433.939 468.671Z" fill="#161616"/>
<path d="M439.116 452.035C438.844 455.952 438.898 459.924 439.171 463.841C439.28 464.861 440.914 464.861 440.805 463.841C440.478 459.924 440.478 455.952 440.751 452.035C440.86 451.015 439.225 451.015 439.116 452.035Z" fill="#161616"/>
<path d="M440.315 452.464C446.091 452.786 451.813 453.001 457.589 453.108C457.316 452.84 457.044 452.571 456.772 452.303C456.608 456.328 456.445 460.407 456.227 464.432C456.172 465.451 457.807 465.451 457.861 464.432C458.025 460.407 458.188 456.328 458.406 452.303C458.406 451.874 458.025 451.498 457.589 451.498C451.813 451.391 446.091 451.176 440.315 450.854C439.28 450.8 439.28 452.41 440.315 452.464Z" fill="#161616"/>
<path d="M439.661 464.539C442.059 465.183 444.729 465.022 447.126 465.183C450.069 465.344 453.066 465.558 456.009 465.719C457.044 465.773 457.044 464.163 456.009 464.109C453.393 463.948 450.777 463.787 448.162 463.626C445.546 463.465 442.604 463.626 440.042 462.982C439.116 462.714 438.68 464.27 439.661 464.539Z" fill="#161616"/>
<path d="M441.514 472.857C442.495 474.95 444.62 473.126 446.255 473.877C447.017 474.199 446.854 474.682 447.889 474.736C449.088 474.789 452.031 472.428 452.63 474.628C452.794 475.219 453.556 475.38 453.992 475.004C454.537 474.843 455.137 474.682 455.682 474.575C456.336 475.38 457.534 474.199 456.826 473.448C455.573 471.999 453.992 472.804 452.794 473.877C453.23 473.984 453.72 474.092 454.156 474.253C453.665 472.374 451.649 471.14 449.742 471.999C448.816 472.428 448.707 473.233 447.29 472.696C447.017 472.589 446.908 472.16 446.636 472.052C446.037 471.838 442.876 472.16 442.876 472.106C442.495 471.086 441.078 471.891 441.514 472.857Z" fill="#161616"/>
<path d="M444.402 430.622C444.511 430.031 445.219 429.87 445.71 430.085C446.418 430.353 446.799 431.158 447.126 431.749C447.562 432.661 448.979 431.856 448.543 430.944C447.944 429.763 447.017 428.529 445.546 428.368C444.347 428.26 443.094 428.958 442.876 430.139C442.603 431.212 444.184 431.641 444.402 430.622Z" fill="#161616"/>
<path d="M454.428 431.373C454.537 430.836 455.028 430.514 455.573 430.729C456.227 430.943 456.499 431.748 456.608 432.339C456.772 433.358 458.352 432.929 458.188 431.909C457.97 430.621 457.098 429.28 455.682 429.065C454.428 428.904 453.066 429.655 452.848 430.943C452.685 431.963 454.265 432.392 454.428 431.373Z" fill="#161616"/>
<path d="M445.219 434.002C447.072 437.222 451.486 437.705 453.884 434.807C454.537 434.002 453.393 432.875 452.739 433.68C450.995 435.773 447.998 435.612 446.636 433.197C446.146 432.285 444.729 433.09 445.219 434.002Z" fill="#161616"/>
<path d="M388.057 142.378C381.191 139.641 377.049 133.093 374.542 126.546C371.872 119.73 370.728 112.324 371.109 105.026C371.763 91.5554 377.594 77.9241 388.384 69.3374C398.574 61.1801 413.668 58.8724 425.002 66.2784C436.827 74.0064 438.952 89.9454 439.061 102.772C439.17 117.047 435.792 132.02 425.057 142.27C424.294 142.968 425.438 144.149 426.201 143.397C436.391 133.63 440.26 119.677 440.642 106.045C441.023 92.6824 439.388 75.7774 428.217 66.6004C417.755 58.0137 402.225 58.4431 391.054 65.4197C378.684 73.1477 371.382 87.1547 369.802 101.269C368.821 110.017 369.911 119.086 373.18 127.351C375.959 134.328 380.373 140.982 387.675 143.88C388.601 144.31 388.983 142.753 388.057 142.378Z" fill="#161616"/>
<path d="M387.294 143.397C385.441 145.973 385.822 149.783 388.547 151.715C390.618 153.164 393.669 153.379 396.122 153.701C399.064 154.13 402.061 154.291 405.058 154.291C410.399 154.238 416.502 153.862 421.46 151.823C425.057 150.32 427.782 146.778 425.874 142.968C425.438 142.055 424.022 142.86 424.458 143.773C428.544 151.984 409.2 152.681 405.004 152.681C401.135 152.681 397.266 152.359 393.506 151.662C391.708 151.34 389.691 151.018 388.547 149.461C387.403 147.851 387.621 145.758 388.711 144.256C389.31 143.343 387.893 142.538 387.294 143.397Z" fill="#161616"/>
<path d="M389.038 152.091C389.038 154.775 389.092 157.512 389.419 160.195C389.582 161.429 389.855 162.503 390.89 163.254C392.362 164.327 394.814 164.274 396.558 164.435C399.5 164.649 402.497 164.649 405.44 164.542C408.219 164.435 410.998 164.22 413.777 163.952C415.412 163.791 417.265 163.844 418.518 162.61C421.297 159.927 421.352 154.828 420.643 151.447C420.425 150.428 418.845 150.857 419.063 151.877C419.444 153.701 419.553 155.526 419.172 157.404C418.627 160.034 417.864 161.751 414.867 162.288C411.379 162.932 407.456 162.932 403.914 162.986C400.426 163.039 396.503 163.2 393.07 162.395C389.909 161.644 390.727 154.667 390.727 152.091C390.672 151.072 389.038 151.072 389.038 152.091Z" fill="#161616"/>
<path d="M389.582 94.2924C396.122 98.3174 401.08 104.221 403.859 111.305C404.241 112.271 405.821 111.841 405.44 110.875C402.497 103.362 397.32 97.1367 390.454 92.897C389.528 92.3067 388.711 93.702 389.582 94.2924Z" fill="#161616"/>
<path d="M405.167 111.305C408.382 104.65 413.069 98.9615 419.063 94.5609C419.88 93.9705 419.063 92.5215 418.245 93.1655C412.033 97.7272 407.129 103.631 403.751 110.5C403.315 111.412 404.731 112.217 405.167 111.305Z" fill="#161616"/>
<path d="M403.859 109.426C404.677 120.482 405.058 131.537 404.895 142.592C404.895 143.612 406.53 143.612 406.53 142.592C406.693 131.537 406.312 120.428 405.494 109.426C405.385 108.353 403.75 108.353 403.859 109.426Z" fill="#161616"/>
<path d="M340.049 136.474C347.296 134.059 354.489 131.644 361.737 129.229C362.718 128.907 362.282 127.351 361.301 127.673C354.053 130.088 346.86 132.503 339.613 134.918C338.578 135.24 339.014 136.796 340.049 136.474Z" fill="#161616"/>
<path d="M348.332 125.741C350.839 125.043 353.345 124.292 355.852 123.594C356.833 123.326 356.451 121.769 355.416 122.038C352.909 122.735 350.403 123.487 347.896 124.184C346.915 124.506 347.297 126.063 348.332 125.741Z" fill="#161616"/>
<path d="M330.186 107.87C339.777 107.763 349.313 108.031 358.849 108.621C359.884 108.675 359.884 107.065 358.849 107.011C349.313 106.421 339.722 106.206 330.186 106.26C329.151 106.26 329.151 107.87 330.186 107.87Z" fill="#161616"/>
<path d="M350.457 100.571C352.746 101.162 355.089 101.43 357.432 101.484C358.467 101.484 358.467 99.8738 357.432 99.8738C355.198 99.8201 353.018 99.5518 350.893 99.0151C349.858 98.7468 349.422 100.303 350.457 100.571Z" fill="#161616"/>
<path d="M346.915 50.6078C355.47 57.8528 363.263 65.7954 370.292 74.4894C370.946 75.2944 372.09 74.1674 371.437 73.3624C364.407 64.6684 356.615 56.6721 348.059 49.4808C347.297 48.7831 346.098 49.9101 346.915 50.6078Z" fill="#161616"/>
<path d="M370.837 65.8494C372.309 67.3521 373.725 68.8547 375.197 70.4111C375.905 71.1624 377.049 70.0354 376.341 69.2841C374.87 67.7814 373.453 66.2787 371.982 64.7224C371.273 63.9711 370.129 65.0981 370.837 65.8494Z" fill="#161616"/>
<path d="M337.651 68.8542C340.322 70.4105 343.046 71.8595 345.825 73.2012C346.752 73.6842 347.569 72.2888 346.643 71.8058C343.864 70.4105 341.139 68.9615 338.469 67.4588C337.542 66.9222 336.725 68.3175 337.651 68.8542Z" fill="#161616"/>
<path d="M432.468 56.6183C440.533 48.6756 448.598 40.733 456.663 32.7903C457.425 32.039 456.227 30.912 455.518 31.6633C447.453 39.606 439.388 47.5486 431.324 55.4913C430.561 56.2426 431.705 57.3696 432.468 56.6183Z" fill="#161616"/>
<path d="M440.587 60.3216C442.658 58.819 444.729 57.37 446.799 55.8673C447.617 55.277 446.854 53.8816 445.982 54.472C443.911 55.9746 441.841 57.4236 439.77 58.9263C438.898 59.5166 439.715 60.912 440.587 60.3216Z" fill="#161616"/>
<path d="M407.293 46.0996C408.927 38.3179 410.181 30.4826 410.943 22.5936C411.052 21.5739 409.418 21.5739 409.309 22.5936C408.546 30.3216 407.347 38.0496 405.712 45.6703C405.494 46.6899 407.075 47.1193 407.293 46.0996Z" fill="#161616"/>
<path d="M453.121 95.4731C467.942 94.1315 482.71 92.7898 497.532 91.4481C498.567 91.3408 498.567 89.7308 497.532 89.8381C482.71 91.1798 467.942 92.5215 453.121 93.8631C452.085 93.9168 452.031 95.5268 453.121 95.4731Z" fill="#161616"/>
<path d="M390.836 145.329C400.045 147.315 409.418 147.261 418.572 145.222C419.608 145.007 419.172 143.451 418.136 143.666C409.254 145.651 400.154 145.705 391.272 143.773C390.236 143.558 389.8 145.115 390.836 145.329Z" fill="#161616"/>
<path d="M392.198 158.961C399.228 159.873 406.257 160.088 413.341 159.605C414.377 159.551 414.377 157.941 413.341 157.995C406.257 158.478 399.228 158.263 392.198 157.351C391.163 157.243 391.163 158.853 392.198 158.961Z" fill="#161616"/>
<path d="M442.821 139.909C453.883 147.584 465.163 154.99 476.607 162.127C477.479 162.664 478.296 161.269 477.424 160.732C465.981 153.594 454.701 146.188 443.639 138.514C442.767 137.924 441.95 139.319 442.821 139.909Z" fill="#161616"/>
<path d="M303.594 517.4C293.24 529.904 282.941 542.355 272.587 554.859C284.739 596.934 291.605 607.989 295.692 607.399C298.635 606.97 300.052 600.691 301.632 593.66C305.555 576.111 303.212 561.031 300.814 551.639C307.354 544.448 313.838 537.203 320.377 530.012C314.765 525.826 309.206 521.64 303.594 517.4Z" fill="#161616" stroke="#161616" stroke-width="1.07333" stroke-miterlimit="10"/>
<path d="M265.394 453C271.879 457.938 278.091 456.167 290.951 458.313C301.904 460.138 314.219 464.163 327.298 472.213C313.348 488.313 299.398 505.325 285.557 523.25C282.233 527.597 278.909 531.944 275.693 536.291C281.034 537.525 287.464 539.457 294.439 542.57C301.25 545.575 306.809 548.956 311.222 552.015C331.984 534.198 350.511 516.971 367.023 500.71C374.651 493.197 385.441 481.712 387.13 465.451C387.239 464.539 387.239 463.734 387.239 462.929C386.858 435.934 352.364 416.4 331.385 409.208C308.443 401.373 268.991 397.133 257.983 415.863C251.499 426.918 255.313 445.326 265.394 453Z" fill="#FFA62B"/>
<path opacity="0.26" d="M305.664 426.006C305.283 431.104 304.356 437.169 302.449 443.877C301.087 448.653 299.452 452.893 297.817 456.489C296.019 457.186 294.275 457.884 292.477 458.582C304.193 463.143 315.963 467.705 327.679 472.267C318.96 482.088 310.187 492.392 301.359 503.125C292.259 514.18 283.595 525.021 275.366 535.701C281.197 537.579 286.973 539.457 292.804 541.282C313.675 518.635 334.545 495.934 355.416 473.286C357.595 467.115 357.486 462.285 356.832 458.904C353.835 442.374 333.292 428.904 305.664 426.006Z" fill="#6D6C6C"/>
<path opacity="0.23" d="M327.57 472.159C329.477 475.004 331.33 477.902 333.237 480.746C316.999 500.012 300.76 519.225 284.521 538.491C281.633 537.74 278.691 536.935 275.803 536.184C286.211 522.123 297.436 507.687 309.588 493.143C315.636 485.898 321.631 478.921 327.57 472.159Z" fill="#6D6C6C"/>
<path d="M273.35 497.007C289.426 499.905 305.555 502.749 321.631 505.647C340.212 545.575 342.283 558.455 338.796 560.655C336.289 562.212 331.058 558.348 325.227 554.001C310.623 543.107 302.504 530.119 298.09 521.372C288.39 520.084 278.691 518.742 268.991 517.454C270.408 510.638 271.879 503.822 273.35 497.007Z" fill="#161616" stroke="#161616" stroke-width="1.07333" stroke-miterlimit="10"/>
<path d="M240.219 408.081C210.902 416.561 193.029 434.163 181.531 445.755C166.001 461.48 146.928 480.746 152.432 494.968C155.266 502.213 163.875 506.667 203.982 513.536C234.279 518.742 260.545 521.533 281.034 523.089C283.595 513.858 286.156 504.681 288.663 495.451C268.065 488.903 247.521 482.41 226.923 475.862C239.565 473.233 252.861 470.12 266.702 466.31C277.219 463.412 287.246 460.406 296.782 457.24C305.61 439.691 307.517 420.747 298.308 410.013C285.448 394.987 256.621 403.305 240.219 408.081Z" fill="#FFA62B"/>
<path opacity="0.29" d="M305.446 426.65C305.174 431.963 304.247 438.779 301.741 446.292C300.215 450.854 298.471 454.825 296.727 458.099C295.256 458.206 293.785 458.367 292.314 458.474C279.889 462.499 266.648 466.31 252.643 469.852C243.597 472.159 234.77 474.145 226.214 475.97C246.867 482.356 267.52 488.689 288.172 495.075C287.736 497.275 287.191 499.583 286.537 501.998C285.774 504.789 284.903 507.365 284.085 509.726C255.586 502.803 227.086 495.88 198.587 488.957C197.279 487.401 192.974 481.766 193.628 474.306C194.336 466.202 202.183 460.46 212.21 455.201C241.2 440.067 289.807 429.816 305.446 426.65Z" fill="#6D6C6C"/>
<path opacity="0.24" d="M211.556 477.097C216.733 476.721 221.964 476.345 227.141 475.916C247.467 482.571 267.792 489.279 288.118 495.934C287.246 499.1 286.374 502.32 285.502 505.486C260.872 495.987 236.187 486.542 211.556 477.097Z" fill="#6D6C6C"/>
<path d="M232.535 286.473C240.6 281.804 254.605 275.149 273.241 273.217C301.795 270.265 323.701 280.355 332.365 284.916C330.785 306.007 328.333 322.859 326.371 334.451C324.028 348.297 322.121 355.971 321.249 368.69C320.159 384.629 321.521 397.724 322.775 406.31C313.293 409.208 298.962 412.375 281.306 411.999C264.304 411.623 250.572 407.974 241.363 404.808C243.815 385.595 242.998 370.354 241.799 359.996C240.437 348.458 238.584 342.823 236.35 328.869C233.462 310.837 232.699 296.079 232.535 286.473Z" fill="white" stroke="#161616" stroke-width="1.07333" stroke-miterlimit="10"/>
<path opacity="0.14" d="M291.496 279.603C292.641 283.682 293.948 289.317 294.82 296.079C295.42 300.641 297.872 321.302 290.243 348.565C285.557 365.363 280.598 383.126 264.359 397.724C259.128 402.446 254.06 405.613 250.355 407.598C258.583 409.691 269.318 411.677 282.015 411.785C298.635 411.945 312.367 408.994 321.903 406.096C321.358 402.071 320.65 396.006 320.377 388.708C320.159 382.321 320.159 372.125 324.628 343.413C328.17 320.82 330.676 311.106 331.93 290.659C332.093 288.297 332.148 286.312 332.257 284.97C328.279 282.662 323.102 280.14 316.726 278.101C310.841 276.223 305.555 275.256 301.196 274.827C298.035 276.383 294.766 277.993 291.496 279.603Z" fill="#6D6C6C"/>
<path opacity="0.17" d="M330.676 293.718C327.625 310.73 323.592 324.469 320.432 334.021C311.168 361.928 304.683 380.711 287.191 394.45C276.347 402.983 265.068 406.579 257.82 408.296C265.177 410.335 275.585 412.321 288.172 412.053C302.667 411.731 314.383 408.511 322.066 405.774C321.031 399.226 319.832 389.405 320.159 377.438C320.541 361.928 323.102 352.59 325.935 335.578C327.516 325.596 329.532 311.32 330.676 293.718Z" fill="#6D6C6C"/>
<path d="M232.209 286.204C225.125 291.034 216.025 298.655 208.069 309.979C190.141 335.631 190.631 362.84 191.34 372.876C194.609 381.516 200.222 392.84 210.03 403.949C215.752 410.443 224.144 419.781 238.475 425.791C243.271 427.831 247.467 428.958 250.518 429.602C253.134 427.294 255.695 424.986 258.311 422.679C249.919 413.019 241.472 402.876 233.026 392.411C226.542 384.414 220.329 376.472 214.335 368.636C214.553 362.035 215.97 350.068 223.272 337.563C227.413 330.479 232.263 325.327 236.132 321.839C234.824 309.979 233.517 298.118 232.209 286.204Z" fill="white" stroke="#161616" stroke-width="1.07333" stroke-miterlimit="10"/>
<path opacity="0.13" d="M233.244 298.172C217.55 315.614 210.085 332.143 206.379 342.554C199.895 360.586 201.257 370.032 202.238 374.54C203.055 378.082 204.854 384.146 211.447 393.377C217.169 401.373 229.212 415.702 252.153 427.509C254.169 425.577 256.185 423.698 258.202 421.766C251.717 414.575 245.178 407.008 238.584 399.119C229.92 388.761 221.855 378.565 214.39 368.583C214.608 363.162 215.534 355.595 218.749 347.116C223.599 334.397 231.228 326.025 235.969 321.571C234.988 313.789 234.116 306.007 233.244 298.172Z" fill="#6D6C6C"/>
<path opacity="0.16" d="M214.335 369.281C215.316 375.56 217.332 383.556 221.583 392.196C230.955 410.98 245.614 421.337 253.079 425.845C254.55 424.557 255.967 423.323 257.439 422.035C243.053 404.432 228.721 386.83 214.335 369.281Z" fill="#6D6C6C"/>
<path d="M333.184 285.239C341.14 290.015 351.384 297.475 360.267 308.584C380.429 333.753 379.829 360.479 379.066 370.354C375.361 378.833 369.094 389.942 358.087 400.89C351.657 407.223 342.23 416.4 326.154 422.357C320.76 424.343 316.019 425.47 312.586 426.114C309.698 423.86 306.755 421.606 303.867 419.352C313.24 409.853 322.776 399.924 332.258 389.62C339.505 381.731 346.48 373.95 353.237 366.275C352.965 359.835 351.439 348.082 343.21 335.739C338.524 328.762 333.129 323.718 328.77 320.283C330.296 308.584 331.767 296.938 333.184 285.239Z" fill="white" stroke="#161616" stroke-width="1.07333" stroke-miterlimit="10"/>
<path opacity="0.16" d="M332.801 298.28C339.722 305.417 349.149 316.848 356.506 332.787C359.993 340.354 365.66 352.644 365.769 364.236C366.151 399.495 315.473 423.752 312.53 425.148C309.642 423.323 306.809 421.552 303.921 419.727C320.323 402.017 336.67 384.307 353.073 366.597C352.746 360.801 351.383 350.014 344.844 338.53C339.449 329.084 332.747 322.966 328.333 319.585C329.859 312.501 331.33 305.417 332.801 298.28Z" fill="#6D6C6C"/>
<path opacity="0.12" d="M353.617 366.758C352.8 371.427 351.438 376.525 349.313 381.784C339.722 405.612 320.323 418.653 310.514 424.235C308.171 422.732 305.882 421.229 303.539 419.727C320.214 402.07 336.888 384.414 353.617 366.758Z" fill="#6D6C6C"/>
<path d="M345.716 370.729H211.72V454.288H345.716V370.729Z" fill="white" stroke="#161616" stroke-width="1.07333" stroke-miterlimit="10"/>
<path d="M276.783 420.478C269.699 421.337 266.266 412.857 268.119 407.222C269.917 401.641 276.62 399.011 282.069 400.943C287.464 402.875 290.08 409.369 288.172 414.575C286.047 420.371 278.636 422.732 273.187 420.156C272.261 419.727 271.389 421.122 272.37 421.551C277.219 423.859 283.159 423 287.028 419.244C290.788 415.541 291.333 409.691 288.99 405.129C283.649 394.718 267.138 398.045 265.994 409.476C265.394 415.594 269.863 422.947 276.783 422.142C277.819 421.981 277.819 420.371 276.783 420.478Z" fill="#161616"/>
<path opacity="0.14" d="M262.016 370.514C280.162 376.74 292.532 392.679 292.913 409.798C293.404 431.265 275.094 451.444 250.137 453.483C281.906 453.751 313.675 454.02 345.498 454.288C345.389 426.274 345.335 398.26 345.226 370.3C317.489 370.3 289.753 370.407 262.016 370.514Z" fill="#6D6C6C"/>
<path opacity="0.26" d="M345.498 370.246C345.008 387.312 341.575 400.622 338.687 409.369C334.436 422.088 331.385 431.373 322.611 439.584C310.678 450.854 295.801 452.947 289.262 453.483C307.844 453.644 326.426 453.805 345.008 454.02C345.062 438.081 345.171 422.142 345.28 406.149C345.28 394.182 345.389 382.214 345.498 370.246Z" fill="#6D6C6C"/>
<path d="M274.767 243.164C271.77 246.759 274.658 251.16 274.113 262.913C273.841 268.763 272.86 273.485 272.097 276.652C274.658 277.832 279.181 279.496 285.012 279.657C292.205 279.818 297.654 277.618 300.324 276.33C299.125 273.968 297.545 270.319 296.564 265.596C294.112 253.575 298.471 247.94 294.875 243.486C290.679 238.334 278.8 238.28 274.767 243.164Z" fill="white" stroke="#161616" stroke-width="1.07333" stroke-miterlimit="10"/>
<path d="M255.749 191.536C252.316 200.23 253.624 208.066 254.387 211.447C254.06 211.5 247.684 212.842 245.941 217.672C244.197 222.556 247.793 229.479 255.313 231.733C258.038 238.28 264.632 250.945 278.527 257.868C280.87 258.995 283.104 259.908 285.339 260.552C287.355 259.8 290.08 258.62 293.186 256.849C302.885 251.321 308.28 244.452 309.533 242.788C311.822 239.783 314.928 234.953 317.108 228.298C318.307 228.513 320.432 228.62 322.502 227.6C327.189 225.239 329.532 217.887 326.262 213.11C323.538 209.139 318.252 208.978 317.598 208.978C318.307 206.187 320.486 196.152 314.983 186.223C308.661 174.792 295.093 168.782 282.342 170.499C263.487 172.914 256.076 190.678 255.749 191.536Z" fill="white" stroke="#161616" stroke-width="1.07333" stroke-miterlimit="10"/>
<path d="M274.059 257.385C277.383 259.317 281.034 262.323 285.121 262.001C288.499 261.732 292.259 259.8 294.82 257.761C295.638 257.117 294.493 255.99 293.676 256.634C291.278 258.512 287.409 260.498 284.249 260.444C280.925 260.391 277.546 257.654 274.822 255.99C274.004 255.453 273.187 256.849 274.059 257.385Z" fill="#161616"/>
<path d="M273.841 258.083C276.947 260.713 280.489 263.665 284.848 263.45C289.099 263.235 293.076 260.445 295.856 257.439C296.564 256.688 295.42 255.561 294.711 256.312C292.314 258.888 288.935 261.411 285.23 261.786C281.143 262.162 277.873 259.425 274.985 256.956C274.222 256.259 273.078 257.386 273.841 258.083Z" fill="#161616"/>
<path d="M275.911 258.405C275.911 258.351 275.911 258.351 275.911 258.405C275.585 257.922 274.985 257.814 274.604 258.19C274.604 258.19 274.604 258.19 274.549 258.244C274.222 258.512 274.222 259.102 274.549 259.371C280.543 265.006 291.551 266.83 295.856 258.19C296.292 257.278 294.929 256.419 294.439 257.385C290.624 265.113 280.979 263.235 275.748 258.244C275.748 258.619 275.748 258.995 275.748 259.371C275.748 259.371 275.748 259.371 275.802 259.317C275.367 259.263 274.931 259.21 274.495 259.156V259.21C275.04 260.068 276.456 259.263 275.911 258.405Z" fill="#161616"/>
<path d="M282.451 208.763C281.742 217.457 282.124 226.098 283.54 234.684C283.595 235.114 284.14 235.382 284.521 235.221C286.646 234.523 288.172 233.289 289.317 231.411C289.861 230.498 288.445 229.693 287.9 230.606C286.973 232.162 285.829 233.074 284.085 233.665C284.412 233.826 284.739 234.04 285.066 234.201C283.649 225.776 283.322 217.243 284.031 208.71C284.194 207.69 282.559 207.69 282.451 208.763Z" fill="#161616"/>
<path d="M272.751 217.297C272.86 217.78 273.677 220.785 272.751 221.268C271.825 221.751 269.209 219.819 268.392 217.297C267.738 215.15 268.283 212.467 269.318 212.252C270.408 211.984 272.097 214.935 272.751 217.297Z" fill="#161616" stroke="#161616" stroke-width="0.536667" stroke-miterlimit="10"/>
<path d="M300.869 217.297C300.978 217.78 301.795 220.785 300.869 221.268C299.943 221.751 297.327 219.819 296.509 217.297C295.856 215.15 296.401 212.467 297.436 212.252C298.526 211.984 300.215 214.935 300.869 217.297Z" fill="#161616" stroke="#161616" stroke-width="0.536667" stroke-miterlimit="10"/>
<path d="M280.489 241.769C287.137 244.559 293.186 240.642 298.09 236.402C298.907 235.704 297.708 234.577 296.946 235.275C292.695 238.924 287.246 242.842 281.361 240.373C280.325 239.998 279.508 241.393 280.489 241.769Z" fill="#161616"/>
<path d="M299.67 225.829C300.705 225.829 300.705 224.219 299.67 224.219C298.635 224.219 298.635 225.829 299.67 225.829Z" fill="#161616"/>
<path d="M305.719 222.824C305.773 222.771 305.828 222.717 305.882 222.663C306.209 222.341 306.209 221.858 305.882 221.536C305.555 221.214 305.065 221.214 304.738 221.536C304.683 221.59 304.629 221.644 304.574 221.697C304.247 222.019 304.247 222.502 304.574 222.824C304.901 223.146 305.392 223.146 305.719 222.824Z" fill="#161616"/>
<path d="M303.921 226.742C303.975 226.742 304.03 226.742 304.084 226.742C304.52 226.742 304.901 226.366 304.901 225.937C304.901 225.507 304.52 225.132 304.084 225.132C304.03 225.132 303.975 225.132 303.921 225.132C303.485 225.132 303.103 225.507 303.103 225.937C303.103 226.366 303.43 226.742 303.921 226.742Z" fill="#161616"/>
<path d="M266.321 207.69C268.392 205.973 271.443 205.919 273.514 207.583C274.331 208.227 275.476 207.1 274.658 206.456C271.825 204.202 267.901 204.202 265.122 206.563C264.359 207.207 265.558 208.334 266.321 207.69Z" fill="#161616"/>
<path d="M292.913 207.1C295.256 205.061 298.58 204.685 301.359 206.134C302.286 206.617 303.103 205.222 302.177 204.739C298.744 202.914 294.657 203.397 291.769 205.973C290.951 206.671 292.096 207.798 292.913 207.1Z" fill="#161616"/>
<path d="M266.757 225.668C267.792 225.668 267.792 224.058 266.757 224.058C265.721 224.058 265.721 225.668 266.757 225.668Z" fill="#161616"/>
<path d="M272.533 224.917C273.568 224.917 273.568 223.307 272.533 223.307C271.498 223.307 271.498 224.917 272.533 224.917Z" fill="#161616"/>
<path d="M269.645 226.151C269.591 226.205 269.536 226.259 269.482 226.312C269.155 226.634 269.155 227.117 269.482 227.439C269.809 227.761 270.299 227.761 270.626 227.439C270.68 227.385 270.735 227.332 270.789 227.278C271.116 226.956 271.116 226.473 270.789 226.151C270.462 225.829 269.972 225.829 269.645 226.151Z" fill="#161616"/>
<path d="M264.632 174.095C261.362 176.08 254.223 180.427 249.374 189.336C244.524 198.191 244.578 206.563 244.796 210.159C236.84 224.273 233.244 236.724 231.5 245.203C228.667 258.673 230.192 263.611 232.154 266.884C236.949 274.934 246.595 276.92 248.938 277.403C260.981 279.925 270.571 273.861 272.751 272.466C273.35 270.695 273.95 268.494 274.277 266.026C274.876 261.786 274.549 258.137 274.059 255.507C271.334 253.307 268.174 250.355 265.122 246.491C260.49 240.588 257.874 234.792 256.403 230.606C251.608 230.123 248.011 226.903 247.684 223.307C247.357 219.926 249.755 215.579 252.916 215.579C255.259 215.579 256.948 217.94 257.275 218.37C259.073 217.35 261.58 215.579 263.814 212.788C267.029 208.763 267.574 205.168 269.045 201.411C270.462 197.762 273.187 192.717 279.072 187.458C284.739 189.443 289.262 191.375 292.368 192.824C302.34 197.386 308.007 200.069 312.421 205.919C314.873 209.139 316.127 212.305 316.781 214.291C321.848 210.481 323.919 211.5 324.355 211.715C327.57 213.486 327.461 223.2 322.448 225.883C320.541 226.903 318.361 226.634 316.999 226.312C315.418 231.733 311.931 240.588 303.92 248.423C301.25 251.053 298.526 253.092 296.074 254.648C295.856 256.634 295.747 259.371 296.292 262.591C296.782 265.543 297.654 267.958 298.471 269.675C311.713 278.262 328.17 276.705 337.106 267.475C345.062 259.21 345.062 246.706 342.065 238.173C339.34 230.391 334.055 225.722 331.439 223.683C332.147 220.677 336.071 202.86 324.682 186.492C321.739 182.252 313.511 172.002 298.689 168.46C282.995 164.703 270.081 170.821 264.632 174.095Z" fill="#489FB5"/>
<path opacity="0.17" d="M299.18 196.152C305.337 203.773 306.972 210.803 307.517 214.452C309.751 229.801 300.706 242.252 296.128 248.638C292.368 253.844 288.499 257.547 285.72 259.962C288.118 266.294 290.461 272.573 292.859 278.906C295.311 278.101 297.763 277.296 300.215 276.491C299.071 274.505 297.872 272.037 296.946 269.031C295.256 263.665 295.147 258.942 295.311 255.722C298.308 253.629 301.795 250.785 305.174 247.028C311.931 239.515 315.309 231.787 317.053 226.581C318.143 226.796 320.486 227.064 322.72 225.83C327.407 223.2 326.644 216.653 326.589 216.223C326.426 214.828 326.099 212.574 324.464 211.662C322.557 210.642 319.396 211.608 316.89 214.506C316.127 211.876 313.947 205.812 308.062 200.982C304.792 198.299 301.468 196.903 299.18 196.152Z" fill="#6D6C6C"/>
<path opacity="0.19" d="M283.213 209.246C282.886 209.193 281.797 213.862 278.473 234.47C280.38 234.47 282.287 234.47 284.194 234.47C283.813 231.733 283.377 227.761 283.159 222.931C282.886 214.667 283.54 209.3 283.213 209.246Z" fill="#6D6C6C"/>
<path opacity="0.54" d="M331.112 224.219C330.186 224.756 333.673 229.371 333.183 236.241C333.019 238.387 332.692 243.271 328.769 246.545C328.497 246.759 322.666 251.482 316.89 248.477C313.457 246.706 311.386 242.949 311.495 238.87C309.86 241.876 307.19 245.847 302.994 249.711C300.379 252.126 297.817 253.897 295.583 255.239C295.42 257.6 295.42 260.82 296.292 264.469C296.782 266.455 297.381 268.172 297.981 269.568C299.67 270.641 302.177 272.09 305.446 273.217C307.517 273.915 318.906 277.832 330.022 272.412C331.984 271.446 336.343 269.246 339.504 264.523C339.885 263.933 341.302 261.84 342.338 258.298C346.043 246.169 340.594 235.221 340.103 234.309C337.106 228.352 332.257 223.575 331.112 224.219Z" fill="#397D8F"/>
<path opacity="0.35" d="M256.348 230.82C255.858 230.874 256.948 235.275 255.749 239.622C254.877 242.842 252.098 248.101 247.357 249.174C242.398 250.248 236.24 246.652 233.407 239.944C232.099 242.895 230.355 247.618 230.083 253.629C229.919 257.546 229.701 261.732 231.663 265.865C236.077 275.095 249.046 278.691 258.691 277.832C265.121 277.242 269.971 274.773 272.587 273.11C273.241 271.285 273.895 269.085 274.331 266.562C275.039 262.215 274.876 258.405 274.494 255.614C270.189 252.555 267.247 249.389 265.394 247.081C262.778 243.808 259.236 239.407 257.438 233.289C257.166 232.591 256.675 230.767 256.348 230.82Z" fill="#397D8F"/>
</svg>
