<svg width="203" height="34" viewBox="0 0 203 34" fill="none" xmlns="http://www.w3.org/2000/svg">
<path d="M31.7144 22.143V22.2106C31.671 22.2106 31.603 22.1672 31.5166 22.0779V22.143L31.4486 22.0779H31.3839L31.4486 22.143H31.3839V22.0779H31.3167C31.3167 22.1217 31.2942 22.1217 31.2487 22.0779C31.2487 22.0345 31.227 22.0103 31.184 22.0103C31.1376 22.0103 31.1159 21.9886 31.1159 21.9452C30.9832 21.9018 30.8935 21.8559 30.8501 21.8125L30.7829 21.8775C30.7829 21.8342 30.7612 21.7908 30.7174 21.7448H30.6502L30.7174 21.8125C30.7616 21.8563 30.7829 21.9022 30.7829 21.9452C30.7829 21.989 30.8284 22.0103 30.9182 22.0103C31.0045 22.0103 31.0509 22.0349 31.0509 22.0779L31.2487 22.2786L31.3839 22.4113V22.4764L31.4486 22.5441V22.6768C31.4928 22.7661 31.4928 22.8095 31.4486 22.8095C31.4928 22.8554 31.5166 22.8992 31.5166 22.9422V23.0098C31.4711 23.0098 31.4486 23.0319 31.4486 23.0778C31.4052 23.0778 31.3839 23.0995 31.3839 23.1425V23.2101L31.4486 23.3428H31.3167C31.2703 23.3428 31.2703 23.3645 31.3167 23.4079V23.4755H31.2487C31.2053 23.5215 31.2053 23.5649 31.2487 23.6082L31.3167 23.6759C31.2703 23.6759 31.2487 23.6976 31.2487 23.7409H31.184V24.074C31.184 24.1199 31.2057 24.1416 31.2487 24.1416C31.2942 24.1416 31.3167 24.1522 31.3167 24.1739C31.3167 24.1956 31.3384 24.2063 31.3839 24.2063H31.3167L31.2487 24.2743C31.2487 24.3636 31.2703 24.407 31.3167 24.407H31.184C31.0943 24.3177 31.0262 24.296 30.9828 24.3394C30.9394 24.296 30.8931 24.2747 30.8501 24.2747L30.7174 24.142C30.6719 24.142 30.6285 24.1203 30.5847 24.0744C30.5392 24.0306 30.4741 23.963 30.3844 23.8737L30.1828 23.8103H30.1181L29.9829 23.7426C29.8931 23.6988 29.8285 23.6776 29.7851 23.6776H29.3181C29.3181 23.7214 29.3623 23.7426 29.4508 23.7426H29.7166C29.939 23.832 30.0722 23.8754 30.1177 23.8754L30.1823 23.943L30.2504 24.0106C30.3367 24.0106 30.3831 24.0323 30.3831 24.0757L30.5834 24.2084V24.2764H30.7161C30.7161 24.3658 30.7604 24.4092 30.8488 24.4092C30.8488 24.4989 30.8922 24.5419 30.9815 24.5419C31.0249 24.5878 31.0713 24.6095 31.1143 24.6095V24.6746H31.0496L30.9815 24.6095C30.9815 24.6533 30.9599 24.6746 30.9169 24.6746C30.832 24.6026 30.7424 24.5365 30.6485 24.4768C30.6485 24.433 30.6051 24.4087 30.5158 24.4087L30.3831 24.276C30.3367 24.276 30.315 24.2539 30.315 24.208H30.1181C30.0726 24.1646 30.0067 24.1433 29.9178 24.1433L29.5839 24.0757C29.5405 24.0319 29.4941 24.0106 29.4512 24.0106C29.3623 24.0106 29.3185 24.0323 29.3185 24.0757C29.273 24.0319 29.2296 24.0106 29.1858 24.0106V24.0757L29.1186 24.0106C29.0288 23.9647 28.9616 23.9647 28.9174 24.0106H28.5188C28.4725 23.9647 28.4508 23.9647 28.4508 24.0106C28.4508 23.9647 28.4291 23.943 28.3861 23.943H27.4529C27.4529 23.9889 27.4287 24.0106 27.3849 24.0106H27.3177C27.2743 24.0106 27.253 23.9889 27.253 23.943C27.2067 23.943 27.185 23.9647 27.185 24.0106L27.1203 23.943L27.0523 24.0106H26.9196C26.8298 24.0106 26.7869 24.0323 26.7869 24.0757H26.4526C26.4062 24.1216 26.3411 24.1433 26.2514 24.1433H26.1867V24.0757L26.0515 24.1433C26.0515 24.1867 26.0298 24.208 25.9868 24.208H25.9188C25.6963 24.3407 25.5857 24.3653 25.5857 24.276C25.6312 24.2322 25.6746 24.208 25.721 24.208L25.8537 24.1433C25.94 24.1433 26.0081 24.1216 26.0515 24.0757L25.7856 24.1433H25.6529L25.4526 24.208C25.4084 24.2539 25.3628 24.276 25.3199 24.276H25.1187C25.1187 24.2322 25.097 24.2322 25.054 24.276H24.3871C24.2974 24.3194 24.2302 24.3407 24.1868 24.3407H23.4539C23.365 24.3866 23.297 24.3866 23.2536 24.3407C23.1638 24.3407 23.0992 24.3653 23.0558 24.4083H22.6543C22.5646 24.4083 22.4748 24.433 22.3885 24.4764H22.1873C22.1439 24.4764 22.1226 24.4653 22.1226 24.4411C22.1226 24.4189 22.0984 24.4083 22.0546 24.4083C22.0546 24.4542 22.0303 24.4764 21.9874 24.4764H21.8547C21.8036 24.4795 21.7559 24.5027 21.722 24.541C21.6786 24.541 21.6539 24.5193 21.6539 24.4764H21.323L21.2558 24.6741C21.2558 24.8094 21.2116 24.9642 21.1231 25.1407C21.1231 25.4091 21.0767 25.6069 20.9904 25.7426C20.944 25.786 20.9223 25.8183 20.9223 25.84V26.008L20.8577 26.1407C20.8577 26.1866 20.8334 26.2521 20.7896 26.3415V26.4742C20.7896 26.5635 20.7679 26.6532 20.7224 26.74C20.7224 26.9186 20.7007 27.0084 20.6569 27.0084V27.1411H20.5897C20.6331 27.1845 20.6114 27.2955 20.5251 27.4741C20.5251 27.5179 20.511 27.5962 20.4893 27.7076C20.4691 27.8058 20.4583 27.9056 20.457 28.0058C20.3673 28.2278 20.3456 28.361 20.3924 28.4069V28.4715C20.346 28.4715 20.346 28.4962 20.3924 28.5396V28.7374L20.3243 28.805V28.8726H20.3924L20.3243 28.9377C20.2788 28.9837 20.2788 29.0053 20.3243 29.0053C20.3243 29.0492 20.3026 29.0704 20.2562 29.0704V29.1381L20.3243 29.2057H20.2562V29.3384L20.1916 29.4711L20.1244 29.5357V29.8075L20.0589 30.0729C20.0589 30.1189 20.0457 30.141 20.024 30.141C20.0023 30.141 19.9917 30.1627 19.9917 30.2056C19.9917 30.2954 19.97 30.3383 19.9262 30.3383V30.6067L19.859 30.6718V30.8721C19.859 30.9155 19.8339 30.9398 19.7909 30.9398V31.2056L19.7263 31.2703V31.4059C19.6799 31.4493 19.6582 31.517 19.6582 31.6037V31.7364C19.6582 31.8258 19.6365 31.8717 19.5936 31.8717V32.2022C19.5936 32.2481 19.5804 32.2698 19.5578 32.2698C19.5362 32.2698 19.5255 32.2915 19.5255 32.3374V32.6679C19.4821 32.7139 19.4583 32.7819 19.4583 32.8687V32.9363L19.3928 33.0014C19.3473 33.0014 19.3256 33.0473 19.3256 33.1366C19.2822 33.1366 19.2601 33.1588 19.2601 33.2017L19.3256 33.2693C19.2822 33.3132 19.2601 33.3591 19.2601 33.4021L19.1278 33.2693C19.0815 33.2693 19.0598 33.291 19.0598 33.3344C19.0598 33.3804 19.0381 33.4021 18.9917 33.4021C19.0381 33.4454 19.0381 33.4671 18.9917 33.4671V33.7351H18.859C18.9032 33.7351 18.9271 33.7134 18.9271 33.6675H18.859C18.8156 33.6236 18.7944 33.6236 18.7944 33.6675V33.7351C18.7944 33.7785 18.7701 33.8002 18.7272 33.8002C18.6829 33.8002 18.6617 33.8108 18.6617 33.835V33.9324C18.6161 33.8891 18.5728 33.8891 18.5264 33.9324H18.329L18.261 34.0001V33.9324C18.2176 33.8891 18.1721 33.8678 18.1283 33.8678H17.9909L17.9237 33.8002C17.8803 33.7564 17.834 33.7351 17.791 33.7351C17.7013 33.7351 17.6583 33.7134 17.6583 33.6675L17.5902 33.6024H17.5247L17.4567 33.6675C17.4133 33.6675 17.392 33.6453 17.392 33.6024H17.3244C17.2351 33.6917 17.167 33.6917 17.1236 33.6024L16.9909 33.5348C16.9475 33.5781 16.9263 33.5781 16.9263 33.5348L16.8582 33.4671H16.791L16.7255 33.4021L16.5928 33.4671C16.5035 33.5564 16.4601 33.5348 16.4601 33.4021C16.4601 33.3587 16.4354 33.3587 16.3925 33.4021C16.3465 33.4021 16.3244 33.3804 16.3244 33.3344V33.2017L16.1917 32.9359L16.1267 32.8032V32.7351C16.1267 32.6917 16.1483 32.6458 16.1917 32.6024V32.5344L16.1267 32.4017H16.1917C16.1024 32.3149 16.059 31.9351 16.059 31.2681C16.059 31.1814 16.0697 31.0597 16.0918 30.9023C16.1135 30.7479 16.1488 30.6259 16.1922 30.5366C16.1922 30.4472 16.2028 30.3498 16.2275 30.2354C16.2491 30.127 16.2602 30.0487 16.2602 30.0023V29.7369C16.2602 29.6931 16.2819 29.6255 16.3249 29.5357C16.3712 29.4494 16.3929 29.3813 16.3929 29.338V29.0045C16.4363 28.9152 16.4605 28.8501 16.4605 28.8037C16.4605 28.6276 16.4827 28.4945 16.5256 28.4052V28.2044C16.569 28.1147 16.5932 27.9824 16.5932 27.8033C16.5932 27.7595 16.6149 27.7166 16.6583 27.6706V27.5379C16.6583 27.4486 16.68 27.3835 16.7255 27.3372V27.1394C16.7255 27.0496 16.7476 26.982 16.791 26.9386V26.6052L16.8582 26.5375C16.902 25.9165 16.9697 25.518 17.0594 25.3394L17.1241 25.0059C17.1675 24.8298 17.2138 24.6724 17.2568 24.5393H15.5924C15.5924 24.5852 15.5707 24.5852 15.5244 24.5393H15.3257C15.2798 24.5393 15.2581 24.564 15.2581 24.6069H15.193C15.1471 24.5636 15.125 24.5636 15.125 24.6069C15.0816 24.6069 15.014 24.5852 14.9242 24.5393C14.8808 24.5852 14.8591 24.5852 14.8591 24.5393H14.7264C14.6805 24.6291 14.6125 24.6291 14.5257 24.5393C14.4797 24.5393 14.393 24.564 14.2598 24.6069C14.1246 24.6069 14.0591 24.5852 14.0591 24.5393H13.7933C13.7933 24.5852 13.7686 24.6069 13.7256 24.6069L13.5929 24.5393H13.4602L13.3926 24.6069H13.325V24.5393H11.9945C11.9052 24.4959 11.8371 24.4747 11.7937 24.4747L11.661 24.5393H11.428C11.3974 24.5404 11.367 24.5352 11.3385 24.5241C11.3101 24.513 11.2842 24.4962 11.2625 24.4747H10.1294L9.79594 24.4066H9.66323C9.66323 24.5393 9.63856 24.6291 9.59518 24.6724C9.59518 24.7184 9.58454 24.7971 9.56285 24.9055C9.5409 25.0044 9.52992 25.1054 9.5301 25.2067C9.44078 25.4287 9.41909 25.5618 9.46247 25.6052V25.6733C9.41909 25.6733 9.41909 25.6949 9.46247 25.7409V25.9387H9.39442H9.46247L9.39442 26.0063V26.139L9.32934 26.2066C9.37273 26.2504 9.37273 26.2717 9.32934 26.2717C9.32934 26.3176 9.35103 26.361 9.39442 26.4044H9.32934V26.6047L9.26171 26.6724L9.19664 26.8051V27.0058L9.12901 27.2712C9.12901 27.3151 9.11837 27.3363 9.09626 27.3363C9.07201 27.3363 9.06393 27.361 9.06393 27.4039C9.06393 27.4937 9.03926 27.5367 8.99588 27.5367V27.8025L8.92825 27.8701V28.0705C8.92825 28.1138 8.90656 28.1355 8.86317 28.1355V28.4039L8.79512 28.4686V28.6013C8.75173 28.6472 8.73004 28.7127 8.73004 28.802V28.9347C8.73004 29.0241 8.7058 29.0674 8.66241 29.0674V29.4005C8.66241 29.4464 8.65135 29.4681 8.62966 29.4681C8.60542 29.4681 8.59691 29.4898 8.59691 29.5328V29.8662H8.52928V30.135L8.46165 30.1997C8.41827 30.1997 8.39658 30.2456 8.39658 30.3324C8.35064 30.3324 8.32895 30.3571 8.32895 30.4L8.39658 30.4651C8.35064 30.511 8.32895 30.5544 8.32895 30.6004L8.19624 30.4651C8.15286 30.4651 8.13117 30.4898 8.13117 30.5327H8.06354V30.6004C8.10692 30.6442 8.10692 30.6654 8.06354 30.6654V30.9334H7.93083C7.97422 30.9334 7.99591 30.9087 7.99591 30.8658H7.93083C7.8849 30.822 7.8632 30.822 7.8632 30.8658V30.9334C7.8632 30.9768 7.84151 30.9985 7.79813 30.9985C7.75219 30.9985 7.7305 31.0091 7.7305 31.0308V31.1308C7.68711 31.0874 7.64118 31.0874 7.59779 31.1308H7.39703L7.33196 31.1988L7.26433 31.1308C7.26433 31.0874 7.24264 31.0661 7.19628 31.0661H7.06357L6.99849 30.9985H6.92959C6.92959 30.9547 6.9079 30.9334 6.86451 30.9334C6.77519 30.9334 6.72883 30.9087 6.72883 30.8658L6.66375 30.7981H6.5957L6.53062 30.8658H6.39792C6.3086 30.8658 6.24054 30.8441 6.19716 30.7981L6.06445 30.7331C6.01852 30.7764 5.99683 30.7764 5.99683 30.7331L5.93175 30.6654H5.86412L5.79649 30.6004L5.66379 30.6654C5.57447 30.7548 5.53108 30.7331 5.53108 30.6004C5.53108 30.5544 5.50939 30.5544 5.46601 30.6004C5.42007 30.6004 5.39838 30.5787 5.39838 30.5327V30.4C5.39838 30.3566 5.38732 30.3213 5.36563 30.3001C5.34096 30.278 5.30863 30.2239 5.26525 30.1346L5.19762 29.9989V29.9339C5.19762 29.8905 5.21931 29.8445 5.26525 29.8011C5.26525 29.7573 5.24058 29.7335 5.19762 29.7335V29.6008H5.26525C5.17593 29.5111 5.13254 29.1342 5.13254 28.4673C5.13254 28.3809 5.14062 28.2589 5.16529 28.1015C5.18698 27.9471 5.21931 27.825 5.26567 27.7357C5.26567 27.6464 5.2763 27.546 5.29842 27.435C5.32011 27.3265 5.33075 27.2479 5.33075 27.2015V26.9361C5.37413 26.8463 5.3988 26.7136 5.3988 26.535C5.44219 26.4912 5.46643 26.4265 5.46643 26.3368C5.46643 26.2041 5.48812 26.0931 5.53151 26.0033C5.53151 25.8272 5.5532 25.692 5.59956 25.6022V25.4044C5.59956 25.3606 5.61019 25.293 5.63189 25.2037C5.6501 25.1382 5.66108 25.0708 5.66464 25.0029C5.66464 24.9591 5.68633 24.9162 5.73227 24.8702V24.5368L5.79734 24.4721C5.75396 24.4721 5.73227 24.4938 5.73227 24.5368H5.66464V24.6044L5.59956 24.5368L5.53151 24.4721L5.46643 24.5368H5.3988H5.46643H5.33032C5.28694 24.5827 5.26525 24.5827 5.26525 24.5368L5.13254 24.6044H5.19762C5.15423 24.561 5.1083 24.561 5.06491 24.6044L4.99728 24.5368H4.6668L4.53111 24.6044L4.26528 24.5368H3.33209C3.28871 24.5368 3.19938 24.5614 3.06625 24.6044L2.99863 24.5368H2.79829L2.66559 24.6044H2.26747L2.19984 24.6695H1.26708C1.22369 24.6261 1.17776 24.6044 1.13437 24.6044H0.799633L0.932338 24.4717C0.932338 24.4279 0.910646 24.4036 0.867262 24.4036H0.533798C0.487861 24.4496 0.465744 24.4496 0.465744 24.4036C0.422359 24.4036 0.400667 24.3819 0.400667 24.336H0.465744V24.2713H0.400667C0.354731 24.2713 0.333039 24.2492 0.333039 24.2033H0.200759L0.13313 24.0706V24.0055C0.179067 23.9596 0.179067 23.9162 0.13313 23.8703H0.0680538L0 23.8103L0.0676283 23.7426C0.111013 23.6988 0.111013 23.6776 0.0676283 23.6776C0.0676283 23.6342 0.0893205 23.5883 0.132705 23.5449H0.0676283V23.4772L0.132705 23.4096V23.2769C0.132705 23.2335 0.154397 23.1901 0.200334 23.1442V23.0106L0.132705 22.943C0.0893205 22.8996 0.0893205 22.8784 0.132705 22.8784V22.8103C0.0893205 22.7669 0.0676283 22.724 0.0676283 22.6776L0.132705 22.4768V22.3441C0.178641 22.3441 0.200334 22.3224 0.200334 22.2791V22.211C0.200334 22.1676 0.154397 22.1217 0.0676283 22.0783C0.0676283 21.989 0.0893205 21.9239 0.132705 21.8775V21.8125L0.267962 21.7448C0.311346 21.7448 0.344097 21.7231 0.365364 21.6772C0.390034 21.6338 0.444051 21.5904 0.533798 21.5445L0.666503 21.4799H0.734557C0.777941 21.436 0.821325 21.4118 0.867262 21.4118H0.932338L0.999967 21.3472H1.06504C1.11098 21.3012 1.46614 21.1898 2.13349 21.0137C2.22026 21.0137 2.35552 21.0031 2.53203 20.9784C2.64267 20.9628 2.75393 20.952 2.86549 20.9461C2.9982 20.9022 3.17472 20.881 3.39972 20.881C3.48649 20.881 3.57581 20.8563 3.66555 20.8134H4.19978C4.24316 20.8134 4.30824 20.8027 4.39756 20.781C4.48688 20.7589 4.55493 20.7457 4.59832 20.7457H4.99686L5.19762 20.6806H5.93175C5.97513 20.6373 6.01852 20.613 6.06445 20.613H6.5957C6.5957 20.4803 6.61739 20.3693 6.66375 20.2796L6.79646 19.7483C6.88578 19.3472 6.92916 19.1248 6.92916 19.0814L6.99679 19.0138L7.1295 18.2141L7.19457 17.8832L7.26263 17.8156V17.6829C7.30601 17.6395 7.33026 17.5719 7.33026 17.4825L7.46296 16.8832V17.0159C7.50635 16.9726 7.52804 16.9726 7.52804 17.0159C7.57142 17.0159 7.59567 16.9943 7.59567 16.9509V16.6174L7.66372 16.5498L7.7288 16.4847V16.2818C7.77218 16.1925 7.79643 16.1274 7.79643 16.0811L7.8615 16.013V15.8152C7.90489 15.7259 7.92913 15.6145 7.92913 15.4818C7.97252 15.3924 7.99421 15.281 7.99421 15.1483C7.99421 15.1049 8.0159 15.0373 8.06226 14.9475C8.10565 14.8608 8.12989 14.7931 8.12989 14.7498V14.6821C8.12989 14.5928 8.15158 14.5277 8.19497 14.4814V14.3487C8.19497 14.3053 8.20603 14.2593 8.22772 14.216C8.24946 14.175 8.26154 14.1296 8.26302 14.0832V14.0156C8.26302 13.9722 8.28471 13.9505 8.3281 13.9505V13.6822C8.3281 13.5954 8.34979 13.5278 8.39573 13.4844C8.43911 13.5278 8.4608 13.5061 8.4608 13.4167C8.50674 13.4167 8.52843 13.3951 8.52843 13.3487V13.1509H8.59606C8.55012 13.1509 8.50674 13.1292 8.4608 13.0833H8.09459C8.06389 13.0829 8.03342 13.0887 8.005 13.1003C7.97657 13.1119 7.95078 13.1291 7.92913 13.1509H7.6633C7.6633 13.1075 7.61736 13.0833 7.52761 13.0833H7.32983L7.2622 13.1509C7.2622 13.1075 7.24051 13.0833 7.19415 13.0833H7.06144C6.97212 13.0833 6.92874 13.1075 6.92874 13.1509H6.32944C6.10741 13.1509 5.97428 13.1726 5.9309 13.216H5.86327C5.77395 13.216 5.73056 13.2402 5.73056 13.2836H5.59786L5.52981 13.216C5.48642 13.216 5.46473 13.2402 5.46473 13.2836V13.216H5.3971L5.46473 13.2836H5.13254H5.19762H2.39975C2.35637 13.2836 2.31043 13.3053 2.26705 13.3487H1.86553C1.82214 13.3487 1.77621 13.3734 1.73282 13.4167H1.60012C1.5108 13.3734 1.44572 13.3734 1.39936 13.4167H1.33428L1.26623 13.3487C1.22284 13.3053 1.17691 13.3053 1.13352 13.3487L1.06547 13.2836L1.00039 13.3487H0.799633C0.888954 13.3053 0.932338 13.2619 0.932338 13.216V13.1509C0.932338 13.1075 0.910646 13.0833 0.867262 13.0833H0.734557C0.734557 13.1292 0.709887 13.1509 0.666503 13.1509H0.465744L0.400667 13.0833H0.465744V12.9502L0.400667 13.0182L0.333039 12.9502C0.289654 12.9068 0.243718 12.8825 0.200334 12.8825C0.243718 12.8391 0.222026 12.8174 0.132705 12.8174V12.7494V12.6167L0.0676283 12.5516C0.0216919 12.5516 0 12.5274 0 12.484H0.0676283C0.111013 12.4406 0.111013 12.3947 0.0676283 12.3513C0.0676283 12.3079 0.0893205 12.2836 0.132705 12.2836L0.0676283 12.2186V12.1505H0.132705V12.0178C0.132705 11.9285 0.154397 11.8851 0.200334 11.8851V11.7524C0.154397 11.7065 0.132705 11.6631 0.132705 11.6171V11.5521C0.0893205 11.5087 0.0676283 11.4411 0.0676283 11.3513L0.132705 11.1505V11.0178H0.200334V10.8851L0.0676283 10.7524C0.0676283 10.7091 0.0893205 10.6631 0.132705 10.6197C0.178641 10.6197 0.178641 10.598 0.132705 10.5517V10.4866C0.222026 10.4866 0.267962 10.4649 0.267962 10.419H0.333039C0.376423 10.3756 0.444051 10.3296 0.533798 10.2863L0.666503 10.2186L0.734557 10.1536H0.932338L0.999967 10.0855H1.06504C1.15436 9.9528 1.50952 9.84136 2.13349 9.75204C2.22026 9.75204 2.34233 9.74098 2.49928 9.71929C2.65368 9.6976 2.77575 9.66527 2.86507 9.61891H3.39929C3.39929 9.57553 3.48606 9.55383 3.66513 9.55383H4.06367C4.10961 9.55383 4.15299 9.53214 4.19935 9.48578H4.59789C4.64128 9.48578 4.70891 9.47515 4.79865 9.45345C4.86315 9.43475 4.92945 9.42292 4.99643 9.41815H5.73099C5.77437 9.37477 5.81776 9.35308 5.8637 9.35308H6.5957C6.68502 9.30969 6.75308 9.28502 6.79646 9.28502H6.86451C7.08399 9.28502 7.33876 9.27439 7.62884 9.2527C7.79577 9.23848 7.96296 9.22756 8.13032 9.21994H8.76237C8.87338 9.21994 8.99545 9.19825 9.12816 9.15232H9.46162C9.46162 9.10893 9.47225 9.08724 9.49395 9.08724C9.51564 9.08724 9.52925 9.06555 9.52925 9.01961C9.57263 8.79759 9.59433 8.66445 9.59433 8.62107V8.48539C9.63771 8.442 9.66238 8.37693 9.66238 8.28761V8.21998L9.72746 7.95414V7.75381C9.72746 7.71042 9.74915 7.68575 9.79508 7.68575V7.55305C9.79508 7.50967 9.81678 7.44459 9.86314 7.35527V7.21958C9.90652 7.13282 9.90652 7.06519 9.86314 7.0218C9.86314 6.97842 9.87122 6.95418 9.89546 6.95418C9.91716 6.95418 9.92822 6.93248 9.92822 6.8891V6.68877C9.92822 6.64538 9.94991 6.59944 9.99584 6.55606V6.42293C9.94991 6.37699 9.94991 6.3553 9.99584 6.3553C9.99584 6.31192 10.0175 6.28725 10.0609 6.28725L9.99584 6.22217L10.0609 6.15454H9.99584L10.0609 6.02184C10.1043 6.02184 10.1285 6.00014 10.1285 5.95676V5.68667L10.1936 5.48591C10.1502 5.48591 10.1502 5.46422 10.1936 5.42084V5.28813L10.1285 5.22008V5.155L10.1936 5.08737V5.155L10.2617 5.22008L10.3293 5.01932V4.95424C10.3727 4.86492 10.3944 4.79984 10.3944 4.75348C10.3944 4.7101 10.4161 4.68841 10.4624 4.68841V4.55272C10.5058 4.55272 10.5275 4.53103 10.5275 4.48765V4.41959L10.5951 4.35452C10.5951 4.31113 10.6058 4.25414 10.6279 4.18651C10.6496 4.12143 10.6602 4.06444 10.6602 4.02105C10.6602 3.93173 10.7062 3.84496 10.7959 3.75266V3.61996C10.7959 3.57657 10.8176 3.55488 10.861 3.55488L10.929 3.35412L10.9941 3.22142L11.2625 2.62212V2.55449H11.3276V2.48941C11.2842 2.44348 11.2842 2.40009 11.3276 2.35373C11.3276 2.31035 11.3493 2.28865 11.3952 2.28865L11.4603 2.15595L11.5283 2.08832C11.5717 1.999 11.6177 1.93392 11.661 1.88756C11.661 1.84418 11.6827 1.84418 11.7291 1.88756V1.75486L11.7942 1.68978C11.8835 1.60046 11.9269 1.53241 11.9269 1.48902L12.1276 1.28826C12.1276 1.20149 12.171 1.15556 12.2603 1.15556V1.08793L12.5287 0.822093L12.7265 0.621334L12.8592 0.488629H12.9273C13.0166 0.40186 13.1034 0.334231 13.1931 0.290847L13.3258 0.155164C13.3717 0.11178 13.4368 0.0900879 13.5266 0.0900879H13.6593L13.4615 0.290847C13.5049 0.244911 13.5266 0.244911 13.5266 0.290847L13.4615 0.355923H13.3939H13.5266L13.4615 0.423977C13.4615 0.467362 13.4372 0.489054 13.3939 0.489054L13.2612 0.621759L13.0604 0.822518C13.0604 0.868455 13.0821 0.890146 13.1285 0.890146C13.0391 0.890146 12.9957 0.911839 12.9957 0.955223C12.9498 0.955223 12.9281 0.979893 12.9281 1.02328C12.9281 1.06666 12.9957 1.02328 13.1289 0.890572C13.1723 0.890572 13.2156 0.855269 13.2616 0.790192C13.305 0.722564 13.3509 0.689813 13.3943 0.689813C13.4377 0.689813 13.5053 0.646428 13.595 0.557108C13.6384 0.513723 13.6818 0.489479 13.7278 0.489479C13.7711 0.489479 13.8171 0.467787 13.8605 0.424403H14.0612L14.1263 0.489479C14.1263 0.535416 14.148 0.535416 14.1939 0.489479H14.3266V0.424403L14.3943 0.557108L14.4593 0.622185L14.5274 0.689813V0.622185H14.7281L14.6601 0.689813L14.5925 0.757442L14.6601 0.822518C14.7035 0.779134 14.7494 0.779134 14.7928 0.822518H14.7277C14.7711 0.911839 14.8145 0.933531 14.8604 0.890146H14.9936V0.955223C14.9936 1.00116 15.0369 1.02328 15.1263 1.02328H15.3917C15.481 1.02328 15.5244 1.00159 15.5244 0.955223V1.08835L15.6601 1.02328C15.6601 1.06666 15.6358 1.1126 15.5924 1.15598V1.22404C15.549 1.26742 15.5244 1.31336 15.5244 1.35674C15.481 1.35674 15.4351 1.37843 15.3917 1.42182C15.3917 1.46775 15.381 1.48945 15.3589 1.48945C15.3372 1.48945 15.3262 1.51114 15.3262 1.55452L15.1935 1.62258C14.9685 1.8446 14.86 1.97773 14.86 2.02367H14.7924L14.6597 2.15637C14.6137 2.2457 14.592 2.31077 14.592 2.35416C14.592 2.40009 14.5814 2.42179 14.5593 2.42179C14.5376 2.42179 14.527 2.44348 14.527 2.48984V2.75567C14.527 2.71229 14.5703 2.60128 14.6597 2.42221L14.8604 2.08875L14.9255 2.02367H14.9936C14.9936 1.97773 15.0369 1.91223 15.1263 1.82291L15.327 1.69021C15.327 1.64682 15.3487 1.62258 15.3921 1.62258C15.4814 1.53326 15.5495 1.48987 15.5929 1.48987H15.6605L15.7256 1.42224C15.7256 1.37886 15.7366 1.35717 15.7609 1.35717C15.7826 1.35717 15.7936 1.33547 15.7936 1.28954H15.8574V1.35717C15.814 1.35717 15.7923 1.37886 15.7923 1.42224C15.8357 1.42224 15.8357 1.44649 15.7923 1.48987C15.7145 1.57112 15.6239 1.63896 15.5239 1.69063L15.4589 1.75571L15.3257 1.88841L15.2581 1.95604V2.02409L15.193 2.08917C15.193 2.13511 15.1684 2.1568 15.125 2.1568L15.0574 2.28951L14.9246 2.55534C14.9246 2.60128 14.8813 2.66635 14.7919 2.7561C14.7919 2.84542 14.8136 2.8888 14.8596 2.8888C14.8136 2.93474 14.7919 2.97813 14.7919 3.02151V2.95643C14.7919 2.99982 14.7703 3.05384 14.7269 3.12189C14.6809 3.18994 14.6809 3.24396 14.7269 3.28735L14.6588 3.35497V3.55531L14.5912 3.62038C14.5478 3.62038 14.5261 3.64505 14.5261 3.68844V3.82114C14.4802 3.86708 14.4581 3.93258 14.4581 4.0219V4.08698L14.393 4.22224C14.347 4.26562 14.3253 4.33367 14.3253 4.42002C14.3253 4.50934 14.3037 4.57739 14.2603 4.62078V4.68883C14.2143 4.73222 14.2143 4.77815 14.2603 4.82154C14.2143 4.86492 14.2143 4.88661 14.2603 4.88661L14.1926 4.95424V5.35278H14.2603H14.1926V5.42041C14.1926 5.50973 14.171 5.57481 14.125 5.62117C14.2143 5.71049 14.2143 5.77557 14.125 5.81895V5.887C14.0816 5.93039 14.0816 5.97633 14.125 6.01971V6.08776C14.125 6.13115 14.1467 6.15284 14.1926 6.15284V6.55393L14.125 6.42123C14.171 6.37529 14.171 6.34254 14.125 6.32085C14.1055 6.31239 14.0889 6.29835 14.0773 6.28049C14.0657 6.26263 14.0597 6.24175 14.0599 6.22047V6.01971V6.08776C14.0599 6.22047 14.0357 6.28555 13.9923 6.28555C14.0357 6.33148 14.0599 6.37487 14.0599 6.42123C14.014 6.42123 13.9923 6.4863 13.9923 6.61901L14.0599 6.75172C14.014 6.79765 13.9923 6.84104 13.9923 6.88697V7.01968C13.9923 7.06306 13.9706 7.08475 13.9272 7.08475V7.55092C13.8813 7.55092 13.8592 7.57517 13.8592 7.61855C13.8592 7.75126 13.8375 7.841 13.7941 7.88439V8.01709C13.7482 8.24209 13.7265 8.41819 13.7265 8.55132C13.7265 8.5947 13.7018 8.61894 13.6584 8.61894V8.81673C13.615 8.86266 13.5933 8.92774 13.5933 9.01748V9.15019H13.9268H13.7941C13.7941 9.19613 13.8158 9.21782 13.8592 9.21782H14.125C14.171 9.2612 14.1926 9.23951 14.1926 9.15019V9.21782H16.6562C16.7455 9.21782 16.7889 9.19613 16.7889 9.15019C16.8344 9.15019 16.8561 9.17443 16.8561 9.21782C16.8999 9.21782 16.9459 9.19613 16.9888 9.15019H17.455C17.4116 9.19613 17.4337 9.21782 17.523 9.21782L17.5877 9.2829C17.6319 9.2829 17.6774 9.2612 17.7204 9.21782H17.8556V9.2829L17.9211 9.21782H17.9883L18.0539 9.2829H18.1211L18.1891 9.21782H18.2538V9.15019L18.3218 9.21782H18.2538H19.053C19.0964 9.2612 19.121 9.2612 19.121 9.21782H19.9198C19.964 9.2612 20.007 9.2829 20.0525 9.2829C20.2728 9.23951 20.4081 9.21782 20.4515 9.21782H20.9168V9.15019C20.9168 9.10681 20.9385 9.08511 20.9848 9.08511L20.9168 9.01748C20.9602 9.01748 20.9848 8.99579 20.9848 8.94986H20.9168L20.9848 8.81715C21.0282 8.81715 21.0495 8.79546 21.0495 8.75207V8.48369L21.1176 8.2859C21.0712 8.2859 21.0712 8.26421 21.1176 8.21828V8.15363C21.1176 8.10769 21.1392 8.08557 21.1822 8.08557V8.01794H21.1176V7.88524V7.95329L21.1822 8.01837L21.2503 7.82059V7.75296C21.2936 7.66364 21.3175 7.59856 21.3175 7.5522C21.3175 7.50881 21.3392 7.48712 21.383 7.48712V7.35399C21.4263 7.35399 21.4502 7.3323 21.4502 7.28594V7.21831L21.5157 7.15323C21.5157 7.10985 21.5263 7.05285 21.5505 6.9848C21.5722 6.91972 21.5829 6.86571 21.5829 6.81934C21.5829 6.73002 21.6263 6.64325 21.7156 6.55351V6.4208C21.7156 6.37487 21.7373 6.35317 21.7836 6.35317L21.8483 6.15242L21.9155 6.01971L22.1813 5.42041V5.35278H22.2494V5.2877C22.203 5.24432 22.203 5.19838 22.2494 5.155C22.2494 5.10906 22.2711 5.08737 22.314 5.08737L22.3821 4.95467C22.4255 4.91128 22.4935 4.82196 22.5824 4.68883C22.5824 4.64289 22.6041 4.64289 22.6479 4.68883V4.55315L22.7151 4.48807C22.8023 4.39875 22.8478 4.33367 22.8478 4.28731L23.049 4.08655C23.049 3.99978 23.0924 3.95385 23.1817 3.95385V3.88877L23.4467 3.62038L23.6479 3.4226H23.7125H23.6479L23.7806 3.28735H23.8452C23.935 3.20058 24.0247 3.13295 24.1136 3.08956L24.2463 2.95686C24.3361 2.91092 24.4007 2.88923 24.4475 2.88923H24.5802L24.379 3.08999C24.4224 3.0466 24.4471 3.0466 24.4471 3.08999L24.379 3.15507H24.3216H24.4543L24.3863 3.22269C24.4297 3.26608 24.408 3.28777 24.3216 3.28777C24.3216 3.37709 24.2753 3.42303 24.1864 3.42303L23.9877 3.62081C23.9877 3.66675 24.0094 3.68886 24.0532 3.68886C23.9635 3.68886 23.9205 3.71056 23.9205 3.75394C23.8763 3.75394 23.8525 3.77861 23.8525 3.82157C23.8525 3.86751 23.9205 3.82157 24.0537 3.68886C24.097 3.68886 24.1425 3.65611 24.1864 3.58848C24.2297 3.52043 24.2753 3.4881 24.3216 3.4881C24.365 3.4881 24.4297 3.44472 24.5194 3.3554L24.6521 3.28777C24.6976 3.28777 24.7419 3.26608 24.7874 3.22269H24.9847L25.0528 3.28777C25.0528 3.33371 25.0745 3.33371 25.1174 3.28777H25.2527V3.22269L25.3182 3.3554L25.3854 3.42303L25.4509 3.4881L25.5181 3.42303H25.6508L25.5836 3.4881L25.5181 3.55573C25.5181 3.59912 25.5615 3.62081 25.6508 3.62081H25.7188H25.6508C25.6942 3.71013 25.7405 3.73225 25.7835 3.68886H25.9162V3.75394C25.9162 3.79988 25.9596 3.82157 26.0489 3.82157H26.3169C26.4032 3.82157 26.4496 3.79988 26.4496 3.75394V3.88962C26.493 3.88962 26.5393 3.86793 26.5823 3.82157V3.95427C26.4925 4.04359 26.4496 4.11165 26.4496 4.15503C26.4032 4.15503 26.3598 4.17672 26.3169 4.22266C26.3169 4.26605 26.3062 4.28774 26.2845 4.28774C26.2595 4.28774 26.2488 4.31198 26.2488 4.35537L26.1842 4.42044H26.1161C25.8945 4.64289 25.7831 4.77815 25.7831 4.82154H25.7184C25.7184 4.91086 25.6504 5.01932 25.5172 5.155C25.5172 5.19838 25.5066 5.22008 25.4849 5.22008C25.4607 5.22008 25.45 5.24475 25.45 5.28813V5.55397C25.45 5.51058 25.4934 5.39957 25.5827 5.2205L25.7831 4.88704L25.8511 4.82196H25.9158C25.9158 4.77858 25.9592 4.71095 26.0485 4.6212L26.2488 4.4885V4.42044H26.3169C26.4032 4.33367 26.4713 4.28774 26.5172 4.28774H26.5827L26.6499 4.22266C26.6499 4.17672 26.6605 4.15503 26.6822 4.15503C26.7048 4.15503 26.7154 4.13334 26.7154 4.0874H26.7826V4.15503C26.7371 4.15503 26.7154 4.17672 26.7154 4.22266C26.7588 4.22266 26.7588 4.24435 26.7154 4.28774L26.5168 4.4885L26.3815 4.55357L26.2488 4.68926L26.1842 4.75433V4.82196L26.1161 4.88704C26.1161 4.93297 26.0944 4.95467 26.0489 4.95467L25.9843 5.08737L25.8516 5.35321V5.42084C25.8052 5.46422 25.7835 5.51016 25.7835 5.55354C25.6938 5.64286 25.6938 5.68625 25.7835 5.68625C25.7401 5.73218 25.7188 5.77557 25.7188 5.81895V5.75387C25.7188 5.79726 25.6938 5.85425 25.6508 5.91933C25.6074 5.98738 25.6074 6.04395 25.6508 6.08776L25.5836 6.15284V6.3536L25.5181 6.42123C25.4726 6.42123 25.4509 6.44292 25.4509 6.4863V6.61943C25.4067 6.66537 25.3854 6.73045 25.3854 6.82019V6.88782L25.3182 7.02053V7.0856L25.2527 7.21831C25.2527 7.30763 25.2284 7.37568 25.1855 7.41907V7.4867C25.1391 7.53008 25.1391 7.57602 25.1855 7.6194C25.1391 7.66279 25.1391 7.68448 25.1855 7.68448V7.75253H25.1174V7.82016C25.1638 7.82016 25.1638 7.84185 25.1174 7.88524V8.15363H25.1855H25.1174V8.41946C25.1174 8.50878 25.0957 8.57386 25.0528 8.62022V8.6853C25.0064 8.73123 25.0064 8.77462 25.0528 8.818V8.95071H25.1855C25.2289 8.90732 25.2744 8.88563 25.3182 8.88563V8.95071H25.3854V8.88563H25.852V8.818H25.9847V8.88563H25.9166V8.95071H26.5836L26.6508 9.01834H27.1174C27.2934 9.01834 27.4049 9.04003 27.4504 9.08596H27.9816L28.6486 9.21867H28.7809V9.28375C28.8251 9.24036 28.8706 9.21867 28.9136 9.21867L29.1819 9.35137C29.3146 9.35137 29.4023 9.37307 29.4478 9.41645C29.4912 9.41645 29.5133 9.44069 29.5133 9.48408H29.6485L29.7132 9.55213C29.7566 9.59552 29.8246 9.61721 29.9144 9.61721L30.1794 9.74991C30.2691 9.74991 30.3121 9.77416 30.3121 9.81754H30.3801C30.5128 9.95025 30.646 10.0183 30.7791 10.0183L30.9794 10.151V10.2161C31.0228 10.2161 31.0692 10.2403 31.1121 10.2837C31.1555 10.2837 31.1802 10.3054 31.1802 10.3518C31.3129 10.4411 31.4452 10.5495 31.5783 10.6823L31.711 10.8179V10.9506C31.6239 10.9085 31.554 10.8376 31.5132 10.7499V10.8826L31.4452 10.8175L31.3805 10.7495L31.4452 10.8175V10.8826H31.3805V10.8175H31.3133C31.3133 10.8609 31.2908 10.8609 31.2453 10.8175L31.1806 10.7495L31.1125 10.6818C31.0393 10.6497 30.9723 10.6048 30.9148 10.5491H30.8467C30.8012 10.5491 30.7795 10.5738 30.7795 10.6172C30.7795 10.5738 30.7578 10.5279 30.714 10.4845C30.6685 10.4411 30.6468 10.4411 30.6468 10.4845C30.6034 10.5279 30.6251 10.5495 30.714 10.5495L30.7795 10.6176C30.825 10.661 30.8901 10.7069 30.9798 10.7503L31.0479 10.8184C31.1342 10.9077 31.2023 10.9511 31.2457 10.9511C31.2457 10.9945 31.2912 11.0625 31.3809 11.1488V11.2169L31.4456 11.2845V11.5499C31.4898 11.5933 31.5136 11.6393 31.5136 11.6826L31.4456 11.7503L31.3809 11.8154V11.9481L31.4456 12.0808H31.3809L31.3137 12.0157C31.2674 12.0591 31.2674 12.105 31.3137 12.1484V12.2164V12.1484H31.2457V12.2811L31.3137 12.4138H31.2457C31.2457 12.4597 31.224 12.4814 31.181 12.4814V12.6141C31.2244 12.6601 31.2244 12.7035 31.181 12.7468L31.2457 12.8795C31.2912 12.8795 31.3137 12.8932 31.3137 12.9148C31.3137 12.9365 31.3354 12.9472 31.3809 12.9472H31.2457C31.2457 13.0365 31.2674 13.0799 31.3137 13.0799H31.113C31.0696 13.0365 31.0232 13.0148 30.9803 13.0148C30.9373 13.0148 30.8905 12.9901 30.8476 12.9467C30.802 12.9467 30.7804 12.9361 30.7804 12.9144C30.7804 12.8927 30.7587 12.8791 30.7149 12.8791C30.6693 12.8357 30.626 12.814 30.5822 12.814C30.4035 12.6375 30.2708 12.5482 30.1811 12.5482H30.1164L29.9812 12.4806C29.8914 12.4372 29.8268 12.4129 29.7834 12.4129H29.3163C29.3606 12.4129 29.4924 12.4372 29.7153 12.4806C29.9378 12.5699 30.0709 12.6133 30.1164 12.6133L30.1811 12.6809C30.2253 12.6809 30.2925 12.7243 30.3822 12.8136L30.5826 12.9463C30.6268 12.9463 30.6698 12.968 30.7153 13.0144L30.848 13.1471L30.9807 13.2798C31.0241 13.2798 31.0704 13.3015 31.1134 13.3449H31.0487C31.0024 13.3449 30.9807 13.3232 30.9807 13.2798V13.3449C30.9807 13.3908 30.959 13.3908 30.916 13.3449L30.848 13.2798C30.7746 13.2465 30.707 13.2017 30.6477 13.1471C30.6043 13.1471 30.5579 13.1254 30.5149 13.0795L30.3822 13.0144L30.3142 12.9463H30.2508C30.2053 12.9463 30.1611 12.9246 30.1181 12.8787H29.9178L29.5839 12.746H29.4512C29.3623 12.746 29.3185 12.7707 29.3185 12.814C29.2296 12.7247 29.1858 12.7026 29.1858 12.746H28.6515C28.6052 12.7026 28.5618 12.6809 28.5188 12.6809H27.185V12.746C27.185 12.7026 27.1633 12.6809 27.1203 12.6809H27.0523L26.9196 12.746H26.7869V12.814V12.746H26.7197C26.6299 12.7919 26.5436 12.814 26.4538 12.814H26.2526V12.8791H26.188V12.814L26.0527 12.8791H25.9881V12.9467H25.92L25.587 13.0148C25.6325 12.9689 25.6759 12.9467 25.7223 12.9467L25.855 12.8791C25.8983 12.8357 25.9307 12.814 25.9545 12.814H26.0523H25.7865L25.7218 12.8791H25.6538C25.6538 12.8357 25.5866 12.8357 25.4534 12.8791C25.4534 12.9251 25.4092 12.9467 25.3207 12.9467H25.2552C25.2097 12.9901 25.1663 13.0148 25.12 13.0148C25.12 12.9689 25.0983 12.9467 25.0553 12.9467C25.0553 12.9901 25.0302 12.9901 24.9873 12.9467C24.8546 12.9467 24.7895 12.9684 24.7895 13.0148H24.3216V13.2126L24.2536 13.2802C24.2081 13.3236 24.1864 13.3912 24.1864 13.481V13.8115C24.1864 13.8574 24.1638 13.8791 24.1209 13.8791V14.0118L24.0537 14.0828V14.3487L23.9882 14.4814C23.9426 14.5273 23.9209 14.5924 23.9209 14.6821V14.7498C23.9209 14.7931 23.8993 14.8148 23.8529 14.8148L23.9209 14.8829C23.8767 14.9722 23.8529 15.0373 23.8529 15.0807V15.1483L23.7882 15.2159V15.281C23.7419 15.281 23.7419 15.3052 23.7882 15.3486C23.7882 15.4379 23.7631 15.5251 23.7202 15.6145C23.7202 15.6604 23.7419 15.6825 23.7882 15.6825V15.7476C23.7882 15.7935 23.7631 15.8152 23.7202 15.8152L23.6555 15.8803V16.013C23.6555 16.0589 23.6313 16.0811 23.5875 16.0811V16.3465L23.5228 16.4141V16.7476L23.4548 16.8803C23.4114 16.8803 23.3876 16.9236 23.3876 17.013C23.3442 17.013 23.3221 17.0589 23.3221 17.1457V17.2784C23.3221 17.3243 23.2978 17.346 23.2549 17.346V17.4791C23.2115 17.5685 23.1902 17.7012 23.1902 17.8798L23.1222 17.9449C23.1007 17.9672 23.0839 17.9936 23.0728 18.0226C23.0617 18.0515 23.0565 18.0823 23.0575 18.1133V18.2788C23.0575 18.3247 23.0324 18.3681 22.9895 18.4115V18.6122C22.9895 18.6556 22.9678 18.7016 22.9214 18.7449C22.9214 18.7909 22.8997 18.8347 22.8568 18.8776V19.0784C22.9001 19.1222 22.9001 19.146 22.8568 19.146L22.7896 19.2111V19.4765L22.7241 19.5441C22.7241 19.5901 22.6998 19.6335 22.6568 19.6769C22.7457 19.7662 22.7457 19.8096 22.6568 19.8096V19.9423C22.6568 20.032 22.6352 20.0996 22.5913 20.143C22.5913 20.189 22.5671 20.2757 22.5241 20.4089H22.5913C22.6785 20.4089 22.7457 20.3872 22.79 20.3438L22.8572 20.4089H23.123L23.2557 20.3438H23.5888C23.5888 20.3004 23.633 20.3004 23.7215 20.3438C23.7215 20.3004 23.7649 20.2762 23.8542 20.2762H24.6517C24.6972 20.2328 24.7189 20.2328 24.7189 20.2762C24.7631 20.2328 24.7869 20.2328 24.7869 20.2762H24.8516V20.2115H25.5844L25.6516 20.1434C25.6516 20.1894 25.695 20.2115 25.7843 20.2115H25.8524V20.1434C25.8958 20.1001 25.9387 20.1001 25.9851 20.1434L25.9171 20.2115H26.3832C26.4296 20.2115 26.4513 20.2332 26.4513 20.2762H26.8494C26.8949 20.2762 26.9383 20.2898 26.9847 20.3115C27.0257 20.3327 27.0712 20.3438 27.1174 20.3438H27.6478L27.8489 20.4089H27.9816L28.6486 20.5441H28.7809C28.8251 20.5007 28.8706 20.5007 28.9136 20.5441H29.0463L29.1815 20.6092C29.2687 20.6092 29.3585 20.6551 29.4474 20.7419H29.5129C29.5584 20.7419 29.6017 20.7666 29.6481 20.8095H29.7128L29.7808 20.8772C29.8242 20.921 29.8672 20.9422 29.9135 20.9422H30.1139L30.1785 21.0099L30.3112 21.1426H30.3793C30.512 21.1426 30.6451 21.2076 30.7782 21.3433C30.9135 21.3867 30.9786 21.4326 30.9786 21.476C31.022 21.476 31.0466 21.4867 31.0466 21.5084C31.0466 21.53 31.0683 21.5407 31.1113 21.5407L31.1793 21.6087C31.2657 21.6981 31.3554 21.7874 31.4443 21.8741L31.577 21.9418C31.577 21.9856 31.5987 22.0068 31.6451 22.0068L31.7144 22.143ZM2.06586 9.81839V9.75077H2.00079L2.06586 9.81839ZM2.06586 21.0779H2.00079H2.06586ZM3.59793 13.1501C3.59793 13.1934 3.61962 13.1934 3.66555 13.1501H3.59793ZM4.39756 9.61764H4.46519C4.46519 9.57425 4.44094 9.57425 4.39756 9.61764ZM7.46381 17.1465C7.46381 17.1031 7.43914 17.1031 7.39576 17.1465H7.46381ZM7.52889 17.1465C7.52889 17.1925 7.5072 17.2142 7.46381 17.2142C7.5072 17.2142 7.52889 17.1925 7.52889 17.1465ZM7.99506 17.2792V17.4145L8.06311 17.48V17.6127C8.06311 17.5693 8.0848 17.5259 8.13074 17.48C8.17413 17.4362 8.19582 17.3469 8.19582 17.2142L8.26387 17.1465V16.8811C8.30726 16.8377 8.32895 16.7697 8.32895 16.6804V16.5476H8.39658L8.46165 16.3469V16.2818C8.55097 15.9267 8.61903 15.6825 8.66241 15.5468C8.66241 15.5034 8.6841 15.4818 8.73004 15.4818C8.6841 15.5251 8.6841 15.5468 8.73004 15.5468V15.4141C8.73004 15.3707 8.75173 15.3707 8.79512 15.4141C8.8385 15.3707 8.86317 15.3707 8.86317 15.4141C8.86317 15.3707 8.88486 15.3274 8.92825 15.2814C8.97418 15.238 8.99588 15.1947 8.99588 15.1487L8.86317 15.2814V15.2163C8.90656 15.127 8.95249 15.1053 8.99588 15.1487C9.03926 15.1487 9.06393 15.127 9.06393 15.0811V14.9484L8.99588 14.8833V15.016V14.9484C8.90656 14.9484 8.86317 14.9267 8.86317 14.8833H8.79512V14.7506L8.92782 14.4822V14.1488L8.99545 14.0837V14.1488H9.06351V14.4822L8.99545 14.5498C8.95207 14.5932 8.95207 14.6149 8.99545 14.6149V14.8157H9.06351V14.7506H9.12858V14.683H9.19621C9.19621 14.5937 9.2396 14.3738 9.32892 14.016L9.46162 13.6175V13.4167C9.505 13.3734 9.505 13.3487 9.46162 13.3487L9.52925 13.216V13.1509H8.99503C8.95164 13.1943 8.95164 13.2402 8.99503 13.2836C8.99503 13.327 8.98439 13.3487 8.9627 13.3487C8.93803 13.3487 8.9274 13.3734 8.9274 13.4167V13.6175L8.79469 13.8833V14.0841H8.72962V14.2849C8.72962 14.3742 8.70537 14.4609 8.66199 14.5507V14.6834C8.6186 14.7727 8.59691 14.8408 8.59691 14.8842L8.52928 15.0169V15.1496C8.52928 15.2389 8.50759 15.3069 8.46165 15.3503V15.4835L8.39658 15.5485V15.8169C8.35064 15.8603 8.32895 15.9062 8.32895 15.9496V16.0823L8.26387 16.15V16.2818C8.26387 16.3711 8.2392 16.4362 8.19582 16.4826V16.6153C8.19582 16.6587 8.17413 16.6804 8.13074 16.6804V16.9487C8.0848 16.9921 8.06311 17.0814 8.06311 17.2146L7.99506 17.2792ZM8.39615 15.1483C8.39615 15.1049 8.37191 15.0807 8.32852 15.0807C8.32852 15.1266 8.35021 15.1483 8.39615 15.1483ZM9.06351 14.8829V14.8148C9.01714 14.8148 9.01714 14.8395 9.06351 14.8829ZM9.06351 14.9475L9.12858 14.8825V14.8144L9.06351 14.9475ZM9.72746 20.0801C9.77339 20.0341 9.79508 20.0584 9.79508 20.1447C9.79508 20.1013 9.81678 20.0801 9.86314 20.0801V20.0124C9.90652 19.9686 9.90652 19.9444 9.86314 19.9444V19.8121L9.79508 19.8797L9.72746 20.0801ZM9.79551 20.4782H9.92822V20.4106C9.92822 20.3238 9.94991 20.2562 9.99584 20.2128V20.012L10.0609 19.8793V19.944V19.8793L10.1936 19.6135C10.1936 19.5675 10.2043 19.5135 10.2289 19.445C10.2506 19.3804 10.2617 19.3234 10.2617 19.2796C10.3051 19.2362 10.3293 19.1686 10.3293 19.0788C10.4161 19.0788 10.462 18.9244 10.462 18.6127C10.5054 18.6127 10.5271 18.5905 10.5271 18.5446V18.4128C10.5705 18.326 10.5947 18.2584 10.5947 18.212C10.5947 18.1682 10.6164 18.1252 10.6598 18.0793C10.6598 17.9925 10.6845 17.9466 10.7278 17.9466V17.7458L10.9937 16.9487V16.8131C10.9937 16.7263 11.0154 16.6804 11.0613 16.6804V16.5476C11.1047 16.5043 11.1264 16.4366 11.1264 16.3469C11.1723 16.2601 11.194 16.1708 11.194 16.0811L11.2616 15.9483V15.8807C11.2616 15.8373 11.2833 15.7723 11.3267 15.6829V15.4822L11.3944 15.3495V15.2168L11.4594 15.0815V14.9488L11.5275 14.8161C11.5275 14.6834 11.5492 14.5941 11.5951 14.5503V14.3495C11.6385 14.3061 11.6602 14.2385 11.6602 14.1488L11.7282 13.951L11.7933 13.7502C11.7933 13.6609 11.815 13.6175 11.8609 13.6175V13.4172C11.9043 13.3738 11.926 13.3278 11.926 13.2845V13.2168H11.3271V13.5503L11.2621 13.6184C11.2621 13.6617 11.2378 13.7077 11.1944 13.7511V13.9514L11.1268 14.418L11.0617 14.6838V14.8846L10.9941 15.0824C10.9507 15.1717 10.929 15.2397 10.929 15.2831C10.8831 15.4618 10.861 15.5732 10.861 15.6166C10.7717 15.7059 10.7283 15.8607 10.7283 16.0832C10.639 16.0832 10.639 16.1291 10.7283 16.2159L10.6602 16.2839C10.6602 16.3273 10.6849 16.3733 10.7283 16.4166C10.6849 16.46 10.6849 16.506 10.7283 16.5494L10.6602 16.617V16.6821C10.6602 16.728 10.6385 16.7497 10.5951 16.7497C10.5492 16.7497 10.5275 16.7714 10.5275 16.8148C10.5275 16.8607 10.5492 16.8828 10.5951 16.8828L10.5275 17.0836V17.0155H10.4624L10.3944 17.1482V17.2159C10.351 17.3052 10.3293 17.3703 10.3293 17.4166C10.3727 17.5059 10.3944 17.5714 10.3944 17.6144L10.3293 17.5493H10.2617V17.7475C10.351 17.8368 10.351 17.9049 10.2617 17.9483H10.1936L10.1285 18.0159V18.081C10.1285 18.1269 10.1502 18.1486 10.1936 18.1486H10.2617L10.1936 18.2137V18.6828L10.2617 18.5472C10.2617 18.5038 10.2834 18.4825 10.3293 18.4825V18.3498H10.3944C10.3944 18.3932 10.3727 18.4498 10.3293 18.5153C10.2834 18.5829 10.2617 18.6373 10.2617 18.6837C10.2617 18.773 10.24 18.8381 10.1936 18.8815C10.2396 18.9274 10.2396 18.9491 10.1936 18.9491C10.1936 19.0388 10.1719 19.1035 10.1285 19.1499C10.1719 19.1499 10.1719 19.172 10.1285 19.2149V19.1499V19.2149L10.0609 19.2826V19.4808C10.0609 19.616 10.0392 19.7709 9.99584 19.9469C9.94991 19.9929 9.92822 20.0826 9.92822 20.2158H9.86314V20.4135L9.79551 20.4782ZM9.79551 17.8811V17.9462H9.86356V17.8135L9.79551 17.8811ZM9.92822 8.88563V9.01834L9.86314 9.08596V9.15104H10.4624C10.4624 9.06427 10.4841 8.99664 10.5275 8.95028V8.41904C10.5709 8.41904 10.5951 8.39734 10.5951 8.35141V8.2187L10.6602 8.15363L10.7283 7.75253L10.7959 7.41907V7.15323C10.8393 7.10985 10.861 7.06391 10.861 7.02053C10.9044 6.88782 10.929 6.7985 10.929 6.75214V6.61943L10.9941 6.28597V6.08819L11.0617 5.62159L11.1268 5.42084C11.1268 5.37745 11.1511 5.35321 11.1944 5.35321V5.28813C11.2378 5.28813 11.2621 5.24475 11.2621 5.15543V4.88704C11.2621 4.93297 11.2378 4.95467 11.1944 4.95467V5.01974L11.1268 5.2205C11.1268 5.26644 11.1051 5.28856 11.0617 5.28856V5.42126C11.0158 5.42126 10.9724 5.44295 10.929 5.48634V5.55397V5.15543C10.929 5.24475 10.9044 5.30982 10.861 5.35321H10.7959C10.7959 5.30982 10.8176 5.28813 10.861 5.28813V4.95424L10.7959 5.08737C10.7959 5.17669 10.75 5.3094 10.6602 5.48591C10.6168 5.57523 10.5951 5.66455 10.5951 5.7543C10.5492 5.7543 10.5275 5.77599 10.5275 5.81938V5.88743H10.4624V6.02013L10.3944 6.08819V6.42123C10.3944 6.46461 10.3838 6.51055 10.3621 6.55393C10.3397 6.59453 10.3284 6.6403 10.3293 6.68664C10.2834 6.77596 10.2834 6.81934 10.3293 6.81934C10.2834 6.86528 10.2617 6.95205 10.2617 7.08518V7.21788L10.1936 7.35357L10.1285 7.55135V7.81974C10.1285 7.90906 10.1039 8.06388 10.0609 8.2859L9.99584 8.61937V8.81715C9.99584 8.86394 9.9716 8.88563 9.92822 8.88563ZM10.129 18.4128C10.129 18.3689 10.1507 18.3477 10.1941 18.3477V18.28H10.0613L10.129 18.3477V18.4128ZM10.129 23.5444L10.1941 23.6095V23.5444H10.129ZM17.1917 23.8103H17.392C17.4358 23.7665 17.4567 23.6988 17.4567 23.6095C17.4567 23.5228 17.4792 23.4551 17.5247 23.4088V23.2761C17.3461 23.322 17.2347 23.3437 17.1917 23.3437H16.3236C16.1475 23.3875 16.0365 23.3875 15.9931 23.3437H15.3257C15.2364 23.3437 15.193 23.3654 15.193 23.4088H14.86V23.3437C14.7707 23.3437 14.7273 23.3654 14.7273 23.4088H14.4585L14.5912 23.3437H14.3934C14.2607 23.3003 14.171 23.3003 14.125 23.3437C14.0357 23.3875 13.9702 23.4088 13.9272 23.4088L13.9923 23.3437C13.9923 23.3003 13.9706 23.2761 13.9272 23.2761C13.8379 23.2761 13.7945 23.3007 13.7945 23.3437C13.7486 23.3875 13.6805 23.4088 13.5938 23.4088V23.2761H13.4611C13.4151 23.2761 13.3717 23.3007 13.3258 23.3437H13.3934V23.4088L13.3258 23.3437C13.2824 23.3875 13.1931 23.4088 13.06 23.4088L12.9949 23.4764H12.8592H12.9949L13.06 23.544H13.2607H12.661C12.661 23.5878 12.6368 23.5878 12.5934 23.544H12.3926C12.3926 23.5878 12.3709 23.5878 12.3275 23.544H12.3926H10.1941C10.1941 23.5878 10.2294 23.6091 10.2944 23.6091H11.1268C11.2161 23.6091 11.2842 23.6338 11.3276 23.6767L11.4603 23.6091H11.661L11.596 23.6767H11.661L11.9945 23.7418H13.6588C13.7022 23.7418 13.7269 23.766 13.7269 23.8094C13.8162 23.7656 13.8813 23.7418 13.9277 23.7418L14.7273 23.8094H17.1917V23.8103ZM10.3293 16.2138H10.2617L10.3293 16.1487L10.2617 16.2138H10.3293ZM10.3293 15.8803H10.3944V15.8152H10.3293V15.8803ZM10.3944 15.6825V15.8152L10.4624 15.5468H10.3944V15.6825ZM10.5275 23.4092C10.4841 23.3654 10.4624 23.3654 10.4624 23.4092H10.5275ZM10.5951 15.0156V14.8829C10.5951 14.9263 10.5709 14.948 10.5275 14.948L10.5951 15.0156ZM10.5951 16.5472V16.6149V16.5472ZM10.7278 14.549V14.4163C10.6845 14.4163 10.6845 14.4597 10.7278 14.549ZM13.3254 20.4106H13.9272H13.7945C13.8379 20.4565 13.8379 20.4782 13.7945 20.4782C13.7945 20.5241 13.8162 20.5458 13.8596 20.5458H14.0604C14.0604 20.5024 14.0821 20.4782 14.1254 20.4782H14.1931C14.2365 20.4782 14.2607 20.4888 14.2607 20.5109C14.2607 20.5352 14.2824 20.5458 14.3258 20.5458H15.3908C15.4801 20.5024 15.6128 20.4782 15.7919 20.4782H17.2555C17.3014 20.4782 17.3669 20.4565 17.4558 20.4106L17.5239 20.5458H17.7212V20.4782H17.7893L17.8565 20.5458H18.19V20.4782C18.2333 20.4348 18.2546 20.3672 18.2546 20.2774L18.3873 19.6786V19.8113C18.4307 19.7675 18.4554 19.7675 18.4554 19.8113C18.4988 19.8113 18.52 19.7891 18.52 19.7462C18.52 19.6569 18.5417 19.5918 18.5881 19.5454H18.52V19.4778C18.5664 19.4778 18.5664 19.4561 18.52 19.4127L18.5881 19.3451L18.6553 19.28V19.1473C18.6987 19.1014 18.7208 19.0121 18.7208 18.8789C18.7642 18.8355 18.788 18.7462 18.788 18.6135C18.8314 18.5238 18.8526 18.4128 18.8526 18.28C18.8526 18.2362 18.8641 18.1797 18.8884 18.1146C18.9101 18.0465 18.9424 17.9925 18.9858 17.9462C18.9858 17.7701 19.0109 17.6369 19.0538 17.5472V17.48C19.0538 17.3928 19.0755 17.3252 19.1219 17.2792V17.1465C19.1219 17.1031 19.1295 17.0598 19.1542 17.0138C19.1751 16.9727 19.1861 16.9273 19.1865 16.8811V16.8131L19.2537 16.748V16.4821C19.2537 16.4362 19.2763 16.3711 19.3192 16.2814C19.3626 16.3248 19.3864 16.3031 19.3864 16.2133C19.4307 16.2133 19.4519 16.1916 19.4519 16.1483V15.9475L19.5191 15.8799V15.7472C19.5634 15.7472 19.5872 15.7255 19.5872 15.6821V15.4813H19.5191H19.5872L19.6518 15.3486V15.2159L19.7199 15.1483V14.8829C19.7633 14.8395 19.7845 14.7936 19.7845 14.7502C19.8279 14.7042 19.8279 14.6825 19.7845 14.6825C19.8279 14.6392 19.8526 14.5715 19.8526 14.4818V14.3491C19.9415 14.2598 19.9853 14.1271 19.9853 13.9505V13.8829C20.0287 13.8395 20.0525 13.7936 20.0525 13.7502C20.0959 13.6609 20.118 13.6064 20.118 13.5822V13.2832L20.1852 13.2156H20.0525C20.007 13.2615 19.9853 13.2615 19.9853 13.2156H19.7237L19.6557 13.2832H19.523V13.2156H19.4558C19.4115 13.2615 19.3231 13.2832 19.1899 13.2832C19.1465 13.2832 19.1253 13.3049 19.1253 13.3483H18.9892V13.2832C18.9892 13.1939 18.9458 13.1939 18.8565 13.2832H18.1934L18.1253 13.3483H18.0564L17.8578 13.2832H17.392C17.3465 13.2398 17.3027 13.2398 17.2568 13.2832H15.5924C15.5924 13.3266 15.5707 13.3266 15.5244 13.2832H15.125C15.0816 13.2832 15.014 13.2615 14.9242 13.2156V13.2832H14.7264C14.6805 13.3266 14.6125 13.3266 14.5257 13.2832H13.7933C13.7933 13.3266 13.7686 13.3483 13.7256 13.3483L13.5929 13.2832H13.1923C13.1029 13.1939 13.0595 13.1939 13.0595 13.2832H12.8588C12.8154 13.2398 12.7937 13.2398 12.7937 13.2832H12.661V13.549L12.5934 13.6171V13.9505L12.5283 14.0832C12.4824 14.0832 12.4602 14.1266 12.4602 14.216C12.4143 14.216 12.3926 14.2593 12.3926 14.3487V14.4814C12.3926 14.5273 12.3709 14.549 12.3275 14.549V14.6817C12.3275 14.7251 12.3169 14.7927 12.2948 14.8825C12.2705 14.9718 12.2378 15.0369 12.1944 15.0802V15.1479C12.1724 15.1693 12.155 15.1951 12.1433 15.2235C12.1317 15.252 12.1261 15.2826 12.1268 15.3133V15.4818C12.1268 15.5256 12.1051 15.5711 12.0617 15.6145V15.8152C12.0617 15.8586 12.0481 15.8803 12.0264 15.8803C12.0047 15.8803 11.9937 15.9045 11.9937 15.9479C11.9937 15.9913 11.972 16.0372 11.926 16.0806V16.2818C11.972 16.3252 11.972 16.3469 11.926 16.3469L11.8609 16.4145V16.6799L11.7933 16.7476C11.7933 16.7909 11.7716 16.8369 11.7282 16.8803V17.1457C11.7282 17.235 11.7036 17.303 11.6602 17.3464C11.6168 17.3464 11.5951 17.3681 11.5951 17.4141V17.6118L11.5275 17.8126V17.9453L11.4594 18.0129V18.078L11.5275 18.1456L11.3948 18.2107V18.4791H11.3271V18.6118L11.2621 18.7445V18.9453L11.1944 19.0104L11.1268 19.2787C11.1268 19.3225 11.1051 19.3685 11.0617 19.4114L11.1268 19.3438L11.0617 19.4114V19.6118L10.9941 19.6769C11.0375 19.7228 11.0375 19.7879 10.9941 19.8776L10.929 19.9423V20.0779C10.8831 20.1673 10.8503 20.2434 10.8287 20.311C10.8079 20.3638 10.7968 20.4198 10.7959 20.4765H10.9937C11.3948 20.4331 11.6172 20.4089 11.6606 20.4089H13.3254V20.4106ZM11.0613 13.2832V13.2156H10.9937V13.3483C10.9937 13.3942 10.972 13.4376 10.9286 13.4839V13.549L10.8606 13.6817C10.8606 13.7711 10.8822 13.8144 10.9286 13.8144V13.9497C10.972 13.9497 10.9937 13.9038 10.9937 13.8144C11.0371 13.8144 11.0613 13.7927 11.0613 13.7494C11.0613 13.706 11.0371 13.6817 10.9937 13.6817C10.9937 13.5486 11.0154 13.4159 11.0613 13.2832ZM10.9937 4.82154V4.95424L11.0613 4.88661V4.75391L10.9937 4.82154ZM10.9937 5.01974V5.0878V4.95509V5.01974ZM11.0613 4.68883V4.75391C11.1047 4.75391 11.1264 4.73222 11.1264 4.68883C11.1723 4.59951 11.1723 4.53146 11.1264 4.48807C11.1264 4.53188 11.1047 4.59951 11.0613 4.68883ZM11.1944 4.42044H11.1268C11.1728 4.46638 11.1944 4.46638 11.1944 4.42044ZM11.2621 12.2828H11.1944V12.3504H11.2621V12.2828ZM11.3948 2.42221C11.3488 2.42221 11.3271 2.4439 11.3271 2.49026C11.3271 2.44433 11.3488 2.42221 11.3948 2.42221ZM11.3948 23.4092L11.3271 23.4768H11.5955L11.6606 23.4092H11.5955L11.3948 23.3441V23.4092ZM11.4599 2.1568V2.22188C11.5032 2.17849 11.5032 2.1568 11.4599 2.1568ZM11.5955 12.1497H11.6606L11.5955 12.082V12.1497H11.5279H11.5955ZM11.5955 12.3504H11.6606H11.5955C11.5955 12.3938 11.6172 12.4155 11.6606 12.4155H12.1268C12.1268 12.3721 12.1485 12.3287 12.1944 12.2828H11.5955V12.3504ZM11.9941 8.75292V8.88563C11.9941 8.92902 11.9724 8.97495 11.9264 9.01834V9.15104H11.9941V8.95028C12.0375 8.95028 12.0617 8.9069 12.0617 8.81758C12.0617 8.77419 12.1051 8.61979 12.1944 8.35141C12.2378 8.30802 12.2595 8.26464 12.2595 8.2187C12.2161 8.17532 12.2161 8.15363 12.2595 8.15363V8.08557C12.2595 8.04219 12.2812 8.01794 12.3275 8.01794V7.88524C12.3275 7.84185 12.3492 7.70915 12.3926 7.4867C12.4386 7.35399 12.4602 7.23192 12.4602 7.12091C12.4602 7.00989 12.4713 6.93121 12.493 6.88782C12.5148 6.84596 12.5268 6.79973 12.5283 6.75257V6.22089H12.4602V6.55436V6.4863H12.3926V6.81977C12.3492 6.90909 12.3275 6.97714 12.3275 7.02053V7.0856C12.2816 7.13154 12.2595 7.19704 12.2595 7.28636V7.4867L12.0617 7.88524H11.9941V7.82016C11.9941 7.77678 12.0158 7.75253 12.0617 7.75253V7.61983C12.0158 7.66321 11.9941 7.70915 11.9941 7.75253C11.9481 7.93117 11.9264 8.04261 11.9264 8.086L12.1272 8.15405L12.0621 8.35183V8.55259C12.0617 8.64149 12.0375 8.70954 11.9941 8.75292ZM12.0617 7.55177C12.0158 7.55177 11.9941 7.57602 11.9941 7.6194L12.0617 7.55177ZM12.2599 6.3536V6.42123V6.3536C12.2599 6.31021 12.2816 6.28555 12.328 6.28555C12.2816 6.28555 12.2599 6.31021 12.2599 6.3536ZM12.9268 6.81977L12.8588 7.02053C12.8161 7.14908 12.7941 7.28361 12.7937 7.41907V7.4867V7.21831C12.8371 7.17493 12.8588 7.10985 12.8588 7.02053V6.88782C12.8588 6.84189 12.8698 6.82019 12.8941 6.82019C12.9158 6.82019 12.9268 6.7985 12.9268 6.75257C12.9268 6.6658 12.9051 6.61986 12.8588 6.61986V6.42208C12.8154 6.59859 12.7695 6.75299 12.7261 6.88825L12.661 6.95332V7.08603L12.7261 7.15408L12.661 7.28679C12.661 7.37611 12.6368 7.41949 12.5934 7.41949V7.48712C12.5934 7.61983 12.5717 7.6849 12.5283 7.6849C12.5283 7.86397 12.5036 7.99668 12.4602 8.086C12.3709 8.17532 12.3926 8.2187 12.5283 8.2187L12.4602 8.41946C12.4143 8.50878 12.4143 8.57386 12.4602 8.62022L12.3926 8.75292V8.88563L12.3275 8.95071C12.3275 9.04003 12.3029 9.10808 12.2595 9.15147H12.5279L12.8584 9.08639C12.8584 9.04045 12.883 9.01876 12.9264 9.01876C12.9264 8.97538 12.9481 8.86436 12.994 8.6853V8.55259C13.0374 8.55259 13.0591 8.51984 13.0591 8.45221V8.086C13.1025 8.04261 13.1272 7.99668 13.1272 7.95329L13.1923 7.28636V7.0856C13.1923 6.99884 13.2139 6.9529 13.2599 6.9529V6.82019L13.1923 6.75257C13.1923 6.7985 13.1706 6.82019 13.1272 6.82019V6.42208H13.0591V6.75299C13.0157 6.75299 12.994 6.77724 12.994 6.82062V6.95332C12.9945 6.90951 12.9702 6.86571 12.9268 6.81977ZM12.3926 14.1479V14.216C12.4386 14.1726 12.4386 14.1479 12.3926 14.1479ZM12.4602 23.0106H12.3926C12.3926 23.054 12.4143 23.054 12.4602 23.0106ZM12.4602 13.6817V13.6167C12.4143 13.6167 12.4143 13.6383 12.4602 13.6817ZM12.4602 22.8779H12.5934H12.4602ZM12.5934 1.55495V1.48987L12.5283 1.55495H12.5934ZM12.5934 1.0237V1.08878C12.6827 1.00201 12.7478 0.956074 12.7941 0.956074C12.7941 0.91269 12.8158 0.869305 12.8592 0.823369L12.9273 0.690664H12.9949H12.9268C12.8835 0.779984 12.8154 0.86973 12.7261 0.956499C12.6827 0.956499 12.661 0.97011 12.661 0.991802C12.661 1.01349 12.6368 1.0237 12.5934 1.0237ZM12.9268 6.15284V6.08776L12.8588 6.15284H12.9268ZM12.8588 6.22047V6.35317L12.9268 6.22047V6.15284L12.8588 6.22047ZM13.5938 12.017H13.5261L13.4611 11.9489V12.017H13.3258C13.3258 12.0603 13.3501 12.082 13.3934 12.082H13.3258C13.3258 12.128 13.2931 12.1497 13.2284 12.1497H12.9268V12.2177H12.9945L13.0595 12.2828C13.1489 12.2394 13.2139 12.2394 13.2603 12.2828H12.9268V12.3504C12.8835 12.3504 12.8588 12.3938 12.8588 12.4831V12.4155V12.4831C12.9047 12.4831 12.9268 12.4614 12.9268 12.4155H12.9945L13.0595 12.4831C13.0595 12.4397 13.0812 12.4155 13.1276 12.4155H13.1927C13.2361 12.4614 13.3037 12.4831 13.3934 12.4831H13.9272L14.7269 12.5508H17.1908C17.2342 12.5508 17.2666 12.5401 17.2908 12.5155C17.3125 12.4938 17.3452 12.4827 17.3908 12.4827C17.4779 12.4827 17.5451 12.5044 17.5885 12.5503H19.0551L19.1231 12.4827H19.1878C19.2775 12.572 19.3205 12.572 19.3205 12.4827L19.3877 12.5503H19.5204L19.5885 12.4827C19.6319 12.4827 19.6748 12.5044 19.7212 12.5503H19.987L20.0542 12.4827H20.1197V12.5503C20.1631 12.5044 20.2086 12.5044 20.252 12.5503H20.32L20.3881 12.2169V12.0812C20.3881 11.9485 20.4098 11.8617 20.4528 11.8154C20.4528 11.7286 20.4744 11.661 20.5208 11.6146L20.4528 11.5495H20.1873V11.4819C20.0546 11.4819 19.987 11.5066 19.987 11.5495H19.7858C19.7424 11.5495 19.6961 11.5712 19.6531 11.6146L19.5885 11.5495L19.5204 11.6146H18.6561C18.6995 11.6605 18.7888 11.6822 18.922 11.6822C18.9653 11.6388 19.0117 11.6146 19.0547 11.6146L19.3877 11.6822C19.4319 11.6388 19.4775 11.6388 19.5204 11.6822H19.7858C19.6531 11.6822 19.6314 11.7282 19.7212 11.8149H19.987C20.0304 11.7715 20.0542 11.7715 20.0542 11.8149L19.987 11.8826H19.8543C19.8977 11.8826 19.8977 11.9042 19.8543 11.9476V11.8826H19.5885C19.5421 11.8826 19.5204 11.9042 19.5204 11.9476H18.8539L18.7216 12.0157C18.6774 11.9723 18.6102 11.9476 18.5204 11.9476C18.4307 11.9476 18.3661 11.9723 18.3227 12.0157H17.6557C17.3899 12.0591 17.233 12.0591 17.1896 12.0157C17.1896 12.0591 17.1215 12.0808 16.9884 12.0808H15.991C15.8987 11.994 15.7443 11.994 15.5218 12.0808H15.3257C15.2364 12.0808 15.193 12.1054 15.193 12.1484H14.86C14.86 12.105 14.8358 12.0808 14.7924 12.0808C14.749 12.0808 14.7273 12.1054 14.7273 12.1484H14.4585L14.5912 12.0808L14.3934 12.0157H14.125C14.0357 12.0591 13.9702 12.0808 13.9272 12.0808H13.9923C13.9923 12.0374 13.9706 12.0157 13.9272 12.0157C13.8379 12.0157 13.7945 12.0374 13.7945 12.0808H13.5938C13.6372 12.0387 13.6372 12.017 13.5938 12.017ZM12.9945 0.424403L12.9268 0.489479H12.9945V0.424403ZM12.9945 0.622185L13.0595 0.557108L12.9945 0.622185ZM13.1276 12.017C13.0817 12.017 13.0817 12.0387 13.1276 12.082H13.1927V12.017H13.1276ZM13.1923 0.489479C13.1489 0.489479 13.1272 0.513723 13.1272 0.557108L13.325 0.424403L13.2599 0.356349C13.2599 0.402285 13.2492 0.424403 13.2276 0.424403C13.2033 0.424403 13.1923 0.446095 13.1923 0.489479ZM13.1276 23.3441L13.1927 23.4092V23.3441C13.2361 23.3441 13.2361 23.3224 13.1927 23.2765L13.1276 23.3441ZM13.3254 0.291272V0.356349C13.3713 0.312965 13.393 0.267028 13.393 0.223644C13.4364 0.223644 13.4606 0.201952 13.4606 0.15559C13.4606 0.201526 13.4364 0.223644 13.393 0.223644C13.3496 0.223644 13.3254 0.245336 13.3254 0.291272ZM17.1917 21.479H17.9909C17.9909 21.4352 18.0015 21.3676 18.0241 21.2782C18.0458 21.1885 18.0564 21.1017 18.0564 21.0124L18.1236 20.9448H17.791C17.7013 20.9448 17.6583 20.9695 17.6583 21.0124C17.6128 21.0124 17.5902 20.9907 17.5902 20.9448H17.5247L17.4567 21.0124H17.392C17.3465 20.969 17.3027 20.9448 17.2568 20.9448H16.8587C16.8131 20.9448 16.7693 20.9695 16.726 21.0124H13.6584C13.5691 21.0124 13.5257 21.0341 13.5257 21.0775H13.4606L13.393 21.1451H13.4606C13.5474 21.1885 13.6584 21.2102 13.7941 21.2102H15.5916L15.5235 21.2778H15.6592L15.7243 21.3454V21.4101H15.9927L15.8574 21.3459C15.9931 21.3459 16.0365 21.3676 15.9931 21.4105C15.9931 21.4565 16.0148 21.4786 16.0582 21.4786H16.1909V21.4105H16.2585C16.2126 21.4105 16.1692 21.3888 16.1258 21.3459H16.1909C16.1475 21.2999 16.1475 21.2782 16.1909 21.2782V21.2106H16.7898L16.925 21.1455H16.9897V21.2106H16.925V21.2782H16.5243C16.481 21.2782 16.481 21.2999 16.5243 21.3459H16.4593C16.4133 21.3459 16.3699 21.3676 16.3236 21.4105H16.3916V21.4786H17.1917V21.479ZM13.7265 9.75077H13.5257V9.81839C13.4823 9.81839 13.4606 9.84009 13.4606 9.88347H13.6261C13.6937 9.88347 13.7482 9.90814 13.7941 9.95152L13.8592 9.88347H13.9919C14.0353 9.92941 14.0812 9.92941 14.1246 9.88347H14.4581V9.95152H15.5916H15.5235V10.0192H15.6592L15.7243 10.0842C15.8136 10.1736 15.9008 10.1952 15.9927 10.1523H15.9246C15.8787 10.1523 15.857 10.1306 15.857 10.0842C15.9927 10.0842 16.0361 10.1089 15.9927 10.1523C15.9927 10.1957 16.0144 10.2174 16.0577 10.2174L16.1254 10.1523H16.2581C16.2121 10.1523 16.1905 10.1306 16.1905 10.0842H16.1254H16.1905C16.1471 10.0408 16.1471 9.99746 16.1905 9.95152V9.88347H16.9897H16.925V10.0192H16.5243L16.4593 10.0842H16.3236L16.3916 10.1523C16.3916 10.1957 16.4133 10.2174 16.4593 10.2174H17.7906C17.834 10.174 17.8578 10.174 17.8578 10.2174L17.9905 10.1523H18.8556C18.8556 10.1957 18.9883 10.1957 19.2567 10.1523H19.6552C19.6986 10.1523 19.7233 10.174 19.7233 10.2174C19.9449 10.174 20.0997 10.1523 20.1895 10.1523H20.7883V10.0196C20.8326 9.93026 20.8326 9.8622 20.7883 9.81882C20.7883 9.77544 20.799 9.75119 20.8215 9.75119C20.8432 9.75119 20.8564 9.7295 20.8564 9.68611V9.61849L20.7883 9.55341H20.4557C20.366 9.64273 20.323 9.64273 20.323 9.55341H20.1227L19.7237 9.61849H18.4588C18.4124 9.66442 18.369 9.68611 18.3261 9.68611H15.9935L15.9255 9.75119H15.592C15.5486 9.70781 15.5027 9.68611 15.4593 9.68611C15.4134 9.7295 15.37 9.75119 15.3266 9.75119H15.1939L15.0582 9.68611L14.9931 9.75119H13.7265V9.75077ZM13.5261 11.6159H13.4611L13.5261 11.6835H13.5938L13.5261 11.6159ZM13.5261 22.8779L13.4611 22.9426H13.5938C13.5474 22.9426 13.5261 22.9213 13.5261 22.8779ZM13.6588 20.4782H13.5261C13.5261 20.5246 13.5691 20.5246 13.6588 20.4782ZM13.5938 9.21909L13.6588 9.15147H13.5938V9.21909ZM13.6588 9.21909H13.5938H13.6588ZM13.5938 20.4782C13.5938 20.5241 13.6155 20.5241 13.6588 20.4782H13.5938ZM14.2607 3.08956C14.3041 3.08956 14.3258 3.04618 14.3258 2.95686L14.2607 3.08956ZM14.3934 2.82075L14.3258 2.8888L14.3934 2.82075L14.5261 2.62297V2.49026C14.5261 2.53365 14.5014 2.55534 14.4581 2.55534L14.393 2.68805V2.82075H14.3934ZM14.9246 12.082C14.968 12.082 14.9927 12.0603 14.9927 12.017C14.9463 12.017 14.9246 12.0387 14.9246 12.082ZM14.9246 23.3441V23.4092V23.3441ZM14.9927 13.2156V13.2832V13.2156ZM15.3257 11.6835H15.2581H15.3257ZM15.2581 23.0106V22.9426H15.3257H15.2581V23.0106ZM15.5916 11.6835C15.5482 11.6401 15.5023 11.6401 15.4589 11.6835H15.5916ZM15.6596 11.6835V11.6159L15.592 11.6835H15.6596ZM15.5916 22.9426H15.6592H15.5916ZM15.8574 11.6835L15.7923 11.6159H15.7243L15.6592 11.6835H15.9927L15.9246 11.6159L15.8574 11.6835ZM15.8574 22.9426H15.7243L15.6592 23.0102C15.7464 22.9673 15.814 22.9426 15.8574 22.9426H15.9931L15.925 22.8779C15.925 22.9213 15.9008 22.9426 15.8574 22.9426ZM16.3916 10.2169H16.1909H16.3916ZM16.3916 21.479H16.1909H16.3916ZM16.5924 11.6835C16.5924 11.6401 16.5677 11.6159 16.5248 11.6159L16.5924 11.6835ZM16.5924 22.9426L16.5248 22.8779V22.9426H16.5924ZM16.8578 28.6064V28.5417C16.8119 28.5847 16.8119 28.6064 16.8578 28.6064ZM16.9905 11.6835H17.1232V11.6159L16.9905 11.6835ZM17.1236 22.9426C17.0803 22.8992 17.0343 22.8992 16.9909 22.9426H17.1236ZM17.4567 21.479C17.5009 21.5224 17.5247 21.5224 17.5247 21.479H17.4567ZM17.5894 22.8779L17.5247 22.9426C17.5677 22.9426 17.5894 22.9213 17.5894 22.8779ZM17.7225 11.7511H17.6579V11.6835C17.5681 11.7728 17.5898 11.8162 17.7225 11.8162H17.8578V11.7511C17.9905 11.7052 18.1453 11.6835 18.3248 11.6835H18.5221L18.5902 11.6159H18.3248L18.2567 11.6835C18.2567 11.6401 18.235 11.6159 18.1921 11.6159H17.7914L17.7234 11.6835V11.7511H17.7225ZM17.9233 31.4072L17.8578 31.3392C17.8578 31.3825 17.8803 31.4072 17.9233 31.4072ZM18.3894 20.0124H18.4575V19.9444C18.4575 19.9903 18.4328 20.0124 18.3894 20.0124ZM21.1227 13.2832H21.0546V13.2156H20.9219C20.8785 13.2615 20.8573 13.2615 20.8573 13.2156H20.722C20.6322 13.2156 20.5676 13.2398 20.5242 13.2832V13.3483L20.4562 13.4163V13.6171L20.3915 13.7498C20.3451 13.8391 20.3235 13.9939 20.3235 14.2164C20.2779 14.2164 20.2554 14.227 20.2554 14.2487V14.6149C20.212 14.6149 20.1907 14.6396 20.1907 14.683C20.1452 14.7264 20.1235 14.7723 20.1235 14.8157V14.9484C20.1235 15.0377 20.101 15.0811 20.058 15.0811V15.5468C20.058 15.5928 20.0449 15.6145 20.0232 15.6145C20.0015 15.6145 19.9908 15.6362 19.9908 15.6825C19.9908 15.7718 19.9691 15.8369 19.9253 15.8803V15.9479C19.8798 15.9913 19.8798 16.0372 19.9253 16.0806V16.2133L19.8581 16.2814V16.4141C19.8143 16.4959 19.7909 16.5871 19.7901 16.6799C19.7467 16.7259 19.7254 16.7909 19.7254 16.8807H19.6574V17.0814C19.6574 17.1708 19.6357 17.2575 19.5927 17.3473C19.5927 17.4804 19.5685 17.5914 19.5247 17.6807C19.5247 17.7705 19.503 17.8135 19.4575 17.8135V18.1469L19.392 18.212V18.2796C19.392 18.3689 19.3677 18.4366 19.3248 18.4804V18.6131C19.2814 18.6565 19.2593 18.7024 19.2593 18.7458V18.8785L19.1921 18.9461V19.0788C19.1921 19.1686 19.1704 19.2362 19.1274 19.2796V19.4774C19.081 19.5233 19.0593 19.6126 19.0593 19.7458C19.016 19.7891 18.9913 19.8785 18.9913 20.0116L18.9266 20.0792V20.2119L18.9913 20.2766V20.4093C18.9913 20.3659 19.0164 20.3225 19.0593 20.2766C19.1027 20.2332 19.1274 20.1439 19.1274 20.0112L19.1921 19.9431V19.8104C19.2354 19.7666 19.2354 19.7236 19.1921 19.6777C19.2354 19.6339 19.2593 19.5663 19.2593 19.4769C19.3035 19.4331 19.3248 19.3902 19.3248 19.3442L19.392 19.146V19.0784C19.4817 18.7232 19.5464 18.4795 19.5931 18.3464C19.5931 18.303 19.6148 18.2788 19.6578 18.2788V18.2111C19.6578 18.1673 19.6795 18.1673 19.7259 18.2111C19.7692 18.1673 19.7905 18.1673 19.7905 18.2111C19.7905 18.1673 19.8122 18.1244 19.8586 18.0784C19.9019 18.0346 19.9258 17.9917 19.9258 17.9457L19.7905 18.0784C19.8339 18.0784 19.8586 18.0567 19.8586 18.0134C19.8586 17.924 19.8802 17.9023 19.9258 17.9457C19.97 17.9457 19.9913 17.924 19.9913 17.8807V17.7454L19.9258 17.6803V17.813V17.7454C19.8335 17.7454 19.7905 17.7237 19.7905 17.6803H19.7237C19.7237 17.6369 19.7454 17.591 19.7884 17.5476C19.7884 17.4583 19.8101 17.369 19.8564 17.2797V17.2146C19.8564 17.0819 19.8781 16.9926 19.9236 16.9487V16.8811V16.9487H19.9891V17.2797L19.9236 17.3473V17.4804C19.9236 17.5259 19.9453 17.5697 19.9891 17.6131V17.548H20.0563V17.4808H20.1218C20.1218 17.3936 20.1652 17.1712 20.2541 16.8135L20.3902 16.4149V16.2138C20.4336 16.1704 20.4336 16.1487 20.3902 16.1487H20.4549V16.013C20.4549 15.9262 20.4766 15.8586 20.5229 15.8152V15.5468L20.5876 15.3491C20.631 15.3057 20.6548 15.2704 20.6548 15.2487V15.1483L20.7875 14.7498V14.5494C20.8317 14.506 20.8555 14.4384 20.8555 14.3487C20.8555 14.3053 20.8772 14.2836 20.9202 14.2836C20.9202 14.0611 20.9419 13.9284 20.9883 13.8825C20.9883 13.706 21.0099 13.5733 21.0529 13.4839C21.0546 13.3942 21.0763 13.3266 21.1227 13.2832ZM19.2567 13.2832C19.2567 13.2398 19.2325 13.2156 19.1895 13.2156V13.2832H19.2567ZM19.3222 17.9462C19.3222 17.9028 19.3005 17.8811 19.2567 17.8811L19.3222 17.9462ZM19.7237 18.212V18.2796C19.7667 18.2362 19.7667 18.212 19.7237 18.212ZM19.7884 31.0738C19.7884 31.0299 19.7667 31.0061 19.7237 31.0061C19.7237 31.0521 19.7454 31.0738 19.7884 31.0738ZM20.1223 13.0174L20.1895 12.9493L20.0568 13.0174H19.9241C19.9683 13.0607 20.0113 13.0824 20.0568 13.0824H20.1223V13.0174ZM19.9896 17.6803V17.6127C19.9453 17.6127 19.9453 17.6374 19.9896 17.6803ZM19.9896 17.7458L20.0568 17.6807V17.6131L19.9896 17.7458ZM20.7216 13.2156C20.7216 13.1722 20.6782 13.1722 20.5889 13.2156H20.7216ZM20.6556 23.7426C20.7428 23.5661 20.81 23.3875 20.8568 23.211H20.7888C20.7433 23.2548 20.6999 23.4092 20.6561 23.6776V23.7426H20.5889H20.6556ZM21.3885 11.9493H20.7883V12.2177L20.7211 12.4155V12.4831H21.2554V12.4155C21.2987 12.4155 21.3226 12.3938 21.3226 12.3504V12.2828C21.3226 12.2394 21.3443 12.196 21.3881 12.1501V11.9493H21.3885ZM20.7216 22.9426L20.7888 22.8779H20.7216V22.9426ZM20.8568 22.8779V22.9426H20.9215V22.8099C20.9215 22.8558 20.8998 22.8779 20.8568 22.8779ZM20.9215 11.5508V11.6159H21.1227C21.0763 11.6159 21.0435 11.6078 21.0223 11.5831C21.0006 11.5619 20.9649 11.5508 20.9215 11.5508ZM21.0546 21.2106L21.1227 21.1455V21.0779H20.99L21.0546 21.1455V21.2106ZM21.5212 20.8121L21.1222 20.8797H21.0542C21.0542 20.9235 21.0759 20.9448 21.1222 20.9448H21.1869L21.1222 21.0124V21.411H21.1869V21.3463L21.2549 21.2787V21.146H21.3221C21.2787 21.2277 21.2556 21.3188 21.2549 21.4114H21.3876C21.431 21.4114 21.4548 21.3897 21.4548 21.3467V21.2115C21.4982 21.1247 21.5203 21.0566 21.5203 21.0133C21.5203 20.9699 21.531 20.9456 21.5552 20.9456C21.5769 20.9456 21.5876 20.9239 21.5876 20.8806V20.8129H21.5212V20.8121ZM21.1873 9.88347C21.1873 9.97577 21.1656 10.0625 21.1227 10.1519H21.5212C21.5646 10.1085 21.6101 10.0838 21.6535 10.0838H21.7215V9.9511C21.7649 9.90772 21.7896 9.86178 21.7896 9.81839L21.8542 9.55256H21.2554V9.61764C21.2116 9.664 21.1873 9.75077 21.1873 9.88347ZM21.1227 11.6159H21.2554C21.2111 11.6159 21.1873 11.5942 21.1873 11.5508C21.1873 11.5942 21.1656 11.6159 21.1227 11.6159ZM23.522 13.2832V13.0829C23.4756 13.0829 23.4539 13.0612 23.4539 13.0178C23.4539 13.0612 23.3867 13.0829 23.2536 13.0829H23.0558L22.9878 13.1505C22.9422 13.1939 22.9197 13.3049 22.9197 13.4839L22.8551 13.8149V13.8825C22.8551 13.9284 22.8308 13.9501 22.7879 13.9501L22.7223 14.0152L22.6551 13.9501H22.5896V13.8149H22.5224V13.6822C22.5658 13.6388 22.5896 13.5737 22.5896 13.4844V13.3487C22.5896 13.3946 22.5654 13.438 22.5224 13.4844V13.6175H22.4544V13.951H22.3897V14.0837L22.3217 14.1488C22.2783 14.1488 22.257 14.1734 22.257 14.2168V14.751H22.189V15.0164C22.189 15.0598 22.1673 15.0815 22.1243 15.0815V15.2818L22.0563 15.3495V15.5473C22.0563 15.5932 22.032 15.6149 21.9891 15.6149V15.6829H22.0563L22.1243 15.4822V15.3495L22.189 15.016L22.257 14.8833V14.8153H22.3217V14.6145H22.3897V14.6825H22.4544L22.5224 14.4818V14.3491C22.5658 14.395 22.5896 14.4384 22.5896 14.4818C22.5441 14.5277 22.5224 14.5711 22.5224 14.6145H22.5896C22.5441 14.6145 22.5224 14.6392 22.5224 14.6825V15.1483C22.5224 15.1942 22.5118 15.2159 22.4901 15.2159C22.465 15.2159 22.4544 15.2376 22.4544 15.281V15.3486C22.4544 15.4813 22.4327 15.5711 22.3897 15.6145V15.7472C22.3434 15.7931 22.3217 15.8582 22.3217 15.9479C22.2783 15.9913 22.257 16.0589 22.257 16.1487V16.2818C22.257 16.3252 22.2328 16.3711 22.189 16.4145C22.189 16.4579 22.1673 16.5038 22.1243 16.5472V16.7476L22.0563 17.2137L21.9891 17.4796V17.6799L21.9236 17.8807C21.8781 17.9704 21.8564 18.0351 21.8564 18.0789C21.813 18.2579 21.7917 18.3689 21.7917 18.4123C21.702 18.5016 21.6556 18.656 21.6556 18.8785C21.5667 18.8785 21.5667 18.9244 21.6556 19.0112L21.591 19.0788C21.591 19.1226 21.6126 19.1686 21.6556 19.2115V19.3442L21.591 19.4119V19.4769C21.591 19.5229 21.5667 19.5446 21.5238 19.5446C21.4795 19.5446 21.4582 19.5663 21.4582 19.6122C21.4582 19.656 21.4799 19.6773 21.5238 19.6773L21.4582 19.878V19.7453C21.4127 19.7887 21.391 19.8568 21.391 19.9431C21.3013 20.0329 21.2583 20.1222 21.2583 20.2119C21.3017 20.3012 21.3255 20.3663 21.3255 20.4097V20.3446H21.1903V20.4773H21.3255C21.5016 20.434 21.6131 20.434 21.656 20.4773L21.9244 19.7453V19.6126C21.9687 19.6126 21.9899 19.5909 21.9899 19.545V19.3447C22.0333 19.3009 22.0571 19.2362 22.0571 19.1465C22.1014 19.0571 22.1252 18.9678 22.1252 18.8781L22.1898 18.7454V18.6807C22.1898 18.6348 22.2115 18.5693 22.2579 18.48V18.2792L22.3225 18.1465V18.0138L22.3906 17.8811V17.7458L22.4552 17.6131C22.4552 17.5697 22.4769 17.4804 22.5233 17.3473V17.1465C22.5667 17.1031 22.5905 17.0381 22.5905 16.9487L22.656 16.748L22.7232 16.5472L22.7887 16.4145V16.2138C22.8321 16.1704 22.8559 16.127 22.8559 16.0811V15.8807C22.8993 15.8807 22.9206 15.859 22.9206 15.8156C22.9206 15.7263 22.9431 15.6612 22.9886 15.6149V15.4141L23.0567 15.2814C23.0567 15.1947 23.0784 15.127 23.1213 15.0807V14.8829C23.1647 14.8395 23.1894 14.7719 23.1894 14.6821V14.6141C23.2328 14.5707 23.2328 14.549 23.1894 14.549H23.254V14.4163L23.3212 14.2836V13.9501C23.3655 13.8608 23.3867 13.7494 23.3867 13.6167C23.4322 13.5733 23.4539 13.5052 23.4539 13.4159C23.4535 13.3266 23.4752 13.2832 23.522 13.2832ZM21.323 18.6811V18.6135H21.2558L21.323 18.6811ZM21.2554 18.8138C21.2987 18.8138 21.3226 18.77 21.3226 18.6811C21.3226 18.7245 21.2983 18.7458 21.2554 18.7458V18.8138ZM21.2554 18.9466V19.0116V18.9466ZM21.323 9.15147V9.21909C21.4557 9.21909 21.5433 9.1974 21.5888 9.15147H21.8547L21.9219 9.08639V8.88563L21.9874 8.61979C21.9874 8.48411 22.0091 8.41904 22.0546 8.41904V8.21828C22.0546 8.17489 22.0771 8.1532 22.1226 8.1532V8.08515C22.166 8.08515 22.1873 8.04176 22.1873 7.95244V7.68363C22.2315 7.72956 22.2315 7.75168 22.1873 7.75168L22.1226 7.81931V8.01709C22.0771 8.06303 22.0303 8.08472 21.9874 8.08472V8.21743C21.944 8.21743 21.8976 8.2421 21.8547 8.28505V8.35013V7.95159C21.8547 8.04091 21.833 8.10599 21.79 8.15235H21.722C21.722 8.10641 21.7437 8.0843 21.79 8.0843V8.01667C21.79 7.88396 21.8117 7.81888 21.8547 7.81888L21.79 7.75126L21.722 7.88396C21.722 7.97328 21.6786 8.10641 21.5893 8.28505C21.5437 8.37438 21.522 8.46157 21.522 8.55089C21.4778 8.55089 21.4565 8.57258 21.4565 8.61852V8.6836H21.3893V8.8163L21.3238 8.88393V9.15147H21.323ZM21.3885 11.6159V11.5508L21.323 11.6159H21.4557V11.5508L21.3885 11.6159ZM21.323 18.4804V18.6131L21.3885 18.3472H21.323V18.4804ZM21.5212 17.8135V17.6807C21.5212 17.7246 21.4987 17.7458 21.4557 17.7458L21.5212 17.8135ZM21.5212 19.3451V19.4127V19.3451ZM21.5212 19.4131V19.4782H21.5884L21.5212 19.4131ZM25.254 23.3441L25.4526 23.2765V23.2114H25.2871C25.2191 23.2114 25.1868 23.2335 25.1868 23.2765H24.9209L24.9856 23.2114H24.3216H24.6517L24.7869 23.1438H25.0523C25.1387 23.1438 25.1851 23.1221 25.1851 23.0791H25.2523C25.2965 23.0791 25.3394 23.0545 25.385 23.0111H24.718L24.6508 23.0791H24.3854C24.342 23.0332 24.2957 23.0111 24.2527 23.0111H23.7198C23.5871 23.0111 23.522 23.0549 23.522 23.1438H23.4539C23.3212 23.1004 23.2323 23.1004 23.1889 23.1438H22.3213C22.2779 23.1438 22.2779 23.1684 22.3213 23.2114H21.7215V23.2765C21.6781 23.4555 21.6318 23.6099 21.5888 23.7431H22.5888L22.7215 23.678H23.9877C23.9877 23.6346 24.0966 23.6104 24.3216 23.6104C24.5411 23.6104 24.6521 23.5887 24.6521 23.5453H24.9851C25.0285 23.5453 25.0532 23.5347 25.0532 23.51C25.0532 23.4883 25.0749 23.4777 25.1178 23.4777C25.1178 23.4343 25.0962 23.41 25.0532 23.41C25.0966 23.41 25.1178 23.3883 25.1178 23.345H25.254V23.3441ZM21.6535 17.2792V17.2142C21.6101 17.2142 21.6101 17.2358 21.6535 17.2792ZM21.9874 15.8803H22.0546L21.9874 15.8152V15.8803H21.9219V16.1487C21.9219 16.1921 21.8976 16.238 21.8547 16.2814V16.3465C21.8113 16.3924 21.79 16.4358 21.79 16.4821L21.8547 16.6149V16.7476C21.898 16.7476 21.9444 16.7042 21.9874 16.6149V16.5472C21.9874 16.5038 21.9657 16.4821 21.9219 16.4821C21.9219 16.3465 21.9444 16.2138 21.9874 16.0811V15.8803ZM23.522 22.7452H23.3208C23.2753 22.7452 23.2102 22.7559 23.1205 22.7776C23.0307 22.7993 22.9661 22.7882 22.9193 22.7452C22.8733 22.7456 22.828 22.7567 22.787 22.7776C22.7428 22.7993 22.6756 22.7882 22.5884 22.7452C22.5429 22.7452 22.4995 22.7669 22.4531 22.8099H21.8547V22.8779H22.8546C22.898 22.8341 22.9661 22.8099 23.0558 22.8099H23.3208C23.365 22.8099 23.3863 22.8346 23.3863 22.8779H23.5216C23.5649 22.8341 23.5862 22.8341 23.5862 22.8779H24.2527C24.3854 22.8779 24.5079 22.8673 24.6189 22.8452C24.7295 22.8209 24.8082 22.7993 24.8516 22.7776C24.8928 22.7568 24.9382 22.7458 24.9843 22.7452L25.1855 22.6776H25.5185V22.6125H25.1859V22.6776V22.6125C25.1395 22.6125 25.1178 22.6342 25.1178 22.6776H24.1864C23.9639 22.6776 23.8308 22.6555 23.7874 22.6125L23.852 22.5449L23.9201 22.6125V22.5449H24.0528C24.0086 22.5011 23.9631 22.5011 23.9201 22.5449H23.5862L23.522 22.7452ZM21.9219 7.6194V7.75211L21.9874 7.68405V7.55135L21.9219 7.6194ZM21.9219 7.82016V7.88524V7.75253V7.82016ZM21.9874 7.4867V7.55177C22.0308 7.55177 22.0546 7.53008 22.0546 7.4867C22.0988 7.39738 22.1226 7.3323 22.1226 7.28594H22.0546C22.0546 7.3323 22.0308 7.39738 21.9874 7.4867ZM22.1226 7.21831H22.0546C22.0988 7.26467 22.1226 7.26467 22.1226 7.21831ZM22.3204 5.22008C22.277 5.22008 22.2558 5.24475 22.2558 5.28813C22.2558 5.24475 22.2774 5.22008 22.3204 5.22008ZM26.3198 21.1455C26.4062 21.1455 26.4742 21.1238 26.5202 21.0779H26.1187C26.0753 21.0779 26.0298 21.0558 25.9864 21.0128H25.9183C25.8749 20.9695 25.8069 20.9452 25.7206 20.9452C25.8069 20.9014 25.9613 20.8801 26.1867 20.8801C26.1412 20.8342 26.097 20.8125 26.0515 20.8125H25.9188V20.7449H25.9868L26.0515 20.8125L26.2518 20.7449H26.3198H26.1187L25.9864 20.6798H25.7206L25.5194 20.6122H25.3867C25.3867 20.5688 25.3624 20.5471 25.3195 20.5471H25.1868C25.1404 20.5909 25.0753 20.6122 24.9856 20.6122H24.7202C24.4986 20.6122 24.3871 20.6368 24.3871 20.6798H23.3863L22.5888 20.7449L22.4535 20.8125V20.9452L22.3889 21.0128V21.0779L22.3208 21.2106V21.2782H22.2562V21.3459C22.3425 21.3893 22.4106 21.3893 22.454 21.3459H22.6551C22.6985 21.3459 22.744 21.3212 22.7879 21.2782H22.9197C22.9661 21.3216 23.0095 21.3216 23.0558 21.2782L23.1205 21.3459H23.1885L23.5866 21.2782H24.0537C24.0537 21.2344 24.097 21.2106 24.1864 21.2106H24.3216C24.4543 21.2106 24.5875 21.1885 24.7197 21.1455H25.721C25.7644 21.1017 25.8073 21.0779 25.8537 21.0779H25.9864L26.051 21.1455H26.3198ZM22.5888 13.2832C22.633 13.2832 22.633 13.2615 22.5888 13.2156V13.2832ZM22.7874 12.4155C22.7874 12.3287 22.8091 12.2177 22.8546 12.082L22.9193 11.9493V11.8843H22.8546C22.8091 11.9276 22.8091 11.9736 22.8546 12.017C22.8091 12.0603 22.7874 12.128 22.7874 12.2177V12.4155ZM22.9197 11.5508H22.9878V11.4832C22.9878 11.5291 22.9661 11.5508 22.9197 11.5508ZM23.3863 9.4173C23.3429 9.46324 23.3208 9.53129 23.3208 9.61806C23.2753 9.70738 23.2536 9.77544 23.2536 9.81882V9.8839L23.1889 9.95195V10.0196H23.3867C23.3867 9.75119 23.411 9.59637 23.4539 9.55341V9.41773H23.3863V9.4173ZM23.3208 12.4155H23.6547L23.7193 12.3504C23.7627 12.307 23.7874 12.2394 23.7874 12.1497V11.9489L23.852 11.8838V11.7511H23.7193C23.5866 11.7511 23.5216 11.7728 23.5216 11.8162H23.2532C23.2098 11.9489 23.1885 12.0382 23.1885 12.082V12.4155H23.3208ZM23.9205 11.2173C23.6981 11.2173 23.5866 11.239 23.5866 11.285L23.522 11.4177C23.4322 11.4177 23.3867 11.4394 23.3867 11.4827L23.3212 11.5504H23.3867C23.3867 11.5938 23.4322 11.6154 23.522 11.6154H23.5866C23.6309 11.5721 23.6764 11.5721 23.7193 11.6154C23.7627 11.5721 23.8091 11.5504 23.852 11.5504L23.9201 11.4827V11.4177L23.7874 11.3496C23.741 11.3062 23.7623 11.2845 23.852 11.2845H23.9201L23.9873 11.2169H23.9205V11.2173ZM23.3863 17.0134V16.9483H23.3208C23.3208 16.9921 23.3433 17.0134 23.3863 17.0134ZM23.3863 9.01876V9.08639H23.4535V9.01876H23.3863ZM23.522 4.35537V4.28774L23.4539 4.35537H23.522ZM23.522 3.82114V3.8892C23.6083 3.79988 23.6764 3.75352 23.7198 3.75352L23.7878 3.68844C23.8312 3.59912 23.8767 3.53404 23.9205 3.48768H23.8525C23.8091 3.577 23.741 3.66632 23.6547 3.75352C23.6083 3.75352 23.5866 3.76713 23.5866 3.78882C23.5866 3.81051 23.5649 3.82114 23.522 3.82114ZM23.7878 9.4173H23.7198L23.6551 9.68569L23.5871 9.75077V9.88347L23.6551 9.95152V10.0192L23.7878 9.95152V9.68611C23.7878 9.64273 23.7985 9.61849 23.8201 9.61849C23.8418 9.61849 23.8525 9.59679 23.8525 9.55341C23.8525 9.46324 23.8308 9.4173 23.7878 9.4173ZM23.7878 14.6821V14.6141V14.6821H23.7198V14.549H23.6551V14.6817H23.7198V14.7493L23.6551 14.8144L23.7878 14.6821ZM23.8525 8.95071V8.88563L23.7878 8.95071H23.8525ZM23.8525 9.01876V8.95113L23.7878 9.01876H23.8525ZM24.0537 9.4173H23.9882V9.61806C23.9882 9.664 23.9639 9.70738 23.9209 9.75077V9.61806C23.9209 9.664 23.8993 9.68569 23.8529 9.68569L23.7882 9.81839V9.9511H24.1213L24.1868 9.75034V9.61764L24.1213 9.55256C24.1213 9.59594 24.097 9.61764 24.0541 9.61764V9.4173H24.0537ZM23.9205 3.22227L23.8525 3.28735H23.9205V3.22227ZM23.9205 24.3415V24.2769L23.8525 24.3415H23.9205ZM23.9205 3.4226L24.0532 3.35497L23.9205 3.4226ZM24.1209 3.28735C24.0753 3.28735 24.0537 3.31159 24.0537 3.35497L24.254 3.22227L24.1868 3.15464C24.1868 3.20058 24.1753 3.22227 24.1536 3.22227C24.1319 3.22227 24.1209 3.24396 24.1209 3.28735ZM24.0537 22.4768V22.5445C24.097 22.5445 24.1209 22.5228 24.1209 22.4768H24.0537ZM24.1209 8.75292V8.818C24.1638 8.818 24.1638 8.79631 24.1209 8.75292ZM24.2536 3.08956H24.3216L24.2536 3.15464C24.2969 3.11126 24.3216 3.06787 24.3216 3.02194C24.365 3.02194 24.3863 3.00024 24.3863 2.95686C24.3863 3.00024 24.3646 3.02194 24.3216 3.02194C24.2753 3.02151 24.2536 3.04618 24.2536 3.08956ZM25.254 12.017H25.4526V11.9489C25.4084 11.9948 25.3628 12.017 25.3199 12.017H24.9213L24.986 11.9489C24.9426 11.9489 24.9213 11.9408 24.9213 11.9166C24.9213 11.8949 24.875 11.8838 24.7886 11.8838C24.6989 11.9272 24.61 11.9489 24.5202 11.9489C24.5202 12.0382 24.4986 12.1063 24.4556 12.1497V12.2824H24.8537L24.9864 12.2173H25.1191V12.1492H25.0545L25.1191 12.0816H25.2544V12.017H25.254ZM24.9856 11.8843H25.0536C25.14 11.8843 25.1863 11.8626 25.1863 11.8166C25.2297 11.7732 25.2978 11.7516 25.3867 11.7516C25.2978 11.7516 25.14 11.7299 24.9205 11.6839H24.8524L24.7878 11.7516H24.6525C24.6091 11.7949 24.5628 11.7949 24.5198 11.7516V11.8843H24.9856ZM25.0536 11.35H24.6525L24.5879 11.4181V11.5508C24.764 11.5074 24.8971 11.4832 24.986 11.4832L25.1872 11.4181C25.2761 11.4615 25.3875 11.4398 25.5202 11.35C25.5202 11.3066 25.496 11.3066 25.453 11.35H25.0536ZM24.8524 11.1493H24.7878C24.8312 11.1956 24.8524 11.1956 24.8524 11.1493ZM25.1868 9.28417H25.1187V9.35223L25.054 9.28417H24.9213V9.41688L24.986 9.55256C24.9426 9.59594 24.9213 9.64188 24.9213 9.68526V9.88304H25.2544L25.7214 9.81797H26.0519V9.88304C26.0974 9.88304 26.1633 9.86135 26.2522 9.81797C26.2522 9.86135 26.2965 9.88304 26.3849 9.88304C26.4747 9.88304 26.5202 9.86135 26.5202 9.81797H26.1187C26.0753 9.81797 26.0298 9.79628 25.9864 9.75034H25.9183C25.8749 9.70696 25.8286 9.68526 25.7856 9.68526L25.721 9.61764C25.9868 9.61764 26.1412 9.59594 26.1871 9.55256H25.9188V9.48451H26.3198C26.2301 9.44112 26.1629 9.41688 26.1187 9.41688C25.9864 9.41688 25.8537 9.39518 25.7206 9.3518H25.3195V9.28375H25.1868V9.28417ZM24.9856 8.818V8.95071H25.0536C25.0536 8.90732 25.0285 8.86394 24.9856 8.818ZM25.1868 5.88743C25.2301 5.88743 25.254 5.84405 25.254 5.75473L25.1868 5.88743ZM25.3195 5.62159L25.254 5.68667L25.3195 5.62159L25.4522 5.42084V5.28813C25.4522 5.33152 25.4296 5.35321 25.3867 5.35321L25.3195 5.48591V5.62159ZM25.254 11.1493H25.3867H25.254ZM25.254 22.4768H25.3195C25.3628 22.4768 25.3867 22.4547 25.3867 22.4118H25.3195L25.254 22.4768ZM25.5853 11.7511H25.6525L25.5853 11.6835L25.4526 11.7511H25.5853ZM25.5853 23.0106H25.6525H25.4526C25.4526 23.054 25.4955 23.054 25.5853 23.0106ZM25.6525 11.6835C25.6525 11.7294 25.6742 11.7511 25.7206 11.7511V11.6835H25.6525ZM26.3198 9.55256H26.2518C26.2956 9.59594 26.3198 9.59594 26.3198 9.55256ZM26.4526 9.55256H26.3845V9.61764C26.5198 9.61764 26.5857 9.59594 26.5857 9.55256H26.4526ZM26.3845 20.8797H26.5857L26.453 20.8121L26.3845 20.8797ZM26.5857 9.55256V9.61764H26.8515C26.8073 9.57425 26.7184 9.55256 26.5857 9.55256ZM26.8515 20.8797H26.5857H26.8515ZM26.9187 9.55256C26.8732 9.59594 26.8732 9.61764 26.9187 9.61764V9.55256ZM28.8519 20.6113C28.8953 20.6113 28.9165 20.5896 28.9165 20.5462H28.8519V20.6113ZM28.9846 12.2828H28.9165H29.1177H28.9846ZM28.9846 23.5444H28.9165C28.9608 23.5883 29.028 23.6095 29.1177 23.6095C29.0709 23.5661 29.028 23.5444 28.9846 23.5444ZM29.1849 20.6113L29.1177 20.6789C29.1607 20.6789 29.1849 20.6573 29.1849 20.6113ZM29.2504 12.2828H29.1849C29.1849 12.3287 29.2292 12.3504 29.3176 12.3504H29.5835C29.4937 12.3504 29.4265 12.3287 29.3831 12.2828H29.2504ZM29.5163 23.6776H29.5835C29.5835 23.6342 29.5618 23.6099 29.5163 23.6099H29.1853H29.3181L29.5163 23.6776ZM29.8493 12.749L29.7846 12.6839C29.7846 12.7273 29.8063 12.749 29.8493 12.749ZM30.0505 10.2846L30.1177 10.2169H29.9824L30.0505 10.2846ZM29.9824 21.479L30.0505 21.5437H30.1177L30.0505 21.479H29.9824ZM30.5839 10.1519H30.5166L30.5839 10.2169C30.6281 10.2629 30.671 10.2846 30.7166 10.2846C30.7608 10.2846 30.8038 10.3063 30.8493 10.3526C30.8926 10.396 30.939 10.4177 30.982 10.4177C30.8033 10.3284 30.6919 10.2633 30.6489 10.2169L30.5839 10.1519ZM30.9828 21.6768C30.8042 21.59 30.6927 21.5441 30.6498 21.5441L30.5843 21.4794L30.5171 21.4114C30.6068 21.5011 30.6715 21.5441 30.7174 21.5441C30.7616 21.59 30.8046 21.6121 30.8501 21.6121C30.8931 21.6117 30.9394 21.6334 30.9828 21.6768ZM31.0509 10.4177V10.4853C31.0943 10.5287 31.1155 10.5287 31.1155 10.4853L31.0509 10.4177ZM31.1155 21.812L31.0509 21.7444L31.1155 21.812ZM31.1836 10.5504L31.3163 10.6831V10.618L31.2482 10.55H31.1836V10.5504ZM31.3167 21.9452V21.8775H31.2487L31.184 21.8125L31.3167 21.9452ZM31.4486 10.6831H31.3839C31.4711 10.6831 31.5166 10.7078 31.5166 10.7507H31.5813H31.5166C31.5166 10.6614 31.4928 10.6397 31.4486 10.6831ZM31.5166 22.0103L31.5813 22.0779V22.0103H31.5166C31.5166 21.9669 31.4924 21.9452 31.4486 21.9452V22.0103L31.3839 21.9452L31.5166 22.0103Z" fill="#489FB5"/>
<path d="M36.924 17.144C36.924 15.2027 37.344 13.476 38.184 11.964C39.024 10.4334 40.1906 9.24804 41.684 8.40804C43.196 7.54938 44.904 7.12004 46.808 7.12004C49.1413 7.12004 51.1386 7.73604 52.8 8.96804C54.4613 10.2 55.572 11.88 56.132 14.008H50.868C50.476 13.1867 49.916 12.5614 49.188 12.132C48.4786 11.7027 47.6666 11.488 46.752 11.488C45.2773 11.488 44.0826 12.0014 43.168 13.028C42.2533 14.0547 41.796 15.4267 41.796 17.144C41.796 18.8614 42.2533 20.2334 43.168 21.26C44.0826 22.2867 45.2773 22.8 46.752 22.8C47.6666 22.8 48.4786 22.5854 49.188 22.156C49.916 21.7267 50.476 21.1014 50.868 20.28H56.132C55.572 22.408 54.4613 24.088 52.8 25.32C51.1386 26.5334 49.1413 27.14 46.808 27.14C44.904 27.14 43.196 26.72 41.684 25.88C40.1906 25.0214 39.024 23.836 38.184 22.324C37.344 20.812 36.924 19.0854 36.924 17.144Z" fill="#4F4F4F"/>
<path d="M68.9201 27.196C67.0721 27.196 65.3734 26.7667 63.8241 25.908C62.2934 25.0494 61.0707 23.8547 60.1561 22.324C59.2601 20.7747 58.8121 19.0387 58.8121 17.116C58.8121 15.1934 59.2601 13.4667 60.1561 11.936C61.0707 10.4054 62.2934 9.21071 63.8241 8.35204C65.3734 7.49338 67.0721 7.06404 68.9201 7.06404C70.7681 7.06404 72.4574 7.49338 73.9881 8.35204C75.5374 9.21071 76.7507 10.4054 77.6281 11.936C78.5241 13.4667 78.9721 15.1934 78.9721 17.116C78.9721 19.0387 78.5241 20.7747 77.6281 22.324C76.7321 23.8547 75.5187 25.0494 73.9881 25.908C72.4574 26.7667 70.7681 27.196 68.9201 27.196ZM68.9201 22.828C70.4881 22.828 71.7387 22.3054 72.6721 21.26C73.6241 20.2147 74.1001 18.8334 74.1001 17.116C74.1001 15.38 73.6241 13.9987 72.6721 12.972C71.7387 11.9267 70.4881 11.404 68.9201 11.404C67.3334 11.404 66.0641 11.9174 65.1121 12.944C64.1787 13.9707 63.7121 15.3614 63.7121 17.116C63.7121 18.852 64.1787 20.2427 65.1121 21.288C66.0641 22.3147 67.3334 22.828 68.9201 22.828Z" fill="#4F4F4F"/>
<path d="M86.9838 23.304H93.2558V27H82.1958V7.34404H86.9838V23.304Z" fill="#4F4F4F"/>
<path d="M108.336 23.528H101L99.8235 27H94.8115L101.924 7.34404H107.468L114.58 27H109.512L108.336 23.528ZM107.104 19.832L104.668 12.636L102.26 19.832H107.104Z" fill="#4F4F4F"/>
<path d="M129.204 16.92C130.343 17.1627 131.257 17.732 131.948 18.628C132.639 19.5054 132.984 20.5134 132.984 21.652C132.984 23.2947 132.405 24.6014 131.248 25.572C130.109 26.524 128.513 27 126.46 27H117.304V7.34404H126.152C128.149 7.34404 129.708 7.80138 130.828 8.71604C131.967 9.63071 132.536 10.872 132.536 12.44C132.536 13.5974 132.228 14.5587 131.612 15.324C131.015 16.0894 130.212 16.6214 129.204 16.92ZM122.092 15.296H125.228C126.012 15.296 126.609 15.128 127.02 14.792C127.449 14.4374 127.664 13.924 127.664 13.252C127.664 12.58 127.449 12.0667 127.02 11.712C126.609 11.3574 126.012 11.18 125.228 11.18H122.092V15.296ZM125.62 23.136C126.423 23.136 127.039 22.9587 127.468 22.604C127.916 22.2307 128.14 21.6987 128.14 21.008C128.14 20.3174 127.907 19.776 127.44 19.384C126.992 18.992 126.367 18.796 125.564 18.796H122.092V23.136H125.62Z" fill="#4F4F4F"/>
<path d="M145.589 27.196C143.778 27.196 142.126 26.776 140.633 25.936C139.14 25.0774 137.954 23.892 137.077 22.38C136.218 20.8494 135.789 19.132 135.789 17.228C135.789 15.324 136.218 13.616 137.077 12.104C137.954 10.5734 139.14 9.38804 140.633 8.54804C142.126 7.68938 143.778 7.26004 145.589 7.26004C147.418 7.26004 149.08 7.68938 150.573 8.54804C152.066 9.38804 153.242 10.564 154.101 12.076C154.96 13.588 155.389 15.3054 155.389 17.228C155.389 19.1507 154.96 20.868 154.101 22.38C153.242 23.892 152.066 25.0774 150.573 25.936C149.08 26.776 147.418 27.196 145.589 27.196ZM145.589 24.984C146.952 24.984 148.174 24.6667 149.257 24.032C150.358 23.3974 151.217 22.492 151.833 21.316C152.468 20.14 152.785 18.7774 152.785 17.228C152.785 15.66 152.468 14.2974 151.833 13.14C151.217 11.964 150.368 11.0587 149.285 10.424C148.202 9.78938 146.97 9.47204 145.589 9.47204C144.208 9.47204 142.976 9.78938 141.893 10.424C140.81 11.0587 139.952 11.964 139.317 13.14C138.701 14.2974 138.393 15.66 138.393 17.228C138.393 18.7774 138.701 20.14 139.317 21.316C139.952 22.492 140.81 23.3974 141.893 24.032C142.994 24.6667 144.226 24.984 145.589 24.984Z" fill="#4F4F4F"/>
<path d="M169.589 27L164.941 19.02H161.861V27H159.313V7.48404H165.613C167.087 7.48404 168.329 7.73604 169.337 8.24004C170.364 8.74404 171.129 9.42538 171.633 10.284C172.137 11.1427 172.389 12.1227 172.389 13.224C172.389 14.568 171.997 15.7534 171.213 16.78C170.447 17.8067 169.29 18.488 167.741 18.824L172.641 27H169.589ZM161.861 16.976H165.613C166.994 16.976 168.03 16.64 168.721 15.968C169.411 15.2774 169.757 14.3627 169.757 13.224C169.757 12.0667 169.411 11.1707 168.721 10.536C168.049 9.90138 167.013 9.58404 165.613 9.58404H161.861V16.976Z" fill="#4F4F4F"/>
<path d="M188.444 22.66H179.932L178.364 27H175.676L182.732 7.59604H185.672L192.7 27H190.012L188.444 22.66ZM187.716 20.588L184.188 10.732L180.66 20.588H187.716Z" fill="#4F4F4F"/>
<path d="M202.215 6.64404L201.655 20.056H197.595L197.035 6.64404H202.215ZM199.695 27.224C198.855 27.224 198.165 26.9814 197.623 26.496C197.101 25.992 196.839 25.376 196.839 24.648C196.839 23.9014 197.101 23.276 197.623 22.772C198.165 22.268 198.855 22.016 199.695 22.016C200.517 22.016 201.188 22.268 201.711 22.772C202.252 23.276 202.523 23.9014 202.523 24.648C202.523 25.376 202.252 25.992 201.711 26.496C201.188 26.9814 200.517 27.224 199.695 27.224Z" fill="#4F4F4F"/>
</svg>
