<svg width="25" height="25" viewBox="0 0 25 25" fill="none" xmlns="http://www.w3.org/2000/svg">
<path d="M12.4884 6.08218C8.94155 6.08218 6.07905 8.94468 6.07905 12.4916C6.07905 16.0384 8.94155 18.9009 12.4884 18.9009C16.0353 18.9009 18.8978 16.0384 18.8978 12.4916C18.8978 8.94468 16.0353 6.08218 12.4884 6.08218ZM12.4884 16.6572C10.1947 16.6572 8.3228 14.7853 8.3228 12.4916C8.3228 10.1978 10.1947 8.32593 12.4884 8.32593C14.7822 8.32593 16.6541 10.1978 16.6541 12.4916C16.6541 14.7853 14.7822 16.6572 12.4884 16.6572ZM19.1603 4.32593C18.3322 4.32593 17.6634 4.99468 17.6634 5.8228C17.6634 6.65093 18.3322 7.31968 19.1603 7.31968C19.9884 7.31968 20.6572 6.65405 20.6572 5.8228C20.6574 5.62616 20.6189 5.4314 20.5437 5.24968C20.4686 5.06796 20.3584 4.90285 20.2193 4.7638C20.0803 4.62476 19.9151 4.51451 19.7334 4.43937C19.5517 4.36423 19.3569 4.32568 19.1603 4.32593ZM24.9822 12.4916C24.9822 10.7666 24.9978 9.05718 24.9009 7.3353C24.8041 5.3353 24.3478 3.5603 22.8853 2.0978C21.4197 0.632179 19.6478 0.179054 17.6478 0.0821795C15.9228 -0.0146955 14.2134 0.000929513 12.4916 0.000929513C10.7666 0.000929513 9.05718 -0.0146955 7.3353 0.0821795C5.3353 0.179054 3.5603 0.635304 2.0978 2.0978C0.632179 3.56343 0.179054 5.3353 0.0821795 7.3353C-0.0146955 9.0603 0.000929513 10.7697 0.000929513 12.4916C0.000929513 14.2134 -0.0146955 15.9259 0.0821795 17.6478C0.179054 19.6478 0.635305 21.4228 2.0978 22.8853C3.56343 24.3509 5.3353 24.8041 7.3353 24.9009C9.0603 24.9978 10.7697 24.9822 12.4916 24.9822C14.2166 24.9822 15.9259 24.9978 17.6478 24.9009C19.6478 24.8041 21.4228 24.3478 22.8853 22.8853C24.3509 21.4197 24.8041 19.6478 24.9009 17.6478C25.0009 15.9259 24.9822 14.2166 24.9822 12.4916ZM22.2322 19.8603C22.0041 20.4291 21.7291 20.8541 21.2884 21.2916C20.8478 21.7322 20.4259 22.0072 19.8572 22.2353C18.2134 22.8884 14.3103 22.7416 12.4884 22.7416C10.6666 22.7416 6.7603 22.8884 5.11655 22.2384C4.5478 22.0103 4.1228 21.7353 3.6853 21.2947C3.24468 20.8541 2.96968 20.4322 2.74155 19.8634C2.09155 18.2166 2.23843 14.3134 2.23843 12.4916C2.23843 10.6697 2.09155 6.76343 2.74155 5.11968C2.96968 4.55093 3.24468 4.12593 3.6853 3.68843C4.12593 3.25093 4.5478 2.9728 5.11655 2.74468C6.7603 2.09468 10.6666 2.24155 12.4884 2.24155C14.3103 2.24155 18.2166 2.09468 19.8603 2.74468C20.4291 2.9728 20.8541 3.2478 21.2916 3.68843C21.7322 4.12905 22.0072 4.55093 22.2353 5.11968C22.8853 6.76343 22.7384 10.6697 22.7384 12.4916C22.7384 14.3134 22.8853 18.2166 22.2322 19.8603Z" fill="#397D8F"/>
</svg>
