<svg width="64" height="64" viewBox="0 0 64 64" fill="none" xmlns="http://www.w3.org/2000/svg">
<g clip-path="url(#clip0)">
<rect width="64" height="64" rx="32" fill="#E4ECF7"/>
<g clip-path="url(#clip1)">
<circle cx="18" cy="37" r="5" fill="#F5D0C5"/>
<path d="M18 41H35V65.8705C35 65.8705 31.3571 68 26.5 68C21.6429 68 18 64.5226 18 64.5226V41Z" fill="#F5D0C5"/>
<path d="M35.0002 53.8677C35.0002 59.5216 31.5 59.9995 28.3832 58.9864C25.2665 57.9732 19 49.1534 19 43.4995C19 37.8456 19.7841 37.9999 24.4131 37.9999C37.5002 38.4999 35.0002 48.2138 35.0002 53.8677Z" fill="#EAC0B3"/>
<path d="M45.8859 36.0992C45.8859 45.0216 41.9985 55 35.4985 56.5C25.9985 55.5 17.4285 45.0216 17.4285 36.0992C15.0001 25.5 15.5001 13 32.0001 13C48.5001 13 45.8859 27.1767 45.8859 36.0992Z" fill="#F5D0C5"/>
<rect x="36" y="41" width="3" height="2" rx="1" fill="#F5D0C5"/>
</g>
<g clip-path="url(#clip2)">
<rect x="7" y="60" width="40" height="23" rx="9" fill="#3633E0"/>
<path d="M17 58H36V61C36 61 31 62 26.5 62C22 62 17 61 17 61V58Z" fill="#3633E0"/>
<path d="M17 58H36V60C36 60 33 61.5 26.5 61.5C20 61.5 17 60 17 60V58Z" fill="#362ABC"/>
<path d="M16.5 59C16.5 57.8954 17.3954 57 18.5 57H34.5C35.6046 57 36.5 57.8954 36.5 59C36.5 59 31.5 60 26.5 60C21.5 60 16.5 59 16.5 59Z" fill="#3633E0"/>
</g>
<g clip-path="url(#clip3)">
<path fill-rule="evenodd" clip-rule="evenodd" d="M48 25C48 22.6362 47.5344 20.2956 46.6298 18.1117C45.7252 15.9278 44.3994 13.9435 42.7279 12.2721C41.0565 10.6006 39.0722 9.27475 36.8883 8.37017C34.7044 7.46558 32.3638 7 30 7C27.6362 7 25.2956 7.46558 23.1117 8.37017C20.9278 9.27475 18.9435 10.6006 17.2721 12.2721C15.6006 13.9435 14.2748 15.9278 13.3702 18.1117C12.5295 20.1412 12.068 22.306 12.007 24.4991L12 24.5V25V65H23V34.5975C25.4847 34.1193 29.7793 33.0675 35.2083 30.8407C40.6717 28.5996 44.0812 26.4823 45.8758 25.2039C46.1179 27.7278 46.0341 30.3637 45.9562 32.8148C45.9198 33.96 45.8846 35.0649 45.8846 36.0992C45.8846 36.5069 45.8765 36.9167 45.8604 37.3279C46.0914 37.255 46.3074 37.1751 46.4988 37.0877C47.9988 36.4035 47.9988 35.4912 47.9988 35.4912V25H48ZM15 33C14.8111 33.1416 14.6321 33.2968 14.4645 33.4645C14.0002 33.9288 13.6319 34.48 13.3806 35.0866C13.1293 35.6932 13 36.3434 13 37C13 37.6566 13.1293 38.3068 13.3806 38.9134C13.6319 39.52 14.0002 40.0712 14.4645 40.5355C14.6321 40.7032 14.8111 40.8584 15 41V33Z" fill="#AD3A20"/>
</g>
<path d="M28.9287 46C28.9287 45.4477 29.3764 45 29.9287 45H39.0716C39.6239 45 40.0716 45.4477 40.0716 46C40.0716 48.7614 37.833 51 35.0716 51H33.9287C31.1673 51 28.9287 48.7614 28.9287 46Z" fill="#66253C"/>
<path fill-rule="evenodd" clip-rule="evenodd" d="M36.7548 50.7095C36.2288 50.8975 35.6622 50.9999 35.0716 50.9999H33.9287C31.2342 50.9999 29.0375 48.8686 28.9326 46.1998C29.6966 45.914 30.8307 45.9469 31.9501 45.9794C32.3057 45.9897 32.6598 45.9999 33.0001 45.9999C35.2093 45.9999 37.0001 47.5669 37.0001 49.4999C37.0001 49.9251 36.9135 50.3326 36.7548 50.7095Z" fill="#B03E67"/>
<path d="M30 45H40V46C40 46.5523 39.5523 47 39 47H31C30.4477 47 30 46.5523 30 46V45Z" fill="white"/>
<rect x="30" y="35" width="3" height="4" rx="1.5" fill="#1B0B47"/>
<rect x="40" y="35" width="3" height="4" rx="1.5" fill="#1B0B47"/>
</g>
<defs>
<clipPath id="clip0">
<rect width="64" height="64" rx="32" fill="white"/>
</clipPath>
<clipPath id="clip1">
<rect width="64" height="64" fill="white"/>
</clipPath>
<clipPath id="clip2">
<rect width="64" height="64" fill="white"/>
</clipPath>
<clipPath id="clip3">
<rect width="64" height="64" fill="white"/>
</clipPath>
</defs>
</svg>
