<svg width="26" height="29" viewBox="0 0 26 29" fill="none" xmlns="http://www.w3.org/2000/svg">
<path d="M12.0951 28.6843C13.2927 28.6654 14.4419 28.3572 15.3395 27.8143C16.2372 27.2713 16.8253 26.5285 17 25.7173H7C7.17961 26.5505 7.79529 27.3108 8.73251 27.8565C9.66974 28.4023 10.8647 28.6965 12.0951 28.6843Z" fill="#333333"/>
<path d="M24.2502 21.34L23.9736 21.0985C23.1886 20.4068 22.5016 19.6136 21.931 18.7403C21.3078 17.5351 20.9343 16.2188 20.8324 14.8689V10.8929C20.8291 10.41 20.7856 9.9281 20.7022 9.45222C19.3238 9.172 18.0856 8.42926 17.1973 7.34975C16.309 6.27024 15.8252 4.9203 15.8278 3.52846V3.0214C14.9781 2.60785 14.0653 2.33591 13.1261 2.21654V1.20242C13.1261 0.917445 13.0116 0.644145 12.8079 0.44264C12.6041 0.241134 12.3278 0.12793 12.0397 0.12793C11.7516 0.12793 11.4752 0.241134 11.2715 0.44264C11.0678 0.644145 10.9533 0.917445 10.9533 1.20242V2.25678C8.8503 2.55019 6.92562 3.5862 5.53461 5.17353C4.14359 6.76087 3.38017 8.79235 3.38527 10.8929V14.8689C3.28335 16.2188 2.90985 17.5351 2.28668 18.7403C1.7259 19.6114 1.04992 20.4045 0.276681 21.0985L0 21.34V23.6097H24.2502V21.34Z" fill="#333333"/>
<path d="M22 7.91298C24.2091 7.91298 26 6.1416 26 3.95649C26 1.77138 24.2091 0 22 0C19.7909 0 18 1.77138 18 3.95649C18 6.1416 19.7909 7.91298 22 7.91298Z" fill="#FD5454"/>
</svg>
