<svg width="26" height="28" viewBox="0 0 26 28" fill="none" xmlns="http://www.w3.org/2000/svg">
<path d="M13.1809 27.7221C13.6935 27.7104 14.1854 27.5206 14.5697 27.186C14.9539 26.8515 15.2056 26.3938 15.2804 25.894H11C11.0769 26.4074 11.3404 26.8758 11.7416 27.2121C12.1428 27.5483 12.6542 27.7296 13.1809 27.7221Z" fill="#333333"/>
<path d="M24.2502 22.0293L23.9736 21.7887C23.1886 21.0997 22.5016 20.3095 21.931 19.4396C21.3078 18.2389 20.9343 16.9278 20.8324 15.5831V11.6223C20.8291 11.1412 20.7856 10.6612 20.7022 10.1872C19.3238 9.90801 18.0856 9.16813 17.1973 8.09276C16.309 7.0174 15.8252 5.67264 15.8278 4.28615V3.78104C14.9781 3.36908 14.0653 3.09818 13.1261 2.97927V1.96904C13.1261 1.68516 13.0116 1.41291 12.8079 1.21218C12.6041 1.01145 12.3278 0.898682 12.0397 0.898682C11.7516 0.898682 11.4752 1.01145 11.2715 1.21218C11.0678 1.41291 10.9533 1.68516 10.9533 1.96904V3.01936C8.8503 3.31164 6.92562 4.34367 5.53461 5.92491C4.14359 7.50614 3.38017 9.52982 3.38527 11.6223V15.5831C3.28335 16.9278 2.90985 18.2389 2.28668 19.4396C1.7259 20.3073 1.04992 21.0974 0.276681 21.7887L0 22.0293V24.2902H24.2502V22.0293Z" fill="#333333"/>
<path d="M21.9312 8.29525C24.1783 8.29525 26 6.50044 26 4.28642C26 2.0724 24.1783 0.277588 21.9312 0.277588C19.684 0.277588 17.8623 2.0724 17.8623 4.28642C17.8623 6.50044 19.684 8.29525 21.9312 8.29525Z" fill="#FD5454"/>
</svg>
