<svg width="68" height="69" viewBox="0 0 68 69" fill="none" xmlns="http://www.w3.org/2000/svg">
<path d="M34 0.934082C35.1272 0.934082 36.2082 1.38185 37.0052 2.17888C37.8022 2.97591 38.25 4.05691 38.25 5.18408V30.6841H63.75C64.8772 30.6841 65.9582 31.1318 66.7552 31.9289C67.5522 32.7259 68 33.8069 68 34.9341C68 36.0613 67.5522 37.1423 66.7552 37.9393C65.9582 38.7363 64.8772 39.1841 63.75 39.1841H38.25V64.6841C38.25 65.8112 37.8022 66.8923 37.0052 67.6893C36.2082 68.4863 35.1272 68.9341 34 68.9341C32.8728 68.9341 31.7918 68.4863 30.9948 67.6893C30.1978 66.8923 29.75 65.8112 29.75 64.6841V39.1841H4.25C3.12283 39.1841 2.04183 38.7363 1.2448 37.9393C0.447767 37.1423 0 36.0613 0 34.9341C0 33.8069 0.447767 32.7259 1.2448 31.9289C2.04183 31.1318 3.12283 30.6841 4.25 30.6841H29.75V5.18408C29.75 4.05691 30.1978 2.97591 30.9948 2.17888C31.7918 1.38185 32.8728 0.934082 34 0.934082Z" fill="#FBF9F8"/>
</svg>
