<svg width="68" height="68" viewBox="0 0 68 68" fill="none" xmlns="http://www.w3.org/2000/svg">
<path d="M34 0C35.1272 0 36.2082 0.447767 37.0052 1.2448C37.8022 2.04183 38.25 3.12283 38.25 4.25V29.75H63.75C64.8772 29.75 65.9582 30.1978 66.7552 30.9948C67.5522 31.7918 68 32.8728 68 34C68 35.1272 67.5522 36.2082 66.7552 37.0052C65.9582 37.8022 64.8772 38.25 63.75 38.25H38.25V63.75C38.25 64.8772 37.8022 65.9582 37.0052 66.7552C36.2082 67.5522 35.1272 68 34 68C32.8728 68 31.7918 67.5522 30.9948 66.7552C30.1978 65.9582 29.75 64.8772 29.75 63.75V38.25H4.25C3.12283 38.25 2.04183 37.8022 1.2448 37.0052C0.447767 36.2082 0 35.1272 0 34C0 32.8728 0.447767 31.7918 1.2448 30.9948C2.04183 30.1978 3.12283 29.75 4.25 29.75H29.75V4.25C29.75 3.12283 30.1978 2.04183 30.9948 1.2448C31.7918 0.447767 32.8728 0 34 0Z" fill="#4F4F4F"/>
</svg>
