<svg width="150" height="150" viewBox="0 0 150 150" fill="none" xmlns="http://www.w3.org/2000/svg">
<path fill-rule="evenodd" clip-rule="evenodd" d="M139.966 74.9659C139.966 110.837 110.895 139.916 75.0365 139.916C39.1776 139.916 10.1074 110.837 10.1074 74.9659C10.1074 39.0941 39.1776 10.0154 75.0365 10.0154C110.895 10.0154 139.966 39.0941 139.966 74.9659Z" fill="#ADC6FF"/>
<mask id="mask0" mask-type="alpha" maskUnits="userSpaceOnUse" x="10" y="10" width="130" height="130">
<path d="M75.0365 10.0132C39.1776 10.0132 10.1074 39.093 10.1074 74.9638C10.1074 110.835 39.1776 139.915 75.0365 139.915C110.896 139.915 139.966 110.835 139.966 74.9638" fill="white"/>
</mask>
<g mask="url(#mask0)">
<path fill-rule="evenodd" clip-rule="evenodd" d="M68.1166 109.787L81.6231 109.895C81.6231 109.895 97.1544 124.736 74.1078 145.92C74.1078 145.92 51.4803 123.295 68.1166 109.787Z" fill="#FF7946"/>
</g>
<mask id="mask1" mask-type="alpha" maskUnits="userSpaceOnUse" x="10" y="10" width="130" height="130">
<path d="M75.0365 10.0132C39.1776 10.0132 10.1074 39.093 10.1074 74.9638C10.1074 110.835 39.1776 139.915 75.0365 139.915C110.896 139.915 139.966 110.835 139.966 74.9638" fill="white"/>
</mask>
<g mask="url(#mask1)">
<path fill-rule="evenodd" clip-rule="evenodd" d="M85.9617 112.845H62.2189C61.1777 112.845 60.4156 111.863 60.6738 110.854L63.7776 98.7294H84.402L87.5068 110.854C87.765 111.863 87.0029 112.845 85.9617 112.845Z" fill="#253369"/>
</g>
<path fill-rule="evenodd" clip-rule="evenodd" d="M46.4472 97.6694L74.0894 54.7107L101.734 97.6694C102.892 99.4712 101.6 101.841 99.4578 101.841H48.723C46.581 101.841 45.2879 99.4712 46.4472 97.6694Z" fill="#597EF7"/>
<path fill-rule="evenodd" clip-rule="evenodd" d="M74.0204 21.0152C74.0162 21.0141 74.012 21.011 74.012 21.011V21.0194C73.4789 21.286 58.3625 32.7943 58.3625 40.5694C58.3625 57.0752 58.5016 101.841 58.5016 101.841H89.8172C89.8172 101.841 89.6782 57.0752 89.6782 40.5694C89.6782 32.7943 74.0235 21.0141 74.0204 21.0152Z" fill="white"/>
<mask id="mask2" mask-type="alpha" maskUnits="userSpaceOnUse" x="10" y="10" width="130" height="130">
<path d="M75.0365 10.0132C39.1776 10.0132 10.1074 39.093 10.1074 74.9638C10.1074 110.835 39.1776 139.915 75.0365 139.915C110.896 139.915 139.966 110.835 139.966 74.9638" fill="white"/>
</mask>
<g mask="url(#mask2)">
<path fill-rule="evenodd" clip-rule="evenodd" d="M78.984 42.8847C81.6873 45.589 81.6873 49.9727 78.984 52.677C76.2816 55.3802 71.8994 55.3802 69.196 52.677C66.4926 49.9727 66.4926 45.589 69.196 42.8847C71.8994 40.1805 76.2816 40.1805 78.984 42.8847Z" fill="#253369"/>
</g>
<mask id="mask3" mask-type="alpha" maskUnits="userSpaceOnUse" x="10" y="10" width="130" height="130">
<path d="M75.0365 10.0132C39.1776 10.0132 10.1074 39.093 10.1074 74.9638C10.1074 110.835 39.1776 139.915 75.0365 139.915C110.896 139.915 139.966 110.835 139.966 74.9638" fill="white"/>
</mask>
<g mask="url(#mask3)">
<path fill-rule="evenodd" clip-rule="evenodd" d="M68.5036 142.262C68.5036 151.292 61.1859 158.612 52.159 158.612C43.1321 158.612 35.8143 151.292 35.8143 142.262C35.8143 133.232 43.1321 125.912 52.159 125.912C61.1859 125.912 68.5036 133.232 68.5036 142.262Z" fill="#E4EBF7"/>
</g>
<mask id="mask4" mask-type="alpha" maskUnits="userSpaceOnUse" x="10" y="10" width="130" height="130">
<path d="M75.0365 10.0132C39.1776 10.0132 10.1074 39.093 10.1074 74.9638C10.1074 110.835 39.1776 139.915 75.0365 139.915C110.896 139.915 139.966 110.835 139.966 74.9638" fill="white"/>
</mask>
<g mask="url(#mask4)">
<path fill-rule="evenodd" clip-rule="evenodd" d="M90.8731 146.973C90.8731 156.003 83.5554 163.323 74.5285 163.323C65.5016 163.323 58.1838 156.003 58.1838 146.973C58.1838 137.943 65.5016 130.623 74.5285 130.623C83.5554 130.623 90.8731 137.943 90.8731 146.973Z" fill="#E4EBF7"/>
</g>
<mask id="mask5" mask-type="alpha" maskUnits="userSpaceOnUse" x="10" y="10" width="130" height="130">
<path d="M75.0365 10.0132C39.1776 10.0132 10.1074 39.093 10.1074 74.9638C10.1074 110.835 39.1776 139.915 75.0365 139.915C110.896 139.915 139.966 110.835 139.966 74.9638" fill="white"/>
</mask>
<g mask="url(#mask5)">
<path fill-rule="evenodd" clip-rule="evenodd" d="M140.134 117.093C140.134 127.334 131.836 135.635 121.599 135.635C111.362 135.635 103.062 127.334 103.062 117.093C103.062 106.853 111.362 98.5511 121.599 98.5511C131.836 98.5511 140.134 106.853 140.134 117.093Z" fill="#E4EBF7"/>
</g>
<mask id="mask6" mask-type="alpha" maskUnits="userSpaceOnUse" x="10" y="10" width="130" height="130">
<path d="M75.0365 10.0132C39.1776 10.0132 10.1074 39.093 10.1074 74.9638C10.1074 110.835 39.1776 139.915 75.0365 139.915C110.896 139.915 139.966 110.835 139.966 74.9638" fill="white"/>
</mask>
<g mask="url(#mask6)">
<path fill-rule="evenodd" clip-rule="evenodd" d="M119.986 67.3095C119.986 71.369 116.696 74.6599 112.637 74.6599C108.578 74.6599 105.288 71.369 105.288 67.3095C105.288 63.2489 108.578 59.959 112.637 59.959C116.696 59.959 119.986 63.2489 119.986 67.3095Z" fill="white"/>
</g>
<mask id="mask7" mask-type="alpha" maskUnits="userSpaceOnUse" x="10" y="10" width="130" height="130">
<path d="M75.0365 10.0132C39.1776 10.0132 10.1074 39.093 10.1074 74.9638C10.1074 110.835 39.1776 139.915 75.0365 139.915C110.896 139.915 139.966 110.835 139.966 74.9638" fill="white"/>
</mask>
<g mask="url(#mask7)">
<path fill-rule="evenodd" clip-rule="evenodd" d="M33.0206 80.5374C33.0206 82.8307 31.1619 84.691 28.8683 84.691C26.5758 84.691 24.7181 82.8307 24.7181 80.5374C24.7181 78.2441 26.5758 76.3837 28.8683 76.3837C31.1619 76.3837 33.0206 78.2441 33.0206 80.5374Z" fill="#F1F2F6"/>
</g>
<mask id="mask8" mask-type="alpha" maskUnits="userSpaceOnUse" x="10" y="10" width="130" height="130">
<path d="M75.0365 10.0132C39.1776 10.0132 10.1074 39.093 10.1074 74.9638C10.1074 110.835 39.1776 139.915 75.0365 139.915C110.896 139.915 139.966 110.835 139.966 74.9638" fill="white"/>
</mask>
<g mask="url(#mask8)">
<path fill-rule="evenodd" clip-rule="evenodd" d="M49.904 122.914C49.904 133.36 41.4374 141.829 30.9939 141.829C20.5516 141.829 12.085 133.36 12.085 122.914C12.085 112.468 20.5516 103.999 30.9939 103.999C41.4374 103.999 49.904 112.468 49.904 122.914Z" fill="#E4EBF7"/>
</g>
<mask id="mask9" mask-type="alpha" maskUnits="userSpaceOnUse" x="10" y="10" width="130" height="130">
<path d="M75.0365 10.0132C39.1776 10.0132 10.1074 39.093 10.1074 74.9638C10.1074 110.835 39.1776 139.915 75.0365 139.915C110.896 139.915 139.966 110.835 139.966 74.9638" fill="white"/>
</mask>
<g mask="url(#mask9)">
<path fill-rule="evenodd" clip-rule="evenodd" d="M103.173 155.962C91.8822 155.962 82.7267 146.805 82.7267 135.508C82.7267 124.212 91.8822 115.053 103.173 115.053C114.467 115.053 123.621 124.212 123.621 135.508C123.621 146.805 114.467 155.962 103.173 155.962Z" fill="#E4EBF7"/>
</g>
</svg>
