<?xml version="1.0" encoding="utf-8"?>
<!-- Generator: Adobe Illustrator 16.0.0, SVG Export Plug-In . SVG Version: 6.00 Build 0)  -->
<!DOCTYPE svg PUBLIC "-//W3C//DTD SVG 1.1//EN" "http://www.w3.org/Graphics/SVG/1.1/DTD/svg11.dtd">
<svg version="1.1" id="Layer_1" xmlns="http://www.w3.org/2000/svg" xmlns:xlink="http://www.w3.org/1999/xlink" x="0px" y="0px"
	 width="72px" height="71px" viewBox="0 0 72 71" enable-background="new 0 0 72 71" xml:space="preserve">
<circle fill="#E4E4F9" cx="36" cy="35.5" r="33.5"/>
<path fill="#F1BC19" d="M60.777,2.869c0.424,0,0.768-0.344,0.768-0.768s-0.344-0.769-0.768-0.769s-0.769,0.344-0.769,0.769
	S60.354,2.869,60.777,2.869z"/>
<path fill="#F1BC19" d="M65.771,7.479c1.91,0,3.457-1.548,3.457-3.458s-1.547-3.458-3.457-3.458s-3.457,1.548-3.457,3.458
	S63.861,7.479,65.771,7.479z"/>
<path fill="#8889B9" d="M69.613,13.626c1.061,0,1.921-0.688,1.921-1.537s-0.86-1.537-1.921-1.537s-1.921,0.688-1.921,1.537
	S68.553,13.626,69.613,13.626z"/>
<path fill="#FBCD59" d="M64.234,60.498c1.062,0,1.922-0.688,1.922-1.537s-0.86-1.537-1.922-1.537c-1.061,0-1.92,0.688-1.92,1.537
	S63.174,60.498,64.234,60.498z"/>
<path fill="#FBCD59" d="M3.533,50.509c1.91,0,3.458-1.548,3.458-3.458s-1.548-3.457-3.458-3.457s-3.458,1.547-3.458,3.457
	S1.624,50.509,3.533,50.509z"/>
<path fill="#8889B9" d="M13.138,70.486c1.273,0,2.305-0.859,2.305-1.921s-1.032-1.921-2.305-1.921s-2.305,0.859-2.305,1.921
	S11.865,70.486,13.138,70.486z"/>
<path fill="#FFFFFF" d="M11.601,53.582c1.273,0,2.305-1.031,2.305-2.305s-1.032-2.306-2.305-2.306c-1.273,0-2.305,1.032-2.305,2.306
	S10.328,53.582,11.601,53.582z"/>
<path fill="#FFFFFF" d="M61.162,19.005c0.636,0,1.152-0.516,1.152-1.152c0-0.637-0.517-1.153-1.152-1.153
	c-0.637,0-1.153,0.516-1.153,1.153C60.009,18.489,60.525,19.005,61.162,19.005z"/>
<path fill="#EF9922" d="M50.178,56.652H21.432c-3.677,0-6.658-2.932-6.658-6.546V21.844c0-3.615,2.981-6.546,6.658-6.546h28.746
	c3.677,0,6.658,2.931,6.658,6.546v28.263C56.836,53.721,53.854,56.652,50.178,56.652z"/>
<path fill="#472B29" d="M50.178,57.281H21.432c-4.024,0-7.298-3.219-7.298-7.176V21.843c0-3.957,3.274-7.175,7.298-7.175h28.746
	c4.024,0,7.298,3.219,7.298,7.175v28.262C57.476,54.063,54.202,57.281,50.178,57.281z M21.432,15.927
	c-3.318,0-6.018,2.654-6.018,5.917v28.262c0,3.263,2.699,5.917,6.018,5.917h28.746c3.318,0,6.018-2.654,6.018-5.917V21.843
	c0-3.263-2.699-5.917-6.018-5.917H21.432z"/>
<path fill="#472B29" d="M17.975,27.135c-0.252,0-0.457-0.201-0.457-0.449V22.79c0-2.644,2.188-4.794,4.876-4.794h12.801
	c0.252,0,0.457,0.201,0.457,0.45c0,0.248-0.205,0.449-0.457,0.449H22.394c-2.186,0-3.962,1.748-3.962,3.896v3.896
	C18.432,26.934,18.227,27.135,17.975,27.135z"/>
<path fill="#472B29" d="M28.109,53.955h-5.715c-2.688,0-4.876-2.151-4.876-4.795V30.88c0-0.249,0.205-0.45,0.457-0.45
	s0.458,0.201,0.458,0.45v18.28c0,2.146,1.777,3.895,3.962,3.895h5.715c0.252,0,0.457,0.201,0.457,0.449S28.362,53.955,28.109,53.955
	z"/>
<path fill="#472B29" d="M49.216,53.955H31.157c-0.252,0-0.458-0.201-0.458-0.449s0.205-0.449,0.458-0.449h18.059
	c2.185,0,3.962-1.748,3.962-3.896v-4.568c0-0.249,0.205-0.45,0.457-0.45s0.457,0.201,0.457,0.45v4.568
	C54.092,51.804,51.904,53.955,49.216,53.955z"/>
<path fill="#FFFFFF" stroke="#472B29" stroke-width="0.1921" stroke-linecap="round" stroke-linejoin="round" stroke-miterlimit="10" d="
	M24.672,41.433c0-0.063,0-0.125,0.021-0.188l4.224-13.52c0.17-0.501,0.784-0.75,1.422-0.75c0.637,0,1.273,0.25,1.443,0.75
	l4.202,13.52c0.021,0.063,0.042,0.125,0.042,0.188c0,0.521-0.785,0.918-1.422,0.918c-0.361,0-0.657-0.125-0.763-0.458l-0.871-2.964
	h-5.241l-0.871,2.964c-0.106,0.333-0.403,0.458-0.784,0.458C25.458,42.351,24.672,41.976,24.672,41.433z M32.461,37.155
	l-2.122-7.156l-2.123,7.156H32.461z"/>
<path fill="#FFFFFF" stroke="#472B29" stroke-width="0.1921" stroke-linecap="round" stroke-linejoin="round" stroke-miterlimit="10" d="
	M39.701,41.62c0,0.354-0.531,0.729-1.125,0.729c-0.658,0-1.104-0.375-1.104-0.729v-8.45c0-0.417,0.445-0.709,1.104-0.709
	c0.553,0,0.998,0.292,0.998,0.709v0.75c0.424-0.813,1.422-1.586,2.844-1.586c1.994,0,3.691,1.857,3.691,4.11v5.175
	c0,0.479-0.551,0.729-1.125,0.729c-0.509,0-1.104-0.25-1.104-0.729v-5.175c0-1.085-0.954-2.17-2.143-2.17
	c-1.019,0-2.037,0.813-2.037,2.17V41.62z"/>
<path fill="#472B29" d="M53.635,41.52c-0.252,0-0.457-0.201-0.457-0.45v-18.28c0-2.147-1.777-3.895-3.962-3.895h-2.515
	c-0.252,0-0.457-0.202-0.457-0.45s0.205-0.449,0.457-0.449h2.515c2.688,0,4.876,2.151,4.876,4.794v18.279
	C54.092,41.318,53.887,41.52,53.635,41.52z"/>
<path fill="#472B29" d="M43.577,18.894h-5.715c-0.253,0-0.458-0.202-0.458-0.45s0.205-0.449,0.458-0.449h5.715
	c0.253,0,0.457,0.201,0.457,0.449S43.83,18.894,43.577,18.894z"/>
</svg>
